<?xml version="1.0" encoding="UTF-8"?>
<!DOCTYPE svg PUBLIC "-//W3C//DTD SVG 1.1//EN" "http://www.w3.org/Graphics/SVG/1.1/DTD/svg11.dtd">
<!-- Creator: CorelDRAW 2021 (64-Bit) -->
<svg xmlns="http://www.w3.org/2000/svg" xml:space="preserve" width="10mm" height="10.0002mm" version="1.1" style="shape-rendering:geometricPrecision; text-rendering:geometricPrecision; image-rendering:optimizeQuality; fill-rule:evenodd; clip-rule:evenodd"
viewBox="0 0 23.54 23.54"
 xmlns:xlink="http://www.w3.org/1999/xlink"
 xmlns:xodm="http://www.corel.com/coreldraw/odm/2003">
 <defs>
  <style type="text/css">
   <![CDATA[
    .fil0 {fill:#00A0E3}
   ]]>
  </style>
 </defs>
 <g id="Слой_x0020_1">
  <metadata id="CorelCorpID_0Corel-Layer"/>
  <path class="fil0" d="M11.77 -0c6.5,0 11.77,5.27 11.77,11.77 0,6.5 -5.27,11.77 -11.77,11.77 -6.5,0 -11.77,-5.27 -11.77,-11.77 0,-6.5 5.27,-11.77 11.77,-11.77zm-3.11 15.87c-0.28,-0.09 -0.17,-0.01 -0.36,-0.69 -0.79,-2.97 -1.26,-2.25 1.77,-4.09l3.73 -2.3c0.35,-0.22 1.01,-0.73 1.25,-0.61 0.02,0.21 -1.45,1.47 -1.75,1.74l-3.65 3.4c-1.19,1.01 -0.39,2.13 -1,2.56zm-5.56 -4.66l0 0.27c0.44,0.42 1.35,0.65 1.98,0.88 0.35,0.13 0.69,0.26 1.04,0.39 0.19,0.07 0.38,0.13 0.55,0.2 0.29,0.12 0.23,0.08 0.33,0.41 0.22,0.75 0.45,1.43 0.67,2.18 0.32,1.07 0.52,2.66 1.34,2 0.31,-0.26 1.79,-1.52 2,-1.6 0.45,-0.16 0.77,0.2 1.03,0.39 0.59,0.41 1.09,0.81 1.68,1.23l1.26 0.91c0.84,0.63 0.88,-0.65 1.02,-1.33l2.36 -11.24 0 -0.25c-0.38,-0.52 -0.68,-0.21 -1.91,0.27 -0.64,0.25 -1.26,0.49 -1.91,0.74 -1.31,0.5 -2.56,1 -3.87,1.49l-6.75 2.6c-0.42,0.16 -0.57,0.15 -0.81,0.46z"/>
 </g>
</svg>
