<?xml version="1.0" encoding="UTF-8"?>
<!DOCTYPE svg PUBLIC "-//W3C//DTD SVG 1.1//EN" "http://www.w3.org/Graphics/SVG/1.1/DTD/svg11.dtd">
<!-- Creator: CorelDRAW 2021 (64-Bit) -->
<svg xmlns="http://www.w3.org/2000/svg" xml:space="preserve" width="5mm" height="5.0001mm" version="1.1" style="shape-rendering:geometricPrecision; text-rendering:geometricPrecision; image-rendering:optimizeQuality; fill-rule:evenodd; clip-rule:evenodd"
viewBox="0 0 8.72 8.72"
 xmlns:xlink="http://www.w3.org/1999/xlink"
 xmlns:xodm="http://www.corel.com/coreldraw/odm/2003">
 <defs>
  <style type="text/css">
   <![CDATA[
    .fil0 {fill:#00A0E3}
   ]]>
  </style>
 </defs>
 <g id="Layer_x0020_3">
  <metadata id="CorelCorpID_0Corel-Layer"/>
  <path class="fil0" d="M4.36 0c2.41,0 4.36,1.95 4.36,4.36 0,2.41 -1.95,4.36 -4.36,4.36 -2.41,0 -4.36,-1.95 -4.36,-4.36 0,-2.41 1.95,-4.36 4.36,-4.36zm-1.15 5.88c-0.1,-0.03 -0.06,-0.01 -0.13,-0.26 -0.29,-1.1 -0.47,-0.83 0.66,-1.52l1.38 -0.85c0.13,-0.08 0.37,-0.27 0.46,-0.23 0.01,0.08 -0.54,0.55 -0.65,0.64l-1.35 1.26c-0.44,0.37 -0.14,0.79 -0.37,0.95zm-2.06 -1.72l0 0.1c0.16,0.16 0.5,0.24 0.73,0.33 0.13,0.05 0.26,0.1 0.38,0.14 0.07,0.03 0.14,0.05 0.2,0.07 0.11,0.04 0.08,0.03 0.12,0.15 0.08,0.28 0.17,0.53 0.25,0.81 0.12,0.4 0.19,0.99 0.5,0.74 0.12,-0.09 0.66,-0.56 0.74,-0.59 0.17,-0.06 0.28,0.08 0.38,0.14 0.22,0.15 0.41,0.3 0.62,0.46l0.47 0.34c0.31,0.23 0.33,-0.24 0.38,-0.49l0.87 -4.16 0 -0.09c-0.14,-0.19 -0.25,-0.08 -0.71,0.1 -0.24,0.09 -0.47,0.18 -0.71,0.27 -0.48,0.19 -0.95,0.37 -1.43,0.55l-2.5 0.96c-0.15,0.06 -0.21,0.05 -0.3,0.17z"/>
 </g>
</svg>
