<?xml version="1.0" encoding="UTF-8"?>
<!DOCTYPE svg PUBLIC "-//W3C//DTD SVG 1.1//EN" "http://www.w3.org/Graphics/SVG/1.1/DTD/svg11.dtd">
<!-- Creator: CorelDRAW 2021 (64-Bit) -->
<svg xmlns="http://www.w3.org/2000/svg" xml:space="preserve" width="25mm" height="24.9999mm" version="1.1" style="shape-rendering:geometricPrecision; text-rendering:geometricPrecision; image-rendering:optimizeQuality; fill-rule:evenodd; clip-rule:evenodd"
viewBox="0 0 469.5 469.5"
 xmlns:xlink="http://www.w3.org/1999/xlink"
 xmlns:xodm="http://www.corel.com/coreldraw/odm/2003">
 <defs>
  <style type="text/css">
   <![CDATA[
    .fil0 {fill:#330000}
    .fil1 {fill:#FF9A00;fill-rule:nonzero}
   ]]>
  </style>
 </defs>
 <g id="Layer_x0020_1">
  <metadata id="CorelCorpID_0Corel-Layer"/>
  <g id="_2818761902528">
   <rect class="fil0" x="0" y="-0" width="469.5" height="469.5" rx="93.9" ry="93.9"/>
   <path class="fil1" d="M234.85 296.08l-72.77 0 -14.87 45.97c-0.39,1.76 -1.96,2.93 -3.72,2.74l-36.78 0c-2.15,0 -2.74,-1.17 -2.15,-3.52l62.99 -181.35c0.59,-1.96 1.17,-4.11 1.96,-6.45 0.78,-4.11 1.17,-8.41 1.17,-12.72 -0.2,-0.98 0.59,-1.96 1.56,-2.15l50.67 0c1.56,0 2.35,0.59 2.54,1.57l71.4 201.49c0.59,2.15 0,3.13 -1.96,3.13l-40.89 0c-1.37,0.2 -2.74,-0.78 -3.13,-2.15l-16.04 -46.56zm-61.43 -39.71l49.69 0c-1.17,-4.11 -2.74,-9 -4.5,-14.09 -1.76,-5.28 -3.52,-10.96 -5.28,-16.83 -1.96,-6.06 -3.72,-11.93 -5.67,-18 -1.96,-6.06 -3.72,-11.74 -5.28,-17.41 -1.57,-5.48 -2.94,-10.56 -4.3,-15.26l-0.39 0c-1.76,8.41 -3.91,16.82 -6.65,25.24 -2.94,9.39 -5.87,19.17 -9,28.95 -2.74,9.98 -5.67,19.17 -8.61,27.39zm167.06 -83.53c-6.45,0.2 -12.71,-2.35 -17.41,-6.85 -4.5,-4.89 -6.85,-11.35 -6.65,-18 -0.2,-6.65 2.35,-12.91 7.04,-17.41 4.7,-4.5 10.95,-6.85 17.41,-6.85 7.63,0 13.5,2.35 17.8,6.85 4.3,4.7 6.65,10.96 6.45,17.41 0.2,6.65 -2.15,13.11 -6.85,18 -4.5,4.7 -11.15,7.24 -17.8,6.85zm-21.91 169.8l0 -150.63c0,-1.96 0.78,-2.74 2.54,-2.74l38.73 0c1.76,0 2.54,0.98 2.54,2.74l0 150.63c0,2.15 -0.78,3.13 -2.54,3.13l-38.34 0c-1.96,0 -2.93,-1.17 -2.93,-3.13z"/>
  </g>
 </g>
</svg>
