<?xml version="1.0" encoding="UTF-8"?>
<!DOCTYPE svg PUBLIC "-//W3C//DTD SVG 1.1//EN" "http://www.w3.org/Graphics/SVG/1.1/DTD/svg11.dtd">
<!-- Creator: CorelDRAW 2021 (64-Bit) -->
<svg xmlns="http://www.w3.org/2000/svg" xml:space="preserve" width="40mm" height="40mm" version="1.1" style="shape-rendering:geometricPrecision; text-rendering:geometricPrecision; image-rendering:optimizeQuality; fill-rule:evenodd; clip-rule:evenodd"
viewBox="0 0 886.81 886.81"
 xmlns:xlink="http://www.w3.org/1999/xlink"
 xmlns:xodm="http://www.corel.com/coreldraw/odm/2003">
 <defs>
  <style type="text/css">
   <![CDATA[
    .fil0 {fill:#001E36}
    .fil1 {fill:#31A8FF;fill-rule:nonzero}
   ]]>
  </style>
 </defs>
 <g id="Layer_x0020_1">
  <metadata id="CorelCorpID_0Corel-Layer"/>
  <g id="_2838760821456">
   <rect class="fil0" width="886.81" height="886.81" rx="110.85" ry="110.85"/>
   <g>
    <path class="fil1" d="M257.32 317.12l0 123.99c5.15,0.4 9.91,0.59 14.28,0.59l19.63 0c14.45,-0.05 28.8,-2.34 42.54,-6.79 11.79,-3.5 22.32,-10.32 30.34,-19.63 7.74,-9.12 11.6,-21.81 11.6,-38.07 0.31,-11.51 -2.68,-22.87 -8.63,-32.72 -6.25,-9.53 -15.29,-16.9 -25.87,-21.12 -13.83,-5.37 -28.6,-7.9 -43.43,-7.43 -9.52,0 -17.95,0.1 -25.29,0.29 -7.34,0.21 -12.4,0.5 -15.17,0.89zm-80.35 312.92l0 -380.14c0,-2.77 1.19,-4.17 3.57,-4.17 6.34,0 12.12,-0.09 20.85,-0.3 8.72,-0.2 18.14,-0.39 28.26,-0.59 10.11,-0.2 20.82,-0.39 32.13,-0.6 11.3,-0.19 22.5,-0.29 33.61,-0.29 30.13,0 55.52,3.76 76.15,11.3 18.61,6.29 35.58,16.66 49.67,30.34 11.95,11.86 21.19,26.17 27.07,41.94 5.56,15.35 8.38,31.56 8.33,47.89 0,31.73 -7.34,57.91 -22.01,78.53 -14.77,20.7 -35.54,36.38 -59.49,44.91 -24.99,9.32 -52.75,12.49 -83.29,12.49 -8.73,0 -14.88,-0.1 -18.44,-0.3 -3.57,-0.2 -8.92,-0.29 -16.06,-0.3l0 118.69c0.37,2.59 -1.43,4.98 -4.02,5.35 -0.44,0.06 -0.89,0.06 -1.34,0l-70.83 0c-2.78,0 -4.16,-1.58 -4.16,-4.76z"/>
    <path class="fil1" d="M686.62 418.57c-11.18,-5.75 -23.09,-9.95 -35.39,-12.49 -13.57,-3.11 -27.43,-4.71 -41.35,-4.76 -7.53,-0.21 -15.04,0.7 -22.31,2.68 -4.62,1.03 -8.73,3.66 -11.6,7.44 -1.94,3.02 -2.97,6.52 -2.98,10.11 0.11,3.48 1.36,6.82 3.57,9.52 3.48,4.06 7.72,7.4 12.49,9.81 8.48,4.56 17.22,8.64 26.18,12.2 19.97,6.68 39.04,15.77 56.81,27.07 12.1,7.64 22.12,18.17 29.15,30.64 5.91,11.81 8.87,24.87 8.63,38.07 0.36,17.43 -4.62,34.56 -14.27,49.08 -10.34,14.74 -24.69,26.21 -41.35,33.02 -18.05,7.93 -40.36,11.89 -66.93,11.9 -16.88,0.17 -33.73,-1.42 -50.27,-4.76 -13.04,-2.39 -25.72,-6.39 -37.78,-11.9 -2.66,-1.37 -4.28,-4.15 -4.16,-7.14l0 -64.25c-0.14,-1.29 0.43,-2.54 1.49,-3.27 1.04,-0.59 2.35,-0.47 3.27,0.29 14.23,8.39 29.69,14.52 45.81,18.15 14.21,3.56 28.78,5.45 43.43,5.65 13.88,0 24.09,-1.78 30.64,-5.35 6.04,-2.76 9.88,-8.83 9.81,-15.47 0,-5.15 -2.97,-10.11 -8.92,-14.87 -5.95,-4.76 -18.05,-10.51 -36.29,-17.25 -18.68,-6.5 -36.39,-15.5 -52.65,-26.77 -11.63,-8.09 -21.2,-18.78 -27.96,-31.23 -5.85,-11.73 -8.81,-24.68 -8.63,-37.78 -0.03,-15.74 4.29,-31.18 12.49,-44.62 9.35,-14.8 22.78,-26.57 38.67,-33.91 17.45,-8.72 39.26,-13.08 65.44,-13.09 15.33,-0.12 30.65,0.97 45.8,3.27 10.98,1.39 21.71,4.3 31.89,8.63 1.64,0.47 2.96,1.68 3.57,3.27 0.4,1.45 0.6,2.96 0.6,4.46l0 60.09c0.08,1.42 -0.6,2.78 -1.78,3.57 -1.61,0.8 -3.51,0.8 -5.12,0z"/>
   </g>
  </g>
 </g>
</svg>
