<?xml version="1.0" encoding="UTF-8"?>
<!DOCTYPE svg PUBLIC "-//W3C//DTD SVG 1.1//EN" "http://www.w3.org/Graphics/SVG/1.1/DTD/svg11.dtd">
<!-- Creator: CorelDRAW 2021 (64-Bit) -->
<svg xmlns="http://www.w3.org/2000/svg" xml:space="preserve" width="40mm" height="40mm" version="1.1" style="shape-rendering:geometricPrecision; text-rendering:geometricPrecision; image-rendering:optimizeQuality; fill-rule:evenodd; clip-rule:evenodd"
viewBox="0 0 12909.89 12909.89"
 xmlns:xlink="http://www.w3.org/1999/xlink"
 xmlns:xodm="http://www.corel.com/coreldraw/odm/2003">
 <defs>
  <style type="text/css">
   <![CDATA[
    .fil0 {fill:#49021F}
    .fil1 {fill:#FF3366;fill-rule:nonzero}
   ]]>
  </style>
 </defs>
 <g id="Layer_x0020_1">
  <metadata id="CorelCorpID_0Corel-Layer"/>
  <rect class="fil0" width="12909.89" height="12909.89" rx="1613.74" ry="1613.74"/>
 </g>
 <g id="Layer_x0020_1_0">
  <metadata id="CorelCorpID_1Corel-Layer"/>
  <g id="vlpa">
   <g id="vlpb">
    <path class="fil1" d="M4620.68 3875.97l0 5540.5c0,59.16 -26.88,86.04 -75.3,86.04l-1054.32 0c-48.41,0 -69.91,-26.88 -69.91,-86.04l0 -5540.5c0,-48.41 26.88,-69.94 75.3,-69.94l1048.93 0c32.27,-5.36 64.55,16.14 69.94,53.8 5.36,5.39 5.36,10.75 5.36,16.14z"/>
    <path class="fil1" d="M7729.83 9567.07c-398.08,5.39 -796.12,-75.3 -1156.53,-242.06 -338.88,-155.98 -618.58,-414.18 -812.23,-731.54 -199.04,-328.14 -295.86,-736.96 -295.86,-1226.44 -5.39,-398.08 96.82,-790.73 295.86,-1135.01 204.4,-349.63 500.26,-640.1 855.28,-833.75 376.52,-209.79 828.36,-312 1360.9,-312 26.92,0 64.55,0 112.96,5.39 48.41,5.36 102.21,5.36 166.76,10.75l0 -1699.81c0,-37.63 16.14,-59.16 53.8,-59.16l1091.95 0c26.88,-5.39 48.41,16.14 53.8,37.66l0 10.75 0 5120.93c0,96.82 5.36,204.4 10.75,322.75 10.75,112.96 16.14,220.53 21.53,311.97 0,37.66 -16.14,69.94 -53.8,86.08 -279.73,118.35 -575.56,204.4 -876.81,258.2 -268.95,48.41 -548.67,75.3 -828.36,75.3zm527.14 -1075.81l0 -2366.8c-48.41,-10.78 -96.82,-21.53 -145.24,-26.92 -59.16,-5.36 -118.35,-10.75 -177.51,-10.75 -209.79,0 -419.57,43.02 -607.83,139.85 -182.9,91.47 -338.88,225.92 -457.24,398.08 -118.35,172.12 -177.51,403.43 -177.51,683.13 -5.39,188.29 26.88,376.55 91.43,554.06 53.8,145.24 134.49,274.34 242.06,381.91 102.21,96.82 225.92,172.15 365.8,215.18 145.24,48.41 295.83,69.94 446.46,69.94 80.69,0 155.98,-5.39 225.92,-10.78 69.94,5.39 134.49,-5.36 193.65,-26.88z"/>
   </g>
  </g>
 </g>
</svg>
