<?xml version="1.0" encoding="UTF-8"?>
<!DOCTYPE svg PUBLIC "-//W3C//DTD SVG 1.1//EN" "http://www.w3.org/Graphics/SVG/1.1/DTD/svg11.dtd">
<!-- Creator: CorelDRAW 2021 (64-Bit) -->
<svg xmlns="http://www.w3.org/2000/svg" xml:space="preserve" width="25mm" height="24.9999mm" version="1.1" style="shape-rendering:geometricPrecision; text-rendering:geometricPrecision; image-rendering:optimizeQuality; fill-rule:evenodd; clip-rule:evenodd"
viewBox="0 0 321.71 321.71"
 xmlns:xlink="http://www.w3.org/1999/xlink"
 xmlns:xodm="http://www.corel.com/coreldraw/odm/2003">
 <defs>
  <style type="text/css">
   <![CDATA[
    .fil0 {fill:#001E36}
    .fil1 {fill:#31A8FF;fill-rule:nonzero}
   ]]>
  </style>
 </defs>
 <g id="Layer_x0020_1">
  <metadata id="CorelCorpID_0Corel-Layer"/>
  <g id="_2818760128768">
   <rect class="fil0" x="0" y="-0" width="321.71" height="321.71" rx="64.34" ry="64.34"/>
   <g>
    <path class="fil1" d="M93.35 115.04l0 44.98c1.87,0.15 3.6,0.22 5.18,0.22l7.12 0c5.24,-0.02 10.45,-0.85 15.43,-2.46 4.28,-1.27 8.1,-3.74 11.01,-7.12 2.81,-3.31 4.21,-7.91 4.21,-13.81 0.11,-4.18 -0.97,-8.29 -3.13,-11.87 -2.27,-3.46 -5.54,-6.13 -9.39,-7.66 -5.02,-1.95 -10.37,-2.87 -15.75,-2.7 -3.45,0 -6.51,0.04 -9.17,0.11 -2.66,0.08 -4.5,0.18 -5.5,0.32zm-29.15 113.52l0 -137.91c0,-1.01 0.43,-1.51 1.3,-1.51 2.3,0 4.4,-0.03 7.57,-0.11 3.16,-0.07 6.58,-0.14 10.25,-0.22 3.67,-0.07 7.55,-0.14 11.66,-0.21 4.1,-0.07 8.16,-0.11 12.19,-0.11 10.93,0 20.14,1.37 27.62,4.1 6.75,2.28 12.91,6.04 18.02,11.01 4.34,4.3 7.68,9.49 9.82,15.21 2.02,5.57 3.04,11.45 3.02,17.37 0,11.51 -2.66,21.01 -7.98,28.49 -5.36,7.51 -12.89,13.2 -21.58,16.29 -9.06,3.38 -19.14,4.53 -30.21,4.53 -3.17,0 -5.4,-0.04 -6.69,-0.11 -1.29,-0.07 -3.24,-0.11 -5.83,-0.11l0 43.06c0.14,0.94 -0.52,1.81 -1.46,1.94 -0.16,0.02 -0.32,0.02 -0.49,0l-25.7 0c-1.01,0 -1.51,-0.57 -1.51,-1.73z"/>
    <path class="fil1" d="M249.09 151.84c-4.05,-2.08 -8.37,-3.61 -12.84,-4.53 -4.92,-1.13 -9.95,-1.71 -15,-1.73 -2.73,-0.07 -5.46,0.25 -8.09,0.97 -1.68,0.37 -3.17,1.33 -4.21,2.7 -0.7,1.09 -1.08,2.37 -1.08,3.67 0.04,1.26 0.49,2.48 1.29,3.45 1.26,1.47 2.8,2.68 4.53,3.56 3.08,1.66 6.25,3.13 9.5,4.43 7.24,2.42 14.16,5.72 20.61,9.82 4.39,2.77 8.02,6.59 10.57,11.12 2.15,4.28 3.22,9.02 3.13,13.81 0.13,6.32 -1.68,12.54 -5.18,17.8 -3.75,5.35 -8.96,9.51 -15,11.98 -6.55,2.88 -14.64,4.31 -24.28,4.32 -6.12,0.06 -12.24,-0.52 -18.24,-1.73 -4.73,-0.87 -9.33,-2.32 -13.7,-4.32 -0.96,-0.5 -1.55,-1.51 -1.51,-2.59l0 -23.31c-0.05,-0.47 0.15,-0.92 0.54,-1.19 0.38,-0.21 0.85,-0.17 1.19,0.11 5.16,3.04 10.77,5.27 16.62,6.58 5.15,1.29 10.44,1.98 15.75,2.05 5.03,0 8.74,-0.65 11.11,-1.94 2.19,-1 3.59,-3.2 3.56,-5.61 0,-1.87 -1.08,-3.67 -3.24,-5.4 -2.16,-1.73 -6.55,-3.81 -13.16,-6.26 -6.78,-2.36 -13.2,-5.62 -19.1,-9.71 -4.22,-2.93 -7.69,-6.81 -10.14,-11.33 -2.12,-4.25 -3.2,-8.95 -3.13,-13.7 -0.01,-5.71 1.56,-11.31 4.53,-16.19 3.39,-5.37 8.26,-9.64 14.03,-12.3 6.33,-3.16 14.24,-4.75 23.74,-4.75 5.56,-0.05 11.12,0.35 16.62,1.19 3.98,0.5 7.88,1.56 11.57,3.13 0.59,0.17 1.07,0.61 1.29,1.19 0.15,0.53 0.22,1.07 0.22,1.62l0 21.8c0.03,0.52 -0.22,1.01 -0.65,1.29 -0.58,0.29 -1.27,0.29 -1.86,0z"/>
   </g>
  </g>
 </g>
</svg>
