<?xml version="1.0" encoding="UTF-8"?>
<!DOCTYPE svg PUBLIC "-//W3C//DTD SVG 1.1//EN" "http://www.w3.org/Graphics/SVG/1.1/DTD/svg11.dtd">
<!-- Creator: CorelDRAW 2021 (64-Bit) -->
<svg xmlns="http://www.w3.org/2000/svg" xml:space="preserve" width="40mm" height="40mm" version="1.1" style="shape-rendering:geometricPrecision; text-rendering:geometricPrecision; image-rendering:optimizeQuality; fill-rule:evenodd; clip-rule:evenodd"
viewBox="0 0 1935.19 1935.19"
 xmlns:xlink="http://www.w3.org/1999/xlink"
 xmlns:xodm="http://www.corel.com/coreldraw/odm/2003">
 <defs>
  <style type="text/css">
   <![CDATA[
    .fil0 {fill:#330000}
    .fil1 {fill:#FF9A00;fill-rule:nonzero}
   ]]>
  </style>
 </defs>
 <g id="Layer_x0020_1">
  <metadata id="CorelCorpID_0Corel-Layer"/>
  <rect class="fil0" width="1935.19" height="1935.19" rx="241.9" ry="241.9"/>
  <path class="fil1" d="M968.01 1220.38l-299.95 0 -61.28 189.48c-1.62,7.26 -8.06,12.09 -15.32,11.29l-151.59 0c-8.87,0 -11.29,-4.84 -8.87,-14.51l259.64 -747.47c2.42,-8.06 4.84,-16.93 8.06,-26.61 3.22,-16.93 4.84,-34.67 4.84,-52.41 -0.81,-4.03 2.42,-8.06 6.45,-8.87l208.84 0c6.45,0 9.68,2.42 10.48,6.45l294.31 830.52c2.42,8.87 0,12.9 -8.06,12.9l-168.52 0c-5.65,0.8 -11.29,-3.23 -12.9,-8.87l-66.12 -191.9zm-253.19 -163.69l204.81 0c-4.84,-16.93 -11.29,-37.09 -18.54,-58.06 -7.26,-21.77 -14.51,-45.15 -21.77,-69.34 -8.06,-25 -15.32,-49.19 -23.38,-74.18 -8.06,-25 -15.32,-48.38 -21.77,-71.77 -6.45,-22.57 -12.09,-43.54 -17.74,-62.89l-1.61 0c-7.26,34.67 -16.13,69.35 -27.42,104.02 -12.09,38.7 -24.19,79.02 -37.09,119.34 -11.29,41.12 -23.38,79.02 -35.48,112.88zm688.61 -344.3c-26.61,0.8 -52.41,-9.68 -71.77,-28.22 -18.54,-20.16 -28.22,-46.76 -27.41,-74.18 -0.81,-27.42 9.68,-53.22 29.03,-71.76 19.35,-18.55 45.15,-28.22 71.76,-28.22 31.45,0 55.64,9.68 73.38,28.22 17.74,19.35 27.41,45.15 26.61,71.76 0.8,27.42 -8.87,54.03 -28.22,74.18 -18.54,19.35 -45.96,29.84 -73.37,28.22zm-90.31 699.89l0 -620.87c0,-8.06 3.23,-11.29 10.48,-11.29l159.65 0c7.26,0 10.48,4.03 10.48,11.29l0 620.87c0,8.87 -3.22,12.9 -10.48,12.9l-158.04 0c-8.06,0 -12.09,-4.84 -12.09,-12.9z"/>
 </g>
</svg>
