<?xml version="1.0" encoding="UTF-8"?>
<!DOCTYPE svg PUBLIC "-//W3C//DTD SVG 1.1//EN" "http://www.w3.org/Graphics/SVG/1.1/DTD/svg11.dtd">
<!-- Creator: CorelDRAW 2021 (64-Bit) -->
<svg xmlns="http://www.w3.org/2000/svg" xml:space="preserve" width="25mm" height="24.9999mm" version="1.1" style="shape-rendering:geometricPrecision; text-rendering:geometricPrecision; image-rendering:optimizeQuality; fill-rule:evenodd; clip-rule:evenodd"
viewBox="0 0 884.86 884.85"
 xmlns:xlink="http://www.w3.org/1999/xlink"
 xmlns:xodm="http://www.corel.com/coreldraw/odm/2003">
 <defs>
  <style type="text/css">
   <![CDATA[
    .fil0 {fill:#49021F}
    .fil1 {fill:#FF3366;fill-rule:nonzero}
   ]]>
  </style>
 </defs>
 <g id="Layer_x0020_1">
  <metadata id="CorelCorpID_0Corel-Layer"/>
  <g id="_2818761903536">
   <rect class="fil0" x="0" y="-0" width="884.86" height="884.86" rx="176.97" ry="176.97"/>
   <g id="vlpa">
    <g id="vlpb">
     <path class="fil1" d="M316.71 265.66l0 379.75c0,4.06 -1.84,5.9 -5.16,5.9l-72.26 0c-3.32,0 -4.79,-1.84 -4.79,-5.9l0 -379.75c0,-3.32 1.84,-4.79 5.16,-4.79l71.9 0c2.21,-0.37 4.42,1.1 4.79,3.68 0.37,0.37 0.37,0.74 0.37,1.11z"/>
     <path class="fil1" d="M529.81 655.73c-27.28,0.37 -54.56,-5.16 -79.27,-16.59 -23.23,-10.69 -42.4,-28.39 -55.67,-50.14 -13.64,-22.49 -20.28,-50.51 -20.28,-84.06 -0.37,-27.28 6.64,-54.2 20.28,-77.79 14.01,-23.97 34.29,-43.87 58.62,-57.15 25.81,-14.38 56.78,-21.39 93.28,-21.39 1.84,0 4.42,0 7.74,0.37 3.32,0.37 7,0.37 11.43,0.74l0 -116.51c0,-2.58 1.1,-4.06 3.68,-4.06l74.84 0c1.84,-0.37 3.32,1.11 3.69,2.58l0 0.74 0 350.99c0,6.64 0.37,14.01 0.74,22.12 0.74,7.74 1.11,15.11 1.48,21.38 0,2.58 -1.11,4.79 -3.69,5.9 -19.17,8.11 -39.45,14.01 -60.1,17.7 -18.43,3.32 -37.61,5.16 -56.78,5.16zm36.13 -73.74l0 -162.22c-3.32,-0.74 -6.64,-1.48 -9.96,-1.84 -4.06,-0.37 -8.11,-0.74 -12.16,-0.74 -14.38,0 -28.76,2.95 -41.66,9.59 -12.54,6.27 -23.23,15.48 -31.34,27.28 -8.11,11.8 -12.17,27.65 -12.17,46.82 -0.37,12.9 1.84,25.81 6.27,37.97 3.69,9.96 9.22,18.8 16.59,26.18 7.01,6.64 15.48,11.8 25.07,14.75 9.95,3.32 20.28,4.79 30.6,4.79 5.53,0 10.69,-0.37 15.48,-0.74 4.79,0.37 9.22,-0.37 13.27,-1.84z"/>
    </g>
   </g>
  </g>
 </g>
</svg>
