<?xml version="1.0" encoding="UTF-8"?>
<!DOCTYPE svg PUBLIC "-//W3C//DTD SVG 1.1//EN" "http://www.w3.org/Graphics/SVG/1.1/DTD/svg11.dtd">
<!-- Creator: CorelDRAW 2021 (64-Bit) -->
<svg xmlns="http://www.w3.org/2000/svg" xml:space="preserve" width="14.0564mm" height="14.0564mm" version="1.1" style="shape-rendering:geometricPrecision; text-rendering:geometricPrecision; image-rendering:optimizeQuality; fill-rule:evenodd; clip-rule:evenodd"
viewBox="0 0 98.54 98.54"
 xmlns:xlink="http://www.w3.org/1999/xlink"
 xmlns:xodm="http://www.corel.com/coreldraw/odm/2003">
 <defs>
  <style type="text/css">
   <![CDATA[
    .fil0 {fill:#330000}
    .fil1 {fill:#FF9A00;fill-rule:nonzero}
   ]]>
  </style>
 </defs>
 <g id="Layer_x0020_1">
  <metadata id="CorelCorpID_0Corel-Layer"/>
  <rect class="fil0" x="0" width="98.54" height="98.54" rx="14.02" ry="14.02"/>
  <path class="fil1" d="M49.29 62.14l-15.27 0 -3.12 9.65c-0.08,0.37 -0.41,0.62 -0.78,0.57l-7.72 0c-0.45,0 -0.57,-0.25 -0.45,-0.74l13.22 -38.06c0.12,-0.41 0.25,-0.86 0.41,-1.36 0.16,-0.86 0.25,-1.77 0.25,-2.67 -0.04,-0.21 0.12,-0.41 0.33,-0.45l10.63 0c0.33,0 0.49,0.12 0.53,0.33l14.99 42.29c0.12,0.45 0,0.66 -0.41,0.66l-8.58 0c-0.29,0.04 -0.57,-0.16 -0.66,-0.45l-3.37 -9.77zm-12.89 -8.33l10.43 0c-0.25,-0.86 -0.57,-1.89 -0.94,-2.96 -0.37,-1.11 -0.74,-2.3 -1.11,-3.53 -0.41,-1.27 -0.78,-2.5 -1.19,-3.78 -0.41,-1.27 -0.78,-2.46 -1.11,-3.65 -0.33,-1.15 -0.62,-2.22 -0.9,-3.2l-0.08 0c-0.37,1.77 -0.82,3.53 -1.4,5.3 -0.62,1.97 -1.23,4.02 -1.89,6.08 -0.57,2.09 -1.19,4.02 -1.81,5.75zm35.06 -17.53c-1.36,0.04 -2.67,-0.49 -3.65,-1.44 -0.94,-1.03 -1.44,-2.38 -1.4,-3.78 -0.04,-1.4 0.49,-2.71 1.48,-3.65 0.98,-0.94 2.3,-1.44 3.65,-1.44 1.6,0 2.83,0.49 3.74,1.44 0.9,0.98 1.4,2.3 1.36,3.65 0.04,1.4 -0.45,2.75 -1.44,3.78 -0.94,0.99 -2.34,1.52 -3.74,1.44zm-4.6 35.64l0 -31.61c0,-0.41 0.16,-0.57 0.53,-0.57l8.13 0c0.37,0 0.53,0.21 0.53,0.57l0 31.61c0,0.45 -0.16,0.66 -0.53,0.66l-8.05 0c-0.41,0 -0.62,-0.25 -0.62,-0.66z"/>
 </g>
</svg>
