<?xml version="1.0" encoding="UTF-8"?>
<!DOCTYPE svg PUBLIC "-//W3C//DTD SVG 1.1//EN" "http://www.w3.org/Graphics/SVG/1.1/DTD/svg11.dtd">
<!-- Creator: CorelDRAW 2021 (64-Bit) -->
<svg xmlns="http://www.w3.org/2000/svg" xml:space="preserve" width="14.0564mm" height="14.0564mm" version="1.1" style="shape-rendering:geometricPrecision; text-rendering:geometricPrecision; image-rendering:optimizeQuality; fill-rule:evenodd; clip-rule:evenodd"
viewBox="0 0 84.11 84.11"
 xmlns:xlink="http://www.w3.org/1999/xlink"
 xmlns:xodm="http://www.corel.com/coreldraw/odm/2003">
 <defs>
  <style type="text/css">
   <![CDATA[
    .fil0 {fill:#001E36}
    .fil1 {fill:#31A8FF;fill-rule:nonzero}
   ]]>
  </style>
 </defs>
 <g id="Layer_x0020_1">
  <metadata id="CorelCorpID_0Corel-Layer"/>
  <rect class="fil0" x="-0" width="84.11" height="84.11" rx="11.97" ry="11.97"/>
  <g id="_2818691070240">
   <path class="fil1" d="M24.41 30.08l0 11.76c0.49,0.04 0.94,0.06 1.35,0.06l1.86 0c1.37,-0 2.73,-0.22 4.03,-0.64 1.12,-0.33 2.12,-0.98 2.88,-1.86 0.73,-0.87 1.1,-2.07 1.1,-3.61 0.03,-1.09 -0.25,-2.17 -0.82,-3.1 -0.59,-0.9 -1.45,-1.6 -2.45,-2 -1.31,-0.51 -2.71,-0.75 -4.12,-0.71 -0.9,0 -1.7,0.01 -2.4,0.03 -0.7,0.02 -1.18,0.05 -1.44,0.08zm-7.62 29.68l0 -36.06c0,-0.26 0.11,-0.39 0.34,-0.39 0.6,0 1.15,-0.01 1.98,-0.03 0.83,-0.02 1.72,-0.04 2.68,-0.06 0.96,-0.02 1.97,-0.04 3.05,-0.06 1.07,-0.02 2.13,-0.03 3.19,-0.03 2.86,0 5.27,0.36 7.22,1.07 1.77,0.6 3.37,1.58 4.71,2.88 1.13,1.12 2.01,2.48 2.57,3.98 0.53,1.46 0.8,2.99 0.79,4.54 0,3.01 -0.7,5.49 -2.09,7.45 -1.4,1.96 -3.37,3.45 -5.64,4.26 -2.37,0.88 -5,1.18 -7.9,1.18 -0.83,0 -1.41,-0.01 -1.75,-0.03 -0.34,-0.02 -0.85,-0.03 -1.52,-0.03l0 11.26c0.03,0.25 -0.14,0.47 -0.38,0.51 -0.04,0.01 -0.08,0.01 -0.13,0l-6.72 0c-0.26,0 -0.39,-0.15 -0.39,-0.45z"/>
   <path class="fil1" d="M65.13 39.7c-1.06,-0.55 -2.19,-0.94 -3.36,-1.18 -1.29,-0.3 -2.6,-0.45 -3.92,-0.45 -0.71,-0.02 -1.43,0.07 -2.12,0.25 -0.44,0.1 -0.83,0.35 -1.1,0.71 -0.18,0.29 -0.28,0.62 -0.28,0.96 0.01,0.33 0.13,0.65 0.34,0.9 0.33,0.39 0.73,0.7 1.18,0.93 0.8,0.43 1.63,0.82 2.48,1.16 1.89,0.63 3.7,1.5 5.39,2.57 1.15,0.72 2.1,1.72 2.76,2.91 0.56,1.12 0.84,2.36 0.82,3.61 0.03,1.65 -0.44,3.28 -1.35,4.65 -0.98,1.4 -2.34,2.49 -3.92,3.13 -1.71,0.75 -3.83,1.13 -6.35,1.13 -1.6,0.02 -3.2,-0.13 -4.77,-0.45 -1.24,-0.23 -2.44,-0.61 -3.58,-1.13 -0.25,-0.13 -0.41,-0.39 -0.39,-0.68l0 -6.09c-0.01,-0.12 0.04,-0.24 0.14,-0.31 0.1,-0.06 0.22,-0.05 0.31,0.03 1.35,0.8 2.82,1.38 4.34,1.72 1.35,0.34 2.73,0.52 4.12,0.54 1.32,0 2.29,-0.17 2.91,-0.51 0.57,-0.26 0.94,-0.84 0.93,-1.47 0,-0.49 -0.28,-0.96 -0.85,-1.41 -0.56,-0.45 -1.71,-1 -3.44,-1.64 -1.77,-0.62 -3.45,-1.47 -4.99,-2.54 -1.1,-0.77 -2.01,-1.78 -2.65,-2.96 -0.55,-1.11 -0.84,-2.34 -0.82,-3.58 -0,-1.49 0.41,-2.96 1.18,-4.23 0.89,-1.4 2.16,-2.52 3.67,-3.22 1.65,-0.83 3.72,-1.24 6.21,-1.24 1.45,-0.01 2.91,0.09 4.34,0.31 1.04,0.13 2.06,0.41 3.02,0.82 0.16,0.04 0.28,0.16 0.34,0.31 0.04,0.14 0.06,0.28 0.06,0.42l0 5.7c0.01,0.14 -0.06,0.26 -0.17,0.34 -0.15,0.08 -0.33,0.08 -0.49,0z"/>
  </g>
 </g>
</svg>
