<?xml version="1.0" encoding="UTF-8"?>
<!DOCTYPE svg PUBLIC "-//W3C//DTD SVG 1.1//EN" "http://www.w3.org/Graphics/SVG/1.1/DTD/svg11.dtd">
<!-- Creator: CorelDRAW 2021 (64-Bit) -->
<svg xmlns="http://www.w3.org/2000/svg" xml:space="preserve" width="14.0564mm" height="14.0564mm" version="1.1" style="shape-rendering:geometricPrecision; text-rendering:geometricPrecision; image-rendering:optimizeQuality; fill-rule:evenodd; clip-rule:evenodd"
viewBox="0 0 119.47 119.47"
 xmlns:xlink="http://www.w3.org/1999/xlink"
 xmlns:xodm="http://www.corel.com/coreldraw/odm/2003">
 <defs>
  <style type="text/css">
   <![CDATA[
    .fil0 {fill:#49021F}
    .fil1 {fill:#FF3366;fill-rule:nonzero}
   ]]>
  </style>
 </defs>
 <g id="Layer_x0020_1">
  <metadata id="CorelCorpID_0Corel-Layer"/>
  <rect class="fil0" x="-0" width="119.47" height="119.47" rx="17" ry="17"/>
  <g id="vlpa">
   <g id="vlpb">
    <path class="fil1" d="M42.76 35.87l0 51.27c0,0.55 -0.25,0.8 -0.7,0.8l-9.76 0c-0.45,0 -0.65,-0.25 -0.65,-0.8l0 -51.27c0,-0.45 0.25,-0.65 0.7,-0.65l9.71 0c0.3,-0.05 0.6,0.15 0.65,0.5 0.05,0.05 0.05,0.1 0.05,0.15z"/>
    <path class="fil1" d="M71.53 88.54c-3.68,0.05 -7.37,-0.7 -10.7,-2.24 -3.14,-1.44 -5.72,-3.83 -7.52,-6.77 -1.84,-3.04 -2.74,-6.82 -2.74,-11.35 -0.05,-3.68 0.9,-7.32 2.74,-10.5 1.89,-3.24 4.63,-5.92 7.91,-7.72 3.48,-1.94 7.67,-2.89 12.59,-2.89 0.25,0 0.6,0 1.05,0.05 0.45,0.05 0.95,0.05 1.54,0.1l0 -15.73c0,-0.35 0.15,-0.55 0.5,-0.55l10.1 0c0.25,-0.05 0.45,0.15 0.5,0.35l0 0.1 0 47.39c0,0.9 0.05,1.89 0.1,2.99 0.1,1.05 0.15,2.04 0.2,2.89 0,0.35 -0.15,0.65 -0.5,0.8 -2.59,1.09 -5.33,1.89 -8.11,2.39 -2.49,0.45 -5.08,0.7 -7.67,0.7zm4.88 -9.96l0 -21.9c-0.45,-0.1 -0.9,-0.2 -1.34,-0.25 -0.55,-0.05 -1.1,-0.1 -1.64,-0.1 -1.94,0 -3.88,0.4 -5.62,1.29 -1.69,0.85 -3.14,2.09 -4.23,3.68 -1.1,1.59 -1.64,3.73 -1.64,6.32 -0.05,1.74 0.25,3.48 0.85,5.13 0.5,1.34 1.25,2.54 2.24,3.53 0.95,0.9 2.09,1.59 3.39,1.99 1.34,0.45 2.74,0.65 4.13,0.65 0.75,0 1.44,-0.05 2.09,-0.1 0.65,0.05 1.24,-0.05 1.79,-0.25z"/>
   </g>
  </g>
 </g>
</svg>
