<?xml version="1.0" encoding="UTF-8"?>
<!DOCTYPE svg PUBLIC "-//W3C//DTD SVG 1.1//EN" "http://www.w3.org/Graphics/SVG/1.1/DTD/svg11.dtd">
<!-- Creator: CorelDRAW 2021 (64-Bit) -->
<svg xmlns="http://www.w3.org/2000/svg" xml:space="preserve" width="10.6879mm" height="10.6879mm" version="1.1" style="shape-rendering:geometricPrecision; text-rendering:geometricPrecision; image-rendering:optimizeQuality; fill-rule:evenodd; clip-rule:evenodd"
viewBox="0 0 147.53 147.53"
 xmlns:xlink="http://www.w3.org/1999/xlink"
 xmlns:xodm="http://www.corel.com/coreldraw/odm/2003">
 <defs>
  <style type="text/css">
   <![CDATA[
    .fil0 {fill:#2B2A29}
    .fil3 {fill:#0DAB93}
    .fil5 {fill:#4BBFAE}
    .fil6 {fill:#4BBFAE;fill-rule:nonzero}
    .fil4 {fill:url(#id2)}
    .fil2 {fill:url(#id3)}
    .fil1 {fill:url(#id4)}
   ]]>
  </style>
      <mask id="id0">
  <linearGradient id="id1" gradientUnits="userSpaceOnUse" x1="90.86" y1="83.51" x2="104.55" y2="84.93">
   <stop offset="0" style="stop-opacity:0.984314; stop-color:white"/>
   <stop offset="0.301961" style="stop-opacity:0.772549; stop-color:white"/>
   <stop offset="1" style="stop-opacity:0.560784; stop-color:white"/>
  </linearGradient>
       <rect style="fill:url(#id1)" x="88.43" y="67.23" width="17.49" height="32.94"/>
      </mask>
  <linearGradient id="id2" gradientUnits="userSpaceOnUse" x1="101.8" y1="69.1" x2="76.93" y2="79.56">
   <stop offset="0" style="stop-opacity:1; stop-color:#0DAB93"/>
   <stop offset="0.278431" style="stop-opacity:1; stop-color:#2CB5A0"/>
   <stop offset="1" style="stop-opacity:1; stop-color:#4BBFAE"/>
  </linearGradient>
  <linearGradient id="id3" gradientUnits="userSpaceOnUse" xlink:href="#id2" x1="66.05" y1="68.71" x2="41.17" y2="79.17">
  </linearGradient>
  <linearGradient id="id4" gradientUnits="userSpaceOnUse" xlink:href="#id2" x1="101.51" y1="81.41" x2="86.64" y2="87.38">
  </linearGradient>
 </defs>
 <g id="Layer_x0020_1_0">
  <metadata id="CorelCorpID_0Corel-Layer"/>
  <g id="_2201900644576">
   <rect class="fil0" x="-0" y="0" width="147.53" height="147.53" rx="27.61" ry="27.61"/>
   <g>
    <g>
     <polygon class="fil1" points="104.35,80.24 92.66,68.61 86.54,79.64 104.35,98.35 "/>
     <polygon class="fil2" points="71.03,78.44 40.85,48.36 40.85,66.47 71.03,96.55 "/>
     <polygon class="fil3" style="mask:url(#id0)" points="104.54,80.67 92.66,68.61 89.81,83.82 104.54,98.78 "/>
     <polygon class="fil4" points="76.6,78.83 106.79,48.74 106.79,66.85 76.6,96.94 "/>
     <polygon class="fil5" points="106.79,48.46 76.6,18.37 76.6,36.48 106.79,66.57 "/>
     <polygon class="fil5" points="40.75,48.46 70.94,18.37 70.94,36.48 40.75,66.57 "/>
    </g>
    <path class="fil6" d="M33.46 121.94c0,0.49 -0.12,1.02 -0.36,1.59 -0.24,0.57 -0.62,1.13 -1.14,1.68 -0.52,0.55 -1.18,1 -1.98,1.34 -0.81,0.34 -1.75,0.51 -2.82,0.51 -0.81,0 -1.55,-0.07 -2.22,-0.23 -0.66,-0.15 -1.27,-0.39 -1.81,-0.72 -0.54,-0.32 -1.04,-0.75 -1.5,-1.28 -0.41,-0.48 -0.75,-1.02 -1.04,-1.62 -0.29,-0.6 -0.5,-1.24 -0.64,-1.92 -0.14,-0.68 -0.22,-1.4 -0.22,-2.17 0,-1.24 0.18,-2.35 0.54,-3.33 0.36,-0.98 0.88,-1.82 1.55,-2.52 0.67,-0.7 1.46,-1.23 2.36,-1.59 0.9,-0.36 1.87,-0.55 2.89,-0.55 1.25,0 2.36,0.25 3.33,0.75 0.97,0.49 1.72,1.11 2.24,1.84 0.52,0.73 0.78,1.42 0.78,2.07 0,0.36 -0.13,0.67 -0.38,0.95 -0.25,0.27 -0.56,0.41 -0.92,0.41 -0.4,0 -0.7,-0.1 -0.9,-0.28 -0.2,-0.19 -0.42,-0.52 -0.67,-0.98 -0.41,-0.76 -0.89,-1.33 -1.44,-1.71 -0.55,-0.38 -1.23,-0.57 -2.03,-0.57 -1.28,0 -2.3,0.49 -3.06,1.46 -0.76,0.98 -1.14,2.36 -1.14,4.15 0,1.2 0.17,2.2 0.51,2.99 0.33,0.8 0.81,1.39 1.43,1.78 0.62,0.39 1.34,0.59 2.17,0.59 0.9,0 1.65,-0.22 2.27,-0.67 0.62,-0.45 1.09,-1.1 1.4,-1.96 0.13,-0.41 0.3,-0.74 0.5,-0.99 0.19,-0.25 0.51,-0.38 0.94,-0.38 0.37,0 0.69,0.13 0.96,0.39 0.27,0.26 0.4,0.58 0.4,0.96zm9.58 -10.8c1.6,0 2.97,0.32 4.11,0.97 1.14,0.65 2.01,1.57 2.6,2.76 0.59,1.2 0.88,2.6 0.88,4.21 0,1.19 -0.16,2.27 -0.48,3.25 -0.32,0.98 -0.8,1.82 -1.45,2.53 -0.65,0.72 -1.43,1.26 -2.37,1.64 -0.94,0.38 -2.01,0.57 -3.22,0.57 -1.2,0 -2.28,-0.19 -3.23,-0.58 -0.96,-0.39 -1.75,-0.94 -2.39,-1.64 -0.64,-0.71 -1.12,-1.56 -1.45,-2.55 -0.33,-0.99 -0.49,-2.07 -0.49,-3.22 0,-1.18 0.17,-2.27 0.51,-3.26 0.34,-0.99 0.83,-1.82 1.48,-2.52 0.64,-0.69 1.43,-1.22 2.35,-1.59 0.92,-0.37 1.97,-0.55 3.15,-0.55zm4.43 7.92c0,-1.13 -0.18,-2.11 -0.55,-2.93 -0.37,-0.83 -0.89,-1.45 -1.56,-1.88 -0.67,-0.42 -1.45,-0.63 -2.33,-0.63 -0.62,0 -1.2,0.12 -1.73,0.35 -0.53,0.24 -0.99,0.58 -1.37,1.03 -0.38,0.45 -0.68,1.02 -0.9,1.72 -0.22,0.7 -0.33,1.48 -0.33,2.35 0,0.88 0.11,1.67 0.33,2.38 0.22,0.71 0.53,1.29 0.94,1.76 0.4,0.47 0.86,0.81 1.38,1.04 0.52,0.23 1.09,0.35 1.72,0.35 0.8,0 1.53,-0.2 2.2,-0.6 0.67,-0.4 1.2,-1.02 1.6,-1.85 0.39,-0.83 0.59,-1.86 0.59,-3.08zm7.76 -7.66l4.07 0c1.06,0 1.97,0.1 2.72,0.29 0.76,0.2 1.45,0.57 2.06,1.1 1.6,1.37 2.41,3.46 2.41,6.27 0,0.92 -0.08,1.77 -0.24,2.53 -0.16,0.76 -0.41,1.45 -0.75,2.07 -0.34,0.61 -0.77,1.16 -1.3,1.65 -0.41,0.37 -0.86,0.67 -1.35,0.89 -0.49,0.23 -1.02,0.38 -1.58,0.47 -0.56,0.09 -1.2,0.14 -1.91,0.14l-4.07 0c-0.57,0 -0.99,-0.09 -1.28,-0.26 -0.29,-0.17 -0.47,-0.41 -0.56,-0.72 -0.09,-0.31 -0.13,-0.72 -0.13,-1.21l0 -11.3c0,-0.67 0.15,-1.16 0.45,-1.46 0.3,-0.3 0.79,-0.45 1.46,-0.45zm1.21 2.48l0 10.46 2.37 0c0.52,0 0.92,-0.01 1.22,-0.04 0.29,-0.03 0.6,-0.1 0.92,-0.21 0.31,-0.11 0.59,-0.27 0.82,-0.47 1.04,-0.88 1.57,-2.4 1.57,-4.56 0,-1.52 -0.23,-2.66 -0.69,-3.42 -0.46,-0.76 -1.03,-1.24 -1.7,-1.45 -0.68,-0.2 -1.49,-0.31 -2.44,-0.31l-2.06 0zm22.94 -0.06l-7.03 0 0 3.79 6.47 0c0.48,0 0.83,0.11 1.07,0.32 0.24,0.21 0.35,0.49 0.35,0.84 0,0.35 -0.11,0.63 -0.34,0.85 -0.23,0.22 -0.59,0.33 -1.07,0.33l-6.47 0 0 4.39 7.27 0c0.49,0 0.86,0.11 1.11,0.34 0.25,0.23 0.38,0.53 0.38,0.91 0,0.36 -0.13,0.66 -0.38,0.88 -0.25,0.23 -0.62,0.34 -1.11,0.34l-8.48 0c-0.68,0 -1.17,-0.15 -1.46,-0.45 -0.3,-0.3 -0.45,-0.79 -0.45,-1.46l0 -11.59c0,-0.45 0.07,-0.81 0.2,-1.1 0.13,-0.28 0.34,-0.49 0.62,-0.62 0.28,-0.13 0.65,-0.19 1.09,-0.19l8.24 0c0.5,0 0.87,0.11 1.11,0.33 0.24,0.22 0.36,0.51 0.36,0.87 0,0.37 -0.12,0.66 -0.36,0.88 -0.24,0.22 -0.61,0.33 -1.11,0.33zm8.4 6.41l-1.09 0 0 4.94c0,0.65 -0.14,1.13 -0.43,1.44 -0.29,0.31 -0.66,0.46 -1.12,0.46 -0.5,0 -0.89,-0.16 -1.16,-0.48 -0.27,-0.32 -0.41,-0.79 -0.41,-1.42l0 -11.85c0,-0.67 0.15,-1.16 0.45,-1.46 0.3,-0.3 0.79,-0.45 1.46,-0.45l5.08 0c0.7,0 1.3,0.03 1.8,0.09 0.5,0.06 0.95,0.18 1.34,0.36 0.48,0.2 0.91,0.5 1.29,0.87 0.37,0.38 0.65,0.82 0.84,1.32 0.19,0.5 0.29,1.03 0.29,1.6 0,1.15 -0.32,2.07 -0.97,2.75 -0.65,0.68 -1.63,1.17 -2.95,1.46 0.55,0.3 1.08,0.73 1.59,1.3 0.5,0.57 0.95,1.19 1.35,1.83 0.39,0.65 0.7,1.23 0.92,1.75 0.22,0.52 0.33,0.88 0.33,1.08 0,0.2 -0.06,0.4 -0.19,0.6 -0.13,0.2 -0.31,0.36 -0.53,0.47 -0.22,0.12 -0.48,0.17 -0.78,0.17 -0.35,0 -0.64,-0.08 -0.88,-0.25 -0.24,-0.16 -0.44,-0.37 -0.61,-0.62 -0.17,-0.25 -0.41,-0.62 -0.7,-1.11l-1.25 -2.08c-0.45,-0.76 -0.85,-1.34 -1.2,-1.74 -0.35,-0.4 -0.71,-0.68 -1.08,-0.82 -0.36,-0.15 -0.82,-0.22 -1.37,-0.22zm1.79 -6.48l-2.88 0 0 4.24 2.79 0c0.75,0 1.38,-0.06 1.89,-0.19 0.51,-0.13 0.9,-0.35 1.17,-0.66 0.27,-0.31 0.4,-0.74 0.4,-1.29 0,-0.43 -0.11,-0.81 -0.33,-1.13 -0.21,-0.33 -0.52,-0.57 -0.9,-0.73 -0.36,-0.15 -1.08,-0.23 -2.15,-0.23zm8.98 6.69l0 -7.41c0,-0.63 0.14,-1.1 0.43,-1.42 0.28,-0.31 0.66,-0.47 1.12,-0.47 0.48,0 0.86,0.16 1.15,0.47 0.28,0.32 0.43,0.79 0.43,1.42l0 7.58c0,0.86 0.1,1.58 0.29,2.16 0.19,0.58 0.53,1.03 1.02,1.34 0.49,0.32 1.18,0.48 2.06,0.48 1.22,0 2.08,-0.32 2.59,-0.97 0.51,-0.65 0.76,-1.63 0.76,-2.95l0 -7.64c0,-0.64 0.14,-1.11 0.42,-1.42 0.28,-0.31 0.66,-0.47 1.13,-0.47 0.47,0 0.85,0.15 1.14,0.47 0.29,0.31 0.44,0.79 0.44,1.42l0 7.41c0,1.21 -0.12,2.21 -0.35,3.02 -0.24,0.81 -0.68,1.51 -1.33,2.12 -0.56,0.52 -1.21,0.89 -1.95,1.13 -0.74,0.24 -1.61,0.35 -2.6,0.35 -1.18,0 -2.2,-0.13 -3.06,-0.38 -0.85,-0.25 -1.55,-0.65 -2.09,-1.19 -0.54,-0.53 -0.93,-1.22 -1.19,-2.06 -0.25,-0.84 -0.38,-1.84 -0.38,-3zm20.4 -7.43l6 9.08 0 -9.17c0,-0.59 0.13,-1.04 0.38,-1.34 0.25,-0.3 0.6,-0.45 1.03,-0.45 0.44,0 0.8,0.15 1.06,0.45 0.26,0.3 0.39,0.75 0.39,1.34l0 12.11c0,1.35 -0.56,2.03 -1.68,2.03 -0.28,0 -0.53,-0.04 -0.76,-0.12 -0.22,-0.08 -0.43,-0.21 -0.63,-0.38 -0.2,-0.17 -0.38,-0.38 -0.55,-0.62 -0.17,-0.23 -0.34,-0.47 -0.51,-0.72l-5.85 -8.97 0 9.02c0,0.59 -0.14,1.03 -0.41,1.33 -0.28,0.3 -0.63,0.45 -1.05,0.45 -0.44,0 -0.8,-0.15 -1.06,-0.46 -0.27,-0.31 -0.4,-0.75 -0.4,-1.33l0 -11.88c0,-0.51 0.06,-0.9 0.17,-1.19 0.13,-0.32 0.35,-0.57 0.66,-0.77 0.31,-0.2 0.64,-0.3 1,-0.3 0.28,0 0.52,0.05 0.72,0.14 0.2,0.09 0.38,0.22 0.53,0.37 0.15,0.15 0.31,0.35 0.46,0.6 0.16,0.24 0.32,0.5 0.49,0.77z"/>
   </g>
  </g>
 </g>
</svg>
