<?xml version="1.0" encoding="UTF-8"?>
<!DOCTYPE svg PUBLIC "-//W3C//DTD SVG 1.1//EN" "http://www.w3.org/Graphics/SVG/1.1/DTD/svg11.dtd">
<!-- Creator: CorelDRAW 2021 (64-Bit) -->
<svg xmlns="http://www.w3.org/2000/svg" xml:space="preserve" width="14.0564mm" height="14.0564mm" version="1.1" style="shape-rendering:geometricPrecision; text-rendering:geometricPrecision; image-rendering:optimizeQuality; fill-rule:evenodd; clip-rule:evenodd"
viewBox="0 0 357.13 357.13"
 xmlns:xlink="http://www.w3.org/1999/xlink"
 xmlns:xodm="http://www.corel.com/coreldraw/odm/2003">
 <defs>
  <style type="text/css">
   <![CDATA[
    .fil0 {fill:#2B2A29}
    .fil2 {fill:#0DAB93}
    .fil4 {fill:#4BBFAE}
    .fil5 {fill:#4BBFAE;fill-rule:nonzero}
    .fil3 {fill:url(#id2)}
    .fil1 {fill:url(#id3)}
   ]]>
  </style>
     <mask id="id0">
  <linearGradient id="id1" gradientUnits="userSpaceOnUse" x1="219.95" y1="202.15" x2="253.08" y2="205.59">
   <stop offset="0" style="stop-opacity:0.984314; stop-color:white"/>
   <stop offset="0.301961" style="stop-opacity:0.772549; stop-color:white"/>
   <stop offset="1" style="stop-opacity:0.560784; stop-color:white"/>
  </linearGradient>
      <rect style="fill:url(#id1)" x="214.86" y="163.53" width="40.73" height="78.13"/>
     </mask>
  <linearGradient id="id2" gradientUnits="userSpaceOnUse" x1="246.43" y1="167.26" x2="186.21" y2="192.58">
   <stop offset="0" style="stop-opacity:1; stop-color:#0DAB93"/>
   <stop offset="0.278431" style="stop-opacity:1; stop-color:#2CB5A0"/>
   <stop offset="1" style="stop-opacity:1; stop-color:#4BBFAE"/>
  </linearGradient>
  <linearGradient id="id3" gradientUnits="objectBoundingBox" xlink:href="#id2" x1="15.9725%" y1="43.0431%" x2="99.4541%" y2="63.1286%">
  </linearGradient>
 </defs>
 <g id="Layer_x0020_1">
  <metadata id="CorelCorpID_0Corel-Layer"/>
  <rect class="fil0" x="0" y="-0" width="357.13" height="357.13" rx="50.81" ry="50.81"/>
 </g>
 <g id="Layer_x0020_1_0">
  <metadata id="CorelCorpID_1Corel-Layer"/>
  <g id="_2201695369264">
   <g>
    <polygon class="fil1" points="252.6,194.22 224.3,166.07 209.5,192.79 252.6,238.06 "/>
    <polygon class="fil1" points="171.95,189.88 98.88,117.06 98.88,160.9 171.95,233.72 "/>
    <polygon class="fil2" style="mask:url(#id0)" points="253.05,195.28 224.3,166.07 217.4,202.9 253.05,239.12 "/>
    <polygon class="fil3" points="185.42,190.81 258.5,117.99 258.5,161.83 185.42,234.65 "/>
    <polygon class="fil4" points="258.5,117.3 185.42,44.47 185.42,88.31 258.5,161.14 "/>
    <polygon class="fil4" points="98.64,117.3 171.71,44.47 171.71,88.31 98.64,161.14 "/>
   </g>
   <path class="fil5" d="M80.99 295.18c0,1.19 -0.29,2.47 -0.88,3.85 -0.58,1.38 -1.5,2.73 -2.76,4.06 -1.25,1.34 -2.86,2.41 -4.8,3.25 -1.95,0.82 -4.23,1.24 -6.82,1.24 -1.96,0 -3.75,-0.18 -5.37,-0.55 -1.61,-0.38 -3.07,-0.96 -4.39,-1.75 -1.31,-0.78 -2.53,-1.82 -3.63,-3.11 -0.98,-1.17 -1.82,-2.47 -2.52,-3.92 -0.69,-1.45 -1.21,-3.01 -1.56,-4.65 -0.35,-1.65 -0.52,-3.39 -0.52,-5.24 0,-3 0.43,-5.69 1.31,-8.06 0.87,-2.38 2.13,-4.41 3.75,-6.1 1.63,-1.68 3.53,-2.97 5.72,-3.86 2.19,-0.87 4.52,-1.32 7,-1.32 3.02,0 5.7,0.6 8.07,1.81 2.35,1.2 4.16,2.69 5.41,4.46 1.25,1.77 1.89,3.44 1.89,5.02 0,0.87 -0.31,1.62 -0.92,2.29 -0.61,0.66 -1.35,0.99 -2.22,0.99 -0.96,0 -1.69,-0.23 -2.17,-0.68 -0.49,-0.46 -1.02,-1.25 -1.61,-2.37 -0.99,-1.85 -2.15,-3.23 -3.48,-4.15 -1.33,-0.91 -2.97,-1.37 -4.92,-1.37 -3.11,0 -5.57,1.18 -7.41,3.53 -1.84,2.36 -2.76,5.71 -2.76,10.05 0,2.9 0.41,5.32 1.22,7.24 0.81,1.93 1.96,3.36 3.46,4.32 1.49,0.95 3.24,1.42 5.24,1.42 2.17,0 4,-0.54 5.5,-1.61 1.5,-1.08 2.63,-2.66 3.39,-4.75 0.32,-0.98 0.72,-1.78 1.2,-2.4 0.47,-0.61 1.23,-0.93 2.28,-0.93 0.9,0 1.68,0.32 2.32,0.95 0.64,0.63 0.96,1.41 0.96,2.33zm23.18 -26.14c3.87,0 7.19,0.78 9.96,2.35 2.77,1.56 4.87,3.79 6.3,6.69 1.42,2.89 2.13,6.28 2.13,10.18 0,2.88 -0.39,5.5 -1.17,7.86 -0.78,2.36 -1.94,4.4 -3.51,6.13 -1.56,1.73 -3.47,3.05 -5.75,3.97 -2.27,0.91 -4.87,1.37 -7.81,1.37 -2.92,0 -5.53,-0.47 -7.83,-1.42 -2.31,-0.94 -4.23,-2.27 -5.77,-3.98 -1.54,-1.71 -2.71,-3.77 -3.5,-6.18 -0.79,-2.41 -1.18,-5.01 -1.18,-7.8 0,-2.87 0.41,-5.49 1.23,-7.88 0.82,-2.39 2.01,-4.42 3.57,-6.11 1.55,-1.67 3.46,-2.96 5.7,-3.85 2.23,-0.89 4.78,-1.34 7.62,-1.34zm10.73 19.17c0,-2.73 -0.44,-5.1 -1.32,-7.1 -0.89,-2 -2.14,-3.51 -3.78,-4.54 -1.63,-1.02 -3.51,-1.54 -5.63,-1.54 -1.5,0 -2.9,0.29 -4.18,0.85 -1.28,0.57 -2.39,1.4 -3.31,2.48 -0.92,1.08 -1.65,2.47 -2.19,4.16 -0.53,1.69 -0.8,3.58 -0.8,5.69 0,2.12 0.27,4.03 0.8,5.75 0.54,1.71 1.29,3.14 2.26,4.26 0.98,1.13 2.09,1.97 3.35,2.53 1.27,0.56 2.65,0.84 4.16,0.84 1.94,0 3.71,-0.49 5.33,-1.45 1.61,-0.97 2.9,-2.46 3.86,-4.48 0.95,-2.01 1.43,-4.51 1.43,-7.46zm18.8 -18.55l9.84 0c2.56,0 4.76,0.23 6.59,0.71 1.84,0.48 3.5,1.37 4.99,2.68 3.88,3.33 5.82,8.38 5.82,15.17 0,2.24 -0.19,4.28 -0.58,6.13 -0.39,1.85 -1,3.52 -1.8,5 -0.82,1.48 -1.86,2.81 -3.14,3.98 -1,0.89 -2.09,1.61 -3.28,2.15 -1.19,0.55 -2.47,0.93 -3.83,1.15 -1.36,0.22 -2.91,0.33 -4.62,0.33l-9.85 0c-1.37,0 -2.41,-0.21 -3.11,-0.63 -0.69,-0.42 -1.15,-1 -1.35,-1.76 -0.22,-0.75 -0.32,-1.73 -0.32,-2.93l0 -27.36c0,-1.62 0.37,-2.8 1.09,-3.53 0.73,-0.73 1.91,-1.1 3.54,-1.1zm2.92 5.99l0 25.32 5.73 0c1.25,0 2.24,-0.03 2.95,-0.1 0.71,-0.07 1.45,-0.23 2.21,-0.5 0.76,-0.28 1.42,-0.66 1.98,-1.15 2.53,-2.14 3.79,-5.82 3.79,-11.04 0,-3.68 -0.56,-6.44 -1.67,-8.27 -1.11,-1.83 -2.48,-3 -4.11,-3.5 -1.63,-0.5 -3.6,-0.75 -5.9,-0.75l-4.99 0zm55.52 -0.15l-17.02 0 0 9.17 15.67 0c1.15,0 2.01,0.26 2.58,0.77 0.57,0.51 0.85,1.2 0.85,2.04 0,0.84 -0.28,1.54 -0.83,2.07 -0.56,0.53 -1.43,0.8 -2.6,0.8l-15.67 0 0 10.63 17.6 0c1.19,0 2.08,0.28 2.69,0.83 0.6,0.55 0.91,1.29 0.91,2.2 0,0.87 -0.3,1.6 -0.91,2.14 -0.6,0.55 -1.49,0.83 -2.69,0.83l-20.52 0c-1.64,0 -2.82,-0.37 -3.54,-1.1 -0.72,-0.73 -1.08,-1.91 -1.08,-3.53l0 -28.04c0,-1.08 0.17,-1.97 0.49,-2.66 0.32,-0.69 0.82,-1.19 1.51,-1.5 0.69,-0.31 1.56,-0.47 2.63,-0.47l19.94 0c1.21,0 2.1,0.27 2.69,0.8 0.58,0.54 0.87,1.24 0.87,2.1 0,0.89 -0.29,1.6 -0.87,2.13 -0.58,0.53 -1.48,0.8 -2.69,0.8zm20.33 15.52l-2.65 0 0 11.96c0,1.58 -0.35,2.74 -1.04,3.48 -0.7,0.75 -1.61,1.12 -2.72,1.12 -1.21,0 -2.14,-0.39 -2.8,-1.17 -0.66,-0.78 -0.99,-1.92 -0.99,-3.43l0 -28.69c0,-1.62 0.36,-2.8 1.09,-3.53 0.73,-0.73 1.91,-1.1 3.53,-1.1l12.29 0c1.69,0 3.14,0.07 4.35,0.22 1.21,0.15 2.29,0.43 3.25,0.88 1.17,0.5 2.21,1.2 3.11,2.11 0.89,0.92 1.58,1.99 2.04,3.19 0.47,1.21 0.7,2.5 0.7,3.86 0,2.77 -0.78,5 -2.35,6.67 -1.57,1.66 -3.95,2.84 -7.13,3.53 1.34,0.71 2.62,1.76 3.85,3.15 1.21,1.39 2.31,2.87 3.26,4.44 0.95,1.57 1.7,2.98 2.24,4.25 0.53,1.26 0.8,2.13 0.8,2.6 0,0.49 -0.16,0.97 -0.47,1.46 -0.32,0.49 -0.74,0.87 -1.29,1.15 -0.54,0.28 -1.17,0.42 -1.89,0.42 -0.84,0 -1.55,-0.2 -2.13,-0.6 -0.57,-0.4 -1.07,-0.9 -1.49,-1.51 -0.41,-0.61 -0.98,-1.51 -1.69,-2.69l-3.03 -5.04c-1.09,-1.84 -2.06,-3.24 -2.91,-4.21 -0.86,-0.97 -1.73,-1.63 -2.61,-1.99 -0.88,-0.35 -1.99,-0.53 -3.33,-0.53zm4.32 -15.68l-6.97 0 0 10.26 6.76 0c1.81,0 3.34,-0.15 4.58,-0.47 1.23,-0.32 2.18,-0.85 2.83,-1.61 0.65,-0.75 0.98,-1.8 0.98,-3.12 0,-1.04 -0.26,-1.95 -0.79,-2.74 -0.52,-0.79 -1.25,-1.38 -2.19,-1.77 -0.88,-0.38 -2.61,-0.56 -5.21,-0.56zm21.75 16.2l0 -17.93c0,-1.53 0.35,-2.67 1.03,-3.43 0.69,-0.76 1.59,-1.15 2.71,-1.15 1.16,0 2.09,0.38 2.78,1.15 0.69,0.76 1.03,1.91 1.03,3.43l0 18.34c0,2.09 0.23,3.83 0.7,5.23 0.46,1.4 1.29,2.48 2.47,3.26 1.19,0.77 2.85,1.15 4.98,1.15 2.95,0 5.04,-0.78 6.26,-2.35 1.22,-1.57 1.83,-3.95 1.83,-7.13l0 -18.49c0,-1.54 0.34,-2.69 1.01,-3.45 0.68,-0.76 1.59,-1.13 2.73,-1.13 1.13,0 2.05,0.37 2.75,1.13 0.7,0.75 1.06,1.91 1.06,3.45l0 17.93c0,2.92 -0.29,5.36 -0.85,7.3 -0.57,1.95 -1.64,3.67 -3.22,5.14 -1.35,1.25 -2.93,2.16 -4.73,2.74 -1.8,0.57 -3.9,0.86 -6.31,0.86 -2.86,0 -5.33,-0.31 -7.4,-0.93 -2.07,-0.61 -3.75,-1.58 -5.05,-2.87 -1.31,-1.29 -2.26,-2.96 -2.88,-4.98 -0.6,-2.02 -0.91,-4.45 -0.91,-7.26zm49.39 -17.97l14.52 21.98 0 -22.19c0,-1.44 0.31,-2.52 0.93,-3.24 0.62,-0.72 1.45,-1.08 2.5,-1.08 1.07,0 1.94,0.36 2.56,1.08 0.63,0.72 0.94,1.81 0.94,3.25l0 29.32c0,3.27 -1.35,4.9 -4.06,4.9 -0.68,0 -1.29,-0.09 -1.83,-0.29 -0.54,-0.19 -1.05,-0.5 -1.52,-0.92 -0.48,-0.42 -0.91,-0.92 -1.32,-1.49 -0.41,-0.56 -0.82,-1.15 -1.22,-1.74l-14.16 -21.71 0 21.83c0,1.43 -0.33,2.5 -0.99,3.23 -0.67,0.73 -1.52,1.1 -2.55,1.1 -1.07,0 -1.93,-0.37 -2.57,-1.1 -0.65,-0.74 -0.97,-1.81 -0.97,-3.22l0 -28.75c0,-1.22 0.14,-2.18 0.41,-2.87 0.32,-0.76 0.86,-1.39 1.61,-1.88 0.74,-0.48 1.55,-0.72 2.41,-0.72 0.68,0 1.27,0.11 1.75,0.33 0.49,0.22 0.91,0.52 1.28,0.89 0.36,0.37 0.74,0.85 1.12,1.45 0.38,0.59 0.78,1.21 1.19,1.86z"/>
  </g>
 </g>
</svg>
