<?xml version="1.0" encoding="UTF-8"?>
<!DOCTYPE svg PUBLIC "-//W3C//DTD SVG 1.1//EN" "http://www.w3.org/Graphics/SVG/1.1/DTD/svg11.dtd">
<!-- Creator: CorelDRAW 2021 (64-Bit) -->
<svg xmlns="http://www.w3.org/2000/svg" xml:space="preserve" width="25mm" height="25mm" version="1.1" style="shape-rendering:geometricPrecision; text-rendering:geometricPrecision; image-rendering:optimizeQuality; fill-rule:evenodd; clip-rule:evenodd"
viewBox="0 0 618.07 618.07"
 xmlns:xlink="http://www.w3.org/1999/xlink"
 xmlns:xodm="http://www.corel.com/coreldraw/odm/2003">
 <defs>
  <style type="text/css">
   <![CDATA[
    .fil0 {fill:#2B2A29}
    .fil1 {fill:#FEFEFE;fill-rule:nonzero}
    .fil2 {fill:#00ED64;fill-rule:nonzero}
   ]]>
  </style>
 </defs>
 <g id="Layer_x0020_1">
  <metadata id="CorelCorpID_0Corel-Layer"/>
  <g id="_2818752679376">
   <rect class="fil0" x="-0" y="0" width="618.07" height="618.07" rx="123.61" ry="123.61"/>
   <path class="fil1" d="M521.91 445.89c-3.18,0 -5.75,2.57 -5.75,5.75 0,3.18 2.58,5.75 5.75,5.75 3.18,0 5.75,-2.58 5.75,-5.75 0,-3.18 -2.58,-5.75 -5.75,-5.75zm0 10.81c-2.8,0 -5.06,-2.26 -5.06,-5.06 0,-2.79 2.26,-5.06 5.06,-5.06 2.8,0 5.06,2.27 5.06,5.06 0,2.8 -2.26,5.06 -5.06,5.06z"/>
   <path class="fil1" d="M524.81 450.07c0,-0.61 -0.23,-1.07 -0.68,-1.36 -0.45,-0.3 -1.14,-0.45 -2.07,-0.45l0 0 -2.43 0 0 6.58 1.11 0 0 -2.86 1.4 0 1.38 2.86 1.23 0 -1.48 -3.01c0.47,-0.09 0.85,-0.28 1.13,-0.59 0.28,-0.31 0.42,-0.7 0.42,-1.17zm-1.55 0.93c-0.27,0.17 -0.73,0.26 -1.37,0.26l-1.16 0 0 -2.28 1.13 0c0.64,0 1.1,0.09 1.38,0.28 0.29,0.19 0.43,0.48 0.43,0.9 0,0.39 -0.14,0.67 -0.41,0.84z"/>
   <path class="fil1" d="M314.22 553.26l3.01 -3.38c2.84,2.91 6.81,4.79 10.9,4.79 3.87,0 8.25,-1.75 8.25,-6.25 0,-3.8 -3.26,-5.24 -6.26,-6.63 -1.35,-0.62 -7.88,-3.28 -9.57,-4.41 -2.73,-1.83 -4.42,-4.69 -4.42,-8 0,-6.6 6.5,-10.16 12.41,-10.16 4.32,0 8.61,1.66 11.69,4.73l-2.71 3.15c-2.47,-2.32 -5.58,-3.62 -8.98,-3.62 -3.46,0 -7.35,1.61 -7.35,5.6 0,3.51 3.45,5.13 6.27,6.25 1.39,0.56 7.93,3.26 9.63,4.4 2.84,1.9 4.41,4.86 4.41,8.27 0,7.26 -7.57,10.91 -13.44,10.91 -5.15,0 -10.21,-1.97 -13.85,-5.66zm-27.63 -0.19c-3.2,-3.91 -4.37,-9.05 -4.37,-14.01 0,-4.95 1.25,-10.03 4.45,-13.91 3.22,-3.91 8.05,-5.95 13.08,-5.95 4.11,0 8.03,1.73 10.85,4.73l-2.71 3.15c-2.15,-2.24 -4.94,-3.62 -8.07,-3.62 -3.81,0 -7.33,1.69 -9.53,4.84 -2.16,3.08 -2.88,6.94 -2.88,10.64 0,3.74 0.72,7.63 2.84,10.78 2.13,3.18 5.58,4.93 9.39,4.93 3.66,0 6.69,-1.7 9.16,-4.32l2.77 3.04c-3.16,3.53 -6.91,5.54 -13.53,5.54 -2.49,0 -8.28,-1.99 -11.45,-5.85zm-16.12 5.15l0 -38.31 5 0 0 38.31 -5 0zm-39.28 0l0 -38.31 5 0 0 16.06 18.38 0 0 -16.06 5.06 0 0 38.31 -5.06 0 0 -18.05 -18.38 0 0 18.05 -5 0zm-27.29 -19.16l5.9 0c3.46,0 6.02,-0.63 7.68,-1.9 1.66,-1.26 2.5,-3.26 2.5,-5.99 0,-2.76 -0.88,-4.68 -2.62,-5.75 -1.75,-1.07 -4.35,-1.61 -7.8,-1.61l-5.66 0 0 15.24zm-5 19.16l0 -38.31 11.27 0c3.63,0 7.65,0.39 10.72,2.48 2.93,2.01 4.1,5.35 4.1,8.79 0,3.46 -1.21,6.8 -4.03,8.93 -2.98,2.26 -6.89,2.92 -10.54,2.92l-6.51 0 0 15.18 -5 0 0 0 0 0 0 0 0 0zm-36.21 0l13.37 -38.31 5.66 0 13.38 38.31 -5.36 0 -3.74 -11.68 -14.4 0 -3.79 11.68 -5.12 0zm10.18 -15.6l11.87 0c0,0 -5.2,-16.52 -5.84,-18.74l-0.24 0c-0.6,2.22 -5.79,18.74 -5.79,18.74zm-33.98 -4.55l6.63 0c3.09,0 5.46,-0.62 7.11,-1.84 1.65,-1.22 2.47,-3.09 2.47,-5.58 0,-2.53 -0.82,-4.3 -2.47,-5.32 -1.65,-1.01 -4.02,-1.52 -7.11,-1.52l-6.63 0 0 14.25zm-5 20.15l0 -38.31 12.35 0c3.39,0 7.12,0.4 9.97,2.39 2.76,1.93 3.89,5.08 3.89,8.35 0,3 -0.8,5.39 -2.41,7.18 -1.61,1.79 -3.78,3.02 -6.51,3.68l10.06 16.7 -5.66 0 -9.52 -16.18 -7.17 0 0 16.18 -5 -0 0 0 0 0zm-34.83 -4.94c-3.36,-3.91 -4.63,-9.16 -4.63,-14.22 0,-5.06 1.35,-10.25 4.74,-14.12 3.36,-3.84 8.34,-5.73 13.39,-5.73 4.29,0 8.39,1.63 11.39,4.73l-2.77 3.16c-2.33,-2.35 -5.18,-3.62 -8.49,-3.62 -3.84,0 -7.51,1.51 -9.87,4.61 -2.36,3.09 -3.21,7.05 -3.21,10.87 0,3.83 0.75,7.86 3.06,11 2.38,3.23 6.14,4.7 10.07,4.7 2.46,0 5.21,-0.62 7.11,-2.28l0 -9.99 -8.37 0 0 -4.03 12.95 0 0 16.12c-1.29,1.29 -2.97,2.34 -5.06,3.18 -2.09,0.84 -4.83,1.25 -7.11,1.25 -2.61,0 -9.9,-1.81 -13.2,-5.64z"/>
   <path class="fil1" d="M97.3 499.04c-4.99,-6.22 -6.89,-14.25 -6.89,-22.09 0,-7.9 2.04,-15.95 7.08,-22.19 5.09,-6.29 12.82,-9.69 20.87,-9.69 6.69,0 13.08,2.88 17.67,7.76l-5.8 7.01c-3.15,-3.15 -7.05,-5.33 -11.59,-5.33 -5.31,0 -10.12,2.66 -13.1,7.03 -3,4.4 -4,9.88 -4,15.12 0,5.33 0.85,10.93 3.85,15.45 2.96,4.45 7.64,6.89 12.97,6.89 5.18,0 9.61,-2.54 13.09,-6.26l5.8 6.82c-2.45,2.83 -11.18,8.4 -19.9,8.4 -12.41,0 -17.52,-5.8 -20.04,-8.94zm43.57 -14.61c0,-5.93 1.62,-11.9 5.46,-16.51 4.01,-4.81 10.06,-7.6 16.32,-7.6 6.17,0 12.17,2.67 16.17,7.39 3.95,4.66 5.7,10.69 5.7,16.73 0,6.49 -2.05,13.03 -6.64,17.76 -4.26,4.4 -10.06,6.26 -15.24,6.26 -5.03,0 -10.66,-1.56 -14.85,-6.27 -4.36,-4.9 -6.93,-10.67 -6.93,-17.75zm32.62 0c0,-6.77 -2.72,-15.33 -10.84,-15.33 -8.12,0 -10.75,8.59 -10.75,15.33 0,6.72 2.68,15.24 10.75,15.24 8.07,-0 10.84,-8.49 10.84,-15.24 0,-6.77 0,6.75 0,0zm17.18 22.9l0 -45.9 8.88 0 0.75 8.13 0.37 0c1.76,-3.25 4.24,-6.16 7.56,-7.88 3.14,-1.62 7.41,-1.99 10.67,-0.44l-1.87 9.35c-3.47,-1.06 -6.78,-1.03 -9.9,0.97 -2.79,1.79 -4.47,4.72 -5.71,7.72l0 28.04 -10.75 -0 0 0 0 0 0 0zm34.27 -5.84c-4.25,-4.63 -5.96,-10.88 -5.96,-17.06 0,-5.96 1.7,-11.95 5.55,-16.6 3.8,-4.59 9.58,-7.52 15.58,-7.52 14.23,0 21.37,14.14 18.51,27.01l-29.16 0c0.89,7.36 5.86,12.8 13.55,12.8 3.85,0 7.42,-1.33 10.66,-3.36l3.64 6.73c-4.64,3.05 -11.55,4.96 -15.7,4.96 -6.24,0 -12.4,-2.32 -16.66,-6.97zm4.42 -21.45l20.38 0c0,-3.55 -0.76,-6.34 -2.29,-8.36 -1.53,-2.02 -3.88,-3.04 -7.06,-3.04 -2.94,0 -5.7,1.25 -7.7,3.4 -2.01,2.18 -2.95,5.11 -3.33,8l0 0zm39.71 24.96c-1.56,-2.3 -2.34,-5.45 -2.34,-9.44l0 -49.27 10.75 0 0 49.83c0,1.06 0.13,2.22 0.96,2.97 0.84,0.76 2.03,0.69 3.06,0.4l1.4 8.04c-1.43,0.62 -4.24,0.94 -5.7,0.94 -3.86,0 -6.58,-1.15 -8.13,-3.46zm21.3 2.34l0 -61.13 16.36 0c9.35,0 16.64,2.52 21.87,7.58 5.23,5.05 7.85,12.62 7.85,22.71 0,7.95 -1.74,16.38 -7.23,22.43 -5.57,6.15 -13.86,8.42 -21.93,8.42l-16.92 -0 0 0 0 0zm10.85 -8.79l4.77 0c6.23,0 11.01,-1.79 14.35,-5.37 3.34,-3.58 5,-9.15 5,-16.69 0,-7.48 -1.68,-12.93 -5.05,-16.36 -3.36,-3.43 -8.13,-5.14 -14.3,-5.14l-4.77 0 0 43.56 0 0zm43.07 8.79l0 -61.13 20.66 0c5.54,0 11.62,0.78 16.21,4.14 4.5,3.3 6.22,8.6 6.22,14 0,3.74 -0.73,7.58 -2.88,10.71 -2.23,3.23 -5.58,5.52 -9.27,6.77l14.58 25.52 -12.15 0 -13.18 -23.93 -9.35 0 0 23.93 -10.85 0 0 0 0 0 0 0zm10.84 -32.53l8.69 0c4.17,0 7.37,-0.87 9.58,-2.62 2.21,-1.74 3.31,-4.36 3.31,-7.85 0,-3.55 -1.1,-6.02 -3.31,-7.38 -2.21,-1.37 -5.41,-2.06 -9.58,-2.06l-8.69 0 0 19.91 0 0zm55.41 7.48l15.61 0c0,0 -6.79,-24.3 -7.67,-27.67l-0.37 0c-0.87,3.43 -7.57,27.67 -7.57,27.67zm-18.32 25.05l19.91 -61.13 12.71 0 19.91 61.13 -11.4 0 -4.77 -16.55 -20.56 0 -4.77 16.55 -11.03 0zm59.8 0l-12.15 -61.13 11.12 0c0,0 7.82,47.14 8.32,50.38l0.37 0c0.69,-3.24 11.5,-50.38 11.5,-50.38l9.44 0c0,0 10.9,47.08 11.59,50.38l0.38 0c0.5,-3.3 8.22,-50.38 8.22,-50.38l10.38 0 -11.69 61.13 -13.46 0c0,0 -9.91,-43.9 -10.28,-46.26l-0.38 0c-0.43,2.37 -10.19,46.26 -10.19,46.26l-13.18 0 0 0z"/>
   <polygon class="fil1" points="475.45,558.22 475.45,519.91 498.22,519.91 498.22,524 480.45,524 480.45,536.03 495.45,536.03 495.45,540.18 480.45,540.18 480.45,554.07 498.83,554.07 498.83,558.22 475.45,558.22 "/>
   <polygon class="fil1" points="451.35,558.22 451.35,524 439.42,524 439.42,519.91 468.34,519.91 468.34,524 456.41,524 456.41,558.22 "/>
   <polygon class="fil1" points="429.12,558.22 429.12,519.91 434.12,519.91 434.12,558.22 "/>
   <path class="fil1" d="M395.09 554.28c-2.56,-3.37 -3.21,-7.75 -3.21,-11.88l0 -22.48 5 0 0 22.6c0,2.9 0.35,5.97 1.92,8.48 1.59,2.56 4.38,3.67 7.31,3.67 2.95,0 5.79,-1.1 7.41,-3.67 1.58,-2.5 1.93,-5.58 1.93,-8.48l0 -22.6 4.82 0 0 22.48c0,4.04 -0.62,8.31 -3.05,11.66 -2.58,3.57 -8.17,4.87 -11.11,4.87 -2.7,0 -8.4,-1.22 -11.01,-4.65z"/>
   <path class="fil1" d="M358.8 553.26l3.01 -3.39c2.84,2.91 6.81,4.79 10.9,4.79 3.87,0 8.25,-1.75 8.25,-6.25 0,-3.8 -3.26,-5.24 -6.26,-6.63 -1.35,-0.62 -7.88,-3.28 -9.57,-4.41 -2.73,-1.83 -4.42,-4.69 -4.42,-8 0,-6.6 6.51,-10.16 12.42,-10.16 4.32,0 8.61,1.66 11.69,4.73l-2.71 3.15c-2.47,-2.32 -5.58,-3.62 -8.97,-3.62 -3.47,0 -7.35,1.61 -7.35,5.61 0,3.51 3.45,5.12 6.27,6.25 1.39,0.56 7.93,3.26 9.63,4.4 2.84,1.9 4.41,4.86 4.41,8.28 0,7.25 -7.94,10.91 -13.44,10.91 -5.16,0 -10.21,-1.97 -13.85,-5.66z"/>
   <polygon class="fil2" points="329.3,399.94 288.77,399.94 283.7,369.54 334.36,369.54 "/>
   <path class="fil2" d="M327.9 59.14c0,0 59.14,22.38 54.88,108.47 -4.26,86.08 -63.08,184.8 -63.08,184.8 36.21,-32.13 89.84,-132.22 90.88,-191.11 -0.8,-62.15 -41.72,-87.3 -53.31,-92.82 -11.58,-5.52 -23.85,-9.11 -29.37,-9.34z"/>
   <path class="fil2" d="M379.83 74.27c0,0 63.52,26.16 50.96,101.71 -12.56,75.54 -79.41,156.16 -99.27,173.28 -7.12,6.53 82.04,-92.99 90.68,-180.4 4.14,-33 -5.5,-69.59 -42.38,-94.59z"/>
   <path class="fil2" d="M238.24 74.27c0,0 -63.52,26.16 -50.96,101.71 12.56,75.54 79.41,156.16 99.26,173.28 7.12,6.53 -82.04,-92.99 -90.68,-180.4 -4.14,-33 5.51,-69.59 42.38,-94.59z"/>
   <path class="fil2" d="M289.88 59.14c0,0 -59.13,22.38 -54.88,108.47 4.26,86.08 63.08,184.8 63.08,184.8 -36.21,-32.13 -89.84,-132.22 -90.88,-191.11 0.8,-62.15 41.73,-87.3 53.31,-92.82 11.59,-5.52 23.85,-9.11 29.37,-9.34z"/>
   <path class="fil2" d="M308.32 352.46l-4.96 0c-20.09,-66.76 -31.81,-124.28 -34.45,-170.3 -3.81,-66.45 9.77,-108.96 31.52,-120.74 2.02,-1.1 4.29,-1.95 7.89,-2.01 3.6,0.06 5.86,0.91 7.88,2.01 21.75,11.79 35.33,54.31 31.51,120.79 -2.64,46.02 -14.36,103.52 -34.44,170.26l-4.96 0z"/>
  </g>
 </g>
</svg>
