<?xml version="1.0" encoding="UTF-8"?>
<!DOCTYPE svg PUBLIC "-//W3C//DTD SVG 1.1//EN" "http://www.w3.org/Graphics/SVG/1.1/DTD/svg11.dtd">
<!-- Creator: CorelDRAW 2021 (64-Bit) -->
<svg xmlns="http://www.w3.org/2000/svg" xml:space="preserve" width="40mm" height="40mm" version="1.1" style="shape-rendering:geometricPrecision; text-rendering:geometricPrecision; image-rendering:optimizeQuality; fill-rule:evenodd; clip-rule:evenodd"
viewBox="0 0 802.21 802.21"
 xmlns:xlink="http://www.w3.org/1999/xlink"
 xmlns:xodm="http://www.corel.com/coreldraw/odm/2003">
 <defs>
  <style type="text/css">
   <![CDATA[
    .fil0 {fill:#2B2A29}
    .fil1 {fill:#FEFEFE;fill-rule:nonzero}
    .fil2 {fill:#00ED64;fill-rule:nonzero}
   ]]>
  </style>
 </defs>
 <g id="Layer_x0020_1">
  <metadata id="CorelCorpID_0Corel-Layer"/>
  <rect class="fil0" width="802.21" height="802.21" rx="100.28" ry="100.28"/>
 </g>
 <g id="Layer_x0020_1_0">
  <metadata id="CorelCorpID_1Corel-Layer"/>
  <path class="fil1" d="M677.41 578.74c-4.13,0 -7.47,3.34 -7.47,7.47 0,4.12 3.34,7.47 7.47,7.47 4.12,0 7.47,-3.35 7.47,-7.47 0,-4.13 -3.34,-7.47 -7.47,-7.47zm-0 14.04c-3.63,0 -6.57,-2.94 -6.57,-6.57 0,-3.63 2.94,-6.57 6.57,-6.57 3.63,0 6.57,2.94 6.57,6.57 0,3.63 -2.94,6.57 -6.57,6.57z"/>
  <path class="fil1" d="M681.18 584.16c0,-0.8 -0.29,-1.39 -0.88,-1.77 -0.59,-0.39 -1.48,-0.58 -2.69,-0.58l0 0 -3.16 0 0 8.55 1.43 -0 0 -3.71 1.82 0 1.79 3.71 1.6 0 -1.92 -3.91c0.61,-0.11 1.1,-0.37 1.46,-0.77 0.36,-0.41 0.54,-0.91 0.54,-1.51zm-2.02 1.21c-0.35,0.22 -0.95,0.34 -1.78,0.34l-1.51 0 0 -2.96 1.46 0c0.83,0 1.43,0.12 1.79,0.36 0.37,0.24 0.56,0.63 0.56,1.16 0,0.51 -0.18,0.87 -0.53,1.1z"/>
  <path class="fil1" d="M407.84 718.1l3.91 -4.39c3.68,3.77 8.84,6.22 14.15,6.22 5.02,0 10.71,-2.27 10.71,-8.11 0,-4.94 -4.23,-6.81 -8.13,-8.61 -1.75,-0.81 -10.23,-4.25 -12.42,-5.72 -3.54,-2.37 -5.74,-6.08 -5.74,-10.38 0,-8.57 8.44,-13.19 16.11,-13.19 5.61,0 11.18,2.16 15.17,6.14l-3.52 4.09c-3.21,-3.01 -7.24,-4.7 -11.65,-4.7 -4.5,0 -9.54,2.09 -9.54,7.27 0,4.55 4.48,6.65 8.14,8.12 1.8,0.72 10.29,4.23 12.5,5.71 3.69,2.47 5.72,6.31 5.72,10.74 0,9.42 -9.83,14.16 -17.44,14.16 -6.69,0 -13.25,-2.56 -17.98,-7.35zm-35.86 -0.25c-4.15,-5.07 -5.67,-11.75 -5.67,-18.18 0,-6.43 1.63,-13.01 5.78,-18.05 4.19,-5.08 10.45,-7.72 16.98,-7.72 5.33,0 10.42,2.24 14.08,6.14l-3.52 4.1c-2.79,-2.91 -6.42,-4.7 -10.48,-4.7 -4.95,0 -9.51,2.2 -12.37,6.28 -2.8,3.99 -3.74,9.01 -3.74,13.81 0,4.85 0.94,9.9 3.68,13.99 2.77,4.13 7.24,6.4 12.19,6.4 4.75,0 8.68,-2.21 11.89,-5.61l3.6 3.94c-4.1,4.58 -8.97,7.2 -17.56,7.2 -3.23,0 -10.75,-2.58 -14.86,-7.6zm-20.92 6.69l0 -49.73 6.49 0 0 49.73 -6.49 0zm-50.99 0l0 -49.73 6.49 0 0 20.85 23.85 0 0 -20.85 6.57 0 0 49.73 -6.57 0 0 -23.42 -23.85 0 0 23.42 -6.49 0zm-35.42 -24.86l7.66 0c4.48,0 7.81,-0.82 9.97,-2.46 2.16,-1.64 3.24,-4.23 3.24,-7.77 0,-3.59 -1.14,-6.08 -3.4,-7.46 -2.27,-1.39 -5.64,-2.09 -10.13,-2.09l-7.35 0 0 19.78zm-6.49 24.86l0 -49.73 14.62 0c4.7,0 9.93,0.51 13.92,3.22 3.81,2.61 5.32,6.95 5.32,11.41 0,4.49 -1.58,8.82 -5.24,11.6 -3.87,2.93 -8.94,3.79 -13.69,3.79l-8.45 0 0 19.71 -6.49 0 0 0.01 0 0 0 0 0 0zm-47 0l17.36 -49.73 7.35 0 17.36 49.73 -6.96 0 -4.85 -15.16 -18.69 0 -4.93 15.16 -6.65 0zm13.22 -20.24l15.41 0c0,0 -6.75,-21.45 -7.58,-24.33l-0.31 0c-0.78,2.88 -7.51,24.33 -7.51,24.33zm-44.11 -5.91l8.6 0c4.02,0 7.09,-0.8 9.23,-2.39 2.14,-1.59 3.21,-4.01 3.21,-7.24 0,-3.28 -1.07,-5.58 -3.21,-6.9 -2.14,-1.32 -5.21,-1.97 -9.23,-1.97l-8.6 0 0 18.5zm-6.49 26.15l0 -49.73 16.03 0c4.4,0 9.24,0.52 12.94,3.11 3.59,2.51 5.04,6.59 5.04,10.84 0,3.89 -1.04,7 -3.13,9.32 -2.09,2.32 -4.9,3.91 -8.45,4.78l13.06 21.68 -7.35 0 -12.36 -21 -9.31 0 0 21 -6.49 -0 0 0 0 0zm-45.21 -6.41c-4.37,-5.07 -6.01,-11.89 -6.01,-18.45 0,-6.57 1.75,-13.3 6.16,-18.33 4.37,-4.99 10.83,-7.44 17.38,-7.44 5.57,0 10.89,2.11 14.78,6.14l-3.6 4.1c-3.03,-3.05 -6.72,-4.7 -11.02,-4.7 -4.99,0 -9.74,1.97 -12.81,5.98 -3.06,4.01 -4.16,9.15 -4.16,14.11 0,4.98 0.97,10.2 3.98,14.29 3.09,4.19 7.97,6.1 13.07,6.1 3.2,0 6.76,-0.8 9.23,-2.96l0 -12.96 -10.87 0 0 -5.23 16.81 0 0 20.92c-1.67,1.67 -3.86,3.04 -6.57,4.13 -2.71,1.09 -6.27,1.63 -9.23,1.63 -3.39,-0 -12.85,-2.35 -17.14,-7.32z"/>
  <path class="fil1" d="M126.29 647.72c-6.47,-8.07 -8.95,-18.49 -8.95,-28.67 0,-10.26 2.64,-20.71 9.19,-28.8 6.61,-8.17 16.64,-12.57 27.09,-12.57 8.69,0 16.98,3.74 22.93,10.07l-7.52 9.1c-4.1,-4.1 -9.15,-6.91 -15.04,-6.91 -6.9,0 -13.14,3.45 -17.01,9.13 -3.89,5.71 -5.19,12.83 -5.19,19.63 0,6.91 1.1,14.19 5,20.05 3.84,5.78 9.92,8.94 16.84,8.94 6.73,0 12.47,-3.3 16.98,-8.13l7.52 8.85c-3.18,3.67 -14.52,10.91 -25.83,10.91 -16.11,0 -22.73,-7.53 -26.01,-11.6zm56.55 -18.96c0,-7.7 2.1,-15.44 7.09,-21.44 5.2,-6.25 13.06,-9.87 21.18,-9.87 8.01,0 15.8,3.46 20.99,9.59 5.13,6.05 7.4,13.87 7.4,21.71 0,8.43 -2.66,16.91 -8.61,23.05 -5.53,5.71 -13.06,8.13 -19.77,8.13 -6.54,0 -13.84,-2.02 -19.28,-8.14 -5.65,-6.36 -8.99,-13.85 -8.99,-23.04zm42.34 0c0,-8.79 -3.53,-19.89 -14.07,-19.89 -10.54,0 -13.95,11.14 -13.95,19.89 0,8.73 3.48,19.78 13.95,19.78 10.48,-0 14.07,-11.02 14.07,-19.78 0,-8.79 0,8.76 0,0zm22.3 29.72l0 -59.57 11.53 0 0.97 10.56 0.49 0c2.29,-4.22 5.5,-7.99 9.81,-10.22 4.08,-2.11 9.62,-2.59 13.84,-0.57l-2.43 12.13c-4.5,-1.37 -8.8,-1.34 -12.85,1.27 -3.62,2.33 -5.81,6.12 -7.41,10.02l0 36.39 -13.95 -0 0 0 0 0 0 0zm44.47 -7.58c-5.52,-6.01 -7.73,-14.12 -7.73,-22.14 0,-7.74 2.2,-15.51 7.2,-21.54 4.93,-5.95 12.44,-9.76 20.22,-9.76 18.47,0 27.73,18.35 24.02,35.06l-37.85 0c1.16,9.56 7.61,16.62 17.59,16.62 5,0 9.63,-1.72 13.83,-4.37l4.73 8.73c-6.03,3.96 -14.99,6.44 -20.38,6.44 -8.1,-0 -16.09,-3.01 -21.63,-9.04zm5.73 -27.84l26.45 0c0,-4.61 -0.99,-8.23 -2.97,-10.86 -1.98,-2.63 -5.04,-3.94 -9.16,-3.94 -3.81,0 -7.4,1.62 -9.99,4.41 -2.62,2.83 -3.83,6.64 -4.33,10.39l0 0zm51.54 32.39c-2.02,-2.99 -3.03,-7.07 -3.03,-12.25l0 -63.95 13.95 0 0 64.68c0,1.38 0.17,2.89 1.25,3.85 1.1,0.98 2.63,0.89 3.97,0.52l1.82 10.43c-1.86,0.81 -5.5,1.21 -7.4,1.21 -5.02,0 -8.53,-1.5 -10.56,-4.49zm27.64 3.03l0 -79.35 21.23 0c12.13,0 21.6,3.28 28.39,9.83 6.79,6.55 10.19,16.38 10.19,29.48 0,10.32 -2.26,21.26 -9.39,29.12 -7.24,7.99 -17.99,10.92 -28.46,10.92l-21.96 -0 0 0 0 0zm14.07 -11.4l6.19 0c8.09,0 14.3,-2.32 18.62,-6.97 4.33,-4.65 6.49,-11.87 6.49,-21.66 0,-9.7 -2.18,-16.78 -6.55,-21.23 -4.37,-4.45 -10.56,-6.67 -18.56,-6.67l-6.19 0 0 56.54 0 0zm55.91 11.4l0 -79.35 26.81 0c7.19,0 15.09,1.01 21.04,5.37 5.84,4.28 8.08,11.16 8.08,18.16 0,4.85 -0.94,9.85 -3.74,13.9 -2.89,4.2 -7.25,7.16 -12.03,8.79l18.93 33.12 -15.77 0 -17.11 -31.06 -12.13 0 0 31.06 -14.08 0 0 0 0 0 0 0zm14.07 -42.22l11.29 0c5.41,0 9.56,-1.13 12.44,-3.4 2.87,-2.26 4.3,-5.66 4.3,-10.19 0,-4.61 -1.43,-7.81 -4.3,-9.59 -2.87,-1.78 -7.02,-2.67 -12.44,-2.67l-11.29 0 0 25.84 0 0zm71.92 9.71l20.26 0c0,0 -8.82,-31.55 -9.95,-35.92l-0.49 0c-1.13,4.45 -9.83,35.92 -9.83,35.92zm-23.78 32.51l25.84 -79.35 16.5 0 25.84 79.35 -14.8 0 -6.19 -21.48 -26.69 0 -6.19 21.48 -14.32 0zm77.62 0l-15.77 -79.35 14.44 0c0,0 10.15,61.19 10.8,65.39l0.49 0c0.89,-4.2 14.92,-65.39 14.92,-65.39l12.26 0c0,0 14.15,61.1 15.04,65.39l0.49 0c0.65,-4.29 10.68,-65.39 10.68,-65.39l13.47 0 -15.17 79.35 -17.47 0c0,0 -12.86,-56.98 -13.34,-60.05l-0.49 0c-0.56,3.07 -13.22,60.05 -13.22,60.05l-17.11 0 0 0z"/>
  <polygon class="fil1" points="617.11,724.54 617.11,674.81 646.66,674.81 646.66,680.12 623.6,680.12 623.6,695.73 643.07,695.73 643.07,701.12 623.6,701.12 623.6,719.15 647.45,719.15 647.45,724.53 617.11,724.54 "/>
  <polygon class="fil1" points="585.82,724.54 585.82,680.12 570.34,680.12 570.34,674.81 607.88,674.81 607.88,680.12 592.39,680.12 592.39,724.54 "/>
  <polygon class="fil1" points="556.97,724.54 556.97,674.81 563.46,674.81 563.46,724.54 "/>
  <path class="fil1" d="M512.81 719.41c-3.33,-4.38 -4.17,-10.06 -4.17,-15.41l0 -29.18 6.49 0 0 29.33c0,3.76 0.46,7.75 2.49,11.01 2.06,3.32 5.68,4.76 9.48,4.76 3.83,0 7.51,-1.42 9.62,-4.76 2.06,-3.25 2.5,-7.25 2.5,-11.01l0 -29.33 6.26 0 0 29.18c0,5.25 -0.8,10.78 -3.96,15.14 -3.35,4.63 -10.61,6.31 -14.42,6.31 -3.5,0 -10.91,-1.58 -14.29,-6.03z"/>
  <path class="fil1" d="M465.7 718.1l3.91 -4.4c3.68,3.77 8.84,6.22 14.15,6.22 5.02,0 10.71,-2.26 10.71,-8.11 0,-4.94 -4.23,-6.81 -8.12,-8.61 -1.75,-0.81 -10.23,-4.25 -12.42,-5.72 -3.54,-2.37 -5.74,-6.08 -5.74,-10.38 0,-8.57 8.45,-13.19 16.11,-13.19 5.61,0 11.18,2.16 15.17,6.14l-3.52 4.09c-3.21,-3.01 -7.24,-4.7 -11.65,-4.7 -4.5,0 -9.54,2.09 -9.54,7.28 0,4.55 4.48,6.65 8.13,8.11 1.8,0.72 10.3,4.24 12.5,5.71 3.69,2.47 5.72,6.31 5.72,10.74 0,9.41 -10.31,14.16 -17.44,14.16 -6.69,0 -13.25,-2.56 -17.98,-7.35z"/>
  <polygon class="fil2" points="427.41,519.09 374.8,519.09 368.23,479.64 433.98,479.64 "/>
  <path class="fil2" d="M425.6 76.76c0,0 76.76,29.05 71.23,140.78 -5.53,111.73 -81.87,239.86 -81.87,239.86 47,-41.7 116.61,-171.61 117.95,-248.05 -1.03,-80.66 -54.16,-113.31 -69.2,-120.47 -15.03,-7.17 -30.96,-11.82 -38.12,-12.12z"/>
  <path class="fil2" d="M492.99 96.4c0,0 82.45,33.96 66.14,132.01 -16.31,98.04 -103.07,202.68 -128.84,224.9 -9.24,8.47 106.49,-120.7 117.7,-234.15 5.37,-42.83 -7.14,-90.32 -55,-122.77z"/>
  <path class="fil2" d="M309.22 96.4c0,0 -82.45,33.96 -66.15,132.01 16.31,98.04 103.07,202.68 128.84,224.9 9.24,8.47 -106.48,-120.7 -117.7,-234.15 -5.37,-42.83 7.15,-90.32 55.01,-122.77z"/>
  <path class="fil2" d="M376.25 76.76c0,0 -76.75,29.05 -71.23,140.78 5.53,111.73 81.87,239.86 81.87,239.86 -47,-41.7 -116.61,-171.61 -117.96,-248.05 1.04,-80.66 54.17,-113.31 69.2,-120.47 15.04,-7.17 30.96,-11.82 38.12,-12.12z"/>
  <path class="fil2" d="M400.19 457.47l-6.44 0c-26.08,-86.65 -41.28,-161.3 -44.71,-221.05 -4.94,-86.25 12.68,-141.42 40.91,-156.71 2.63,-1.43 5.56,-2.53 10.24,-2.61 4.67,0.07 7.61,1.19 10.23,2.61 28.23,15.3 45.86,70.48 40.9,156.77 -3.43,59.73 -18.64,134.37 -44.7,220.99l-6.43 0z"/>
 </g>
</svg>
