<?xml version="1.0" encoding="UTF-8"?>
<!DOCTYPE svg PUBLIC "-//W3C//DTD SVG 1.1//EN" "http://www.w3.org/Graphics/SVG/1.1/DTD/svg11.dtd">
<!-- Creator: CorelDRAW 2021 (64-Bit) -->
<svg xmlns="http://www.w3.org/2000/svg" xml:space="preserve" width="14.0564mm" height="14.0564mm" version="1.1" style="shape-rendering:geometricPrecision; text-rendering:geometricPrecision; image-rendering:optimizeQuality; fill-rule:evenodd; clip-rule:evenodd"
viewBox="0 0 108.25 108.25"
 xmlns:xlink="http://www.w3.org/1999/xlink"
 xmlns:xodm="http://www.corel.com/coreldraw/odm/2003">
 <defs>
  <style type="text/css">
   <![CDATA[
    .fil0 {fill:#2B2A29}
    .fil1 {fill:#FEFEFE;fill-rule:nonzero}
    .fil2 {fill:#00ED64;fill-rule:nonzero}
   ]]>
  </style>
 </defs>
 <g id="Layer_x0020_1">
  <metadata id="CorelCorpID_0Corel-Layer"/>
  <rect class="fil0" x="-0" y="-0" width="108.25" height="108.25" rx="15.4" ry="15.4"/>
  <path class="fil1" d="M91.41 78.09c-0.56,0 -1.01,0.45 -1.01,1.01 0,0.56 0.45,1.01 1.01,1.01 0.56,0 1.01,-0.45 1.01,-1.01 0,-0.56 -0.45,-1.01 -1.01,-1.01zm0 1.89c-0.49,0 -0.89,-0.4 -0.89,-0.89 0,-0.49 0.4,-0.89 0.89,-0.89 0.49,0 0.89,0.4 0.89,0.89 0,0.49 -0.4,0.89 -0.89,0.89z"/>
  <path class="fil1" d="M91.92 78.83c0,-0.11 -0.04,-0.19 -0.12,-0.24 -0.08,-0.05 -0.2,-0.08 -0.36,-0.08l0 -0 -0.43 0 0 1.15 0.19 0 0 -0.5 0.25 0 0.24 0.5 0.22 0 -0.26 -0.53c0.08,-0.01 0.15,-0.05 0.2,-0.1 0.05,-0.05 0.07,-0.12 0.07,-0.2zm-0.27 0.16c-0.05,0.03 -0.13,0.05 -0.24,0.05l-0.2 0 0 -0.4 0.2 0c0.11,0 0.19,0.02 0.24,0.05 0.05,0.03 0.07,0.08 0.07,0.16 0,0.07 -0.02,0.12 -0.07,0.15z"/>
  <path class="fil1" d="M55.03 96.9l0.53 -0.59c0.5,0.51 1.19,0.84 1.91,0.84 0.68,0 1.45,-0.31 1.45,-1.09 0,-0.67 -0.57,-0.92 -1.1,-1.16 -0.24,-0.11 -1.38,-0.57 -1.68,-0.77 -0.48,-0.32 -0.77,-0.82 -0.77,-1.4 0,-1.16 1.14,-1.78 2.17,-1.78 0.76,0 1.51,0.29 2.05,0.83l-0.48 0.55c-0.43,-0.41 -0.98,-0.63 -1.57,-0.63 -0.61,0 -1.29,0.28 -1.29,0.98 0,0.61 0.6,0.9 1.1,1.1 0.24,0.1 1.39,0.57 1.69,0.77 0.5,0.33 0.77,0.85 0.77,1.45 0,1.27 -1.33,1.91 -2.35,1.91 -0.9,0 -1.79,-0.35 -2.43,-0.99zm-4.84 -0.03c-0.56,-0.68 -0.76,-1.59 -0.76,-2.45 0,-0.87 0.22,-1.76 0.78,-2.44 0.56,-0.69 1.41,-1.04 2.29,-1.04 0.72,0 1.41,0.3 1.9,0.83l-0.48 0.55c-0.38,-0.39 -0.87,-0.63 -1.41,-0.63 -0.67,0 -1.28,0.3 -1.67,0.85 -0.38,0.54 -0.5,1.22 -0.5,1.86 0,0.65 0.13,1.34 0.5,1.89 0.37,0.56 0.98,0.86 1.65,0.86 0.64,0 1.17,-0.3 1.6,-0.76l0.49 0.53c-0.55,0.62 -1.21,0.97 -2.37,0.97 -0.44,0 -1.45,-0.35 -2.01,-1.03zm-2.82 0.9l0 -6.71 0.88 0 0 6.71 -0.88 0zm-6.88 0l0 -6.71 0.88 0 0 2.81 3.22 0 0 -2.81 0.89 0 0 6.71 -0.89 0 0 -3.16 -3.22 0 0 3.16 -0.88 0zm-4.78 -3.36l1.03 0c0.61,0 1.05,-0.11 1.35,-0.33 0.29,-0.22 0.44,-0.57 0.44,-1.05 0,-0.48 -0.15,-0.82 -0.46,-1.01 -0.31,-0.19 -0.76,-0.28 -1.37,-0.28l-0.99 0 0 2.67zm-0.88 3.36l0 -6.71 1.97 0c0.63,0 1.34,0.07 1.88,0.43 0.51,0.35 0.72,0.94 0.72,1.54 0,0.61 -0.21,1.19 -0.71,1.56 -0.52,0.4 -1.21,0.51 -1.85,0.51l-1.14 0 0 2.66 -0.88 0 0 0 0 0 0 0 0 0zm-6.34 0l2.34 -6.71 0.99 0 2.34 6.71 -0.94 0 -0.65 -2.05 -2.52 0 -0.66 2.05 -0.9 0zm1.78 -2.73l2.08 0c0,0 -0.91,-2.89 -1.02,-3.28l-0.04 0c-0.11,0.39 -1.01,3.28 -1.01,3.28zm-5.95 -0.8l1.16 0c0.54,0 0.96,-0.11 1.25,-0.32 0.29,-0.21 0.43,-0.54 0.43,-0.98 0,-0.44 -0.14,-0.75 -0.43,-0.93 -0.29,-0.18 -0.7,-0.26 -1.25,-0.26l-1.16 0 0 2.5zm-0.88 3.53l0 -6.71 2.16 0c0.59,0 1.25,0.07 1.75,0.42 0.48,0.34 0.68,0.89 0.68,1.46 0,0.53 -0.14,0.94 -0.42,1.26 -0.28,0.31 -0.66,0.53 -1.14,0.64l1.76 2.92 -0.99 0 -1.67 -2.83 -1.26 0 0 2.83 -0.88 0 0 0 0 0zm-6.1 -0.86c-0.59,-0.68 -0.81,-1.6 -0.81,-2.49 0,-0.89 0.24,-1.79 0.83,-2.47 0.59,-0.67 1.46,-1 2.34,-1 0.75,0 1.47,0.29 1.99,0.83l-0.49 0.55c-0.41,-0.41 -0.91,-0.63 -1.49,-0.63 -0.67,0 -1.31,0.26 -1.73,0.81 -0.41,0.54 -0.56,1.23 -0.56,1.9 0,0.67 0.13,1.38 0.54,1.93 0.42,0.57 1.08,0.82 1.76,0.82 0.43,0 0.91,-0.11 1.25,-0.4l0 -1.75 -1.47 0 0 -0.71 2.27 0 0 2.82c-0.22,0.23 -0.52,0.41 -0.89,0.56 -0.37,0.15 -0.85,0.22 -1.24,0.22 -0.46,-0 -1.73,-0.32 -2.31,-0.99z"/>
  <path class="fil1" d="M17.04 87.4c-0.87,-1.09 -1.21,-2.5 -1.21,-3.87 0,-1.38 0.36,-2.79 1.24,-3.89 0.89,-1.1 2.25,-1.7 3.65,-1.7 1.17,0 2.29,0.5 3.09,1.36l-1.02 1.23c-0.55,-0.55 -1.23,-0.93 -2.03,-0.93 -0.93,0 -1.77,0.47 -2.29,1.23 -0.52,0.77 -0.7,1.73 -0.7,2.65 0,0.93 0.15,1.92 0.67,2.71 0.52,0.78 1.34,1.21 2.27,1.21 0.91,0 1.68,-0.44 2.29,-1.1l1.02 1.2c-0.43,0.49 -1.96,1.47 -3.48,1.47 -2.17,0 -3.07,-1.02 -3.51,-1.57zm7.63 -2.56c0,-1.04 0.28,-2.08 0.96,-2.89 0.7,-0.84 1.76,-1.33 2.86,-1.33 1.08,0 2.13,0.47 2.83,1.29 0.69,0.82 1,1.87 1,2.93 0,1.14 -0.36,2.28 -1.16,3.11 -0.75,0.77 -1.76,1.1 -2.67,1.1 -0.88,0 -1.87,-0.27 -2.6,-1.1 -0.76,-0.86 -1.21,-1.87 -1.21,-3.11zm5.71 0c0,-1.19 -0.48,-2.68 -1.9,-2.68 -1.42,0 -1.88,1.5 -1.88,2.68 0,1.18 0.47,2.67 1.88,2.67 1.41,-0 1.9,-1.49 1.9,-2.67 0,-1.19 0,1.18 0,0zm3.01 4.01l0 -8.04 1.56 0 0.13 1.42 0.07 0c0.31,-0.57 0.74,-1.08 1.32,-1.38 0.55,-0.28 1.3,-0.35 1.87,-0.08l-0.33 1.64c-0.61,-0.19 -1.19,-0.18 -1.73,0.17 -0.49,0.31 -0.78,0.83 -1,1.35l0 4.91 -1.88 -0 0 0 0 0 0 0zm6 -1.02c-0.74,-0.81 -1.04,-1.91 -1.04,-2.99 0,-1.05 0.3,-2.09 0.97,-2.91 0.67,-0.8 1.68,-1.32 2.73,-1.32 2.49,0 3.74,2.48 3.24,4.73l-5.11 0c0.16,1.29 1.03,2.24 2.37,2.24 0.67,0 1.3,-0.23 1.87,-0.59l0.64 1.18c-0.81,0.53 -2.02,0.87 -2.75,0.87 -1.09,-0 -2.17,-0.41 -2.92,-1.22zm0.77 -3.76l3.57 0c0,-0.62 -0.13,-1.11 -0.4,-1.46 -0.27,-0.36 -0.68,-0.53 -1.24,-0.53 -0.52,0 -1,0.22 -1.35,0.6 -0.35,0.38 -0.52,0.9 -0.58,1.4l0 0zm6.95 4.37c-0.27,-0.4 -0.41,-0.95 -0.41,-1.65l0 -8.63 1.88 0 0 8.73c0,0.19 0.02,0.39 0.17,0.52 0.15,0.13 0.36,0.12 0.54,0.07l0.25 1.41c-0.25,0.11 -0.74,0.16 -1,0.16 -0.68,0 -1.15,-0.2 -1.42,-0.61zm3.73 0.41l0 -10.71 2.86 0c1.64,0 2.91,0.44 3.83,1.33 0.92,0.88 1.37,2.21 1.37,3.98 0,1.39 -0.3,2.87 -1.27,3.93 -0.98,1.08 -2.43,1.47 -3.84,1.47l-2.96 -0 0 0 0 0zm1.9 -1.54l0.83 0c1.09,0 1.93,-0.31 2.51,-0.94 0.58,-0.63 0.88,-1.6 0.88,-2.92 0,-1.31 -0.29,-2.26 -0.88,-2.86 -0.59,-0.6 -1.42,-0.9 -2.51,-0.9l-0.83 0 0 7.63 0 0zm7.54 1.54l0 -10.71 3.62 0c0.97,0 2.04,0.14 2.84,0.72 0.79,0.58 1.09,1.51 1.09,2.45 0,0.65 -0.13,1.33 -0.5,1.88 -0.39,0.57 -0.98,0.97 -1.62,1.19l2.55 4.47 -2.13 0 -2.31 -4.19 -1.64 0 0 4.19 -1.9 0 0 0 0 0 0 0zm1.9 -5.7l1.52 0c0.73,0 1.29,-0.15 1.68,-0.46 0.39,-0.31 0.58,-0.76 0.58,-1.38 0,-0.62 -0.19,-1.05 -0.58,-1.29 -0.39,-0.24 -0.95,-0.36 -1.68,-0.36l-1.52 0 0 3.49 0 0zm9.7 1.31l2.73 0c0,0 -1.19,-4.26 -1.34,-4.85l-0.06 0c-0.15,0.6 -1.33,4.85 -1.33,4.85zm-3.21 4.39l3.49 -10.71 2.23 0 3.49 10.71 -2 0 -0.84 -2.9 -3.6 0 -0.83 2.9 -1.93 0zm10.47 0l-2.13 -10.71 1.95 0c0,0 1.37,8.26 1.46,8.82l0.07 0c0.12,-0.57 2.01,-8.82 2.01,-8.82l1.65 0c0,0 1.91,8.25 2.03,8.82l0.07 0c0.09,-0.58 1.44,-8.82 1.44,-8.82l1.82 0 -2.05 10.71 -2.36 0c0,0 -1.74,-7.69 -1.8,-8.1l-0.07 0c-0.08,0.41 -1.78,8.1 -1.78,8.1l-2.31 0 0 0z"/>
  <polygon class="fil1" points="83.27,97.77 83.27,91.06 87.26,91.06 87.26,91.77 84.15,91.77 84.15,93.88 86.77,93.88 86.77,94.61 84.15,94.61 84.15,97.04 87.37,97.04 87.37,97.77 83.27,97.77 "/>
  <polygon class="fil1" points="79.05,97.77 79.05,91.77 76.96,91.77 76.96,91.06 82.03,91.06 82.03,91.77 79.94,91.77 79.94,97.77 "/>
  <polygon class="fil1" points="75.16,97.77 75.16,91.06 76.03,91.06 76.03,97.77 "/>
  <path class="fil1" d="M69.2 97.08c-0.45,-0.59 -0.56,-1.36 -0.56,-2.08l0 -3.94 0.88 0 0 3.96c0,0.51 0.06,1.05 0.34,1.49 0.28,0.45 0.77,0.64 1.28,0.64 0.52,0 1.01,-0.19 1.3,-0.64 0.28,-0.44 0.34,-0.98 0.34,-1.49l0 -3.96 0.84 0 0 3.94c0,0.71 -0.11,1.46 -0.53,2.04 -0.45,0.62 -1.43,0.85 -1.95,0.85 -0.47,0 -1.47,-0.21 -1.93,-0.81z"/>
  <path class="fil1" d="M62.84 96.9l0.53 -0.59c0.5,0.51 1.19,0.84 1.91,0.84 0.68,0 1.45,-0.31 1.45,-1.09 0,-0.67 -0.57,-0.92 -1.1,-1.16 -0.24,-0.11 -1.38,-0.57 -1.68,-0.77 -0.48,-0.32 -0.77,-0.82 -0.77,-1.4 0,-1.16 1.14,-1.78 2.17,-1.78 0.76,0 1.51,0.29 2.05,0.83l-0.47 0.55c-0.43,-0.41 -0.98,-0.63 -1.57,-0.63 -0.61,0 -1.29,0.28 -1.29,0.98 0,0.61 0.6,0.9 1.1,1.1 0.24,0.1 1.39,0.57 1.69,0.77 0.5,0.33 0.77,0.85 0.77,1.45 0,1.27 -1.39,1.91 -2.35,1.91 -0.9,0 -1.79,-0.35 -2.43,-0.99z"/>
  <polygon class="fil2" points="57.67,70.05 50.58,70.05 49.69,64.72 58.56,64.72 "/>
  <path class="fil2" d="M57.43 10.36c0,0 10.36,3.92 9.61,19 -0.75,15.08 -11.05,32.37 -11.05,32.37 6.34,-5.63 15.74,-23.16 15.92,-33.47 -0.14,-10.88 -7.31,-15.29 -9.34,-16.26 -2.03,-0.97 -4.18,-1.59 -5.14,-1.64z"/>
  <path class="fil2" d="M66.52 13.01c0,0 11.13,4.58 8.93,17.81 -2.2,13.23 -13.91,27.35 -17.39,30.35 -1.25,1.14 14.37,-16.29 15.88,-31.6 0.72,-5.78 -0.96,-12.19 -7.42,-16.57z"/>
  <path class="fil2" d="M41.73 13.01c0,0 -11.13,4.58 -8.93,17.81 2.2,13.23 13.91,27.35 17.39,30.35 1.25,1.14 -14.37,-16.29 -15.88,-31.6 -0.72,-5.78 0.96,-12.19 7.42,-16.57z"/>
  <path class="fil2" d="M50.77 10.36c0,0 -10.36,3.92 -9.61,19 0.75,15.08 11.05,32.37 11.05,32.37 -6.34,-5.63 -15.74,-23.16 -15.92,-33.47 0.14,-10.88 7.31,-15.29 9.34,-16.26 2.03,-0.97 4.18,-1.59 5.14,-1.64z"/>
  <path class="fil2" d="M54 61.73l-0.87 0c-3.52,-11.69 -5.57,-21.77 -6.03,-29.83 -0.67,-11.64 1.71,-19.08 5.52,-21.15 0.36,-0.19 0.75,-0.34 1.38,-0.35 0.63,0.01 1.03,0.16 1.38,0.35 3.81,2.06 6.19,9.51 5.52,21.15 -0.46,8.06 -2.52,18.13 -6.03,29.82l-0.87 0z"/>
 </g>
</svg>
