<?xml version="1.0" encoding="UTF-8"?>
<!DOCTYPE svg PUBLIC "-//W3C//DTD SVG 1.1//EN" "http://www.w3.org/Graphics/SVG/1.1/DTD/svg11.dtd">
<!-- Creator: CorelDRAW 2021 (64-Bit) -->
<svg xmlns="http://www.w3.org/2000/svg" xml:space="preserve" width="40mm" height="40mm" version="1.1" style="shape-rendering:geometricPrecision; text-rendering:geometricPrecision; image-rendering:optimizeQuality; fill-rule:evenodd; clip-rule:evenodd"
viewBox="0 0 76893.5 76893.5"
 xmlns:xlink="http://www.w3.org/1999/xlink"
 xmlns:xodm="http://www.corel.com/coreldraw/odm/2003">
 <defs>
  <style type="text/css">
   <![CDATA[
    .fil0 {fill:#2B2A29}
    .fil4 {fill:#FEFEFE;fill-rule:nonzero}
    .fil1 {fill:#264DE4;fill-rule:nonzero}
    .fil2 {fill:#2965F1;fill-rule:nonzero}
    .fil3 {fill:#EBEBEB;fill-rule:nonzero}
    .fil5 {fill:white;fill-rule:nonzero}
   ]]>
  </style>
 </defs>
 <g id="Layer_x0020_1">
  <metadata id="CorelCorpID_0Corel-Layer"/>
  <rect class="fil0" width="76893.5" height="76893.5" rx="9611.69" ry="9611.69"/>
  <g id="_1796345217440">
   <polygon id="polygon2989" class="fil1" points="59914.46,20054.79 56003.08,63873.89 38420.42,68748.37 20886.39,63880.82 16979.05,20054.79 "/>
   <polygon id="polygon2991" class="fil2" points="52654.36,61083.62 55996.92,23638.22 38446.75,23638.22 38446.75,65022.49 "/>
   <polygon id="polygon2993" class="fil3" points="25936.76,39892.73 26418.49,45267.59 38446.75,45267.59 38446.75,39892.73 "/>
   <polygon id="polygon2995" class="fil3" points="38446.75,29013.46 38428.3,29013.46 24968.67,29013.46 25457.32,34388.5 38446.75,34388.5 "/>
   <polygon id="polygon2997" class="fil3" points="38446.75,59444.64 38446.75,53852.36 38423.3,53858.52 32436.95,52242.21 32054.4,47955.4 29145.52,47955.4 26658.59,47955.4 27411.57,56394.85 38422.15,59451.56 "/>
   <polygon id="path2999" class="fil4" points="27083.62,8144.94 33593.81,8144.94 33593.81,10867.36 29806.04,10867.36 29806.04,13589.77 33593.81,13589.77 33593.81,16312.19 27083.62,16312.19 " inkscape:connector-curvature="0"/>
   <polygon id="path3001" class="fil4" points="34895.81,8144.94 41406,8144.94 41406,10512.11 37618.22,10512.11 37618.22,10985.58 41406,10985.58 41406,16430.41 34895.81,16430.41 34895.81,13944.83 38683.58,13944.83 38683.58,13471.36 34895.81,13471.36 " inkscape:connector-curvature="0"/>
   <polygon id="path3003" class="fil4" points="42708,8144.94 49218.19,8144.94 49218.19,10512.11 45430.41,10512.11 45430.41,10985.58 49218.19,10985.58 49218.19,16430.41 42708,16430.41 42708,13944.83 46495.77,13944.83 46495.77,13471.36 42708,13471.36 " inkscape:connector-curvature="0"/>
   <polygon id="polygon3005" class="fil5" points="45047.1,45267.59 44423.11,52238.75 38428.3,53856.79 38428.3,59448.87 49447.33,56394.85 49528.26,55486.74 50791.23,41336.02 50922.53,39892.73 51892.93,29013.46 38428.3,29013.46 38428.3,34388.5 46002.31,34388.5 45513.07,39892.73 38428.3,39892.73 38428.3,45267.59 "/>
  </g>
 </g>
</svg>
