<?xml version="1.0" encoding="UTF-8"?>
<!DOCTYPE svg PUBLIC "-//W3C//DTD SVG 1.1//EN" "http://www.w3.org/Graphics/SVG/1.1/DTD/svg11.dtd">
<!-- Creator: CorelDRAW 2021 (64-Bit) -->
<svg xmlns="http://www.w3.org/2000/svg" xml:space="preserve" width="25mm" height="25mm" version="1.1" style="shape-rendering:geometricPrecision; text-rendering:geometricPrecision; image-rendering:optimizeQuality; fill-rule:evenodd; clip-rule:evenodd"
viewBox="0 0 381.23 381.23"
 xmlns:xlink="http://www.w3.org/1999/xlink"
 xmlns:xodm="http://www.corel.com/coreldraw/odm/2003">
 <defs>
  <style type="text/css">
   <![CDATA[
    .fil0 {fill:#2B2A29}
    .fil4 {fill:#FEFEFE;fill-rule:nonzero}
    .fil1 {fill:#264DE4;fill-rule:nonzero}
    .fil2 {fill:#2965F1;fill-rule:nonzero}
    .fil3 {fill:#EBEBEB;fill-rule:nonzero}
    .fil5 {fill:white;fill-rule:nonzero}
   ]]>
  </style>
 </defs>
 <g id="Layer_x0020_1">
  <metadata id="CorelCorpID_0Corel-Layer"/>
  <g id="_2818355813568">
   <rect class="fil0" x="0" y="-0" width="381.23" height="381.23" rx="76.25" ry="76.25"/>
   <g>
    <polygon id="polygon2989" class="fil1" points="297.05,99.43 277.66,316.68 190.48,340.85 103.55,316.71 84.18,99.43 "/>
    <polygon id="polygon2991" class="fil2" points="261.05,302.84 277.63,117.2 190.62,117.2 190.62,322.37 "/>
    <polygon id="polygon2993" class="fil3" points="128.59,197.78 130.98,224.43 190.62,224.43 190.62,197.78 "/>
    <polygon id="polygon2995" class="fil3" points="190.62,143.84 190.52,143.84 123.79,143.84 126.22,170.49 190.62,170.49 "/>
    <polygon id="polygon2997" class="fil3" points="190.62,294.72 190.62,266.99 190.5,267.02 160.82,259.01 158.92,237.76 144.5,237.76 132.17,237.76 135.9,279.6 190.49,294.75 "/>
    <polygon id="path2999" class="fil4" points="134.28,40.38 166.55,40.38 166.55,53.88 147.78,53.88 147.78,67.38 166.55,67.38 166.55,80.87 134.28,80.87 " inkscape:connector-curvature="0"/>
    <polygon id="path3001" class="fil4" points="173.01,40.38 205.29,40.38 205.29,52.12 186.51,52.12 186.51,54.47 205.29,54.47 205.29,81.46 173.01,81.46 173.01,69.14 191.79,69.14 191.79,66.79 173.01,66.79 " inkscape:connector-curvature="0"/>
    <polygon id="path3003" class="fil4" points="211.74,40.38 244.02,40.38 244.02,52.12 225.24,52.12 225.24,54.47 244.02,54.47 244.02,81.46 211.74,81.46 211.74,69.14 230.52,69.14 230.52,66.79 211.74,66.79 " inkscape:connector-curvature="0"/>
    <polygon id="polygon3005" class="fil5" points="223.34,224.43 220.24,258.99 190.52,267.01 190.52,294.74 245.15,279.6 245.55,275.1 251.82,204.94 252.47,197.78 257.28,143.84 190.52,143.84 190.52,170.49 228.07,170.49 225.65,197.78 190.52,197.78 190.52,224.43 "/>
   </g>
  </g>
 </g>
</svg>
