<?xml version="1.0" encoding="UTF-8"?>
<!DOCTYPE svg PUBLIC "-//W3C//DTD SVG 1.1//EN" "http://www.w3.org/Graphics/SVG/1.1/DTD/svg11.dtd">
<!-- Creator: CorelDRAW 2021 (64-Bit) -->
<svg xmlns="http://www.w3.org/2000/svg" xml:space="preserve" width="14.0564mm" height="14.0564mm" version="1.1" style="shape-rendering:geometricPrecision; text-rendering:geometricPrecision; image-rendering:optimizeQuality; fill-rule:evenodd; clip-rule:evenodd"
viewBox="0 0 90.7 90.7"
 xmlns:xlink="http://www.w3.org/1999/xlink"
 xmlns:xodm="http://www.corel.com/coreldraw/odm/2003">
 <defs>
  <style type="text/css">
   <![CDATA[
    .fil0 {fill:#2B2A29}
    .fil4 {fill:#FEFEFE;fill-rule:nonzero}
    .fil1 {fill:#264DE4;fill-rule:nonzero}
    .fil2 {fill:#2965F1;fill-rule:nonzero}
    .fil3 {fill:#EBEBEB;fill-rule:nonzero}
    .fil5 {fill:white;fill-rule:nonzero}
   ]]>
  </style>
 </defs>
 <g id="Layer_x0020_1">
  <metadata id="CorelCorpID_0Corel-Layer"/>
  <rect class="fil0" x="-0" y="0" width="90.7" height="90.7" rx="12.9" ry="12.9"/>
  <g id="_2818765456768">
   <polygon id="polygon2989" class="fil1" points="70.67,23.66 66.06,75.34 45.32,81.09 24.64,75.35 20.03,23.66 "/>
   <polygon id="polygon2991" class="fil2" points="62.11,72.05 66.05,27.88 45.35,27.88 45.35,76.7 "/>
   <polygon id="polygon2993" class="fil3" points="30.59,47.05 31.16,53.39 45.35,53.39 45.35,47.05 "/>
   <polygon id="polygon2995" class="fil3" points="45.35,34.22 45.33,34.22 29.45,34.22 30.03,40.56 45.35,40.56 "/>
   <polygon id="polygon2997" class="fil3" points="45.35,70.12 45.35,63.52 45.32,63.53 38.26,61.62 37.81,56.56 34.38,56.56 31.44,56.56 32.33,66.52 45.32,70.12 "/>
   <polygon id="path2999" class="fil4" points="31.95,9.61 39.62,9.61 39.62,12.82 35.16,12.82 35.16,16.03 39.62,16.03 39.62,19.24 31.95,19.24 " inkscape:connector-curvature="0"/>
   <polygon id="path3001" class="fil4" points="41.16,9.61 48.84,9.61 48.84,12.4 44.37,12.4 44.37,12.96 48.84,12.96 48.84,19.38 41.16,19.38 41.16,16.45 45.63,16.45 45.63,15.89 41.16,15.89 " inkscape:connector-curvature="0"/>
   <polygon id="path3003" class="fil4" points="50.37,9.61 58.05,9.61 58.05,12.4 53.59,12.4 53.59,12.96 58.05,12.96 58.05,19.38 50.37,19.38 50.37,16.45 54.84,16.45 54.84,15.89 50.37,15.89 " inkscape:connector-curvature="0"/>
   <polygon id="polygon3005" class="fil5" points="53.13,53.39 52.4,61.62 45.33,63.53 45.33,70.12 58.32,66.52 58.42,65.45 59.91,48.76 60.06,47.05 61.21,34.22 45.33,34.22 45.33,40.56 54.26,40.56 53.68,47.05 45.33,47.05 45.33,53.39 "/>
  </g>
 </g>
</svg>
