<?xml version="1.0" encoding="UTF-8"?>
<!DOCTYPE svg PUBLIC "-//W3C//DTD SVG 1.1//EN" "http://www.w3.org/Graphics/SVG/1.1/DTD/svg11.dtd">
<!-- Creator: CorelDRAW 2021 (64-Bit) -->
<svg xmlns="http://www.w3.org/2000/svg" xml:space="preserve" width="14.0564mm" height="14.0564mm" version="1.1" style="shape-rendering:geometricPrecision; text-rendering:geometricPrecision; image-rendering:optimizeQuality; fill-rule:evenodd; clip-rule:evenodd"
viewBox="0 0 1436.09 1436.09"
 xmlns:xlink="http://www.w3.org/1999/xlink"
 xmlns:xodm="http://www.corel.com/coreldraw/odm/2003">
 <defs>
  <style type="text/css">
   <![CDATA[
    .fil0 {fill:#2B2A29}
    .fil4 {fill:#FEFEFE;fill-rule:nonzero}
    .fil1 {fill:#264DE4;fill-rule:nonzero}
    .fil2 {fill:#2965F1;fill-rule:nonzero}
    .fil3 {fill:#EBEBEB;fill-rule:nonzero}
    .fil5 {fill:white;fill-rule:nonzero}
   ]]>
  </style>
 </defs>
 <g id="Layer_x0020_1">
  <metadata id="CorelCorpID_0Corel-Layer"/>
  <path class="fil0" d="M204.34 0l1027.41 0c112.38,0 204.33,91.95 204.33,204.33l0 1027.41c0,112.38 -91.95,204.34 -204.33,204.34l-1027.41 0c-112.38,0 -204.34,-91.96 -204.34,-204.34l0 -1027.41c0,-112.38 91.96,-204.33 204.34,-204.33z"/>
  <polygon class="fil1" points="1118.98,374.55 1045.93,1192.92 717.56,1283.95 390.09,1193.04 317.11,374.55 "/>
  <polygon class="fil2" points="983.38,1140.82 1045.82,441.48 718.05,441.48 718.05,1214.36 "/>
  <polygon class="fil3" points="484.4,745.03 493.4,845.43 718.05,845.43 718.05,745.03 "/>
  <polygon class="fil3" points="718.05,541.87 717.7,541.87 466.33,541.87 475.44,642.25 718.05,642.25 "/>
  <polygon class="fil3" points="718.05,1110.2 718.05,1005.76 717.61,1005.87 605.8,975.68 598.66,895.62 544.33,895.62 497.89,895.62 511.94,1053.24 717.57,1110.32 "/>
  <polygon class="fil4" points="505.81,152.11 627.41,152.11 627.41,202.96 556.67,202.96 556.67,253.81 627.41,253.81 627.41,304.64 505.81,304.64 "/>
  <polygon class="fil4" points="651.72,152.11 773.3,152.11 773.3,196.32 702.56,196.32 702.56,205.16 773.3,205.16 773.3,306.86 651.72,306.86 651.72,260.44 722.46,260.44 722.46,251.59 651.72,251.59 "/>
  <polygon class="fil4" points="797.63,152.11 919.22,152.11 919.22,196.32 848.48,196.32 848.48,205.16 919.22,205.16 919.22,306.86 797.63,306.86 797.63,260.44 868.37,260.44 868.37,251.59 797.63,251.59 "/>
  <polygon class="fil5" points="841.32,845.43 829.65,975.62 717.7,1005.83 717.7,1110.29 923.49,1053.24 925.01,1036.29 948.59,772 951.04,745.03 969.16,541.87 717.7,541.87 717.7,642.25 859.15,642.25 850.02,745.03 717.7,745.03 717.7,845.43 "/>
 </g>
</svg>
