<?xml version="1.0" encoding="UTF-8"?>
<!DOCTYPE svg PUBLIC "-//W3C//DTD SVG 1.1//EN" "http://www.w3.org/Graphics/SVG/1.1/DTD/svg11.dtd">
<!-- Creator: CorelDRAW 2021 (64-Bit) -->
<svg xmlns="http://www.w3.org/2000/svg" xml:space="preserve" width="25mm" height="25mm" version="1.1" style="shape-rendering:geometricPrecision; text-rendering:geometricPrecision; image-rendering:optimizeQuality; fill-rule:evenodd; clip-rule:evenodd"
viewBox="0 0 381.6 381.6"
 xmlns:xlink="http://www.w3.org/1999/xlink"
 xmlns:xodm="http://www.corel.com/coreldraw/odm/2003">
 <defs>
  <style type="text/css">
   <![CDATA[
    .fil0 {fill:#2B2A29}
    .fil2 {fill:#0ACF83;fill-rule:nonzero}
    .fil1 {fill:#1ABCFE;fill-rule:nonzero}
    .fil5 {fill:#A259FF;fill-rule:nonzero}
    .fil4 {fill:#F24E1E;fill-rule:nonzero}
    .fil3 {fill:#FF7262;fill-rule:nonzero}
   ]]>
  </style>
 </defs>
 <g id="Layer_x0020_1">
  <metadata id="CorelCorpID_0Corel-Layer"/>
  <g id="_2818754303248">
   <rect class="fil0" x="0" y="0" width="381.6" height="381.6" rx="76.32" ry="76.32"/>
   <g>
    <path class="fil1" d="M190.8 190.8c0,-18.73 15.18,-33.91 33.9,-33.91 18.73,0 33.91,15.18 33.91,33.91 0,18.73 -15.18,33.91 -33.91,33.91 -18.73,0 -33.9,-15.18 -33.9,-33.91z"/>
    <path class="fil2" d="M122.99 258.61c0,-18.73 15.18,-33.9 33.91,-33.9l33.9 0 0 33.9c0,18.73 -15.18,33.91 -33.91,33.91 -18.73,0 -33.91,-15.18 -33.91,-33.91l0 0z"/>
    <path class="fil3" d="M190.8 89.08l0 67.81 33.9 0c18.73,0 33.91,-15.18 33.91,-33.9 0,-18.73 -15.18,-33.91 -33.91,-33.91l-33.9 0z"/>
    <path class="fil4" d="M122.99 122.99c0,18.73 15.18,33.9 33.91,33.9l33.9 0 0 -67.81 -33.91 0c-18.73,0 -33.91,15.18 -33.91,33.91l0 0z"/>
    <path class="fil5" d="M122.99 190.8c0,18.73 15.18,33.91 33.91,33.91l33.9 0 0 -67.81 -33.91 -0c-18.73,0 -33.91,15.18 -33.91,33.91l0 0z"/>
   </g>
  </g>
 </g>
</svg>
