<?xml version="1.0" encoding="UTF-8"?>
<!DOCTYPE svg PUBLIC "-//W3C//DTD SVG 1.1//EN" "http://www.w3.org/Graphics/SVG/1.1/DTD/svg11.dtd">
<!-- Creator: CorelDRAW 2021 (64-Bit) -->
<svg xmlns="http://www.w3.org/2000/svg" xml:space="preserve" width="25.0001mm" height="25.0001mm" version="1.1" style="shape-rendering:geometricPrecision; text-rendering:geometricPrecision; image-rendering:optimizeQuality; fill-rule:evenodd; clip-rule:evenodd"
viewBox="0 0 2814.7 2814.7"
 xmlns:xlink="http://www.w3.org/1999/xlink"
 xmlns:xodm="http://www.corel.com/coreldraw/odm/2003">
 <defs>
  <style type="text/css">
   <![CDATA[
    .fil0 {fill:#2B2A29}
    .fil1 {fill:#FEFEFE;fill-rule:nonzero}
    .fil2 {fill:#F05133;fill-rule:nonzero}
   ]]>
  </style>
 </defs>
 <g id="Layer_x0020_1">
  <metadata id="CorelCorpID_0Corel-Layer"/>
  <g id="_2818752626384">
   <rect class="fil0" x="0" y="0" width="2814.71" height="2814.71" rx="562.94" ry="562.94"/>
   <g>
    <g>
     <g>
      <path class="fil1" d="M1830.28 1955.15c-38.64,0 -67.42,18.97 -67.42,64.64 0,34.41 18.96,58.29 65.33,58.29 39.3,0 66,-23.16 66,-59.71 0,-41.42 -23.89,-63.22 -63.92,-63.22l0 0zm-77.28 322.42c-9.14,11.22 -18.26,23.15 -18.26,37.21 0,28.08 35.8,36.52 84.98,36.52 40.73,0 96.23,-2.85 96.23,-40.72 0,-22.52 -26.69,-23.91 -60.44,-26.02l-102.52 -6.99 0.01 0zm207.89 -320.3c12.62,16.17 25.99,38.64 25.99,70.95 0,77.96 -61.11,123.61 -149.58,123.61 -22.51,0 -42.87,-2.8 -55.49,-6.32l-23.19 37.22 68.82 4.21c121.52,7.73 193.13,11.26 193.13,104.64 0,80.79 -70.92,126.41 -193.13,126.41 -127.12,0 -175.58,-32.31 -175.58,-87.78 0,-31.63 14.05,-48.45 38.63,-71.65 -23.18,-9.81 -30.89,-27.36 -30.89,-46.33 0,-15.46 7.71,-29.5 20.38,-42.85 12.63,-13.34 26.67,-26.69 43.54,-42.14 -34.42,-16.85 -60.4,-53.38 -60.4,-105.36 0,-80.76 53.38,-136.23 160.82,-136.23 30.21,0 48.47,2.78 64.63,7.03l136.97 0 0 59.68 -64.63 4.92 0 -0.01zm0 0l0 0 0 0z"/>
     </g>
     <g>
      <path class="fil1" d="M2149.14 1829.64c-40.04,0 -63.21,-23.19 -63.21,-63.24 0,-40 23.17,-61.79 63.21,-61.79 40.75,0 63.92,21.79 63.92,61.79 0,40.05 -23.17,63.24 -63.92,63.24zm-90.61 422.08l0 -55.46 35.83 -4.9c9.84,-1.43 11.24,-3.51 11.24,-14.07l0 -206.49c0,-7.71 -2.09,-12.65 -9.14,-14.75l-37.92 -13.35 7.72 -56.87 145.4 0 0 291.46c0,11.26 0.68,12.65 11.24,14.07l35.83 4.91 0 55.45 -200.19 0 0.01 0zm0 0l0 0 0 0z"/>
     </g>
     <g>
      <path class="fil1" d="M2536.44 2224.5c-30.21,14.74 -74.44,28.08 -114.5,28.08 -83.57,0 -115.17,-33.67 -115.17,-113.07l0 -184c0,-4.21 0,-7.03 -5.64,-7.03l-49.16 0 0 -62.51c61.82,-7.05 86.39,-37.95 94.11,-114.51l66.73 0 0 99.78c0,4.9 0,7.01 5.63,7.01l99.02 0 0 70.22 -104.65 0 0 167.86c0,41.44 9.85,57.59 47.75,57.59 19.69,0 40.04,-4.91 56.9,-11.22l18.98 61.82 -0.01 -0.01zm0 0l0 0 0 0z"/>
     </g>
    </g>
    <g>
     <path class="fil2" d="M1972.48 1183.16l-753.98 -753.88c-43.38,-43.43 -113.79,-43.43 -157.23,0l-156.55 156.56 198.58 198.58c46.16,-15.59 99.08,-5.13 135.86,31.65 36.97,37.02 47.35,90.39 31.37,136.72l191.4 191.4c46.31,-15.96 99.74,-5.65 136.72,31.39 51.69,51.68 51.69,135.42 0,187.11 -51.7,51.7 -135.44,51.7 -187.18,0 -38.87,-38.9 -48.48,-96.01 -28.79,-143.9l-178.51 -178.51 -0.01 469.73c12.6,6.24 24.5,14.56 34.99,25.02 51.68,51.67 51.68,135.4 0,187.15 -51.69,51.67 -135.47,51.67 -187.11,0 -51.68,-51.76 -51.68,-135.48 0,-187.15 12.78,-12.76 27.56,-22.4 43.32,-28.87l0 -474.08c-15.77,-6.45 -30.53,-16.02 -43.32,-28.88 -39.16,-39.11 -48.58,-96.58 -28.51,-144.65l-195.76 -195.79 -516.94 516.91c-43.44,43.46 -43.44,113.87 0,157.3l753.92 753.88c43.4,43.43 113.8,43.43 157.26,0l750.44 -750.31c43.41,-43.45 43.41,-113.88 0,-157.32l0.01 -0.06zm0 0l0 0 0 0z"/>
    </g>
   </g>
  </g>
 </g>
</svg>
