<?xml version="1.0" encoding="UTF-8"?>
<!DOCTYPE svg PUBLIC "-//W3C//DTD SVG 1.1//EN" "http://www.w3.org/Graphics/SVG/1.1/DTD/svg11.dtd">
<!-- Creator: CorelDRAW 2021 (64-Bit) -->
<svg xmlns="http://www.w3.org/2000/svg" xml:space="preserve" width="40mm" height="40mm" version="1.1" style="shape-rendering:geometricPrecision; text-rendering:geometricPrecision; image-rendering:optimizeQuality; fill-rule:evenodd; clip-rule:evenodd"
viewBox="0 0 1478.07 1478.07"
 xmlns:xlink="http://www.w3.org/1999/xlink"
 xmlns:xodm="http://www.corel.com/coreldraw/odm/2003">
 <defs>
  <style type="text/css">
   <![CDATA[
    .fil0 {fill:#2B2A29}
    .fil1 {fill:#FEFEFE;fill-rule:nonzero}
    .fil2 {fill:#F05133;fill-rule:nonzero}
   ]]>
  </style>
 </defs>
 <g id="Layer_x0020_1">
  <metadata id="CorelCorpID_0Corel-Layer"/>
  <rect class="fil0" width="1478.07" height="1478.07" rx="184.76" ry="184.76"/>
 </g>
 <g id="Layer_x0020_1_0">
  <metadata id="CorelCorpID_1Corel-Layer"/>
  <g id="_2838765953152">
   <g>
    <g>
     <path class="fil1" d="M961.12 1026.69c-20.29,0 -35.4,9.96 -35.4,33.94 0,18.07 9.96,30.61 34.31,30.61 20.64,0 34.66,-12.16 34.66,-31.35 0,-21.75 -12.55,-33.2 -33.56,-33.2l0 0zm-40.58 169.31c-4.8,5.89 -9.59,12.15 -9.59,19.54 0,14.74 18.8,19.18 44.62,19.18 21.4,0 50.53,-1.5 50.53,-21.39 0,-11.82 -14.02,-12.55 -31.73,-13.66l-53.84 -3.67 0 0zm109.17 -168.19c6.63,8.48 13.65,20.29 13.65,37.25 0,40.94 -32.09,64.91 -78.55,64.91 -11.81,0 -22.51,-1.47 -29.14,-3.31l-12.18 19.54 36.14 2.21c63.81,4.07 101.42,5.92 101.42,54.95 0,42.42 -37.24,66.38 -101.42,66.38 -66.76,0 -92.2,-16.97 -92.2,-46.1 0,-16.6 7.38,-25.43 20.29,-37.62 -12.18,-5.15 -16.23,-14.36 -16.23,-24.33 0,-8.12 4.05,-15.49 10.7,-22.51 6.64,-7 14.01,-14.02 22.87,-22.13 -18.07,-8.85 -31.72,-28.03 -31.72,-55.32 0,-42.41 28.04,-71.53 84.45,-71.53 15.86,0 25.46,1.46 33.94,3.69l71.92 0 0 31.34 -33.94 2.58 0 -0zm0 0l0 0 0 0z"/>
    </g>
    <g>
     <path class="fil1" d="M1128.56 960.79c-21.03,0 -33.19,-12.18 -33.19,-33.21 0,-21 12.17,-32.45 33.19,-32.45 21.4,0 33.56,11.44 33.56,32.45 0,21.03 -12.17,33.21 -33.56,33.21zm-47.59 221.64l0 -29.12 18.82 -2.57c5.17,-0.75 5.9,-1.85 5.9,-7.39l0 -108.43c0,-4.05 -1.1,-6.64 -4.8,-7.74l-19.91 -7.01 4.05 -29.86 76.35 0 0 153.05c0,5.91 0.35,6.64 5.9,7.39l18.81 2.58 0 29.12 -105.12 0 0 -0zm0 0l0 0 0 0z"/>
    </g>
    <g>
     <path class="fil1" d="M1331.95 1168.13c-15.87,7.74 -39.09,14.75 -60.13,14.75 -43.89,0 -60.48,-17.69 -60.48,-59.38l0 -96.63c0,-2.21 0,-3.69 -2.96,-3.69l-25.81 0 0 -32.82c32.47,-3.7 45.36,-19.93 49.42,-60.13l35.04 0 0 52.39c0,2.57 0,3.68 2.95,3.68l52 0 0 36.88 -54.95 0 0 88.14c0,21.76 5.17,30.24 25.08,30.24 10.34,0 21.02,-2.58 29.88,-5.9l9.97 32.47 -0 -0zm0 0l0 0 0 0z"/>
    </g>
   </g>
   <g>
    <path class="fil2" d="M1035.79 621.3l-395.93 -395.88c-22.78,-22.8 -59.76,-22.8 -82.57,0l-82.21 82.22 104.28 104.28c24.24,-8.18 52.03,-2.7 71.34,16.62 19.41,19.44 24.86,47.46 16.47,71.79l100.51 100.51c24.32,-8.38 52.37,-2.97 71.79,16.48 27.14,27.14 27.14,71.11 0,98.25 -27.15,27.16 -71.12,27.16 -98.29,0 -20.41,-20.43 -25.46,-50.42 -15.12,-75.57l-93.74 -93.73 -0.01 246.66c6.62,3.27 12.87,7.65 18.38,13.14 27.14,27.13 27.14,71.1 0,98.28 -27.14,27.13 -71.14,27.13 -98.25,0 -27.14,-27.17 -27.14,-71.14 0,-98.28 6.71,-6.7 14.47,-11.77 22.75,-15.16l0 -248.95c-8.28,-3.38 -16.04,-8.41 -22.75,-15.16 -20.56,-20.54 -25.51,-50.72 -14.97,-75.96l-102.8 -102.81 -271.45 271.45c-22.81,22.82 -22.81,59.8 0,82.6l395.9 395.88c22.79,22.8 59.76,22.8 82.58,0l394.07 -394.01c22.8,-22.81 22.8,-59.8 0,-82.61l0.01 -0.03zm0 0l0 0 0 0z"/>
   </g>
  </g>
 </g>
</svg>
