<?xml version="1.0" encoding="UTF-8"?>
<!DOCTYPE svg PUBLIC "-//W3C//DTD SVG 1.1//EN" "http://www.w3.org/Graphics/SVG/1.1/DTD/svg11.dtd">
<!-- Creator: CorelDRAW 2021 (64-Bit) -->
<svg xmlns="http://www.w3.org/2000/svg" xml:space="preserve" width="14.0564mm" height="14.0564mm" version="1.1" style="shape-rendering:geometricPrecision; text-rendering:geometricPrecision; image-rendering:optimizeQuality; fill-rule:evenodd; clip-rule:evenodd"
viewBox="0 0 174.57 174.57"
 xmlns:xlink="http://www.w3.org/1999/xlink"
 xmlns:xodm="http://www.corel.com/coreldraw/odm/2003">
 <defs>
  <style type="text/css">
   <![CDATA[
    .fil0 {fill:#2B2A29}
    .fil1 {fill:#FEFEFE;fill-rule:nonzero}
    .fil2 {fill:#F05133;fill-rule:nonzero}
   ]]>
  </style>
 </defs>
 <g id="Layer_x0020_1">
  <metadata id="CorelCorpID_0Corel-Layer"/>
  <rect class="fil0" x="0" y="0" width="174.57" height="174.57" rx="24.84" ry="24.84"/>
  <g id="_2818684779168">
   <g>
    <g>
     <path class="fil1" d="M113.51 121.26c-2.4,0 -4.18,1.18 -4.18,4.01 0,2.13 1.18,3.61 4.05,3.61 2.44,0 4.09,-1.44 4.09,-3.7 0,-2.57 -1.48,-3.92 -3.96,-3.92l0 0zm-4.79 20c-0.57,0.7 -1.13,1.44 -1.13,2.31 0,1.74 2.22,2.26 5.27,2.26 2.53,0 5.97,-0.18 5.97,-2.53 0,-1.4 -1.66,-1.48 -3.75,-1.61l-6.36 -0.43 0 0zm12.89 -19.86c0.78,1 1.61,2.4 1.61,4.4 0,4.83 -3.79,7.67 -9.28,7.67 -1.4,0 -2.66,-0.17 -3.44,-0.39l-1.44 2.31 4.27 0.26c7.54,0.48 11.98,0.7 11.98,6.49 0,5.01 -4.4,7.84 -11.98,7.84 -7.88,0 -10.89,-2 -10.89,-5.44 0,-1.96 0.87,-3 2.4,-4.44 -1.44,-0.61 -1.92,-1.7 -1.92,-2.87 0,-0.96 0.48,-1.83 1.26,-2.66 0.78,-0.83 1.65,-1.66 2.7,-2.61 -2.13,-1.05 -3.75,-3.31 -3.75,-6.53 0,-5.01 3.31,-8.45 9.97,-8.45 1.87,0 3.01,0.17 4.01,0.44l8.49 0 0 3.7 -4.01 0.31 0 0zm0 0l0 0 0 0z"/>
    </g>
    <g>
     <path class="fil1" d="M133.29 113.48c-2.48,0 -3.92,-1.44 -3.92,-3.92 0,-2.48 1.44,-3.83 3.92,-3.83 2.53,0 3.96,1.35 3.96,3.83 0,2.48 -1.44,3.92 -3.96,3.92zm-5.62 26.18l0 -3.44 2.22 -0.3c0.61,-0.09 0.7,-0.22 0.7,-0.87l0 -12.81c0,-0.48 -0.13,-0.78 -0.57,-0.91l-2.35 -0.83 0.48 -3.53 9.02 0 0 18.08c0,0.7 0.04,0.78 0.7,0.87l2.22 0.3 0 3.44 -12.42 0 0 0zm0 0l0 0 0 0z"/>
    </g>
    <g>
     <path class="fil1" d="M157.31 137.96c-1.87,0.91 -4.62,1.74 -7.1,1.74 -5.18,0 -7.14,-2.09 -7.14,-7.01l0 -11.41c0,-0.26 0,-0.44 -0.35,-0.44l-3.05 0 0 -3.88c3.83,-0.44 5.36,-2.35 5.84,-7.1l4.14 0 0 6.19c0,0.3 0,0.43 0.35,0.43l6.14 0 0 4.36 -6.49 0 0 10.41c0,2.57 0.61,3.57 2.96,3.57 1.22,0 2.48,-0.3 3.53,-0.7l1.18 3.83 0 0zm0 0l0 0 0 0z"/>
    </g>
   </g>
   <g>
    <path class="fil2" d="M122.33 73.38l-46.76 -46.76c-2.69,-2.69 -7.06,-2.69 -9.75,0l-9.71 9.71 12.32 12.32c2.86,-0.97 6.14,-0.32 8.43,1.96 2.29,2.3 2.94,5.6 1.95,8.48l11.87 11.87c2.87,-0.99 6.18,-0.35 8.48,1.95 3.21,3.2 3.21,8.4 0,11.6 -3.21,3.21 -8.4,3.21 -11.61,0 -2.41,-2.41 -3.01,-5.95 -1.79,-8.93l-11.07 -11.07 0 29.13c0.78,0.39 1.52,0.9 2.17,1.55 3.21,3.21 3.21,8.4 0,11.61 -3.21,3.2 -8.4,3.2 -11.6,0 -3.21,-3.21 -3.21,-8.4 0,-11.61 0.79,-0.79 1.71,-1.39 2.69,-1.79l0 -29.4c-0.98,-0.4 -1.89,-0.99 -2.69,-1.79 -2.43,-2.43 -3.01,-5.99 -1.77,-8.97l-12.14 -12.14 -32.06 32.06c-2.69,2.69 -2.69,7.06 0,9.76l46.76 46.76c2.69,2.69 7.06,2.69 9.75,0l46.54 -46.53c2.69,-2.69 2.69,-7.06 0,-9.76l0 -0zm0 0l0 0 0 0z"/>
   </g>
  </g>
 </g>
</svg>
