<?xml version="1.0" encoding="UTF-8"?>
<!DOCTYPE svg PUBLIC "-//W3C//DTD SVG 1.1//EN" "http://www.w3.org/Graphics/SVG/1.1/DTD/svg11.dtd">
<!-- Creator: CorelDRAW 2021 (64-Bit) -->
<svg xmlns="http://www.w3.org/2000/svg" xml:space="preserve" width="14.0564mm" height="14.0564mm" version="1.1" style="shape-rendering:geometricPrecision; text-rendering:geometricPrecision; image-rendering:optimizeQuality; fill-rule:evenodd; clip-rule:evenodd"
viewBox="0 0 78.43 78.43"
 xmlns:xlink="http://www.w3.org/1999/xlink"
 xmlns:xodm="http://www.corel.com/coreldraw/odm/2003">
 <defs>
  <style type="text/css">
   <![CDATA[
    .fil0 {fill:#2B2A29}
    .fil1 {fill:#FEFEFE;fill-rule:nonzero}
    .fil2 {fill:#E44D26;fill-rule:nonzero}
    .fil4 {fill:#EBEBEB;fill-rule:nonzero}
    .fil3 {fill:#F16529;fill-rule:nonzero}
    .fil5 {fill:white;fill-rule:nonzero}
   ]]>
  </style>
 </defs>
 <g id="Layer_x0020_1">
  <metadata id="CorelCorpID_0Corel-Layer"/>
  <rect class="fil0" x="-0" y="0" width="78.43" height="78.43" rx="11.16" ry="11.16"/>
  <g id="_2818762331856">
   <g>
    <path class="fil1" d="M21.38 8.29l2.78 0 0 2.75 2.56 0 0 -2.75 2.78 0 0 8.34 -2.78 0 0 -2.78 -2.54 0 0 2.78 -2.8 0 0 -8.34zm11.79 2.78l-2.45 0 0 -2.78 7.7 0 0 2.78 -2.46 0 0 5.56 -2.78 0 0 -5.56zm6.46 -2.78l2.91 0 1.79 2.94 1.79 -2.94 2.91 0 0 8.34 -2.78 0 0 -4.13 -1.95 3 -1.95 -3 0 4.13 -2.73 0 0 -8.34zm10.78 0l2.78 0 0 5.58 3.94 0 0 2.75 -6.72 0 0 -8.34zm0 0l0 0 0 0z"/>
   </g>
   <g>
    <path class="fil2" d="M21.29 65.19l-3.99 -44.75 43.83 0 -3.99 44.73 -17.97 4.98 -17.89 -4.95zm0 0l0 0 0 0z"/>
   </g>
   <g>
    <path class="fil3" d="M39.22 66.34l0 -42.23 17.92 0 -3.42 38.18 -14.5 4.05zm0 0l0 0 0 0z"/>
   </g>
   <g>
    <path class="fil4" d="M25.44 29.59l13.77 0 0 5.49 -7.76 0 0.51 5.62 7.25 0 0 5.47 -12.28 0 -1.5 -16.58zm1.74 19.33l5.51 0 0.39 4.39 6.14 1.64 0 5.73 -11.26 -3.14 -0.77 -8.61zm0 0l0 0 0 0z"/>
   </g>
   <g>
    <path class="fil5" d="M52.94 29.59l-13.75 0 0 5.49 13.24 0 0.51 -5.49zm-1 11.1l-12.75 0 0 5.49 6.77 0 -0.64 7.13 -6.13 1.64 0 5.7 11.24 -3.12 1.51 -16.84zm0 0l0 0 0 0z"/>
   </g>
  </g>
 </g>
</svg>
