<?xml version="1.0" encoding="UTF-8"?>
<!DOCTYPE svg PUBLIC "-//W3C//DTD SVG 1.1//EN" "http://www.w3.org/Graphics/SVG/1.1/DTD/svg11.dtd">
<!-- Creator: CorelDRAW 2021 (64-Bit) -->
<svg xmlns="http://www.w3.org/2000/svg" xml:space="preserve" width="40mm" height="40mm" version="1.1" style="shape-rendering:geometricPrecision; text-rendering:geometricPrecision; image-rendering:optimizeQuality; fill-rule:evenodd; clip-rule:evenodd"
viewBox="0 0 1729.49 1729.49"
 xmlns:xlink="http://www.w3.org/1999/xlink"
 xmlns:xodm="http://www.corel.com/coreldraw/odm/2003">
 <defs>
  <style type="text/css">
   <![CDATA[
    .fil0 {fill:#2B2A29}
    .fil1 {fill:#FEFEFE;fill-rule:nonzero}
    .fil2 {fill:#E44D26;fill-rule:nonzero}
    .fil4 {fill:#EBEBEB;fill-rule:nonzero}
    .fil3 {fill:#F16529;fill-rule:nonzero}
    .fil5 {fill:white;fill-rule:nonzero}
   ]]>
  </style>
 </defs>
 <g id="Layer_x0020_1">
  <metadata id="CorelCorpID_0Corel-Layer"/>
  <rect class="fil0" width="1729.49" height="1729.49" rx="216.19" ry="216.19"/>
  <g id="_1796515650512">
   <g>
    <path class="fil1" d="M471.51 182.71l61.28 0 0 60.74 56.48 0 0 -60.74 61.28 0 0 183.83 -61.28 0 0 -61.28 -55.95 0 0 61.28 -61.81 0 0 -183.83zm260.03 61.28l-54.09 0 0 -61.28 169.71 0 0 61.28 -54.35 0 0 122.55 -61.28 0 0 -122.55zm142.53 -61.28l64.21 0 39.43 64.74 39.43 -64.74 64.21 0 0 183.83 -61.28 0 0 -91.12 -42.9 66.08 -42.89 -66.08 0 91.12 -60.21 0 0 -183.83zm237.65 0l61.28 0 0 123.09 86.86 0 0 60.74 -148.13 0 0 -183.83zm0 0l0 0 0 0z"/>
   </g>
   <g>
    <path class="fil2" d="M469.38 1437.55l-87.92 -986.81 966.57 0 -87.92 986.28 -396.16 109.77 -394.57 -109.23zm0 0l0 0 0 0z"/>
   </g>
   <g>
    <path class="fil3" d="M864.75 1462.85l0 -931.13 395.1 0 -75.4 841.88 -319.7 89.25zm0 0l0 0 0 0z"/>
   </g>
   <g>
    <path class="fil4" d="M561.03 652.41l303.72 0 0 120.96 -171.04 0 11.19 123.88 159.85 0 0 120.69 -270.68 0 -33.04 -365.53zm38.36 426.27l121.49 0 8.53 96.71 135.34 36.23 0 126.28 -248.3 -69.27 -17.05 -189.95zm0 0l0 0 0 0z"/>
   </g>
   <g>
    <path class="fil5" d="M1167.4 652.41l-303.18 0 0 120.96 291.99 0 11.19 -120.96zm-22.11 244.84l-281.07 0 0 120.96 149.19 0 -14.12 157.19 -135.08 36.23 0 125.75 247.77 -68.73 33.3 -371.39zm0 0l0 0 0 0z"/>
   </g>
  </g>
 </g>
</svg>
