<?xml version="1.0" encoding="UTF-8"?>
<!DOCTYPE svg PUBLIC "-//W3C//DTD SVG 1.1//EN" "http://www.w3.org/Graphics/SVG/1.1/DTD/svg11.dtd">
<!-- Creator: CorelDRAW 2021 (64-Bit) -->
<svg xmlns="http://www.w3.org/2000/svg" xml:space="preserve" width="25.0001mm" height="25.0001mm" version="1.1" style="shape-rendering:geometricPrecision; text-rendering:geometricPrecision; image-rendering:optimizeQuality; fill-rule:evenodd; clip-rule:evenodd"
viewBox="0 0 278.36 278.36"
 xmlns:xlink="http://www.w3.org/1999/xlink"
 xmlns:xodm="http://www.corel.com/coreldraw/odm/2003">
 <defs>
  <style type="text/css">
   <![CDATA[
    .fil0 {fill:#2B2A29}
    .fil1 {fill:#FEFEFE;fill-rule:nonzero}
    .fil2 {fill:#E44D26;fill-rule:nonzero}
    .fil4 {fill:#EBEBEB;fill-rule:nonzero}
    .fil3 {fill:#F16529;fill-rule:nonzero}
    .fil5 {fill:white;fill-rule:nonzero}
   ]]>
  </style>
 </defs>
 <g id="Layer_x0020_1">
  <metadata id="CorelCorpID_0Corel-Layer"/>
  <g id="_2818355996464">
   <rect class="fil0" y="0" width="278.36" height="278.36" rx="55.67" ry="55.67"/>
   <g>
    <g>
     <path class="fil1" d="M75.89 29.41l9.86 0 0 9.78 9.09 0 0 -9.78 9.86 0 0 29.59 -9.86 0 0 -9.86 -9.01 0 0 9.86 -9.95 0 0 -29.59zm41.85 9.86l-8.7 0 0 -9.86 27.32 0 0 9.86 -8.75 0 0 19.72 -9.86 0 0 -19.72zm22.94 -9.86l10.34 0 6.35 10.42 6.35 -10.42 10.33 0 0 29.59 -9.86 0 0 -14.67 -6.9 10.63 -6.9 -10.63 0 14.67 -9.69 0 0 -29.59zm38.25 0l9.86 0 0 19.81 13.98 0 0 9.78 -23.84 0 0 -29.59zm0 0l0 0 0 0z"/>
    </g>
    <g>
     <path class="fil2" d="M75.55 231.37l-14.15 -158.83 155.57 0 -14.15 158.74 -63.76 17.67 -63.51 -17.58zm0 0l0 0 0 0z"/>
    </g>
    <g>
     <path class="fil3" d="M139.18 235.45l0 -149.87 63.59 0 -12.14 135.5 -51.46 14.37zm0 0l0 0 0 0z"/>
    </g>
    <g>
     <path class="fil4" d="M90.3 105.01l48.88 0 0 19.47 -27.53 0 1.8 19.94 25.73 0 0 19.43 -43.57 0 -5.32 -58.83zm6.17 68.61l19.55 0 1.37 15.57 21.78 5.83 0 20.33 -39.96 -11.15 -2.74 -30.57zm0 0l0 0 0 0z"/>
    </g>
    <g>
     <path class="fil5" d="M187.89 105.01l-48.8 0 0 19.47 47 0 1.8 -19.47zm-3.56 39.41l-45.24 0 0 19.47 24.01 0 -2.27 25.3 -21.74 5.83 0 20.24 39.88 -11.06 5.36 -59.78zm0 0l0 0 0 0z"/>
    </g>
   </g>
  </g>
 </g>
</svg>
