<?xml version="1.0" encoding="UTF-8"?>
<!DOCTYPE svg PUBLIC "-//W3C//DTD SVG 1.1//EN" "http://www.w3.org/Graphics/SVG/1.1/DTD/svg11.dtd">
<!-- Creator: CorelDRAW 2021 (64-Bit) -->
<svg xmlns="http://www.w3.org/2000/svg" xml:space="preserve" width="14.0564mm" height="14.0564mm" version="1.1" style="shape-rendering:geometricPrecision; text-rendering:geometricPrecision; image-rendering:optimizeQuality; fill-rule:evenodd; clip-rule:evenodd"
viewBox="0 0 108.2 108.2"
 xmlns:xlink="http://www.w3.org/1999/xlink"
 xmlns:xodm="http://www.corel.com/coreldraw/odm/2003">
 <defs>
  <style type="text/css">
   <![CDATA[
    .fil0 {fill:#F7DF1E}
    .fil1 {fill:black;fill-rule:nonzero}
   ]]>
  </style>
 </defs>
 <g id="Layer_x0020_1">
  <metadata id="CorelCorpID_0Corel-Layer"/>
  <rect class="fil0" x="0" y="0" width="108.2" height="108.2" rx="15.39" ry="15.39"/>
  <path class="fil1" d="M73.8 84.53c2.18,3.56 5.01,6.17 10.03,6.17 4.21,0 6.9,-2.11 6.9,-5.01 0,-3.49 -2.76,-4.72 -7.4,-6.75l-2.54 -1.09c-7.34,-3.13 -12.21,-7.04 -12.21,-15.32 0,-7.63 5.81,-13.43 14.89,-13.43 6.46,0 11.11,2.25 14.46,8.14l-7.92 5.08c-1.74,-3.13 -3.62,-4.36 -6.54,-4.36 -2.98,0 -4.87,1.89 -4.87,4.36 0,3.05 1.89,4.29 6.25,6.17l2.54 1.09c8.64,3.7 13.52,7.48 13.52,15.97 0,9.15 -7.19,14.17 -16.85,14.17 -9.44,0 -15.54,-4.5 -18.53,-10.4l8.26 -4.8zm-35.92 0.88c1.6,2.83 3.05,5.23 6.54,5.23 3.34,0 5.45,-1.31 5.45,-6.39l0 -34.57 10.17 0 0 34.71c0,10.53 -6.17,15.32 -15.18,15.32 -8.14,0 -12.85,-4.21 -15.25,-9.29l8.28 -5.01z"/>
 </g>
</svg>
