<?xml version="1.0" encoding="UTF-8"?>
<!DOCTYPE svg PUBLIC "-//W3C//DTD SVG 1.1//EN" "http://www.w3.org/Graphics/SVG/1.1/DTD/svg11.dtd">
<!-- Creator: CorelDRAW 2021 (64-Bit) -->
<svg xmlns="http://www.w3.org/2000/svg" xml:space="preserve" width="25mm" height="25mm" version="1.1" style="shape-rendering:geometricPrecision; text-rendering:geometricPrecision; image-rendering:optimizeQuality; fill-rule:evenodd; clip-rule:evenodd"
viewBox="0 0 617.1 617.1"
 xmlns:xlink="http://www.w3.org/1999/xlink"
 xmlns:xodm="http://www.corel.com/coreldraw/odm/2003">
 <defs>
  <style type="text/css">
   <![CDATA[
    .fil0 {fill:#F7DF1E}
    .fil1 {fill:black;fill-rule:nonzero}
   ]]>
  </style>
 </defs>
 <g id="Layer_x0020_1">
  <metadata id="CorelCorpID_0Corel-Layer"/>
  <g id="_2818735797520">
   <rect class="fil0" x="-0" y="-0" width="617.11" height="617.11" rx="123.42" ry="123.42"/>
   <path class="fil1" d="M420.9 482.11c12.43,20.3 28.6,35.21 57.21,35.21 24.03,0 39.38,-12.01 39.38,-28.6 0,-19.89 -15.77,-26.93 -42.22,-38.49l-14.5 -6.22c-41.84,-17.83 -69.64,-40.16 -69.64,-87.37 0,-43.49 33.14,-76.6 84.93,-76.6 36.87,0 63.37,12.83 82.47,46.43l-45.15 28.99c-9.94,-17.83 -20.67,-24.85 -37.32,-24.85 -16.99,0 -27.75,10.77 -27.75,24.85 0,17.39 10.77,24.44 35.65,35.21l14.5 6.21c49.27,21.13 77.09,42.67 77.09,91.1 0,52.21 -41.01,80.81 -96.09,80.81 -53.86,0 -88.65,-25.66 -105.67,-59.3l47.12 -27.38zm-204.85 5.03c9.11,16.16 17.4,29.83 37.32,29.83 19.05,0 31.07,-7.45 31.07,-36.44l0 -197.18 57.99 0 0 197.96c0,60.04 -35.2,87.37 -86.59,87.37 -46.43,0 -73.32,-24.03 -86.99,-52.97l47.2 -28.58z"/>
  </g>
 </g>
</svg>
