<?xml version="1.0" encoding="UTF-8"?>
<!DOCTYPE svg PUBLIC "-//W3C//DTD SVG 1.1//EN" "http://www.w3.org/Graphics/SVG/1.1/DTD/svg11.dtd">
<!-- Creator: CorelDRAW 2021 (64-Bit) -->
<svg xmlns="http://www.w3.org/2000/svg" xml:space="preserve" width="10.6879mm" height="10.6879mm" version="1.1" style="shape-rendering:geometricPrecision; text-rendering:geometricPrecision; image-rendering:optimizeQuality; fill-rule:evenodd; clip-rule:evenodd"
viewBox="0 0 111.89 111.89"
 xmlns:xlink="http://www.w3.org/1999/xlink"
 xmlns:xodm="http://www.corel.com/coreldraw/odm/2003">
 <defs>
  <style type="text/css">
   <![CDATA[
    .fil3 {fill:#FEFEFE}
    .fil0 {fill:#2B2A29}
    .fil2 {fill:#B3B3B3}
    .fil1 {fill:#FFA116;fill-rule:nonzero}
   ]]>
  </style>
 </defs>
 <g id="Layer_x0020_1_0">
  <metadata id="CorelCorpID_0Corel-Layer"/>
  <g id="_2201847622480">
   <rect class="fil0" x="-0" y="0" width="111.89" height="111.89" rx="20.94" ry="20.94"/>
   <g>
    <path id="Combined-Shape" class="fil1" d="M67.91 58.28c1.46,-1.45 3.81,-1.45 5.26,0.01 1.45,1.46 1.45,3.82 -0.01,5.27l-6.46 6.45c-5.96,5.95 -15.68,6.04 -21.75,0.2 -0.03,-0.03 -2.73,-2.68 -11.64,-11.41 -5.93,-5.81 -6.51,-15.11 -0.94,-21.08l10.4 -11.13c5.53,-5.93 15.73,-6.57 22.06,-1.46l9.44 7.64c1.6,1.29 1.85,3.64 0.56,5.24 -1.29,1.6 -3.63,1.85 -5.23,0.56l-9.44 -7.64c-3.31,-2.68 -9.1,-2.31 -11.95,0.75l-10.4 11.13c-2.71,2.91 -2.42,7.59 0.71,10.66 6.54,6.41 11.58,11.35 11.59,11.36 3.15,3.04 8.25,2.99 11.34,-0.1l6.46 -6.45z"/>
    <path id="Path-2" class="fil2" d="M52.21 51.82c-2.06,0 -3.72,-1.67 -3.72,-3.73 0,-2.06 1.67,-3.73 3.72,-3.73l27.44 0c2.06,0 3.72,1.67 3.72,3.73 0,2.06 -1.67,3.73 -3.72,3.73l-27.44 0z"/>
    <path id="Stroke-3" class="fil3" d="M57.35 10.98c1.4,-1.5 3.76,-1.58 5.26,-0.18 1.5,1.41 1.58,3.77 0.18,5.27l-24.98 26.74c-2.71,2.91 -2.42,7.59 0.71,10.66l11.53 11.31c1.47,1.44 1.49,3.8 0.06,5.27 -1.44,1.47 -3.79,1.5 -5.26,0.06l-11.53 -11.31c-5.93,-5.81 -6.51,-15.11 -0.94,-21.07l24.98 -26.74z"/>
   </g>
   <path id="LeetCode" class="fil3" d="M18.33 86.64l0 9.92c0,0.38 0.14,0.71 0.41,0.98 0.27,0.27 0.6,0.41 0.98,0.41l2.68 0c0.23,0 0.43,0.08 0.6,0.25 0.17,0.17 0.25,0.37 0.25,0.6l0 0.02c0,0.23 -0.08,0.43 -0.25,0.59 -0.17,0.17 -0.37,0.25 -0.6,0.25l-2.68 0c-0.85,0 -1.58,-0.3 -2.18,-0.9 -0.6,-0.6 -0.9,-1.33 -0.9,-2.18l0 -9.92c0,-0.23 0.08,-0.43 0.25,-0.6 0.17,-0.16 0.36,-0.24 0.59,-0.24l0.03 0c0.23,0 0.42,0.08 0.59,0.24 0.17,0.17 0.25,0.37 0.25,0.6zm10.68 4.66c-0.92,0 -1.71,0.33 -2.36,0.98 -0.64,0.65 -0.97,1.44 -0.97,2.36 0,0.17 0.01,0.33 0.04,0.49l5.84 -2.64c-0.66,-0.79 -1.51,-1.19 -2.54,-1.19zm4.57 1.22c0.1,0.21 0.11,0.42 0.03,0.65 -0.08,0.21 -0.23,0.37 -0.44,0.47 -0.86,0.39 -1.99,0.9 -3.39,1.53 -1.74,0.79 -2.87,1.3 -3.38,1.53 0.66,0.85 1.54,1.27 2.62,1.27 0.72,0 1.37,-0.21 1.95,-0.64 0.57,-0.41 0.96,-0.95 1.19,-1.6 0.14,-0.38 0.41,-0.57 0.81,-0.57 0.29,0 0.52,0.12 0.69,0.36 0.17,0.23 0.2,0.49 0.1,0.77 -0.34,1 -0.95,1.8 -1.81,2.42 -0.88,0.63 -1.86,0.95 -2.94,0.95 -1.39,0 -2.57,-0.49 -3.56,-1.48 -0.98,-0.98 -1.47,-2.17 -1.47,-3.56 0,-1.39 0.49,-2.57 1.47,-3.56 0.98,-0.98 2.17,-1.48 3.56,-1.48 1,0 1.92,0.27 2.75,0.82 0.82,0.53 1.43,1.24 1.83,2.12zm6.65 -1.22c-0.92,0 -1.71,0.33 -2.36,0.98 -0.64,0.65 -0.97,1.44 -0.97,2.36 0,0.17 0.01,0.33 0.04,0.49l5.84 -2.64c-0.66,-0.79 -1.51,-1.19 -2.54,-1.19zm4.57 1.22c0.1,0.21 0.11,0.42 0.03,0.65 -0.08,0.21 -0.23,0.37 -0.44,0.47 -0.86,0.39 -1.99,0.9 -3.39,1.53 -1.74,0.79 -2.87,1.3 -3.38,1.53 0.66,0.85 1.54,1.27 2.62,1.27 0.72,0 1.37,-0.21 1.95,-0.64 0.57,-0.41 0.96,-0.95 1.19,-1.6 0.14,-0.38 0.41,-0.57 0.81,-0.57 0.29,0 0.52,0.12 0.69,0.36 0.17,0.23 0.2,0.49 0.1,0.77 -0.34,1 -0.95,1.8 -1.81,2.42 -0.88,0.63 -1.86,0.95 -2.94,0.95 -1.39,0 -2.58,-0.49 -3.56,-1.48 -0.98,-0.98 -1.48,-2.17 -1.48,-3.56 0,-1.39 0.49,-2.57 1.48,-3.56 0.98,-0.98 2.17,-1.48 3.56,-1.48 1,0 1.92,0.27 2.75,0.82 0.82,0.53 1.43,1.24 1.82,2.12zm2.76 -6.72c0.23,0 0.42,0.08 0.59,0.24 0.17,0.17 0.25,0.37 0.25,0.6l0 2.94 1.66 0c0.23,0 0.42,0.08 0.59,0.25 0.17,0.17 0.25,0.37 0.25,0.6l0 0.02c0,0.23 -0.08,0.43 -0.25,0.59 -0.17,0.17 -0.36,0.25 -0.59,0.25l-1.66 0 0 5.74c0,0.25 0.09,0.47 0.27,0.65 0.18,0.18 0.4,0.27 0.65,0.27l0.74 0c0.23,0 0.42,0.08 0.59,0.25 0.17,0.17 0.25,0.37 0.25,0.6l0 0.02c0,0.23 -0.08,0.43 -0.25,0.59 -0.17,0.17 -0.36,0.25 -0.59,0.25l-0.74 0c-0.73,0 -1.35,-0.26 -1.86,-0.77 -0.51,-0.52 -0.77,-1.13 -0.77,-1.85l0 -10.39c0,-0.23 0.08,-0.43 0.25,-0.6 0.17,-0.16 0.36,-0.24 0.59,-0.24l0.03 0zm11.32 0c0.58,0 1.16,0.07 1.72,0.21 0.42,0.11 0.64,0.38 0.64,0.81l0 0.03c0,0.27 -0.11,0.49 -0.33,0.66 -0.21,0.17 -0.45,0.22 -0.72,0.15 -0.43,-0.11 -0.87,-0.17 -1.31,-0.17 -1.44,0 -2.67,0.51 -3.69,1.53 -1.02,1.02 -1.53,2.25 -1.53,3.7 0,1.44 0.51,2.68 1.53,3.7 1.02,1.01 2.25,1.52 3.69,1.52 0.44,0 0.88,-0.05 1.31,-0.16 0.26,-0.07 0.5,-0.02 0.72,0.15 0.22,0.17 0.33,0.39 0.33,0.66l0 0.02c0,0.44 -0.21,0.71 -0.64,0.82 -0.57,0.14 -1.14,0.21 -1.72,0.21 -1.91,0 -3.54,-0.68 -4.9,-2.03 -1.35,-1.35 -2.03,-2.98 -2.03,-4.9 0,-1.91 0.68,-3.54 2.03,-4.9 1.35,-1.35 2.98,-2.03 4.9,-2.03zm8.59 5.5c-0.92,0 -1.71,0.33 -2.36,0.98 -0.65,0.65 -0.97,1.44 -0.97,2.36 0,0.91 0.32,1.7 0.97,2.35 0.65,0.65 1.44,0.98 2.36,0.98 0.92,0 1.71,-0.33 2.35,-0.98 0.65,-0.65 0.98,-1.44 0.98,-2.35 0,-0.92 -0.33,-1.71 -0.98,-2.36 -0.64,-0.65 -1.43,-0.98 -2.35,-0.98zm0 -1.72c1.39,0 2.57,0.49 3.56,1.48 0.98,0.98 1.47,2.17 1.47,3.56 0,1.39 -0.49,2.58 -1.47,3.56 -0.98,0.98 -2.17,1.48 -3.56,1.48 -1.39,0 -2.58,-0.49 -3.56,-1.48 -0.98,-0.98 -1.48,-2.17 -1.48,-3.56 0,-1.39 0.49,-2.57 1.48,-3.56 0.98,-0.98 2.17,-1.48 3.56,-1.48zm11.36 1.72c-0.92,0 -1.71,0.33 -2.36,0.98 -0.65,0.65 -0.97,1.44 -0.97,2.36 0,0.91 0.32,1.7 0.97,2.35 0.65,0.65 1.44,0.98 2.36,0.98 0.92,0 1.71,-0.33 2.35,-0.98 0.65,-0.65 0.98,-1.44 0.98,-2.35 0,-0.92 -0.33,-1.71 -0.98,-2.36 -0.64,-0.65 -1.43,-0.98 -2.35,-0.98zm4.19 -5.5c0.23,0 0.43,0.08 0.59,0.24 0.17,0.17 0.25,0.37 0.25,0.6l0 8c-0.01,1.38 -0.5,2.56 -1.48,3.54 -0.98,0.98 -2.17,1.47 -3.55,1.47 -1.39,0 -2.58,-0.49 -3.56,-1.48 -0.98,-0.98 -1.48,-2.17 -1.48,-3.56 0,-1.39 0.49,-2.57 1.48,-3.56 0.98,-0.98 2.17,-1.48 3.56,-1.48 1.27,0 2.38,0.42 3.33,1.26l0 -4.2c0,-0.23 0.08,-0.43 0.25,-0.6 0.17,-0.16 0.36,-0.24 0.59,-0.24l0.03 0zm7.44 5.5c-0.92,0 -1.71,0.33 -2.36,0.98 -0.64,0.65 -0.97,1.44 -0.97,2.36 0,0.17 0.01,0.33 0.04,0.49l5.84 -2.64c-0.66,-0.79 -1.51,-1.19 -2.54,-1.19zm4.57 1.22c0.1,0.21 0.11,0.42 0.03,0.65 -0.08,0.21 -0.23,0.37 -0.44,0.47 -0.86,0.39 -1.99,0.9 -3.39,1.53 -1.74,0.79 -2.87,1.3 -3.38,1.53 0.66,0.85 1.54,1.27 2.62,1.27 0.72,0 1.37,-0.21 1.95,-0.64 0.57,-0.41 0.96,-0.95 1.19,-1.6 0.14,-0.38 0.41,-0.57 0.81,-0.57 0.29,0 0.52,0.12 0.69,0.36 0.17,0.23 0.2,0.49 0.1,0.77 -0.34,1 -0.95,1.8 -1.81,2.42 -0.88,0.63 -1.86,0.95 -2.94,0.95 -1.39,0 -2.57,-0.49 -3.56,-1.48 -0.98,-0.98 -1.48,-2.17 -1.48,-3.56 0,-1.39 0.49,-2.57 1.48,-3.56 0.98,-0.98 2.17,-1.48 3.56,-1.48 1,0 1.92,0.27 2.75,0.82 0.82,0.53 1.42,1.24 1.82,2.12z"/>
  </g>
 </g>
</svg>
