<?xml version="1.0" encoding="UTF-8"?>
<!DOCTYPE svg PUBLIC "-//W3C//DTD SVG 1.1//EN" "http://www.w3.org/Graphics/SVG/1.1/DTD/svg11.dtd">
<!-- Creator: CorelDRAW 2021 (64-Bit) -->
<svg xmlns="http://www.w3.org/2000/svg" xml:space="preserve" width="14.0564mm" height="14.0564mm" version="1.1" style="shape-rendering:geometricPrecision; text-rendering:geometricPrecision; image-rendering:optimizeQuality; fill-rule:evenodd; clip-rule:evenodd"
viewBox="0 0 225.13 225.13"
 xmlns:xlink="http://www.w3.org/1999/xlink"
 xmlns:xodm="http://www.corel.com/coreldraw/odm/2003">
 <defs>
  <style type="text/css">
   <![CDATA[
    .fil3 {fill:#FEFEFE}
    .fil0 {fill:#2B2A29}
    .fil2 {fill:#B3B3B3}
    .fil1 {fill:#FFA116;fill-rule:nonzero}
   ]]>
  </style>
 </defs>
 <g id="Layer_x0020_1">
  <metadata id="CorelCorpID_0Corel-Layer"/>
  <rect class="fil0" x="0" y="-0" width="225.13" height="225.13" rx="32.03" ry="32.03"/>
 </g>
 <g id="Layer_x0020_1_0">
  <metadata id="CorelCorpID_1Corel-Layer"/>
  <g id="_2201381167280">
   <path id="Combined-Shape" class="fil1" d="M136.65 117.26c2.93,-2.92 7.67,-2.92 10.59,0.02 2.92,2.93 2.91,7.68 -0.02,10.61l-13 12.98c-12,11.98 -31.56,12.15 -43.76,0.4 -0.07,-0.07 -5.5,-5.39 -23.42,-22.96 -11.92,-11.69 -13.11,-30.39 -1.89,-42.4l20.92 -22.4c11.13,-11.92 31.66,-13.22 44.39,-2.93l19 15.36c3.22,2.6 3.72,7.32 1.12,10.55 -2.6,3.22 -7.31,3.73 -10.53,1.13l-19 -15.36c-6.66,-5.38 -18.3,-4.64 -24.05,1.51l-20.92 22.4c-5.46,5.85 -4.86,15.27 1.43,21.44 13.16,12.9 23.3,22.85 23.31,22.86 6.34,6.11 16.6,6.02 22.82,-0.2l13 -12.98z"/>
   <path id="Path-2" class="fil2" d="M105.06 104.26c-4.13,0 -7.49,-3.36 -7.49,-7.5 0,-4.14 3.35,-7.5 7.49,-7.5l55.21 0c4.14,0 7.49,3.36 7.49,7.5 0,4.14 -3.35,7.5 -7.49,7.5l-55.21 0z"/>
   <path id="Stroke-3" class="fil3" d="M115.4 22.09c2.83,-3.02 7.56,-3.18 10.58,-0.35 3.02,2.83 3.18,7.58 0.35,10.6l-50.25 53.81c-5.46,5.85 -4.86,15.27 1.43,21.44l23.21 22.76c2.96,2.9 3.01,7.65 0.11,10.61 -2.89,2.96 -7.63,3.01 -10.59,0.11l-23.21 -22.76c-11.92,-11.69 -13.11,-30.39 -1.89,-42.4l50.25 -53.81z"/>
  </g>
  <path id="LeetCode" class="fil3" d="M36.88 174.33l0 19.96c0,0.77 0.27,1.42 0.82,1.97 0.54,0.54 1.2,0.82 1.97,0.82l5.4 0c0.47,0 0.87,0.17 1.21,0.5 0.33,0.33 0.5,0.74 0.5,1.21l0 0.04c0,0.47 -0.17,0.87 -0.5,1.19 -0.33,0.33 -0.74,0.5 -1.21,0.5l-5.4 0c-1.72,0 -3.18,-0.61 -4.39,-1.82 -1.21,-1.21 -1.82,-2.68 -1.82,-4.4l0 -19.96c0,-0.47 0.17,-0.87 0.5,-1.21 0.33,-0.32 0.73,-0.48 1.19,-0.48l0.06 0c0.46,0 0.85,0.16 1.19,0.48 0.33,0.33 0.5,0.74 0.5,1.21zm21.5 9.38c-1.85,0 -3.44,0.66 -4.75,1.97 -1.3,1.31 -1.95,2.89 -1.95,4.75 0,0.33 0.02,0.66 0.07,0.98l11.74 -5.3c-1.34,-1.6 -3.04,-2.39 -5.12,-2.39zm9.2 2.45c0.2,0.42 0.22,0.85 0.06,1.3 -0.16,0.43 -0.46,0.75 -0.89,0.94 -1.73,0.78 -4.01,1.81 -6.83,3.08 -3.5,1.58 -5.77,2.61 -6.81,3.08 1.34,1.71 3.09,2.56 5.27,2.56 1.45,0 2.76,-0.43 3.93,-1.28 1.14,-0.83 1.94,-1.9 2.39,-3.23 0.27,-0.77 0.82,-1.15 1.63,-1.15 0.58,0 1.05,0.24 1.39,0.72 0.33,0.47 0.4,0.98 0.2,1.54 -0.69,2 -1.9,3.62 -3.64,4.86 -1.77,1.27 -3.74,1.91 -5.92,1.91 -2.79,0 -5.18,-0.99 -7.16,-2.97 -1.98,-1.98 -2.97,-4.36 -2.97,-7.16 0,-2.79 0.99,-5.18 2.97,-7.16 1.98,-1.98 4.36,-2.97 7.16,-2.97 2.02,0 3.86,0.55 5.53,1.65 1.64,1.07 2.87,2.5 3.67,4.27zm13.37 -2.45c-1.85,0 -3.44,0.66 -4.75,1.97 -1.3,1.31 -1.95,2.89 -1.95,4.75 0,0.33 0.03,0.66 0.08,0.98l11.74 -5.3c-1.34,-1.6 -3.04,-2.39 -5.12,-2.39zm9.2 2.45c0.2,0.42 0.22,0.85 0.06,1.3 -0.16,0.43 -0.46,0.75 -0.89,0.94 -1.73,0.78 -4.01,1.81 -6.83,3.08 -3.5,1.58 -5.77,2.61 -6.81,3.08 1.34,1.71 3.09,2.56 5.27,2.56 1.45,0 2.76,-0.43 3.93,-1.28 1.14,-0.83 1.93,-1.9 2.39,-3.23 0.27,-0.77 0.82,-1.15 1.63,-1.15 0.58,0 1.04,0.24 1.39,0.72 0.33,0.47 0.4,0.98 0.2,1.54 -0.69,2 -1.9,3.62 -3.64,4.86 -1.77,1.27 -3.74,1.91 -5.92,1.91 -2.79,0 -5.18,-0.99 -7.16,-2.97 -1.98,-1.98 -2.97,-4.36 -2.97,-7.16 0,-2.79 0.99,-5.18 2.97,-7.16 1.98,-1.98 4.36,-2.97 7.16,-2.97 2.01,0 3.86,0.55 5.53,1.65 1.64,1.07 2.87,2.5 3.67,4.27zm5.55 -13.52c0.46,0 0.85,0.16 1.19,0.48 0.33,0.33 0.5,0.74 0.5,1.21l0 5.92 3.34 0c0.46,0 0.85,0.17 1.19,0.5 0.33,0.33 0.5,0.74 0.5,1.2l0 0.04c0,0.47 -0.17,0.87 -0.5,1.19 -0.33,0.33 -0.73,0.5 -1.19,0.5l-3.34 0 0 11.56c0,0.51 0.18,0.94 0.54,1.3 0.36,0.36 0.8,0.54 1.32,0.54l1.48 0c0.46,0 0.85,0.17 1.19,0.5 0.33,0.33 0.5,0.74 0.5,1.21l0 0.04c0,0.47 -0.17,0.87 -0.5,1.19 -0.33,0.33 -0.73,0.5 -1.19,0.5l-1.48 0c-1.46,0 -2.71,-0.51 -3.75,-1.54 -1.03,-1.04 -1.54,-2.28 -1.54,-3.73l0 -20.9c0,-0.47 0.17,-0.87 0.5,-1.21 0.33,-0.32 0.73,-0.48 1.19,-0.48l0.06 0zm22.78 0c1.18,0 2.33,0.14 3.47,0.43 0.85,0.22 1.28,0.77 1.28,1.63l0 0.06c0,0.54 -0.22,0.99 -0.67,1.34 -0.43,0.33 -0.91,0.43 -1.45,0.3 -0.86,-0.22 -1.74,-0.33 -2.63,-0.33 -2.89,0 -5.37,1.03 -7.42,3.08 -2.05,2.05 -3.08,4.53 -3.08,7.44 0,2.91 1.03,5.38 3.08,7.44 2.05,2.04 4.53,3.06 7.42,3.06 0.89,0 1.77,-0.11 2.63,-0.32 0.53,-0.14 1.01,-0.04 1.45,0.3 0.45,0.33 0.67,0.78 0.67,1.34l0 0.04c0,0.88 -0.43,1.43 -1.28,1.65 -1.14,0.28 -2.29,0.43 -3.47,0.43 -3.85,0 -7.13,-1.36 -9.85,-4.08 -2.72,-2.72 -4.08,-6 -4.08,-9.85 0,-3.85 1.36,-7.13 4.08,-9.85 2.72,-2.72 6,-4.08 9.85,-4.08zm17.29 11.07c-1.85,0 -3.44,0.66 -4.75,1.97 -1.3,1.31 -1.95,2.89 -1.95,4.75 0,1.84 0.65,3.42 1.95,4.73 1.31,1.31 2.89,1.97 4.75,1.97 1.85,0 3.43,-0.66 4.73,-1.97 1.31,-1.31 1.97,-2.89 1.97,-4.73 0,-1.85 -0.66,-3.44 -1.97,-4.75 -1.3,-1.31 -2.87,-1.97 -4.73,-1.97zm0 -3.47c2.79,0 5.18,0.99 7.16,2.97 1.98,1.98 2.97,4.36 2.97,7.16 0,2.79 -0.99,5.18 -2.97,7.16 -1.98,1.98 -4.37,2.97 -7.16,2.97 -2.79,0 -5.18,-0.99 -7.16,-2.97 -1.98,-1.98 -2.97,-4.36 -2.97,-7.16 0,-2.79 0.99,-5.18 2.97,-7.16 1.98,-1.98 4.36,-2.97 7.16,-2.97zm22.85 3.47c-1.85,0 -3.44,0.66 -4.75,1.97 -1.3,1.31 -1.95,2.89 -1.95,4.75 0,1.84 0.65,3.42 1.95,4.73 1.31,1.31 2.89,1.97 4.75,1.97 1.85,0 3.43,-0.66 4.73,-1.97 1.31,-1.31 1.97,-2.89 1.97,-4.73 0,-1.85 -0.66,-3.44 -1.97,-4.75 -1.3,-1.31 -2.87,-1.97 -4.73,-1.97zm8.44 -11.07c0.46,0 0.85,0.16 1.19,0.48 0.33,0.33 0.5,0.74 0.5,1.21l0 16.1c-0.01,2.78 -1.01,5.16 -2.99,7.12 -1.98,1.97 -4.36,2.95 -7.14,2.95 -2.79,0 -5.18,-0.99 -7.16,-2.97 -1.98,-1.98 -2.97,-4.36 -2.97,-7.16 0,-2.79 0.99,-5.18 2.97,-7.16 1.98,-1.98 4.36,-2.97 7.16,-2.97 2.55,0 4.78,0.85 6.7,2.54l0 -8.46c0,-0.47 0.17,-0.87 0.5,-1.21 0.33,-0.32 0.73,-0.48 1.19,-0.48l0.06 0zm14.97 11.07c-1.85,0 -3.44,0.66 -4.75,1.97 -1.3,1.31 -1.95,2.89 -1.95,4.75 0,0.33 0.02,0.66 0.07,0.98l11.74 -5.3c-1.34,-1.6 -3.04,-2.39 -5.12,-2.39zm9.2 2.45c0.2,0.42 0.22,0.85 0.05,1.3 -0.16,0.43 -0.46,0.75 -0.89,0.94 -1.73,0.78 -4.01,1.81 -6.83,3.08 -3.5,1.58 -5.77,2.61 -6.81,3.08 1.34,1.71 3.09,2.56 5.27,2.56 1.45,0 2.76,-0.43 3.93,-1.28 1.14,-0.83 1.93,-1.9 2.39,-3.23 0.27,-0.77 0.82,-1.15 1.63,-1.15 0.58,0 1.04,0.24 1.39,0.72 0.33,0.47 0.4,0.98 0.21,1.54 -0.69,2 -1.9,3.62 -3.64,4.86 -1.77,1.27 -3.74,1.91 -5.92,1.91 -2.79,0 -5.18,-0.99 -7.16,-2.97 -1.98,-1.98 -2.97,-4.36 -2.97,-7.16 0,-2.79 0.99,-5.18 2.97,-7.16 1.98,-1.98 4.36,-2.97 7.16,-2.97 2.01,0 3.86,0.55 5.53,1.65 1.64,1.07 2.87,2.5 3.67,4.27z"/>
 </g>
</svg>
