<?xml version="1.0" encoding="UTF-8"?>
<!DOCTYPE svg PUBLIC "-//W3C//DTD SVG 1.1//EN" "http://www.w3.org/Graphics/SVG/1.1/DTD/svg11.dtd">
<!-- Creator: CorelDRAW 2021 (64-Bit) -->
<svg xmlns="http://www.w3.org/2000/svg" xml:space="preserve" width="10.6879mm" height="10.6879mm" version="1.1" style="shape-rendering:geometricPrecision; text-rendering:geometricPrecision; image-rendering:optimizeQuality; fill-rule:evenodd; clip-rule:evenodd"
viewBox="0 0 90.22 90.22"
 xmlns:xlink="http://www.w3.org/1999/xlink"
 xmlns:xodm="http://www.corel.com/coreldraw/odm/2003">
 <defs>
  <style type="text/css">
   <![CDATA[
    .fil0 {fill:#2B2A29}
    .fil1 {fill:#007BB5}
    .fil2 {fill:white;fill-rule:nonzero}
   ]]>
  </style>
 </defs>
 <g id="Layer_x0020_1_0">
  <metadata id="CorelCorpID_0Corel-Layer"/>
  <g id="_2201688182688">
   <rect class="fil0" x="0" y="0" width="90.22" height="90.22" rx="16.88" ry="16.88"/>
   <circle class="fil1" cx="45.11" cy="45.11" r="33.87"/>
   <rect class="fil2" x="26.06" y="34.53" width="8.47" height="29.64"/>
   <path class="fil2" d="M54.63 34.53c-5.91,0 -6.93,2.16 -7.41,4.23l0 -4.23 -8.47 0 0 29.64 8.47 0 0 -16.94c0,-2.75 1.49,-4.23 4.23,-4.23 2.68,0 4.23,1.46 4.23,4.23l0 16.94 8.47 0 0 -14.82c0,-8.47 -1.1,-14.82 -9.53,-14.82z"/>
   <circle class="fil2" cx="30.29" cy="28.17" r="4.23"/>
  </g>
 </g>
</svg>
