<?xml version="1.0" encoding="UTF-8"?>
<!DOCTYPE svg PUBLIC "-//W3C//DTD SVG 1.1//EN" "http://www.w3.org/Graphics/SVG/1.1/DTD/svg11.dtd">
<!-- Creator: CorelDRAW 2021 (64-Bit) -->
<svg xmlns="http://www.w3.org/2000/svg" xml:space="preserve" width="14.0564mm" height="14.0564mm" version="1.1" style="shape-rendering:geometricPrecision; text-rendering:geometricPrecision; image-rendering:optimizeQuality; fill-rule:evenodd; clip-rule:evenodd"
viewBox="0 0 156.44 156.44"
 xmlns:xlink="http://www.w3.org/1999/xlink"
 xmlns:xodm="http://www.corel.com/coreldraw/odm/2003">
 <defs>
  <style type="text/css">
   <![CDATA[
    .fil0 {fill:#2B2A29}
    .fil1 {fill:#007BB5}
    .fil2 {fill:white;fill-rule:nonzero}
   ]]>
  </style>
 </defs>
 <g id="Layer_x0020_1">
  <metadata id="CorelCorpID_0Corel-Layer"/>
  <rect class="fil0" x="0" y="-0" width="156.44" height="156.44" rx="22.26" ry="22.26"/>
 </g>
 <g id="Layer_x0020_1_0">
  <metadata id="CorelCorpID_1Corel-Layer"/>
  <g id="linkedin.svg">
   <g>
    <circle class="fil1" cx="78.22" cy="78.22" r="58.73"/>
    <g>
     <rect class="fil2" x="45.18" y="59.87" width="14.68" height="51.39"/>
     <path class="fil2" d="M94.73 59.87c-10.25,0 -12.01,3.74 -12.84,7.34l0 -7.34 -14.68 0 0 51.39 14.68 0 0 -29.37c0,-4.76 2.58,-7.34 7.34,-7.34 4.65,0 7.34,2.53 7.34,7.34l0 29.37 14.68 0 0 -25.7c0,-14.68 -1.91,-25.7 -16.52,-25.7z"/>
     <circle class="fil2" cx="52.52" cy="48.85" r="7.34"/>
    </g>
   </g>
   <g>
   </g>
   <g>
   </g>
   <g>
   </g>
   <g>
   </g>
   <g>
   </g>
   <g>
   </g>
  </g>
 </g>
</svg>
