<?xml version="1.0" encoding="UTF-8"?>
<!DOCTYPE svg PUBLIC "-//W3C//DTD SVG 1.1//EN" "http://www.w3.org/Graphics/SVG/1.1/DTD/svg11.dtd">
<!-- Creator: CorelDRAW 2021 (64-Bit) -->
<svg xmlns="http://www.w3.org/2000/svg" xml:space="preserve" width="31.6268mm" height="14.0564mm" version="1.1" style="shape-rendering:geometricPrecision; text-rendering:geometricPrecision; image-rendering:optimizeQuality; fill-rule:evenodd; clip-rule:evenodd"
viewBox="0 0 458.57 203.81"
 xmlns:xlink="http://www.w3.org/1999/xlink"
 xmlns:xodm="http://www.corel.com/coreldraw/odm/2003">
 <defs>
  <style type="text/css">
   <![CDATA[
    .fil0 {fill:#2B2A29}
    .fil1 {fill:#00ED64;fill-rule:nonzero}
   ]]>
  </style>
 </defs>
 <g id="Layer_x0020_1">
  <metadata id="CorelCorpID_0Corel-Layer"/>
  <path class="fil0" d="M29 0l400.58 0c15.95,0 29,13.05 29,29l0 145.81c0,15.95 -13.05,29 -29,29l-400.58 0c-15.95,0 -29,-13.05 -29,-29l0 -145.81c0,-15.95 13.05,-29 29,-29z"/>
  <g id="_2339472720400">
   <path class="fil1" d="M66.66 64.44c-3.82,-4.53 -7.11,-9.13 -7.78,-10.09 -0.07,-0.07 -0.18,-0.07 -0.25,0 -0.67,0.96 -3.96,5.56 -7.78,10.09 -32.78,41.8 5.16,70.02 5.16,70.02l0.32 0.21c0.28,4.35 0.99,10.62 0.99,10.62l1.42 0 1.41 0c0,0 0.71,-6.23 0.99,-10.62l0.32 -0.25c0.03,0.03 37.98,-28.18 5.2,-69.98zm-7.92 69.41c0,0 -1.7,-1.45 -2.16,-2.2l0 -0.07 2.05 -45.52c0,-0.14 0.21,-0.14 0.21,0l2.05 45.52 0 0.07c-0.46,0.74 -2.16,2.2 -2.16,2.2z"/>
   <path class="fil1" d="M129.75 124.26l-15.81 -38.34 -0.03 -0.11 -12.3 0 0 2.58 1.98 0c0.6,0 1.17,0.25 1.59,0.67 0.43,0.42 0.64,0.99 0.64,1.59l-0.35 38.59c0,1.2 -0.99,2.19 -2.2,2.22l-2.02 0.03 0 2.54 11.98 0 0 -2.54 -1.24 -0.03c-1.2,-0.04 -2.2,-1.02 -2.2,-2.22l0 -36.36 17.23 41.16c0.25,0.6 0.81,0.99 1.45,0.99 0.64,0 1.2,-0.39 1.45,-0.99l16.84 -40.25 0.25 35.45c0,1.24 -0.99,2.22 -2.23,2.26l-1.28 0 0 2.54 14.04 0 0 -2.54 -1.92 0c-1.2,0 -2.2,-1.02 -2.23,-2.22l-0.11 -38.59c0,-1.24 0.99,-2.22 2.2,-2.26l2.06 -0.04 0 -2.58 -11.98 0 -15.81 38.45z"/>
   <path class="fil1" d="M239.99 130.82c-0.39,-0.39 -0.6,-0.92 -0.6,-1.55l0 -18.9c0,-3.6 -1.07,-6.42 -3.2,-8.43 -2.1,-2.01 -5.01,-3.03 -8.64,-3.03 -5.08,0 -9.1,2.04 -11.91,6.06 -0.03,0.07 -0.14,0.11 -0.25,0.11 -0.11,0 -0.18,-0.07 -0.18,-0.18l-1.32 -5.04 -2.2 0 -5.65 3.21 0 1.76 1.46 0c0.68,0 1.24,0.18 1.64,0.53 0.39,0.35 0.6,0.88 0.6,1.62l0 22.25c0,0.63 -0.21,1.16 -0.6,1.55 -0.39,0.39 -0.93,0.6 -1.56,0.6l-1.42 0 0 2.57 13.01 0 0 -2.57 -1.42 0c-0.64,0 -1.17,-0.21 -1.56,-0.6 -0.39,-0.39 -0.6,-0.92 -0.6,-1.55l0 -14.74c0,-1.87 0.43,-3.74 1.21,-5.57 0.82,-1.8 2.02,-3.31 3.62,-4.48 1.6,-1.16 3.52,-1.73 5.72,-1.73 2.49,0 4.37,0.78 5.54,2.33 1.17,1.55 1.78,3.56 1.78,5.96l0 18.2c0,0.64 -0.21,1.16 -0.6,1.55 -0.39,0.39 -0.92,0.6 -1.56,0.6l-1.42 0 0 2.58 13.01 0 0 -2.58 -1.42 0c-0.53,0.07 -1.03,-0.14 -1.46,-0.53z"/>
   <path class="fil1" d="M358.83 88.72c-3.59,-1.92 -7.62,-2.91 -11.95,-2.91l-16.92 0 0 2.59 1.66 0c0.63,0 1.2,0.25 1.76,0.81 0.53,0.53 0.81,1.14 0.81,1.77l0 38.15c0,0.64 -0.28,1.24 -0.81,1.77 -0.53,0.53 -1.13,0.81 -1.76,0.81l-1.66 0 0 2.59 16.92 0c4.34,0 8.36,-0.99 11.95,-2.91 3.6,-1.91 6.52,-4.75 8.64,-8.37 2.12,-3.62 3.21,-7.98 3.21,-12.94 0,-4.96 -1.09,-9.29 -3.21,-12.94 -2.15,-3.69 -5.04,-6.52 -8.64,-8.44zm5.04 21.31c0,4.54 -0.81,8.37 -2.4,11.45 -1.58,3.09 -3.7,5.39 -6.31,6.88 -2.61,1.49 -5.5,2.23 -8.6,2.23l-3.42 0c-0.63,0 -1.2,-0.25 -1.76,-0.82 -0.53,-0.53 -0.81,-1.13 -0.81,-1.77l0 -35.99c0,-0.64 0.25,-1.2 0.81,-1.77 0.53,-0.53 1.13,-0.81 1.76,-0.81l3.42 0c3.1,0 5.99,0.75 8.6,2.23 2.61,1.49 4.73,3.8 6.31,6.88 1.59,3.08 2.4,6.95 2.4,11.49z"/>
   <path class="fil1" d="M410.68 112.61c-1.56,-1.81 -4.58,-3.33 -8.14,-4.15 4.9,-2.45 7.43,-5.89 7.43,-10.32 0,-2.41 -0.64,-4.57 -1.92,-6.42 -1.28,-1.84 -3.09,-3.33 -5.4,-4.36 -2.31,-1.03 -5.01,-1.56 -8.07,-1.56l-19.15 0 0 2.59 1.53 0c0.64,0 1.21,0.25 1.78,0.81 0.53,0.53 0.82,1.14 0.82,1.77l0 38.15c0,0.64 -0.29,1.24 -0.82,1.77 -0.53,0.53 -1.14,0.81 -1.78,0.81l-1.67 0 0 2.59 20.79 0c3.16,0 6.11,-0.53 8.78,-1.59 2.67,-1.06 4.8,-2.62 6.32,-4.68 1.56,-2.06 2.35,-4.57 2.35,-7.48 -0.04,-3.12 -0.96,-5.78 -2.84,-7.94zm-23.84 17.2c-0.53,-0.53 -0.82,-1.14 -0.82,-1.77l0 -17.13 9.88 0c3.48,0 6.15,0.89 8,2.66 1.85,1.77 2.77,4.08 2.77,6.91 0,1.7 -0.42,3.37 -1.21,4.89 -0.82,1.56 -2.03,2.8 -3.66,3.76 -1.6,0.96 -3.59,1.45 -5.9,1.45l-7.28 0c-0.64,0.03 -1.21,-0.25 -1.78,-0.78zm-0.78 -22.55l0 -15.21c0,-0.64 0.25,-1.2 0.82,-1.77 0.53,-0.53 1.14,-0.81 1.78,-0.81l4.69 0c3.38,0 5.86,0.85 7.43,2.48 1.56,1.67 2.35,3.79 2.35,6.42 0,2.69 -0.75,4.86 -2.2,6.49 -1.46,1.59 -3.66,2.41 -6.58,2.41l-8.28 0z"/>
   <path class="fil1" d="M190.47 101.17c-2.72,-1.48 -5.75,-2.26 -9.03,-2.26 -3.28,0 -6.35,0.74 -9.03,2.26 -2.72,1.48 -4.87,3.64 -6.45,6.36 -1.59,2.72 -2.4,5.9 -2.4,9.43 0,3.53 0.81,6.71 2.4,9.43 1.59,2.72 3.74,4.88 6.45,6.36 2.72,1.48 5.75,2.26 9.03,2.26 3.28,0 6.35,-0.74 9.03,-2.26 2.71,-1.48 4.87,-3.64 6.45,-6.36 1.59,-2.72 2.4,-5.9 2.4,-9.43 0,-3.53 -0.81,-6.71 -2.4,-9.43 -1.59,-2.72 -3.74,-4.84 -6.45,-6.36zm2.61 15.8c0,4.35 -1.06,7.88 -3.17,10.42 -2.08,2.54 -4.94,3.85 -8.46,3.85 -3.53,0 -6.38,-1.31 -8.46,-3.85 -2.12,-2.54 -3.17,-6.08 -3.17,-10.42 0,-4.35 1.06,-7.88 3.17,-10.43 2.08,-2.54 4.94,-3.85 8.46,-3.85 3.53,0 6.38,1.31 8.46,3.85 2.12,2.58 3.17,6.08 3.17,10.43z"/>
   <path class="fil1" d="M315.45 101.17c-2.72,-1.48 -5.75,-2.26 -9.03,-2.26 -3.28,0 -6.35,0.74 -9.03,2.26 -2.72,1.48 -4.87,3.64 -6.45,6.36 -1.59,2.72 -2.4,5.9 -2.4,9.43 0,3.53 0.81,6.71 2.4,9.43 1.59,2.72 3.74,4.88 6.45,6.36 2.71,1.48 5.75,2.26 9.03,2.26 3.28,0 6.35,-0.74 9.03,-2.26 2.71,-1.48 4.87,-3.64 6.45,-6.36 1.59,-2.72 2.4,-5.9 2.4,-9.43 0,-3.53 -0.81,-6.71 -2.4,-9.43 -1.59,-2.72 -3.77,-4.84 -6.45,-6.36zm2.61 15.8c0,4.35 -1.06,7.88 -3.17,10.42 -2.08,2.54 -4.94,3.85 -8.46,3.85 -3.53,0 -6.38,-1.31 -8.46,-3.85 -2.12,-2.54 -3.17,-6.08 -3.17,-10.42 0,-4.38 1.06,-7.88 3.17,-10.43 2.08,-2.54 4.94,-3.85 8.46,-3.85 3.53,0 6.38,1.31 8.46,3.85 2.08,2.58 3.17,6.08 3.17,10.43z"/>
   <path class="fil1" d="M265.04 98.91c-2.84,0 -5.43,0.6 -7.78,1.81 -2.34,1.21 -4.19,2.84 -5.51,4.93 -1.32,2.06 -1.99,4.37 -1.99,6.82 0,2.2 0.5,4.22 1.53,6.03 0.99,1.74 2.34,3.19 4.05,4.4l-5.08 6.89c-0.64,0.85 -0.71,1.99 -0.25,2.91 0.5,0.96 1.42,1.53 2.49,1.53l1.46 0c-1.42,0.96 -2.56,2.1 -3.34,3.44 -0.92,1.53 -1.38,3.12 -1.38,4.76 0,3.05 1.35,5.57 4.01,7.46 2.63,1.88 6.32,2.84 10.98,2.84 3.23,0 6.32,-0.53 9.13,-1.56 2.84,-1.03 5.15,-2.55 6.85,-4.54 1.74,-1.99 2.63,-4.4 2.63,-7.17 0,-2.91 -1.06,-4.97 -3.55,-6.96 -2.13,-1.67 -5.47,-2.56 -9.62,-2.56l-14.21 0c-0.03,0 -0.07,-0.04 -0.07,-0.04 0,0 -0.03,-0.07 0,-0.11l3.69 -4.97c0.99,0.46 1.92,0.74 2.73,0.92 0.85,0.18 1.81,0.25 2.88,0.25 2.98,0 5.68,-0.6 8.03,-1.81 2.34,-1.21 4.23,-2.84 5.58,-4.93 1.35,-2.06 2.02,-4.37 2.02,-6.82 0,-2.63 -1.28,-7.42 -4.76,-9.87 0,-0.03 0.04,-0.03 0.04,-0.03l7.64 0.85 0 -3.51 -12.22 0c-1.92,-0.64 -3.91,-0.96 -5.97,-0.96zm4.26 22.19c-1.35,0.71 -2.81,1.1 -4.26,1.1 -2.38,0 -4.48,-0.85 -6.25,-2.52 -1.77,-1.67 -2.66,-4.12 -2.66,-7.24 0,-3.12 0.89,-5.57 2.66,-7.24 1.78,-1.67 3.87,-2.52 6.25,-2.52 1.49,0 2.91,0.35 4.26,1.1 1.35,0.71 2.45,1.81 3.34,3.27 0.85,1.46 1.31,3.27 1.31,5.4 0,2.17 -0.43,3.98 -1.31,5.4 -0.85,1.45 -1.99,2.55 -3.34,3.27zm-9.63 13.1l9.63 0c2.66,0 4.37,0.53 5.5,1.67 1.14,1.14 1.7,2.66 1.7,4.44 0,2.59 -1.03,4.72 -3.09,6.32 -2.06,1.6 -4.83,2.41 -8.24,2.41 -2.98,0 -5.47,-0.67 -7.28,-1.95 -1.81,-1.28 -2.73,-3.23 -2.73,-5.72 0,-1.56 0.42,-3.02 1.28,-4.29 0.85,-1.28 1.88,-2.2 3.23,-2.88z"/>
   <path class="fil1" d="M420.72 133.72c-0.7,-0.38 -1.23,-0.94 -1.65,-1.6 -0.39,-0.7 -0.6,-1.43 -0.6,-2.23 0,-0.8 0.21,-1.57 0.6,-2.23 0.39,-0.7 0.95,-1.22 1.65,-1.6 0.7,-0.38 1.48,-0.59 2.35,-0.59 0.88,0 1.65,0.21 2.35,0.59 0.7,0.38 1.23,0.94 1.65,1.6 0.39,0.7 0.6,1.43 0.6,2.23 0,0.8 -0.21,1.57 -0.6,2.23 -0.39,0.7 -0.95,1.22 -1.65,1.6 -0.7,0.38 -1.48,0.59 -2.35,0.59 -0.84,0 -1.65,-0.21 -2.35,-0.59zm4.32 -0.52c0.6,-0.31 1.02,-0.8 1.37,-1.36 0.32,-0.59 0.49,-1.25 0.49,-1.99 0,-0.73 -0.18,-1.39 -0.49,-1.99 -0.32,-0.59 -0.77,-1.05 -1.37,-1.36 -0.6,-0.31 -1.23,-0.49 -1.97,-0.49 -0.74,0 -1.37,0.18 -1.97,0.49 -0.6,0.31 -1.02,0.8 -1.37,1.36 -0.32,0.59 -0.49,1.25 -0.49,1.99 0,0.73 0.18,1.39 0.49,1.99 0.31,0.59 0.77,1.05 1.37,1.36 0.6,0.31 1.23,0.49 1.97,0.49 0.74,0 1.41,-0.18 1.97,-0.49zm-3.87 -1.22l0 -0.31 0.07 -0.04 0.21 0c0.07,0 0.14,-0.03 0.18,-0.07 0.07,-0.07 0.07,-0.1 0.07,-0.17l0 -3.24c0,-0.07 -0.03,-0.14 -0.07,-0.18 -0.07,-0.07 -0.11,-0.07 -0.18,-0.07l-0.21 0 -0.07 -0.03 0 -0.31 0.07 -0.03 1.83 0c0.53,0 0.91,0.1 1.23,0.35 0.32,0.24 0.46,0.56 0.46,0.98 0,0.31 -0.1,0.63 -0.35,0.84 -0.25,0.24 -0.53,0.38 -0.88,0.42l0.42 0.14 0.81 1.29c0.07,0.1 0.14,0.14 0.25,0.14l0.21 0 0.04 0.03 0 0.31 -0.04 0.03 -1.09 0 -0.07 -0.03 -1.12 -1.88 -0.28 0 0 1.25c0,0.07 0.03,0.14 0.07,0.17 0.07,0.07 0.11,0.07 0.18,0.07l0.21 0 0.07 0.04 0 0.31 -0.07 0.03 -1.86 0 -0.07 -0.03zm1.79 -2.26c0.28,0 0.53,-0.07 0.67,-0.24 0.14,-0.14 0.25,-0.38 0.25,-0.66 0,-0.28 -0.07,-0.49 -0.21,-0.66 -0.14,-0.18 -0.35,-0.25 -0.6,-0.25l-0.14 0c-0.07,0 -0.14,0.03 -0.18,0.07 -0.07,0.07 -0.07,0.1 -0.07,0.18l0 1.57 0.28 0z"/>
  </g>
 </g>
</svg>
