<?xml version="1.0" encoding="UTF-8"?>
<!DOCTYPE svg PUBLIC "-//W3C//DTD SVG 1.1//EN" "http://www.w3.org/Graphics/SVG/1.1/DTD/svg11.dtd">
<!-- Creator: CorelDRAW 2021 (64-Bit) -->
<svg xmlns="http://www.w3.org/2000/svg" xml:space="preserve" width="14.0564mm" height="14.0564mm" version="1.1" style="shape-rendering:geometricPrecision; text-rendering:geometricPrecision; image-rendering:optimizeQuality; fill-rule:evenodd; clip-rule:evenodd"
viewBox="0 0 531.91 531.91"
 xmlns:xlink="http://www.w3.org/1999/xlink"
 xmlns:xodm="http://www.corel.com/coreldraw/odm/2003">
 <defs>
  <style type="text/css">
   <![CDATA[
    .fil0 {fill:#2B2A29}
    .fil4 {fill:#898989;fill-rule:nonzero}
    .fil1 {fill:#599636;fill-rule:nonzero}
    .fil2 {fill:#6CAC48;fill-rule:nonzero}
    .fil3 {fill:#C2BFBF;fill-rule:nonzero}
   ]]>
  </style>
 </defs>
 <g id="Layer_x0020_1">
  <metadata id="CorelCorpID_0Corel-Layer"/>
  <rect class="fil0" x="-0" y="0" width="531.91" height="531.91" rx="75.68" ry="75.68"/>
 </g>
 <g id="Layer_x0020_1_0">
  <metadata id="CorelCorpID_1Corel-Layer"/>
  <g id="_2339894899856">
   <path class="fil1" d="M268.01 29.75l10.19 19.14c2.29,3.53 4.78,6.66 7.69,9.57 8.56,8.46 16.55,17.5 23.9,27.05 17.26,22.66 28.91,47.84 37.22,75.08 4.99,16.62 7.69,33.71 7.9,50.95 0.84,51.59 -16.85,95.88 -52.49,132.69 -5.78,5.83 -12.06,11.2 -18.74,16 -3.53,0 -5.21,-2.7 -6.66,-5.2 -2.66,-4.63 -4.41,-9.7 -5.21,-14.97 -1.26,-6.26 -2.08,-12.49 -1.67,-18.91l0 -2.91c-0.28,-0.67 -3.38,-287.02 -2.14,-288.49z"/>
   <path class="fil2" d="M268.01 29.13c-0.41,-0.84 -0.84,-0.22 -1.26,0.21 0.22,4.18 -1.26,7.9 -3.53,11.46 -2.51,3.53 -5.82,6.25 -9.17,9.17 -18.48,16 -33.04,35.36 -44.69,56.99 -15.53,29.1 -23.51,60.31 -25.76,93.18 -1.03,11.84 3.75,53.65 7.49,65.7 10.19,32.04 28.48,58.87 52.21,82.15 5.82,5.61 12.06,10.81 18.48,15.83 1.88,0 2.08,-1.67 2.51,-2.91 0.84,-2.65 1.46,-5.35 1.88,-8.09l4.18 -31.18 -2.33 -292.5z"/>
   <path class="fil3" d="M278.2 372.88c0.4,-4.78 2.7,-8.71 5.2,-12.68 -2.51,-1.03 -4.37,-3.11 -5.82,-5.4 -1.26,-2.18 -2.29,-4.47 -3.11,-6.87 -2.91,-8.72 -3.53,-17.91 -4.37,-26.81l0 -5.4c-1.03,0.84 -1.26,7.9 -1.26,8.95 -0.6,9.44 -1.87,18.8 -3.75,28.07 -0.62,3.75 -1.03,7.5 -3.34,10.81 0,0.41 0,0.84 0.22,1.46 3.75,11.03 4.78,22.25 5.4,33.71l0 4.17c0,4.99 -0.21,3.94 3.94,5.61 1.67,0.62 3.53,0.84 5.2,2.08 1.26,0 1.46,-1.03 1.46,-1.88l-0.62 -6.88 0 -19.14c-0.19,-3.34 0.43,-6.66 0.86,-9.81l0 0z"/>
   <path class="fil4" d="M215.56 466.16l0 8.57c0,0.61 0.05,1.23 0.11,1.82 0.05,0.83 0.66,1.53 1.47,1.7 1.05,0.31 2.12,0.48 3.21,0.55 0.61,0.06 0.72,0.31 0.79,0.79l0 0.44c-0.06,2.12 -0.31,2.38 -2.38,2.25 -4.64,-0.31 -9.25,-0.24 -13.86,0l-1.77 0.06c-0.37,0 -0.44,-0.17 -0.54,-0.44 -0.18,-0.84 -0.18,-1.72 0,-2.56 0.06,-0.37 0.31,-0.44 0.68,-0.54 0.9,-0.11 1.64,-0.31 2.49,-0.44 1.53,-0.37 2.08,-0.98 2.12,-2.56l0.17 -5.12 0 -14.98c0,-1.09 -0.44,-1.77 -1.4,-2.25 -1.09,-0.61 -2.26,-1.03 -3.48,-1.46 -0.37,-0.11 -0.72,-0.24 -1.03,-0.44 -0.79,-0.54 -0.9,-1.33 -0.11,-1.95 0.35,-0.28 0.76,-0.46 1.23,-0.48 3.89,-0.61 7.67,-1.46 11.33,-2.93 0.44,-0.17 0.61,-0.06 0.79,0.31 0.18,0.37 0.24,0.79 0.18,1.23l-0.18 2.86c0,0.37 -0.17,0.9 0.11,1.03 0.37,0.24 0.61,-0.31 0.92,-0.44 1.79,-1.51 3.78,-2.77 5.9,-3.76 1.88,-0.9 3.83,-1.46 6.01,-1.33 4.09,0.24 7,2.32 8.88,5.9 0.98,1.88 1.4,3.96 1.57,6.08l0.17 4.46 0.06 13.45c0.07,1.03 0.44,1.71 1.47,2.08 1.07,0.35 2.16,0.61 3.28,0.79 0.98,0.11 1.03,0.3 1.09,1.22l0 0.31c-0.11,2.08 -0.24,2.12 -2.32,2.01 -4.54,-0.24 -9.09,-0.24 -13.62,0 -0.61,0.06 -1.23,0 -1.77,0.06 -0.37,0 -0.61,-0.06 -0.68,-0.44 -0.11,-0.79 -0.24,-1.57 -0.06,-2.43 0.06,-0.37 0.24,-0.54 0.68,-0.61l2.8 -0.44c0.98,-0.24 1.53,-0.9 1.64,-1.77l0.11 -1.7 -0.06 -12.73c0,-1.46 -0.07,-2.93 -0.37,-4.37 -0.72,-3.13 -3.11,-5.34 -6.32,-5.66 -2.8,-0.31 -5.34,0.44 -7.67,1.95 -1.16,0.72 -1.64,1.77 -1.64,3.04l0 9.19c0,-0.18 0,-0.18 0.06,-0.18l-0.05 -0.13zm-114.65 -0.37l0 9.25c0,0.37 0,0.74 0.07,1.09 0.11,1.09 0.79,1.77 1.77,2.08 0.92,0.24 1.86,0.42 2.8,0.54 0.55,0.07 0.72,0.31 0.79,0.9 0.07,2.08 -0.11,2.32 -2.12,2.19 -4.68,-0.24 -9.38,-0.31 -14.06,0l-0.44 0c-1.46,0.07 -1.57,-0.06 -1.57,-1.53 0,-0.24 0.07,-0.55 0.07,-0.79 0,-0.44 0.31,-0.68 0.72,-0.68 0.98,-0.11 1.88,-0.37 2.8,-0.54 1.27,-0.31 2.01,-1.09 2.12,-2.38 0.17,-1.4 0.17,-2.86 0.17,-4.26l0.06 -16.31c0.05,-0.96 -0.48,-1.86 -1.33,-2.32 -1.09,-0.61 -2.27,-1.09 -3.48,-1.46 -0.37,-0.11 -0.72,-0.17 -1.03,-0.37 -0.9,-0.44 -0.92,-1.23 -0.06,-1.71 0.31,-0.17 0.68,-0.31 1.03,-0.37 3.69,-0.54 7.32,-1.46 10.83,-2.73 0.72,-0.24 0.92,-0.18 0.98,0.54 0.06,0.44 0,0.98 -0.06,1.4 -0.11,0.79 -0.11,1.57 -0.11,2.32 0,0.3 0.06,0.61 0.37,0.79 0.31,0.17 0.61,0 0.9,-0.18 1.27,-0.98 2.56,-1.88 3.96,-2.67 2.01,-1.09 4.13,-2.08 6.45,-2.38 2.8,-0.37 5.23,0.37 7.37,2.19 0.87,0.79 1.67,1.68 2.32,2.67 0.61,0.9 0.68,0.92 1.46,0.31 2.32,-1.71 4.75,-3.21 7.37,-4.33 2.73,-1.16 5.53,-1.33 8.33,-0.37 2.86,1.03 4.81,3.04 5.97,5.77 0.98,2.19 1.4,4.46 1.4,6.82l0 16.32c0,1.09 0.44,1.77 1.53,2.32 1.16,0.44 2.43,0.68 3.66,0.92 0.79,0.17 0.79,0.17 0.79,0.98 -0.11,2.01 -0.31,2.12 -2.26,2.01 -4.88,-0.29 -9.77,-0.29 -14.65,0 -0.98,0.06 -0.98,0.06 -1.03,-0.92l0 -0.31c-0.07,-1.64 -0.07,-1.64 1.53,-2.01l1.57 -0.44c1.09,-0.26 1.88,-1.25 1.88,-2.38l0.18 -4.57 -0.11 -11.92c-0.05,-1.07 -0.26,-2.12 -0.68,-3.1 -1.53,-3.72 -4.88,-5.05 -8.09,-4.68 -2.43,0.24 -4.57,1.23 -6.58,2.63 -0.44,0.31 -0.72,0.68 -0.68,1.27 0.54,3.89 0.17,7.78 0.24,11.68l0 8.46c0,1.53 0.61,2.25 2.08,2.63l2.8 0.61c0.44,0.06 0.68,0.24 0.68,0.72l0 0.44c-0.06,1.71 -0.17,1.77 -1.88,1.77 -4.87,-0.24 -9.73,-0.17 -14.54,0 -1.64,0.06 -1.77,-0.11 -1.71,-1.77 0.07,-0.98 0.18,-1.03 1.09,-1.23l2.01 -0.37c1.77,-0.37 2.43,-1.03 2.56,-2.93l0.17 -4.09 -0.11 -12.22c-0.11,-1.53 -0.44,-2.97 -1.27,-4.37 -1.22,-2.26 -3.13,-3.41 -5.73,-3.52 -2.62,-0.17 -4.92,0.79 -7.13,2.01 -1.53,0.9 -2.19,1.95 -2.08,3.72l0 8.88 -0.09 0.02z"/>
   <path class="fil3" d="M434.6 471.34c-1.03,2.74 -2.93,4.64 -5.6,5.66 -1.46,0.54 -2.93,0.9 -4.46,0.79 -1.88,-0.06 -3.76,0 -5.66,-0.37 -2.56,-0.55 -3.72,-2.97 -3.89,-4.75 -0.31,-3.11 -0.11,-6.28 -0.17,-8.57l0 -8.02c0,-0.98 0.11,-1.27 1.16,-1.27l5.73 0.07 3.89 0.44c2.73,0.61 5.23,1.64 7.17,3.76 1.57,1.71 2.43,3.76 2.63,6.01 0.17,2.12 0.06,4.2 -0.72,6.21l-0.06 0.04zm-19.77 -32.74l0.18 -4.88c0,-0.92 0.37,-1.33 1.27,-1.53 1.46,-0.31 2.93,-0.17 4.37,-0.11 1.46,0.11 2.86,0.31 4.33,0.72 2.67,0.79 4.75,2.32 5.97,4.87 0.54,1.16 0.85,2.43 0.85,3.72 0.06,1.71 -0.06,3.35 -0.72,4.98 -1.03,2.26 -2.67,3.72 -5.05,4.14 -2.38,0.44 -9.12,0.24 -10.17,0.24 -0.92,0 -0.98,-0.11 -0.98,-1.03l0 -5.73c-0.15,-1.77 -0.15,-3.56 -0.06,-5.36l0.02 -0.05zm29.52 24.95c0,-0.37 0,-0.68 -0.06,-1.03 -0.55,-3.35 -2.32,-5.9 -5.05,-7.85 -1.77,-1.27 -3.76,-2.12 -5.84,-2.74 -0.37,-0.11 -0.68,-0.24 -1.03,-0.31 0.06,-0.31 0.24,-0.37 0.44,-0.44 1.22,-0.61 2.38,-1.27 3.41,-2.19 1.88,-1.57 3.13,-3.52 3.76,-5.9 0.37,-1.27 0.37,-2.56 0.24,-3.89 -0.2,-3.17 -1.84,-6.08 -4.44,-7.92 -2.8,-2.08 -6.08,-2.93 -9.49,-2.97 -6.58,-0.11 -13.21,0 -19.77,0 -1.88,0 -3.76,0.11 -5.73,-0.17 -0.37,-0.07 -0.9,-0.17 -1.16,0.24 -0.44,0.79 -0.98,1.58 -1.16,2.49 -0.07,0.44 0.06,0.68 0.54,0.72l4.2 0.61c1.64,0.24 2.8,1.16 2.93,2.62 0.11,1.01 0.17,2.04 0.17,3.04l-0.11 11.37 -0.07 22.5c0,1.34 -0.17,2.63 -0.44,3.96 -0.13,0.87 -0.75,1.57 -1.57,1.82 -1.23,0.37 -2.38,0.72 -3.66,0.72 -0.7,-0.06 -1.35,0.37 -1.57,1.03 -0.24,0.55 -0.44,1.16 -0.54,1.71 -0.11,0.72 0.06,0.98 0.79,0.9 0.54,-0.07 20.62,0.44 24.4,0.06 2.25,-0.24 4.46,-0.54 6.69,-1.22 3.83,-1.23 7.37,-2.97 10.17,-5.97 2.32,-2.43 3.65,-5.36 3.76,-8.77 0.17,-0.79 0.17,-1.57 0.17,-2.43l0 0zm-59.4 -5.97c-0.24,3.89 -1.03,7.68 -3.04,11.06 -2.56,4.44 -6.21,7.55 -11.26,8.64 -2.19,0.44 -4.37,0.68 -6.67,0.37 -1.64,-0.17 -3.21,-0.37 -4.75,-0.92 -2.73,-0.98 -3.72,-2.67 -3.76,-5.34l-0.06 -36.7c0,-2.18 0.98,-2.67 2.56,-2.73 2.38,-0.17 4.81,-0.11 7.17,0.11 2.54,0.24 5.01,0.85 7.37,1.77 1.75,0.72 3.37,1.73 4.81,2.97 3.28,2.8 5.47,6.32 6.67,10.45 0.98,3.35 1.16,6.76 0.98,10.17l-0.02 0.13zm8.81 -8.64c-0.68,-4.44 -2.32,-8.4 -5.18,-11.87 -2.49,-3.06 -5.71,-5.45 -9.38,-6.93 -3.83,-1.57 -7.92,-2.08 -12.05,-2.19 -1.7,-0.07 -24.95,0.31 -26.66,0 -0.44,-0.07 -0.72,0.06 -0.98,0.44 -0.31,0.44 -0.61,0.92 -0.79,1.4 -0.72,1.64 -0.72,1.53 1.03,1.77 1.46,0.24 2.86,0.37 4.26,0.79 1.27,0.44 2.19,1.16 2.49,2.56 0.11,0.68 0.24,22.09 0.24,32.06l-0.24 7.13c-0.07,0.55 -0.11,1.09 -0.31,1.58 -0.24,0.72 -0.68,1.33 -1.4,1.64 -0.81,0.37 -1.66,0.61 -2.56,0.68 -1.64,0.17 -1.88,0.24 -2.43,2.08l-0.17 0.68c-0.11,0.79 -0.06,0.92 0.72,0.92l18.19 0.17 7.13 -0.11 4.92 -0.61c5.6,-1.03 10.58,-3.35 14.85,-7.06 2.43,-2.15 4.42,-4.75 5.84,-7.68 1.71,-3.41 2.43,-7.13 2.63,-10.89 0.33,-2.17 0.22,-4.35 -0.16,-6.54l0 0z"/>
   <path class="fil4" d="M319.92 472.92c-0.98,3.28 -3.04,5.43 -6.52,5.91 -2.56,0.37 -4.98,-0.24 -7.17,-1.71 -1.88,-1.27 -3.22,-2.97 -4.2,-4.99 -1.09,-2.12 -1.7,-4.37 -1.95,-6.69 -0.37,-2.86 -0.37,-5.66 0.31,-8.53 0.13,-0.57 0.31,-1.12 0.55,-1.64 1.7,-4.26 5.46,-6.21 9.93,-5.23 2.97,0.68 5.23,2.32 6.93,4.81 1.64,2.43 2.43,5.12 2.8,8 0.17,1.16 0.24,2.38 0.17,3.41 0,2.38 -0.17,4.57 -0.9,6.69l0.05 -0.05zm8.4 -12.22c-0.44,-3.52 -1.77,-6.76 -4.26,-9.43 -3.28,-3.59 -7.55,-5.12 -12.29,-5.18 -4.09,-0.07 -7.85,1.09 -11.33,3.1 -3.89,2.32 -6.58,5.6 -7.61,10.04 -1.23,4.85 -0.72,9.97 1.46,14.47 2.01,4.26 5.42,7 9.93,8.22 4.99,1.34 9.73,0.72 14.37,-1.53 4.02,-1.95 6.87,-4.99 8.53,-9.12 0.98,-2.43 1.33,-5.05 1.4,-8.09 0.04,-0.55 -0.09,-1.53 -0.2,-2.49zm-141.6 13.01c-0.9,2.8 -3.35,4.81 -6.28,5.12 -2.67,0.37 -5.18,-0.31 -7.41,-1.88 -1.62,-1.2 -2.93,-2.75 -3.83,-4.57 -2.49,-5.12 -2.93,-10.45 -1.64,-15.94 0.41,-1.71 1.29,-3.24 2.56,-4.44 2.25,-2.08 4.87,-2.56 7.78,-1.95 2.8,0.61 4.92,2.12 6.67,4.44 1.75,2.32 2.56,4.98 3.04,7.78 0.24,1.4 0.24,2.86 0.31,3.76 0,2.93 -0.24,5.34 -1.16,7.67l-0.04 0zm8.64 -13.51c-0.55,-3.28 -1.77,-6.28 -4.03,-8.77 -3.35,-3.72 -7.61,-5.34 -12.42,-5.36 -4.2,-0.07 -8.16,1.16 -11.68,3.35 -3.48,2.08 -6.01,5.4 -7.13,9.32 -1.03,3.52 -0.98,7.13 -0.17,10.72 2.12,9.62 9.55,13.75 18.43,13.14 2.63,-0.18 5.12,-1.03 7.48,-2.19 3.52,-1.64 6.08,-4.26 7.85,-7.72 1.4,-2.86 2.01,-5.91 1.95,-9.38l-0.28 -3.11zm76.67 4.15c-1.27,3.21 -4.09,4.2 -6.87,3.76 -2.56,-0.37 -4.44,-1.77 -5.66,-4.09 -1.57,-3.1 -2.01,-6.32 -1.09,-9.66 0.68,-2.49 2.19,-4.37 4.88,-4.81 3.41,-0.61 6.67,0.61 8.4,4.02 0.9,1.64 1.27,3.65 1.27,6.52 -0.06,1.16 -0.31,2.73 -0.92,4.26zm-6.96 18.98c0.37,0.06 0.72,0 1.09,0 2.56,0.11 5.18,0.31 7.67,0.98 0.81,0.24 1.62,0.55 2.38,0.92 2.43,1.33 3.35,3.65 3.04,6.15 -0.37,2.73 -1.88,4.68 -4.26,5.97 -1.57,0.9 -3.35,1.27 -5.18,1.47 -0.68,0.06 -1.27,0 -1.95,0 -2.12,0.06 -4.2,-0.18 -6.21,-1.03 -1.4,-0.54 -2.56,-1.33 -3.58,-2.43 -2.12,-2.12 -3.13,-6.02 0.06,-9.19 1.95,-1.81 4.13,-3.08 6.93,-2.84zm14.91 -30.31l1.57 0.24c1.71,0.06 3.72,-0.54 4.33,-2.93 0.33,-1.14 0.33,-2.34 0,-3.48 -0.37,0 -0.55,0.31 -0.72,0.44 -0.92,0.72 -1.95,1.16 -3.04,1.27 -2.19,0.24 -4.37,0.11 -6.52,-0.68l-2.97 -1.03c-2.08,-0.68 -4.26,-0.96 -6.45,-0.86 -3.11,0.24 -6.02,1.27 -8.77,2.74 -2.93,1.57 -4.98,3.96 -5.97,7.17 -0.55,1.88 -0.61,3.83 -0.37,5.77 0.61,4.44 2.93,7.55 7.06,9.18 0.24,0.06 0.44,0.17 0.68,0.24 0.55,0.31 0.61,0.61 0.11,1.03l-1.53 1.03 -3.65 2.25c-0.92,0.55 -1.03,0.98 -0.72,1.95 0.37,1.14 1.03,2.15 1.95,2.93 0.83,0.72 1.77,1.29 2.8,1.71 0.68,0.31 0.68,0.44 0.06,0.98l-3.48 2.49c-1.16,0.9 -2.32,1.77 -3.28,2.93 -1.37,1.46 -1.92,3.52 -1.46,5.47 0.46,2.12 1.56,4.02 3.17,5.46 1.58,1.47 3.5,2.52 5.6,3.04 3.41,0.98 6.93,1.03 10.41,0.37 4.99,-0.92 9.36,-3.13 12.77,-6.87 2.38,-2.49 3.76,-5.42 3.89,-8.9 0.28,-4.18 -2.52,-7.92 -6.58,-8.88l-3.28 -0.61 -10.04 -0.9c-1.09,-0.06 -2.19,-0.24 -3.11,-0.79 -1.16,-0.72 -1.46,-2.12 -0.72,-3.04 0.54,-0.68 1.22,-1.09 2.08,-1.16l1.95 -0.18c3.85,-0.39 7.46,-2.03 10.28,-4.68 1.51,-1.4 2.58,-3.2 3.11,-5.18 0.72,-2.62 0.72,-5.34 0.11,-8 -0.17,-0.68 -0.11,-0.72 0.72,-0.61l0.02 0.06z"/>
  </g>
 </g>
</svg>
