<?xml version="1.0" encoding="UTF-8"?>
<!DOCTYPE svg PUBLIC "-//W3C//DTD SVG 1.1//EN" "http://www.w3.org/Graphics/SVG/1.1/DTD/svg11.dtd">
<!-- Creator: CorelDRAW 2021 (64-Bit) -->
<svg xmlns="http://www.w3.org/2000/svg" xml:space="preserve" width="90mm" height="40mm" version="1.1" style="shape-rendering:geometricPrecision; text-rendering:geometricPrecision; image-rendering:optimizeQuality; fill-rule:evenodd; clip-rule:evenodd"
viewBox="0 0 9947.63 4421.17"
 xmlns:xlink="http://www.w3.org/1999/xlink"
 xmlns:xodm="http://www.corel.com/coreldraw/odm/2003">
 <defs>
  <style type="text/css">
   <![CDATA[
    .fil0 {fill:#2B2A29}
    .fil1 {fill:#00ED64;fill-rule:nonzero}
   ]]>
  </style>
 </defs>
 <g id="Layer_x0020_1">
  <metadata id="CorelCorpID_0Corel-Layer"/>
  <rect class="fil0" width="9947.63" height="4421.17" rx="1243.45" ry="552.65"/>
 </g>
 <g id="Layer_x0020_1_0">
  <metadata id="CorelCorpID_1Corel-Layer"/>
  <g id="_3095770703424">
   <path class="fil1" d="M1446.11 1397.91c-82.84,-98.32 -154.17,-198.12 -168.75,-218.86 -1.55,-1.53 -3.85,-1.53 -5.38,0 -14.57,20.74 -85.91,120.54 -168.76,218.86 -711.03,906.84 112,1518.84 112,1518.84l6.9 4.61c6.15,94.44 21.48,230.35 21.48,230.35l30.69 0 30.67 0c0,0 15.35,-135.14 21.48,-230.35l6.9 -5.38c0.77,0.77 823.81,-611.23 112.77,-1518.06zm-171.82 1505.8c0,0 -36.82,-31.49 -46.8,-47.63l0 -1.55 44.49 -987.47c0,-3.06 4.61,-3.06 4.61,0l44.48 987.47 0 1.55c-9.95,16.14 -46.78,47.63 -46.78,47.63z"/>
   <path class="fil1" d="M2814.59 2695.42l-342.97 -831.68 -0.75 -2.31 -266.84 0 0 55.91 43.05 0c13.08,0 25.37,5.35 34.61,14.57 9.23,9.17 13.84,21.43 13.84,34.45l-7.69 837.05c0,26.03 -21.53,47.46 -47.67,48.23l-43.84 0.75 0 55.13 259.93 0 0 -55.13 -26.94 -0.75c-26.13,-0.77 -47.67,-22.21 -47.67,-48.23l0 -788.8 373.75 892.92c5.37,13.02 17.66,21.46 31.5,21.46 13.84,0 26.15,-8.44 31.55,-21.46l365.26 -873.02 5.37 768.9c0,26.78 -21.51,48.23 -48.43,48.99l-27.68 0 0 55.13 304.51 0 0 -55.13 -41.51 0c-26.14,0 -47.67,-22.21 -48.44,-48.25l-2.32 -837.02c0,-26.81 21.54,-48.25 47.69,-49.02l44.59 -0.77 0 -55.91 -259.91 0 -342.97 833.99z"/>
   <path class="fil1" d="M5205.96 2837.86c-8.49,-8.42 -13.12,-19.88 -13.12,-33.67l0 -409.98c0,-78.04 -23.12,-139.23 -69.38,-182.84 -45.5,-43.59 -108.71,-65.76 -187.37,-65.76 -110.25,0 -197.35,44.34 -258.26,131.55 -0.77,1.55 -3.08,2.29 -5.4,2.29 -2.31,0 -3.86,-1.51 -3.86,-3.81l-28.53 -109.39 -47.79 0 -122.6 69.61 0 38.24 31.61 0c14.67,0 26.99,3.84 35.48,11.47 8.49,7.64 13.09,19.12 13.09,35.2l0 482.67c0,13.77 -4.6,25.24 -13.09,33.66 -8.49,8.42 -20.04,13 -33.93,13l-30.84 0 0 55.83 282.18 0 0 -55.83 -30.84 0c-13.87,0 -25.44,-4.58 -33.93,-13 -8.47,-8.41 -13.1,-19.88 -13.1,-33.66l0 -319.75c0,-40.55 9.26,-81.07 26.22,-120.85 17.72,-39.01 43.94,-71.91 78.63,-97.16 34.71,-25.24 76.33,-37.49 124.15,-37.49 53.96,0 94.81,16.83 120.26,50.51 25.44,33.66 38.56,77.24 38.56,129.26l0 394.7c0,13.77 -4.64,25.24 -13.12,33.66 -8.47,8.41 -20.04,13 -33.9,13l-30.85 0 0 55.86 282.16 0 0 -55.86 -30.82 0c-11.57,1.54 -22.37,-3.06 -31.61,-11.47z"/>
   <path class="fil1" d="M7784.05 1924.51c-77.99,-41.55 -165.2,-63.08 -259.24,-63.08l-367.05 0 0 56.16 35.94 0c13.75,0 26,5.37 38.23,17.66 11.45,11.56 17.57,24.63 17.57,38.46l0 827.62c0,13.84 -6.12,26.9 -17.57,38.45 -11.46,11.53 -24.48,17.68 -38.23,17.68l-35.94 0 0 56.15 367.05 0c94.04,0 181.25,-21.53 259.24,-63.08 77.99,-41.51 141.47,-103.06 187.35,-181.51 45.87,-78.44 69.59,-173.06 69.59,-280.74 0,-107.66 -23.72,-201.51 -69.59,-280.72 -46.65,-80 -109.36,-141.53 -187.35,-183.06zm109.35 462.26c0,98.46 -17.59,181.52 -51.99,248.44 -34.4,66.91 -80.3,116.9 -136.88,149.2 -56.59,32.31 -119.29,48.47 -186.58,48.47l-74.18 0c-13.76,0 -26.01,-5.4 -38.23,-17.7 -11.47,-11.55 -17.61,-24.61 -17.61,-38.46l0 -780.69c0,-13.84 5.36,-26.13 17.61,-38.45 11.47,-11.53 24.47,-17.68 38.23,-17.68l74.18 0c67.29,0 129.99,16.17 186.58,48.44 56.58,32.32 102.48,82.32 136.88,149.24 34.41,66.91 51.99,150.75 51.99,249.2z"/>
   <path class="fil1" d="M8908.64 2442.91c-33.93,-39.23 -99.45,-72.3 -176.54,-89.99 106.38,-53.07 161.11,-127.67 161.11,-223.81 0,-52.29 -13.87,-99.22 -41.63,-139.22 -27.75,-39.98 -67.06,-72.29 -117.17,-94.59 -50.1,-22.32 -108.68,-33.86 -174.99,-33.86l-415.5 0 0 56.16 33.14 0c13.89,0 26.22,5.37 38.56,17.66 11.55,11.56 17.72,24.63 17.72,38.46l0 827.62c0,13.84 -6.17,26.9 -17.72,38.45 -11.57,11.53 -24.67,17.68 -38.56,17.68l-36.22 0 0 56.15 450.96 0c68.61,0 132.59,-11.55 190.41,-34.63 57.83,-23.08 104.07,-56.9 137.21,-101.51 33.93,-44.61 50.89,-99.22 50.89,-162.29 -0.77,-67.69 -20.81,-125.37 -61.66,-172.29zm-517.28 373.05c-11.55,-11.55 -17.72,-24.61 -17.72,-38.46l0 -371.5 214.29 0c75.56,0 133.35,19.24 173.45,57.67 40.08,38.46 60.13,88.48 60.13,150.01 0,36.92 -9.24,73.06 -26.22,106.14 -17.73,33.83 -43.94,60.74 -79.38,81.53 -34.71,20.76 -77.87,31.53 -127.98,31.53l-158.01 0c-13.89,0.75 -26.22,-5.4 -38.56,-16.92zm-16.96 -489.17l0 -329.99c0,-13.84 5.4,-26.13 17.73,-38.45 11.57,-11.53 24.67,-17.68 38.55,-17.68l101.74 0c73.24,0 127.21,18.45 161.13,53.85 33.91,36.14 50.88,82.3 50.88,139.2 0,58.45 -16.19,105.38 -47.79,140.77 -31.61,34.61 -79.4,52.3 -142.6,52.3l-179.63 0z"/>
   <path class="fil1" d="M4131.73 2194.65c-58.89,-32.19 -124.69,-49.03 -195.84,-49.03 -71.14,0 -137.71,16.08 -195.85,49.03 -58.9,32.22 -105.56,78.96 -139.99,137.98 -34.42,59.02 -52.03,128.03 -52.03,204.67 0,76.64 17.61,145.62 52.03,204.64 34.43,59.02 81.08,105.8 139.99,137.98 58.91,32.19 124.71,49.06 195.85,49.06 71.15,0 137.69,-16.1 195.84,-49.06 58.9,-32.19 105.58,-78.96 140,-137.98 34.43,-59.02 52,-128 52,-204.64 0,-76.64 -17.57,-145.64 -52,-204.67 -34.42,-59.02 -81.1,-104.99 -140,-137.98zm56.6 342.65c0,94.27 -22.95,170.94 -68.85,226.13 -45.13,55.19 -107.08,83.54 -183.59,83.54 -76.5,0 -138.48,-28.35 -183.61,-83.54 -45.89,-55.19 -68.85,-131.86 -68.85,-226.13 0,-94.29 22.96,-170.93 68.85,-226.12 45.13,-55.2 107.11,-83.54 183.61,-83.54 76.51,0 138.46,28.34 183.59,83.54 45.9,55.96 68.85,131.83 68.85,226.12z"/>
   <path class="fil1" d="M6842.87 2194.65c-58.89,-32.19 -124.69,-49.03 -195.84,-49.03 -71.14,0 -137.71,16.08 -195.84,49.03 -58.91,32.22 -105.57,78.96 -140,137.98 -34.42,59.02 -52.03,128.03 -52.03,204.67 0,76.64 17.61,145.62 52.03,204.64 34.43,59.02 81.08,105.8 140,137.98 58.9,32.19 124.7,49.06 195.84,49.06 71.15,0 137.69,-16.1 195.84,-49.06 58.9,-32.19 105.58,-78.96 140,-137.98 34.43,-59.02 52.03,-128 52.03,-204.64 0,-76.64 -17.6,-145.64 -52.03,-204.67 -34.42,-59.02 -81.84,-104.99 -140,-137.98zm56.61 342.65c0,94.27 -22.96,170.94 -68.86,226.13 -45.13,55.19 -107.08,83.54 -183.59,83.54 -76.5,0 -138.48,-28.35 -183.61,-83.54 -45.89,-55.19 -68.85,-131.86 -68.85,-226.13 0,-95.07 22.96,-170.93 68.85,-226.12 45.13,-55.2 107.11,-83.54 183.61,-83.54 76.51,0 138.46,28.34 183.59,83.54 45.13,55.96 68.86,131.83 68.86,226.12z"/>
   <path class="fil1" d="M5749.5 2145.62c-61.64,0 -117.9,13.09 -168.73,39.25 -50.85,26.2 -90.9,61.62 -119.43,107.04 -28.51,44.66 -43.14,94.72 -43.14,147.87 0,47.75 10.8,91.64 33.13,130.91 21.59,37.71 50.87,69.3 87.83,95.48l-110.18 149.4c-13.87,18.47 -15.42,43.12 -5.37,63.12 10.77,20.81 30.8,33.11 53.92,33.11l31.58 0c-30.8,20.81 -55.45,45.45 -72.41,74.7 -20.04,33.11 -30.04,67.77 -30.04,103.19 0,66.23 29.27,120.91 87.04,161.73 57.03,40.8 137.13,61.59 238.08,61.59 70.1,0 137.13,-11.55 198,-33.88 61.63,-22.34 111.72,-55.44 148.68,-98.56 37.76,-43.13 57.01,-95.49 57.01,-155.56 0,-63.16 -23.11,-107.81 -77.05,-150.93 -46.23,-36.19 -118.64,-55.45 -208.78,-55.45l-308.17 0c-0.77,0 -1.55,-0.77 -1.55,-0.77 0,0 -0.77,-1.51 0,-2.29l80.13 -107.81c21.58,10 41.59,16.15 59.32,20.01 18.48,3.86 39.29,5.4 62.4,5.4 64.71,0 123.26,-13.09 174.12,-39.28 50.83,-26.18 91.68,-61.61 120.95,-107.04 29.28,-44.66 43.92,-94.71 43.92,-147.84 0,-56.98 -27.74,-160.95 -103.25,-214.07 0,-0.77 0.77,-0.77 0.77,-0.77l165.65 18.47 0 -76.22 -265.04 0c-41.6,-13.87 -84.74,-20.78 -129.42,-20.78zm92.46 481.28c-29.31,15.37 -60.87,23.87 -92.46,23.87 -51.64,0 -97.09,-18.5 -135.62,-54.69 -38.51,-36.2 -57.78,-89.33 -57.78,-157.08 0,-67.75 19.28,-120.9 57.78,-157.1 38.53,-36.19 83.98,-54.67 135.62,-54.67 32.33,0 63.15,7.69 92.46,23.87 29.27,15.39 53.13,39.26 72.4,70.85 18.5,31.57 28.52,70.85 28.52,117.04 0,46.97 -9.24,86.23 -28.52,117.05 -18.49,31.57 -43.13,55.43 -72.4,70.85zm-208.81 284.15l208.81 0c57.77,0 94.73,11.55 119.4,36.18 24.64,24.64 36.97,57.77 36.97,96.25 0,56.22 -22.34,102.44 -67.02,137.09 -44.68,34.65 -104.77,52.36 -178.76,52.36 -64.69,0 -118.63,-14.65 -157.91,-42.35 -39.32,-27.72 -59.32,-70.08 -59.32,-123.98 0,-33.88 9.24,-65.44 27.73,-93.18 18.5,-27.71 40.83,-47.75 70.1,-62.36z"/>
   <path class="fil1" d="M9126.49 2900.76c-15.23,-8.31 -26.65,-20.41 -35.81,-34.75 -8.39,-15.14 -12.94,-31.03 -12.94,-48.39 0,-17.38 4.55,-34.01 12.94,-48.37 8.39,-15.14 20.58,-26.46 35.81,-34.78 15.24,-8.3 32.02,-12.85 51.06,-12.85 19.07,0 35.81,4.55 51.08,12.85 15.23,8.32 26.66,20.41 35.82,34.78 8.39,15.11 12.94,30.99 12.94,48.37 0,17.36 -4.55,34.02 -12.94,48.39 -8.39,15.11 -20.59,26.44 -35.82,34.75 -15.26,8.31 -32.01,12.87 -51.08,12.87 -18.27,0 -35.82,-4.55 -51.06,-12.87zm93.76 -11.33c12.97,-6.8 22.09,-17.4 29.72,-29.47 6.86,-12.88 10.68,-27.23 10.68,-43.1 0,-15.88 -3.81,-30.25 -10.68,-43.08 -6.85,-12.84 -16.76,-22.68 -29.72,-29.5 -12.95,-6.8 -26.69,-10.59 -42.7,-10.59 -16,0 -29.72,3.79 -42.66,10.59 -12.97,6.82 -22.12,17.4 -29.72,29.5 -6.87,12.83 -10.68,27.2 -10.68,43.08 0,15.86 3.8,30.22 10.68,43.1 6.83,12.83 16.76,22.67 29.72,29.47 12.94,6.8 26.66,10.58 42.66,10.58 16,0 30.5,-3.78 42.7,-10.58zm-83.85 -26.46l0 -6.8 1.53 -0.76 4.58 0c1.51,0 3.06,-0.75 3.8,-1.5 1.53,-1.51 1.53,-2.27 1.53,-3.78l0 -70.3c0,-1.51 -0.75,-3.04 -1.53,-3.78 -1.51,-1.51 -2.29,-1.51 -3.8,-1.51l-4.58 0 -1.53 -0.75 0 -6.83 1.53 -0.74 39.62 0c11.45,0 19.84,2.27 26.68,7.57 6.87,5.27 9.9,12.09 9.9,21.16 0,6.79 -2.29,13.62 -7.6,18.15 -5.34,5.27 -11.44,8.31 -19.08,9.06l9.16 3.04 17.52 27.94c1.53,2.28 3.07,3.04 5.34,3.04l4.58 0 0.76 0.75 0 6.8 -0.76 0.77 -23.63 0 -1.51 -0.77 -24.39 -40.81 -6.1 0 0 27.21c0,1.51 0.77,3.01 1.51,3.78 1.55,1.5 2.3,1.5 3.81,1.5l4.59 0 1.51 0.76 0 6.8 -1.51 0.75 -40.4 0 -1.53 -0.75zm38.88 -49.14c6.09,0 11.43,-1.51 14.46,-5.27 3.07,-3.04 5.35,-8.31 5.35,-14.36 0,-6.06 -1.54,-10.59 -4.58,-14.37 -3.06,-3.78 -7.62,-5.29 -12.97,-5.29l-3.04 0c-1.51,0 -3.04,0.74 -3.81,1.51 -1.51,1.51 -1.51,2.27 -1.51,3.78l0 34 6.1 0z"/>
  </g>
 </g>
</svg>
