<?xml version="1.0" encoding="UTF-8"?>
<!DOCTYPE svg PUBLIC "-//W3C//DTD SVG 1.1//EN" "http://www.w3.org/Graphics/SVG/1.1/DTD/svg11.dtd">
<!-- Creator: CorelDRAW 2021 (64-Bit) -->
<svg xmlns="http://www.w3.org/2000/svg" xml:space="preserve" width="56.25mm" height="25mm" version="1.1" style="shape-rendering:geometricPrecision; text-rendering:geometricPrecision; image-rendering:optimizeQuality; fill-rule:evenodd; clip-rule:evenodd"
viewBox="0 0 1924.18 855.19"
 xmlns:xlink="http://www.w3.org/1999/xlink"
 xmlns:xodm="http://www.corel.com/coreldraw/odm/2003">
 <defs>
  <style type="text/css">
   <![CDATA[
    .fil0 {fill:#2B2A29}
    .fil1 {fill:#00ED64;fill-rule:nonzero}
   ]]>
  </style>
 </defs>
 <g id="Layer_x0020_1">
  <metadata id="CorelCorpID_0Corel-Layer"/>
  <g id="_2818738867600">
   <rect class="fil0" x="0" y="-0" width="1924.18" height="855.19" rx="384.83" ry="171.04"/>
   <g>
    <path class="fil1" d="M279.72 270.4c-16.02,-19.02 -29.82,-38.32 -32.64,-42.33 -0.3,-0.3 -0.74,-0.3 -1.04,0 -2.82,4.01 -16.62,23.32 -32.64,42.33 -137.54,175.41 21.66,293.79 21.66,293.79l1.33 0.89c1.19,18.27 4.15,44.56 4.15,44.56l5.94 0 5.93 0c0,0 2.97,-26.14 4.16,-44.56l1.33 -1.04c0.15,0.15 159.35,-118.23 21.81,-293.64zm-33.23 291.27c0,0 -7.12,-6.09 -9.05,-9.21l0 -0.3 8.61 -191.01c0,-0.59 0.89,-0.59 0.89,0l8.61 191.01 0 0.3c-1.93,3.12 -9.05,9.21 -9.05,9.21z"/>
    <path class="fil1" d="M544.43 521.38l-66.34 -160.87 -0.14 -0.45 -51.62 0 0 10.81 8.33 0c2.53,0 4.91,1.04 6.69,2.82 1.79,1.78 2.68,4.15 2.68,6.66l-1.49 161.91c0,5.04 -4.17,9.18 -9.22,9.33l-8.48 0.14 0 10.67 50.28 0 0 -10.67 -5.21 -0.14c-5.05,-0.15 -9.22,-4.3 -9.22,-9.33l0 -152.58 72.29 172.72c1.04,2.52 3.42,4.15 6.09,4.15 2.68,0 5.06,-1.63 6.1,-4.15l70.65 -168.87 1.04 148.73c0,5.18 -4.16,9.33 -9.37,9.48l-5.35 0 0 10.67 58.9 0 0 -10.67 -8.03 0c-5.06,0 -9.22,-4.29 -9.37,-9.33l-0.44 -161.9c0,-5.19 4.16,-9.34 9.22,-9.48l8.63 -0.15 0 -10.81 -50.27 0 -66.34 161.32z"/>
    <path class="fil1" d="M1006.99 548.93c-1.64,-1.63 -2.53,-3.84 -2.53,-6.51l0 -79.3c0,-15.1 -4.47,-26.93 -13.42,-35.37 -8.81,-8.43 -21.03,-12.72 -36.24,-12.72 -21.33,0 -38.18,8.58 -49.96,25.45 -0.15,0.3 -0.6,0.44 -1.05,0.44 -0.45,0 -0.75,-0.29 -0.75,-0.74l-5.52 -21.16 -9.25 0 -23.71 13.47 0 7.4 6.11 0c2.84,0 5.22,0.74 6.87,2.22 1.64,1.48 2.53,3.7 2.53,6.81l0 93.37c0,2.66 -0.89,4.88 -2.53,6.51 -1.65,1.63 -3.88,2.51 -6.56,2.51l-5.97 0 0 10.8 54.58 0 0 -10.8 -5.97 0c-2.68,0 -4.92,-0.88 -6.56,-2.51 -1.64,-1.63 -2.53,-3.85 -2.53,-6.51l0 -61.85c0,-7.84 1.79,-15.68 5.07,-23.38 3.43,-7.54 8.5,-13.91 15.21,-18.79 6.71,-4.88 14.76,-7.25 24.01,-7.25 10.44,0 18.34,3.26 23.26,9.77 4.92,6.51 7.46,14.94 7.46,25l0 76.35c0,2.66 -0.9,4.88 -2.54,6.51 -1.64,1.63 -3.88,2.51 -6.55,2.51l-5.97 0 0 10.81 54.58 0 0 -10.81 -5.96 0c-2.24,0.3 -4.33,-0.59 -6.12,-2.22z"/>
    <path class="fil1" d="M1505.68 372.26c-15.09,-8.04 -31.95,-12.2 -50.14,-12.2l-70.99 0 0 10.86 6.95 0c2.66,0 5.03,1.04 7.4,3.42 2.21,2.23 3.4,4.76 3.4,7.44l0 160.08c0,2.68 -1.19,5.21 -3.4,7.44 -2.22,2.23 -4.74,3.42 -7.4,3.42l-6.95 0 0 10.86 70.99 0c18.19,0 35.06,-4.16 50.14,-12.2 15.09,-8.03 27.36,-19.94 36.24,-35.11 8.87,-15.17 13.46,-33.48 13.46,-54.3 0,-20.83 -4.59,-38.98 -13.46,-54.3 -9.02,-15.48 -21.15,-27.38 -36.24,-35.41zm21.15 89.42c0,19.04 -3.4,35.11 -10.06,48.05 -6.65,12.94 -15.53,22.61 -26.48,28.86 -10.94,6.25 -23.07,9.37 -36.09,9.37l-14.35 0c-2.66,0 -5.03,-1.04 -7.4,-3.42 -2.22,-2.23 -3.4,-4.76 -3.4,-7.44l0 -151.01c0,-2.68 1.04,-5.06 3.4,-7.44 2.22,-2.23 4.73,-3.42 7.4,-3.42l14.35 0c13.02,0 25.15,3.13 36.09,9.37 10.95,6.25 19.82,15.92 26.48,28.86 6.66,12.94 10.06,29.16 10.06,48.21z"/>
    <path class="fil1" d="M1723.21 472.53c-6.56,-7.59 -19.23,-13.98 -34.15,-17.41 20.58,-10.27 31.16,-24.69 31.16,-43.29 0,-10.12 -2.68,-19.19 -8.05,-26.93 -5.37,-7.73 -12.97,-13.98 -22.66,-18.3 -9.69,-4.31 -21.02,-6.55 -33.85,-6.55l-80.37 0 0 10.86 6.41 0c2.69,0 5.07,1.04 7.46,3.42 2.23,2.23 3.43,4.76 3.43,7.44l0 160.08c0,2.68 -1.19,5.21 -3.43,7.44 -2.24,2.23 -4.77,3.42 -7.46,3.42l-7.01 0 0 10.86 87.23 0c13.27,0 25.65,-2.23 36.83,-6.69 11.19,-4.46 20.13,-11.01 26.54,-19.64 6.56,-8.63 9.84,-19.19 9.84,-31.39 -0.15,-13.09 -4.03,-24.25 -11.93,-33.33zm-100.05 72.16c-2.24,-2.23 -3.43,-4.76 -3.43,-7.44l0 -71.86 41.45 0c14.61,0 25.79,3.72 33.55,11.16 7.75,7.44 11.63,17.11 11.63,29.01 0,7.14 -1.79,14.13 -5.07,20.53 -3.43,6.54 -8.5,11.75 -15.36,15.77 -6.71,4.02 -15.06,6.1 -24.76,6.1l-30.56 0c-2.69,0.15 -5.07,-1.04 -7.46,-3.27zm-3.28 -94.62l0 -63.83c0,-2.68 1.04,-5.06 3.43,-7.44 2.24,-2.23 4.77,-3.42 7.46,-3.42l19.68 0c14.17,0 24.6,3.57 31.17,10.42 6.56,6.99 9.84,15.92 9.84,26.92 0,11.31 -3.13,20.38 -9.25,27.23 -6.11,6.69 -15.36,10.12 -27.59,10.12l-34.74 0z"/>
    <path class="fil1" d="M799.21 424.51c-11.39,-6.23 -24.12,-9.49 -37.88,-9.49 -13.76,0 -26.64,3.11 -37.88,9.49 -11.39,6.23 -20.42,15.27 -27.08,26.69 -6.66,11.42 -10.06,24.77 -10.06,39.59 0,14.82 3.41,28.17 10.06,39.58 6.66,11.42 15.68,20.47 27.08,26.69 11.4,6.23 24.12,9.49 37.88,9.49 13.76,0 26.63,-3.12 37.88,-9.49 11.39,-6.23 20.42,-15.27 27.08,-26.69 6.66,-11.42 10.06,-24.76 10.06,-39.58 0,-14.83 -3.4,-28.17 -10.06,-39.59 -6.66,-11.42 -15.69,-20.31 -27.08,-26.69zm10.95 66.28c0,18.23 -4.44,33.07 -13.32,43.74 -8.73,10.67 -20.71,16.16 -35.51,16.16 -14.8,0 -26.78,-5.48 -35.52,-16.16 -8.88,-10.68 -13.32,-25.51 -13.32,-43.74 0,-18.24 4.44,-33.07 13.32,-43.74 8.73,-10.68 20.72,-16.16 35.52,-16.16 14.8,0 26.78,5.48 35.51,16.16 8.88,10.82 13.32,25.5 13.32,43.74z"/>
    <path class="fil1" d="M1323.62 424.51c-11.39,-6.23 -24.12,-9.49 -37.88,-9.49 -13.76,0 -26.64,3.11 -37.88,9.49 -11.4,6.23 -20.42,15.27 -27.08,26.69 -6.66,11.42 -10.06,24.77 -10.06,39.59 0,14.82 3.4,28.17 10.06,39.58 6.66,11.42 15.68,20.47 27.08,26.69 11.39,6.23 24.12,9.49 37.88,9.49 13.76,0 26.63,-3.12 37.88,-9.49 11.39,-6.23 20.42,-15.27 27.08,-26.69 6.66,-11.42 10.06,-24.76 10.06,-39.58 0,-14.83 -3.41,-28.17 -10.06,-39.59 -6.66,-11.42 -15.83,-20.31 -27.08,-26.69zm10.95 66.28c0,18.23 -4.44,33.07 -13.32,43.74 -8.73,10.67 -20.72,16.16 -35.51,16.16 -14.8,0 -26.79,-5.48 -35.52,-16.16 -8.88,-10.68 -13.32,-25.51 -13.32,-43.74 0,-18.39 4.44,-33.07 13.32,-43.74 8.73,-10.68 20.72,-16.16 35.52,-16.16 14.79,0 26.78,5.48 35.51,16.16 8.73,10.82 13.32,25.5 13.32,43.74z"/>
    <path class="fil1" d="M1112.13 415.03c-11.92,0 -22.8,2.53 -32.64,7.59 -9.83,5.07 -17.58,11.92 -23.1,20.7 -5.51,8.64 -8.34,18.33 -8.34,28.6 0,9.24 2.09,17.73 6.41,25.32 4.17,7.3 9.84,13.41 16.99,18.47l-21.31 28.9c-2.68,3.57 -2.98,8.34 -1.04,12.21 2.08,4.02 5.96,6.4 10.43,6.4l6.11 0c-5.96,4.03 -10.73,8.79 -14.01,14.45 -3.88,6.4 -5.81,13.1 -5.81,19.96 0,12.81 5.66,23.39 16.84,31.29 11.03,7.89 26.52,11.91 46.05,11.91 13.56,0 26.52,-2.23 38.3,-6.55 11.92,-4.32 21.61,-10.72 28.76,-19.06 7.3,-8.35 11.03,-18.47 11.03,-30.09 0,-12.22 -4.47,-20.85 -14.9,-29.19 -8.95,-7 -22.95,-10.73 -40.39,-10.73l-59.61 0c-0.15,0 -0.3,-0.15 -0.3,-0.15 0,0 -0.15,-0.29 0,-0.44l15.5 -20.85c4.17,1.93 8.05,3.12 11.47,3.87 3.58,0.75 7.6,1.05 12.07,1.05 12.52,0 23.84,-2.53 33.68,-7.6 9.83,-5.06 17.73,-11.91 23.39,-20.7 5.66,-8.64 8.5,-18.32 8.5,-28.6 0,-11.02 -5.37,-31.14 -19.97,-41.41 0,-0.15 0.15,-0.15 0.15,-0.15l32.04 3.57 0 -14.74 -51.26 0c-8.05,-2.68 -16.39,-4.02 -25.04,-4.02zm17.88 93.1c-5.67,2.97 -11.77,4.62 -17.88,4.62 -9.99,0 -18.78,-3.58 -26.23,-10.58 -7.45,-7 -11.18,-17.28 -11.18,-30.38 0,-13.11 3.73,-23.38 11.18,-30.39 7.46,-7 16.25,-10.58 26.23,-10.58 6.26,0 12.22,1.49 17.88,4.62 5.66,2.97 10.28,7.59 14.01,13.7 3.58,6.11 5.51,13.7 5.51,22.64 0,9.09 -1.79,16.68 -5.51,22.64 -3.58,6.1 -8.35,10.72 -14.01,13.7zm-40.39 54.96l40.39 0c11.18,0 18.33,2.24 23.1,7 4.77,4.77 7.15,11.18 7.15,18.62 0,10.87 -4.32,19.81 -12.96,26.52 -8.64,6.7 -20.26,10.13 -34.58,10.13 -12.51,0 -22.95,-2.83 -30.55,-8.19 -7.6,-5.36 -11.47,-13.55 -11.47,-23.98 0,-6.55 1.79,-12.66 5.37,-18.02 3.57,-5.36 7.9,-9.24 13.56,-12.06z"/>
    <path class="fil1" d="M1765.35 561.1c-2.95,-1.61 -5.16,-3.95 -6.93,-6.72 -1.62,-2.93 -2.5,-6 -2.5,-9.36 0,-3.36 0.88,-6.58 2.5,-9.36 1.62,-2.93 3.98,-5.12 6.93,-6.73 2.95,-1.61 6.2,-2.49 9.88,-2.49 3.69,0 6.93,0.88 9.88,2.49 2.95,1.61 5.16,3.95 6.93,6.73 1.62,2.92 2.5,5.99 2.5,9.36 0,3.36 -0.88,6.58 -2.5,9.36 -1.62,2.92 -3.99,5.11 -6.93,6.72 -2.95,1.61 -6.19,2.49 -9.88,2.49 -3.54,0 -6.93,-0.88 -9.88,-2.49zm18.14 -2.19c2.51,-1.32 4.28,-3.37 5.75,-5.7 1.33,-2.49 2.07,-5.27 2.07,-8.34 0,-3.07 -0.74,-5.85 -2.07,-8.33 -1.32,-2.48 -3.24,-4.39 -5.75,-5.71 -2.5,-1.31 -5.16,-2.05 -8.26,-2.05 -3.1,0 -5.75,0.74 -8.25,2.05 -2.51,1.32 -4.28,3.37 -5.75,5.71 -1.33,2.48 -2.06,5.26 -2.06,8.33 0,3.07 0.74,5.85 2.06,8.34 1.32,2.48 3.24,4.39 5.75,5.7 2.5,1.31 5.16,2.05 8.25,2.05 3.1,0 5.9,-0.73 8.26,-2.05zm-16.22 -5.12l0 -1.31 0.29 -0.15 0.89 0c0.29,0 0.59,-0.14 0.74,-0.29 0.29,-0.29 0.29,-0.44 0.29,-0.73l0 -13.6c0,-0.29 -0.15,-0.59 -0.29,-0.73 -0.29,-0.29 -0.44,-0.29 -0.74,-0.29l-0.89 0 -0.29 -0.14 0 -1.32 0.29 -0.14 7.67 0c2.21,0 3.84,0.44 5.16,1.46 1.33,1.02 1.92,2.34 1.92,4.09 0,1.31 -0.44,2.63 -1.47,3.51 -1.03,1.02 -2.21,1.61 -3.69,1.75l1.77 0.59 3.39 5.4c0.29,0.44 0.59,0.59 1.03,0.59l0.89 0 0.15 0.14 0 1.32 -0.15 0.15 -4.57 0 -0.29 -0.15 -4.72 -7.9 -1.18 0 0 5.26c0,0.29 0.15,0.58 0.29,0.73 0.3,0.29 0.44,0.29 0.74,0.29l0.89 0 0.29 0.15 0 1.31 -0.29 0.15 -7.81 0 -0.29 -0.15zm7.52 -9.5c1.18,0 2.21,-0.29 2.8,-1.02 0.6,-0.58 1.04,-1.61 1.04,-2.78 0,-1.17 -0.3,-2.05 -0.89,-2.78 -0.59,-0.73 -1.47,-1.03 -2.51,-1.03l-0.59 0c-0.29,0 -0.59,0.14 -0.74,0.29 -0.29,0.29 -0.29,0.44 -0.29,0.73l0 6.58 1.18 0z"/>
   </g>
  </g>
 </g>
</svg>
