<?xml version="1.0" encoding="UTF-8"?>
<!DOCTYPE svg PUBLIC "-//W3C//DTD SVG 1.1//EN" "http://www.w3.org/Graphics/SVG/1.1/DTD/svg11.dtd">
<!-- Creator: CorelDRAW 2021 (64-Bit) -->
<svg xmlns="http://www.w3.org/2000/svg" xml:space="preserve" width="56.25mm" height="25mm" version="1.1" style="shape-rendering:geometricPrecision; text-rendering:geometricPrecision; image-rendering:optimizeQuality; fill-rule:evenodd; clip-rule:evenodd"
viewBox="0 0 1102.16 489.85"
 xmlns:xlink="http://www.w3.org/1999/xlink"
 xmlns:xodm="http://www.corel.com/coreldraw/odm/2003">
 <defs>
  <style type="text/css">
   <![CDATA[
    .fil8 {fill:none;fill-rule:nonzero}
    .fil0 {fill:#2B2A29}
    .fil1 {fill:white;fill-rule:nonzero;fill-opacity:0.000000}
    .fil4 {fill:#5FA04E}
    .fil3 {fill:white}
    .fil2 {fill:#5FA04E;fill-rule:nonzero}
    .fil5 {fill:url(#id2);fill-rule:nonzero}
    .fil7 {fill:url(#id3);fill-rule:nonzero}
    .fil6 {fill:url(#id4);fill-rule:nonzero}
   ]]>
  </style>
    <clipPath id="id0" style="clip-rule:nonzero">
     <path d="M1014.66 104.09l-914.5 0 0 271.88 914.5 0 0 -271.88z"/>
    </clipPath>
    <clipPath id="id1" style="clip-rule:nonzero">
     <path d="M1014.66 104.09l-914.5 0 0 271.88 914.5 0 0 -271.88z"/>
    </clipPath>
  <linearGradient id="id2" gradientUnits="userSpaceOnUse" x1="384.45" y1="231.06" x2="322.8" y2="353.85">
   <stop offset="0" style="stop-opacity:1; stop-color:#3F873F"/>
   <stop offset="0.329412" style="stop-opacity:1; stop-color:#3F8B3D"/>
   <stop offset="0.639216" style="stop-opacity:1; stop-color:#3E9638"/>
   <stop offset="0.929412" style="stop-opacity:1; stop-color:#3DA92E"/>
   <stop offset="1" style="stop-opacity:1; stop-color:#3DAE2B"/>
  </linearGradient>
  <linearGradient id="id3" gradientUnits="userSpaceOnUse" x1="278.27" y1="285.71" x2="432.4" y2="285.71">
   <stop offset="0" style="stop-opacity:1; stop-color:#6ABF4B"/>
   <stop offset="0.0901961" style="stop-opacity:1; stop-color:#6ABF4B"/>
   <stop offset="0.290196" style="stop-opacity:1; stop-color:#64B749"/>
   <stop offset="0.6" style="stop-opacity:1; stop-color:#52A044"/>
   <stop offset="0.858824" style="stop-opacity:1; stop-color:#3F873F"/>
   <stop offset="1" style="stop-opacity:1; stop-color:#3F873F"/>
  </linearGradient>
  <linearGradient id="id4" gradientUnits="userSpaceOnUse" x1="346.77" y1="295.73" x2="514.6" y2="169.23">
   <stop offset="0" style="stop-opacity:1; stop-color:#3F873F"/>
   <stop offset="0.141176" style="stop-opacity:1; stop-color:#3F873F"/>
   <stop offset="0.4" style="stop-opacity:1; stop-color:#52A044"/>
   <stop offset="0.709804" style="stop-opacity:1; stop-color:#64B749"/>
   <stop offset="0.909804" style="stop-opacity:1; stop-color:#6ABF4B"/>
   <stop offset="1" style="stop-opacity:1; stop-color:#6ABF4B"/>
  </linearGradient>
 </defs>
 <g id="Layer_x0020_1">
  <metadata id="CorelCorpID_0Corel-Layer"/>
  <g id="_2818738919200">
   <rect class="fil0" x="-0" y="-0" width="1102.16" height="489.85" rx="220.43" ry="97.97"/>
   <g style="clip-path:url(#id0)">
    <polygon id="nodejsLight.svg" class="fil1" points="100.17,104.09 1014.66,104.09 1014.66,375.97 100.17,375.97 "/>
   </g>
   <g style="clip-path:url(#id1)">
    <g>
     <path id="_1" class="fil2" d="M905 373.84c-2.37,0 -4.58,-0.64 -6.62,-1.75l-20.96 -12.53c-3.16,-1.74 -1.58,-2.38 -0.63,-2.7 4.25,-1.42 5.04,-1.75 9.45,-4.28 0.47,-0.32 1.1,-0.16 1.58,0.16l16.08 9.67c0.63,0.32 1.42,0.32 1.89,0l62.89 -36.64c0.63,-0.32 0.95,-0.95 0.95,-1.74l0 -73.11c0,-0.8 -0.32,-1.43 -0.95,-1.75l-62.89 -36.48c-0.63,-0.32 -1.42,-0.32 -1.89,0l-62.89 36.48c-0.63,0.32 -0.94,1.11 -0.94,1.75l0 73.11c0,0.64 0.31,1.43 0.94,1.74l17.18 9.99c9.3,4.76 15.13,-0.79 15.13,-6.34l0 -72.16c0,-0.95 0.79,-1.9 1.89,-1.9l8.04 0c0.95,0 1.89,0.8 1.89,1.9l0 72.16c0,12.53 -6.78,19.83 -18.6,19.83 -3.62,0 -6.46,0 -14.5,-3.96l-16.55 -9.52c-4.1,-2.38 -6.62,-6.82 -6.62,-11.58l0 -73.12c0,-4.76 2.52,-9.2 6.62,-11.58l62.9 -36.64c3.94,-2.22 9.3,-2.22 13.24,0l62.9 36.64c4.1,2.38 6.61,6.82 6.61,11.58l0 73.12c0,4.76 -2.52,9.2 -6.61,11.58l-62.9 36.64c-1.89,0.79 -4.25,1.43 -6.61,1.43z"/>
     <path class="fil2" d="M924.55 323.56c-27.59,0 -33.27,-12.69 -33.27,-23.47 0,-0.95 0.79,-1.91 1.89,-1.91l8.2 0c0.95,0 1.74,0.64 1.74,1.59 1.26,8.41 4.88,12.53 21.59,12.53 13.24,0 18.92,-3.01 18.92,-10.15 0,-4.13 -1.58,-7.14 -22.23,-9.2 -17.18,-1.75 -27.9,-5.55 -27.9,-19.35 0,-12.84 10.72,-20.46 28.69,-20.46 20.18,0 30.11,6.98 31.37,22.21 0,0.47 -0.16,0.95 -0.47,1.43 -0.32,0.32 -0.79,0.63 -1.27,0.63l-8.35 0c-0.78,0 -1.57,-0.63 -1.73,-1.43 -1.89,-8.73 -6.78,-11.58 -19.71,-11.58 -14.5,0 -16.23,5.08 -16.23,8.88 0,4.59 2.05,6.03 21.59,8.56 19.39,2.54 28.53,6.19 28.53,19.82 0,13.96 -11.51,21.89 -31.36,21.89z"/>
     <path class="fil2" d="M1015.35 246.79c0,6.66 -5.52,12.21 -12.14,12.21 -6.61,0 -12.13,-5.39 -12.13,-12.21 0,-6.98 5.67,-12.21 12.13,-12.21 6.47,0 12.14,5.39 12.14,12.21zm-22.38 0c0,5.71 4.57,10.31 10.08,10.31 5.68,0 10.25,-4.76 10.25,-10.31 0,-5.71 -4.57,-10.15 -10.25,-10.15 -5.36,0 -10.08,4.44 -10.08,10.15zm5.67 -6.82l4.73 0c1.57,0 4.73,0 4.73,3.65 0,2.54 -1.59,3.01 -2.54,3.33 1.9,0.16 2.05,1.43 2.21,3.17 0.16,1.11 0.33,3.01 0.63,3.65l-2.84 0c0,-0.63 -0.47,-4.13 -0.47,-4.28 -0.16,-0.8 -0.47,-1.11 -1.42,-1.11l-2.37 0 0 5.55 -2.68 0 0 -13.96zm2.52 6.03l2.05 0c1.74,0 2.05,-1.27 2.05,-1.9 0,-1.9 -1.26,-1.9 -2.05,-1.9l-2.2 0 0 3.81 0.15 0z"/>
     <path class="fil3" d="M249.75 247.79c0,-2.85 -1.58,-5.55 -4.1,-6.98l-66.68 -38.86c-1.1,-0.63 -2.36,-0.95 -3.62,-1.11 -0.16,0 -0.63,0 -0.63,0 -1.26,0 -2.52,0.48 -3.63,1.11l-66.83 38.7c-2.52,1.43 -4.1,4.12 -4.1,7.14l0.16 104.05c0,1.43 0.79,2.85 2.05,3.49 1.26,0.8 2.84,0.8 3.94,0l39.72 -22.84c2.52,-1.43 4.1,-4.12 4.1,-6.98l0 -48.69c0,-2.86 1.58,-5.55 4.1,-6.98l16.86 -9.83c1.26,-0.79 2.68,-1.11 4.1,-1.11 1.42,0 2.84,0.32 3.94,1.11l16.86 9.83c2.53,1.43 4.1,4.12 4.1,6.98l0 48.69c0,2.86 1.57,5.55 4.1,6.98l39.4 22.84c1.26,0.8 2.84,0.8 4.1,0 1.26,-0.63 2.05,-2.06 2.05,-3.49l0 -104.05z"/>
     <path class="fil3" d="M570.99 104.57c-1.26,-0.63 -2.84,-0.63 -3.94,0 -1.26,0.79 -2.05,2.06 -2.05,3.49l0 103.09c0,0.95 -0.47,1.9 -1.42,2.54 -0.94,0.48 -1.89,0.48 -2.83,0l-16.71 -9.68c-2.52,-1.42 -5.52,-1.42 -8.04,0l-66.83 38.86c-2.52,1.43 -4.1,4.12 -4.1,6.98l0 77.56c0,2.86 1.58,5.55 4.1,6.98l66.83 38.86c2.52,1.43 5.52,1.43 8.04,0l66.83 -38.86c2.52,-1.43 4.09,-4.12 4.09,-6.98l0 -193.34c0,-3.01 -1.57,-5.71 -4.09,-7.14l-39.88 -22.36zm-6.15 197.3c0,0.8 -0.32,1.43 -0.95,1.75l-22.86 13.32c-0.63,0.32 -1.42,0.32 -2.05,0l-22.86 -13.32c-0.63,-0.32 -0.94,-1.11 -0.94,-1.75l0 -26.64c0,-0.79 0.31,-1.43 0.94,-1.75l22.86 -13.32c0.63,-0.32 1.42,-0.32 2.05,0l22.86 13.32c0.63,0.32 0.95,1.11 0.95,1.75l0 26.64z"/>
     <path class="fil3" d="M793.4 274.6c2.52,-1.43 3.94,-4.12 3.94,-6.98l0 -18.87c0,-2.86 -1.58,-5.55 -3.94,-6.98l-66.36 -38.7c-2.52,-1.43 -5.51,-1.43 -8.04,0l-66.83 38.86c-2.52,1.43 -4.1,4.12 -4.1,6.98l0 77.56c0,2.85 1.58,5.55 4.1,6.98l66.36 38.06c2.52,1.43 5.52,1.43 7.88,0l40.2 -22.52c1.26,-0.63 2.05,-2.06 2.05,-3.49 0,-1.42 -0.79,-2.85 -2.05,-3.49l-67.15 -38.86c-1.26,-0.79 -2.05,-2.06 -2.05,-3.49l0 -24.27c0,-1.43 0.79,-2.85 2.05,-3.49l20.97 -12.05c1.26,-0.79 2.84,-0.79 4.1,0l20.97 12.05c1.26,0.79 2.05,2.06 2.05,3.49l0 19.03c0,1.42 0.79,2.85 2.05,3.49 1.26,0.8 2.84,0.8 4.1,0l39.72 -23.31z"/>
     <path class="fil4" d="M721.99 270.95c0.47,-0.32 1.11,-0.32 1.58,0l12.76 7.46c0.48,0.32 0.79,0.79 0.79,1.43l0 14.91c0,0.64 -0.31,1.11 -0.79,1.43l-12.76 7.46c-0.47,0.32 -1.11,0.32 -1.58,0l-12.77 -7.46c-0.47,-0.32 -0.79,-0.79 -0.79,-1.43l0 -14.91c0,-0.63 0.32,-1.11 0.79,-1.43l12.77 -7.46z"/>
     <path class="fil5" d="M361.51 203.38c-2.53,-1.43 -5.52,-1.43 -8.05,0l-66.36 38.54c-2.52,1.43 -3.94,4.12 -3.94,6.98l0 77.24c0,2.85 1.58,5.55 3.94,6.98l66.36 38.54c2.52,1.43 5.52,1.43 8.05,0l66.35 -38.54c2.53,-1.43 3.94,-4.12 3.94,-6.98l0 -77.24c0,-2.86 -1.58,-5.55 -3.94,-6.98l-66.35 -38.54z"/>
     <path class="fil6" d="M428.02 241.92l-66.68 -38.54c-0.63,-0.32 -1.42,-0.63 -2.05,-0.79l-74.71 128.63c0.63,0.79 1.42,1.42 2.21,1.9l66.67 38.54c1.9,1.11 4.1,1.43 6.15,0.79l70.15 -129.1c-0.48,-0.63 -1.11,-1.11 -1.74,-1.43z"/>
     <path class="fil7" d="M428.03 333.12c1.89,-1.11 3.31,-3.01 3.94,-5.07l-72.98 -125.62c-1.89,-0.32 -3.94,-0.16 -5.67,0.95l-66.2 38.38 71.41 131.01c0.94,-0.16 2.05,-0.48 3,-0.95l66.52 -38.7z"/>
    </g>
   </g>
   <polygon class="fil8" points="1014.66,104.09 100.17,104.09 100.17,375.97 1014.66,375.97 "/>
  </g>
 </g>
</svg>
