<?xml version="1.0" encoding="UTF-8"?>
<!DOCTYPE svg PUBLIC "-//W3C//DTD SVG 1.1//EN" "http://www.w3.org/Graphics/SVG/1.1/DTD/svg11.dtd">
<!-- Creator: CorelDRAW 2021 (64-Bit) -->
<svg xmlns="http://www.w3.org/2000/svg" xml:space="preserve" width="31.6268mm" height="14.0564mm" version="1.1" style="shape-rendering:geometricPrecision; text-rendering:geometricPrecision; image-rendering:optimizeQuality; fill-rule:evenodd; clip-rule:evenodd"
viewBox="0 0 348.42 154.86"
 xmlns:xlink="http://www.w3.org/1999/xlink"
 xmlns:xodm="http://www.corel.com/coreldraw/odm/2003">
 <defs>
  <style type="text/css">
   <![CDATA[
    .fil8 {fill:none;fill-rule:nonzero}
    .fil0 {fill:#2B2A29}
    .fil1 {fill:white;fill-rule:nonzero;fill-opacity:0.000000}
    .fil4 {fill:#5FA04E}
    .fil3 {fill:white}
    .fil2 {fill:#5FA04E;fill-rule:nonzero}
    .fil5 {fill:url(#id2);fill-rule:nonzero}
    .fil7 {fill:url(#id3);fill-rule:nonzero}
    .fil6 {fill:url(#id4);fill-rule:nonzero}
   ]]>
  </style>
   <clipPath id="id0" style="clip-rule:nonzero">
    <path d="M320.76 32.91l-289.1 0 0 85.95 289.1 0 0 -85.95z"/>
   </clipPath>
   <clipPath id="id1" style="clip-rule:nonzero">
    <path d="M320.76 32.91l-289.1 0 0 85.95 289.1 0 0 -85.95z"/>
   </clipPath>
  <linearGradient id="id2" gradientUnits="userSpaceOnUse" x1="121.54" y1="73.04" x2="102.05" y2="111.86">
   <stop offset="0" style="stop-opacity:1; stop-color:#3F873F"/>
   <stop offset="0.329412" style="stop-opacity:1; stop-color:#3F8B3D"/>
   <stop offset="0.639216" style="stop-opacity:1; stop-color:#3E9638"/>
   <stop offset="0.929412" style="stop-opacity:1; stop-color:#3DA92E"/>
   <stop offset="1" style="stop-opacity:1; stop-color:#3DAE2B"/>
  </linearGradient>
  <linearGradient id="id3" gradientUnits="userSpaceOnUse" x1="87.97" y1="90.32" x2="136.69" y2="90.32">
   <stop offset="0" style="stop-opacity:1; stop-color:#6ABF4B"/>
   <stop offset="0.0901961" style="stop-opacity:1; stop-color:#6ABF4B"/>
   <stop offset="0.290196" style="stop-opacity:1; stop-color:#64B749"/>
   <stop offset="0.6" style="stop-opacity:1; stop-color:#52A044"/>
   <stop offset="0.858824" style="stop-opacity:1; stop-color:#3F873F"/>
   <stop offset="1" style="stop-opacity:1; stop-color:#3F873F"/>
  </linearGradient>
  <linearGradient id="id4" gradientUnits="userSpaceOnUse" x1="109.63" y1="93.49" x2="162.68" y2="53.5">
   <stop offset="0" style="stop-opacity:1; stop-color:#3F873F"/>
   <stop offset="0.141176" style="stop-opacity:1; stop-color:#3F873F"/>
   <stop offset="0.4" style="stop-opacity:1; stop-color:#52A044"/>
   <stop offset="0.709804" style="stop-opacity:1; stop-color:#64B749"/>
   <stop offset="0.909804" style="stop-opacity:1; stop-color:#6ABF4B"/>
   <stop offset="1" style="stop-opacity:1; stop-color:#6ABF4B"/>
  </linearGradient>
 </defs>
 <g id="Layer_x0020_1">
  <metadata id="CorelCorpID_0Corel-Layer"/>
  <rect class="fil0" x="-0" y="-0" width="348.42" height="154.86" rx="49.58" ry="22.03"/>
  <g style="clip-path:url(#id0)">
   <polygon id="nodejsLight.svg" class="fil1" points="31.67,32.91 320.76,32.91 320.76,118.86 31.67,118.86 "/>
  </g>
  <g style="clip-path:url(#id1)">
   <g id="_2818684568688">
    <path id="_1" class="fil2" d="M286.1 118.18c-0.75,0 -1.45,-0.2 -2.09,-0.55l-6.63 -3.96c-1,-0.55 -0.5,-0.75 -0.2,-0.85 1.35,-0.45 1.59,-0.55 2.99,-1.35 0.15,-0.1 0.35,-0.05 0.5,0.05l5.08 3.06c0.2,0.1 0.45,0.1 0.6,0l19.88 -11.58c0.2,-0.1 0.3,-0.3 0.3,-0.55l0 -23.11c0,-0.25 -0.1,-0.45 -0.3,-0.55l-19.88 -11.53c-0.2,-0.1 -0.45,-0.1 -0.6,0l-19.88 11.53c-0.2,0.1 -0.3,0.35 -0.3,0.55l0 23.11c0,0.2 0.1,0.45 0.3,0.55l5.43 3.16c2.94,1.5 4.78,-0.25 4.78,-2.01l0 -22.81c0,-0.3 0.25,-0.6 0.6,-0.6l2.54 0c0.3,0 0.6,0.25 0.6,0.6l0 22.81c0,3.96 -2.14,6.27 -5.88,6.27 -1.14,0 -2.04,0 -4.58,-1.25l-5.23 -3.01c-1.29,-0.75 -2.09,-2.15 -2.09,-3.66l0 -23.11c0,-1.51 0.8,-2.91 2.09,-3.66l19.88 -11.58c1.25,-0.7 2.94,-0.7 4.19,0l19.88 11.58c1.3,0.75 2.09,2.15 2.09,3.66l0 23.11c0,1.5 -0.8,2.91 -2.09,3.66l-19.88 11.58c-0.6,0.25 -1.34,0.45 -2.09,0.45z"/>
    <path class="fil2" d="M292.28 102.29c-8.72,0 -10.52,-4.01 -10.52,-7.42 0,-0.3 0.25,-0.6 0.6,-0.6l2.59 0c0.3,0 0.55,0.2 0.55,0.5 0.4,2.66 1.54,3.96 6.83,3.96 4.19,0 5.98,-0.95 5.98,-3.21 0,-1.3 -0.5,-2.26 -7.03,-2.91 -5.43,-0.55 -8.82,-1.75 -8.82,-6.12 0,-4.06 3.39,-6.47 9.07,-6.47 6.38,0 9.52,2.21 9.92,7.02 0,0.15 -0.05,0.3 -0.15,0.45 -0.1,0.1 -0.25,0.2 -0.4,0.2l-2.64 0c-0.25,0 -0.5,-0.2 -0.55,-0.45 -0.6,-2.76 -2.14,-3.66 -6.23,-3.66 -4.58,0 -5.13,1.61 -5.13,2.81 0,1.45 0.65,1.9 6.83,2.71 6.13,0.8 9.02,1.96 9.02,6.27 0,4.41 -3.64,6.92 -9.92,6.92z"/>
    <path class="fil2" d="M320.98 78.02c0,2.11 -1.75,3.86 -3.84,3.86 -2.09,0 -3.84,-1.71 -3.84,-3.86 0,-2.21 1.79,-3.86 3.84,-3.86 2.04,0 3.84,1.7 3.84,3.86zm-7.08 0c0,1.8 1.44,3.26 3.19,3.26 1.79,0 3.24,-1.51 3.24,-3.26 0,-1.8 -1.45,-3.21 -3.24,-3.21 -1.69,0 -3.19,1.4 -3.19,3.21zm1.79 -2.16l1.5 0c0.5,0 1.5,0 1.5,1.15 0,0.8 -0.5,0.95 -0.8,1.05 0.6,0.05 0.65,0.45 0.7,1 0.05,0.35 0.1,0.95 0.2,1.15l-0.9 0c0,-0.2 -0.15,-1.31 -0.15,-1.35 -0.05,-0.25 -0.15,-0.35 -0.45,-0.35l-0.75 0 0 1.76 -0.85 0 0 -4.41zm0.8 1.9l0.65 0c0.55,0 0.65,-0.4 0.65,-0.6 0,-0.6 -0.4,-0.6 -0.65,-0.6l-0.7 0 0 1.2 0.05 0z"/>
    <path class="fil3" d="M78.95 78.33c0,-0.9 -0.5,-1.75 -1.3,-2.21l-21.08 -12.28c-0.35,-0.2 -0.75,-0.3 -1.14,-0.35 -0.05,0 -0.2,0 -0.2,0 -0.4,0 -0.8,0.15 -1.15,0.35l-21.13 12.24c-0.8,0.45 -1.3,1.3 -1.3,2.26l0.05 32.89c0,0.45 0.25,0.9 0.65,1.1 0.4,0.25 0.9,0.25 1.24,0l12.56 -7.22c0.8,-0.45 1.29,-1.3 1.29,-2.21l0 -15.39c0,-0.9 0.5,-1.76 1.3,-2.21l5.33 -3.11c0.4,-0.25 0.85,-0.35 1.3,-0.35 0.45,0 0.9,0.1 1.25,0.35l5.33 3.11c0.8,0.45 1.3,1.3 1.3,2.21l0 15.39c0,0.9 0.5,1.75 1.3,2.21l12.46 7.22c0.4,0.25 0.9,0.25 1.3,0 0.4,-0.2 0.65,-0.65 0.65,-1.1l0 -32.89z"/>
    <path class="fil3" d="M180.51 33.06c-0.4,-0.2 -0.9,-0.2 -1.25,0 -0.4,0.25 -0.65,0.65 -0.65,1.1l0 32.59c0,0.3 -0.15,0.6 -0.45,0.8 -0.3,0.15 -0.6,0.15 -0.89,0l-5.28 -3.06c-0.8,-0.45 -1.75,-0.45 -2.54,0l-21.13 12.29c-0.8,0.45 -1.29,1.3 -1.29,2.21l0 24.52c0,0.9 0.5,1.75 1.29,2.21l21.13 12.28c0.8,0.45 1.75,0.45 2.54,0l21.13 -12.28c0.8,-0.45 1.29,-1.3 1.29,-2.21l0 -61.12c0,-0.95 -0.5,-1.8 -1.29,-2.26l-12.61 -7.07zm-1.94 62.37c0,0.25 -0.1,0.45 -0.3,0.55l-7.23 4.21c-0.2,0.1 -0.45,0.1 -0.65,0l-7.23 -4.21c-0.2,-0.1 -0.3,-0.35 -0.3,-0.55l0 -8.42c0,-0.25 0.1,-0.45 0.3,-0.55l7.23 -4.21c0.2,-0.1 0.45,-0.1 0.65,0l7.23 4.21c0.2,0.1 0.3,0.35 0.3,0.55l0 8.42z"/>
    <path class="fil3" d="M250.81 86.81c0.8,-0.45 1.25,-1.3 1.25,-2.21l0 -5.97c0,-0.9 -0.5,-1.75 -1.25,-2.21l-20.98 -12.23c-0.8,-0.45 -1.74,-0.45 -2.54,0l-21.13 12.28c-0.8,0.45 -1.3,1.3 -1.3,2.21l0 24.52c0,0.9 0.5,1.75 1.3,2.21l20.98 12.03c0.8,0.45 1.74,0.45 2.49,0l12.71 -7.12c0.4,-0.2 0.65,-0.65 0.65,-1.1 0,-0.45 -0.25,-0.9 -0.65,-1.1l-21.23 -12.28c-0.4,-0.25 -0.65,-0.65 -0.65,-1.1l0 -7.67c0,-0.45 0.25,-0.9 0.65,-1.1l6.63 -3.81c0.4,-0.25 0.9,-0.25 1.29,0l6.63 3.81c0.4,0.25 0.65,0.65 0.65,1.1l0 6.02c0,0.45 0.25,0.9 0.65,1.1 0.4,0.25 0.9,0.25 1.29,0l12.56 -7.37z"/>
    <path class="fil4" d="M228.24 85.65c0.15,-0.1 0.35,-0.1 0.5,0l4.03 2.36c0.15,0.1 0.25,0.25 0.25,0.45l0 4.71c0,0.2 -0.1,0.35 -0.25,0.45l-4.03 2.36c-0.15,0.1 -0.35,0.1 -0.5,0l-4.04 -2.36c-0.15,-0.1 -0.25,-0.25 -0.25,-0.45l0 -4.71c0,-0.2 0.1,-0.35 0.25,-0.45l4.04 -2.36z"/>
    <path class="fil5" d="M114.28 64.29c-0.8,-0.45 -1.75,-0.45 -2.54,0l-20.98 12.18c-0.8,0.45 -1.24,1.3 -1.24,2.21l0 24.42c0,0.9 0.5,1.75 1.24,2.21l20.98 12.18c0.8,0.45 1.75,0.45 2.54,0l20.98 -12.18c0.8,-0.45 1.25,-1.3 1.25,-2.21l0 -24.42c0,-0.9 -0.5,-1.75 -1.25,-2.21l-20.98 -12.18z"/>
    <path class="fil6" d="M135.31 76.48l-21.08 -12.18c-0.2,-0.1 -0.45,-0.2 -0.65,-0.25l-23.62 40.66c0.2,0.25 0.45,0.45 0.7,0.6l21.08 12.18c0.6,0.35 1.3,0.45 1.94,0.25l22.17 -40.81c-0.15,-0.2 -0.35,-0.35 -0.55,-0.45z"/>
    <path class="fil7" d="M135.31 105.31c0.6,-0.35 1.05,-0.95 1.24,-1.61l-23.07 -39.71c-0.6,-0.1 -1.24,-0.05 -1.79,0.3l-20.93 12.13 22.57 41.42c0.3,-0.05 0.65,-0.15 0.95,-0.3l21.03 -12.23z"/>
   </g>
  </g>
  <polygon class="fil8" points="320.76,32.91 31.67,32.91 31.67,118.86 320.76,118.86 "/>
 </g>
</svg>
