<?xml version="1.0" encoding="UTF-8"?>
<!DOCTYPE svg PUBLIC "-//W3C//DTD SVG 1.1//EN" "http://www.w3.org/Graphics/SVG/1.1/DTD/svg11.dtd">
<!-- Creator: CorelDRAW 2021 (64-Bit) -->
<svg xmlns="http://www.w3.org/2000/svg" xml:space="preserve" width="14.0564mm" height="14.0564mm" version="1.1" style="shape-rendering:geometricPrecision; text-rendering:geometricPrecision; image-rendering:optimizeQuality; fill-rule:evenodd; clip-rule:evenodd"
viewBox="0 0 139.82 139.82"
 xmlns:xlink="http://www.w3.org/1999/xlink"
 xmlns:xodm="http://www.corel.com/coreldraw/odm/2003">
 <defs>
  <style type="text/css">
   <![CDATA[
    .fil2 {fill:#EBECEC}
    .fil0 {fill:#2B2A29}
    .fil3 {fill:#689F63}
    .fil1 {fill:#689F63;fill-rule:nonzero}
    .fil5 {fill:url(#id0)}
    .fil6 {fill:url(#id1)}
    .fil4 {fill:url(#id2)}
   ]]>
  </style>
  <linearGradient id="id0" gradientUnits="userSpaceOnUse" x1="42.4" y1="57.23" x2="69.27" y2="37.39">
   <stop offset="0" style="stop-opacity:1; stop-color:#3E863D"/>
   <stop offset="0.568627" style="stop-opacity:1; stop-color:#3E863D"/>
   <stop offset="0.721569" style="stop-opacity:1; stop-color:#619857"/>
   <stop offset="1" style="stop-opacity:1; stop-color:#76AC64"/>
  </linearGradient>
  <linearGradient id="id1" gradientUnits="userSpaceOnUse" x1="45.08" y1="47.29" x2="67.3" y2="47.29">
   <stop offset="0" style="stop-opacity:1; stop-color:#6BBF47"/>
   <stop offset="0.160784" style="stop-opacity:1; stop-color:#6BBF47"/>
   <stop offset="0.380392" style="stop-opacity:1; stop-color:#79B461"/>
   <stop offset="0.470588" style="stop-opacity:1; stop-color:#75AC64"/>
   <stop offset="0.701961" style="stop-opacity:1; stop-color:#659E5A"/>
   <stop offset="0.901961" style="stop-opacity:1; stop-color:#3E863D"/>
   <stop offset="1" style="stop-opacity:1; stop-color:#3E863D"/>
  </linearGradient>
  <linearGradient id="id2" gradientUnits="userSpaceOnUse" x1="63.25" y1="32.28" x2="48.5" y2="62.31">
   <stop offset="0" style="stop-opacity:1; stop-color:#3E863D"/>
   <stop offset="0.301961" style="stop-opacity:1; stop-color:#3E863D"/>
   <stop offset="0.501961" style="stop-opacity:1; stop-color:#55934F"/>
   <stop offset="0.8" style="stop-opacity:1; stop-color:#5AAD45"/>
   <stop offset="1" style="stop-opacity:1; stop-color:#5AAD45"/>
  </linearGradient>
 </defs>
 <g id="Layer_x0020_1">
  <metadata id="CorelCorpID_0Corel-Layer"/>
  <rect class="fil0" x="-0" y="0" width="139.82" height="139.82" rx="19.89" ry="19.89"/>
 </g>
 <g id="Layer_x0020_1_0">
  <metadata id="CorelCorpID_1Corel-Layer"/>
  <g id="_2340032131760">
   <g>
    <path class="fil1" d="M69.23 120.55c-0.79,-0.01 -1.58,-0.23 -2.28,-0.63l-7.47 -4.42c-1.12,-0.62 -0.57,-0.84 -0.2,-0.97 1.49,-0.52 1.79,-0.64 3.38,-1.54 0.17,-0.09 0.38,-0.06 0.56,0.04l5.74 3.4c0.21,0.11 0.5,0.11 0.69,0l22.36 -12.91c0.21,-0.12 0.34,-0.36 0.34,-0.6l0 -25.8c0,-0.26 -0.13,-0.49 -0.35,-0.62l-22.35 -12.9c-0.21,-0.12 -0.48,-0.12 -0.69,0l-22.35 12.9c-0.22,0.12 -0.35,0.36 -0.35,0.61l0 25.8c0,0.25 0.13,0.48 0.35,0.6l6.12 3.54c3.32,1.66 5.36,-0.3 5.36,-2.27l0 -25.47c0,-0.36 0.29,-0.64 0.65,-0.64l2.83 0c0.35,0 0.64,0.28 0.64,0.64l0 25.48c0,4.43 -2.42,6.98 -6.62,6.98 -1.29,0 -2.31,0 -5.15,-1.4l-5.87 -3.38c-1.45,-0.84 -2.35,-2.41 -2.35,-4.08l0 -25.8c0,-1.68 0.9,-3.25 2.35,-4.07l22.38 -12.91c1.42,-0.8 3.3,-0.8 4.7,0l22.36 12.92c1.44,0.83 2.35,2.4 2.35,4.08l0 25.8c0,1.67 -0.9,3.24 -2.35,4.08l-22.36 12.91c-0.72,0.41 -1.53,0.63 -2.36,0.63l0 0.01 -0.07 0z"/>
    <g>
     <path class="fil1" d="M108.42 75.74c0,2.37 -1.94,4.31 -4.31,4.31 -2.35,0 -4.31,-1.91 -4.31,-4.31 0,-2.44 2,-4.31 4.31,-4.31 2.32,0 4.3,1.88 4.3,4.31l0.01 0zm-7.92 -0.01c0,2 1.62,3.63 3.6,3.63 2,0 3.62,-1.66 3.62,-3.63 0,-2.01 -1.64,-3.6 -3.63,-3.6 -1.96,0 -3.6,1.57 -3.6,3.6l0.01 0zm2 -2.41l1.66 0c0.57,0 1.69,0 1.69,1.28 0,0.89 -0.57,1.08 -0.91,1.19 0.67,0.04 0.71,0.48 0.8,1.1 0.04,0.39 0.12,1.05 0.25,1.28l-1.02 0c-0.03,-0.22 -0.19,-1.46 -0.19,-1.52 -0.07,-0.27 -0.16,-0.41 -0.5,-0.41l-0.85 0 0 1.94 -0.94 0 0 -4.84zm0.91 2.12l0.75 0c0.61,0 0.73,-0.43 0.73,-0.68 0,-0.66 -0.45,-0.66 -0.71,-0.66l-0.77 0 -0.01 1.34zm-27.2 27.34c-9.78,0 -11.84,-4.49 -11.84,-8.26 0,-0.36 0.29,-0.64 0.65,-0.64l2.89 0c0.32,0 0.59,0.23 0.64,0.55 0.44,2.94 1.73,4.43 7.65,4.43 4.71,0 6.72,-1.06 6.72,-3.56 0,-1.44 -0.57,-2.51 -7.89,-3.22 -6.12,-0.61 -9.91,-1.95 -9.91,-6.85 0,-4.51 3.81,-7.2 10.18,-7.2 7.16,0 10.71,2.49 11.16,7.83 0.02,0.19 -0.05,0.36 -0.17,0.5 -0.12,0.13 -0.3,0.21 -0.48,0.21l-2.9 0c-0.3,0 -0.56,-0.21 -0.63,-0.5 -0.7,-3.1 -2.39,-4.09 -6.99,-4.09 -5.14,0 -5.74,1.79 -5.74,3.13 0,1.63 0.71,2.1 7.65,3.02 6.87,0.91 10.14,2.2 10.14,7.03 0,4.87 -4.06,7.66 -11.15,7.66l0.03 -0.03z"/>
    </g>
   </g>
   <g id="_2340032133008">
    <path class="fil2" d="M122.89 45.31c0.38,-0.22 0.62,-0.63 0.62,-1.07l0 -2.87c0,-0.44 -0.23,-0.85 -0.62,-1.07l-10.2 -5.92c-0.38,-0.22 -0.86,-0.22 -1.24,0l-10.26 5.92c-0.39,0.22 -0.62,0.63 -0.62,1.07l0 11.85c0,0.45 0.24,0.86 0.62,1.08l10.2 5.81c0.38,0.22 0.84,0.22 1.22,0.01l6.17 -3.43c0.19,-0.11 0.32,-0.32 0.32,-0.54 0,-0.22 -0.12,-0.43 -0.31,-0.54l-10.33 -5.93c-0.19,-0.11 -0.31,-0.32 -0.31,-0.54l0 -3.72c0,-0.22 0.12,-0.43 0.31,-0.54l3.21 -1.85c0.19,-0.11 0.43,-0.11 0.62,0l3.22 1.85c0.19,0.11 0.31,0.31 0.31,0.54l0 2.92c0,0.22 0.12,0.43 0.31,0.54 0.19,0.11 0.43,0.11 0.62,-0l6.16 -3.58zm-34.19 -25.97c-0.19,-0.11 -0.43,-0.1 -0.62,0.01 -0.19,0.11 -0.31,0.31 -0.31,0.54l0 15.75c0,0.16 -0.08,0.3 -0.22,0.38 -0.13,0.08 -0.3,0.08 -0.43,0l-2.57 -1.48c-0.38,-0.22 -0.85,-0.22 -1.24,0l-10.27 5.93c-0.38,0.22 -0.62,0.63 -0.62,1.07l0 11.85c0,0.44 0.24,0.85 0.62,1.07l10.27 5.93c0.38,0.22 0.86,0.22 1.24,0l10.27 -5.93c0.38,-0.22 0.62,-0.63 0.62,-1.07l0 -29.54c0,-0.45 -0.24,-0.86 -0.64,-1.08l-6.11 -3.41zm-0.95 30.15c0,0.11 -0.06,0.21 -0.16,0.27l-3.53 2.03c-0.1,0.06 -0.21,0.06 -0.31,0l-3.53 -2.03c-0.1,-0.05 -0.16,-0.16 -0.16,-0.27l0 -4.07c0,-0.11 0.06,-0.21 0.15,-0.27l3.52 -2.04c0.1,-0.06 0.22,-0.06 0.31,0l3.53 2.04c0.1,0.06 0.16,0.16 0.16,0.27l0 4.07zm-48.43 -8.28c0,-0.45 -0.23,-0.86 -0.62,-1.08l-10.26 -5.91c-0.17,-0.1 -0.37,-0.16 -0.56,-0.16l-0.11 0c-0.2,0.01 -0.39,0.06 -0.57,0.16l-10.26 5.91c-0.38,0.22 -0.62,0.63 -0.62,1.08l0.02 15.91c0,0.22 0.11,0.43 0.31,0.54 0.19,0.12 0.43,0.12 0.62,0l6.1 -3.49c0.39,-0.23 0.62,-0.63 0.62,-1.08l0 -7.43c0,-0.44 0.23,-0.85 0.62,-1.07l2.6 -1.5c0.19,-0.11 0.4,-0.17 0.62,-0.17 0.21,0 0.43,0.05 0.62,0.17l2.6 1.5c0.38,0.22 0.62,0.63 0.62,1.07l0 7.43c0,0.44 0.24,0.85 0.62,1.08l6.1 3.49c0.19,0.11 0.43,0.11 0.62,0 0.19,-0.11 0.31,-0.32 0.31,-0.54l0.02 -15.9z"/>
    <path class="fil3" d="M111.92 44.76c0.07,-0.04 0.16,-0.04 0.24,0l1.97 1.14c0.07,0.04 0.12,0.12 0.12,0.21l0 2.27c0,0.09 -0.04,0.16 -0.12,0.21l-1.97 1.14c-0.07,0.04 -0.17,0.04 -0.24,0l-1.97 -1.14c-0.08,-0.04 -0.12,-0.12 -0.12,-0.21l0 -2.27c0,-0.09 0.04,-0.16 0.12,-0.21l1.97 -1.14z"/>
    <path class="fil4" d="M44.43 41.39l0 11.79c0,0.44 0.23,0.85 0.62,1.07l10.21 5.9c0.38,0.22 0.85,0.22 1.23,0l10.21 -5.9c0.38,-0.22 0.62,-0.63 0.62,-1.07l0 -11.79c0,-0.44 -0.23,-0.85 -0.62,-1.07l-10.21 -5.89c-0.19,-0.11 -0.4,-0.17 -0.62,-0.17 -0.21,0 -0.43,0.06 -0.62,0.17l0 0 -10.21 5.89c-0.38,0.22 -0.62,0.63 -0.62,1.07z"/>
    <path class="fil5" d="M44.69 53.93c0.1,0.13 0.22,0.24 0.36,0.32l8.76 5.06 1.46 0.84c0.22,0.13 0.47,0.18 0.71,0.16 0.08,-0.01 0.16,-0.02 0.24,-0.04l10.77 -19.72c-0.08,-0.09 -0.18,-0.17 -0.29,-0.23l-6.68 -3.86 -3.53 -2.03c-0.1,-0.06 -0.21,-0.1 -0.32,-0.13l-11.48 19.63z"/>
    <path class="fil6" d="M67.3 53.43l0 -0.03 -11.19 -19.11c-0.08,-0.01 -0.16,-0.02 -0.24,-0.02l-0 0 -0 0 -0 0 -0 0 -0 0 -0 0c-0.03,0 -0.06,0 -0.09,0l-0.01 -0c-0.17,0.02 -0.34,0.07 -0.49,0.16l-10.18 5.88 10.98 19.99c0.15,-0.02 0.3,-0.07 0.44,-0.15l10.21 -5.9c0.31,-0.18 0.52,-0.48 0.59,-0.82z"/>
   </g>
  </g>
 </g>
</svg>
