<?xml version="1.0" encoding="UTF-8"?>
<!DOCTYPE svg PUBLIC "-//W3C//DTD SVG 1.1//EN" "http://www.w3.org/Graphics/SVG/1.1/DTD/svg11.dtd">
<!-- Creator: CorelDRAW 2021 (64-Bit) -->
<svg xmlns="http://www.w3.org/2000/svg" xml:space="preserve" width="90mm" height="40mm" version="1.1" style="shape-rendering:geometricPrecision; text-rendering:geometricPrecision; image-rendering:optimizeQuality; fill-rule:evenodd; clip-rule:evenodd"
viewBox="0 0 2950.66 1311.4"
 xmlns:xlink="http://www.w3.org/1999/xlink"
 xmlns:xodm="http://www.corel.com/coreldraw/odm/2003">
 <defs>
  <style type="text/css">
   <![CDATA[
    .fil8 {fill:none;fill-rule:nonzero}
    .fil0 {fill:#2B2A29}
    .fil1 {fill:white;fill-rule:nonzero;fill-opacity:0.000000}
    .fil4 {fill:#5FA04E}
    .fil3 {fill:white}
    .fil2 {fill:#5FA04E;fill-rule:nonzero}
    .fil5 {fill:url(#id2);fill-rule:nonzero}
    .fil7 {fill:url(#id3);fill-rule:nonzero}
    .fil6 {fill:url(#id4);fill-rule:nonzero}
   ]]>
  </style>
   <clipPath id="id0" style="clip-rule:nonzero">
    <path d="M2716.42 278.68l-2448.26 0 0 727.86 2448.26 0 0 -727.86z"/>
   </clipPath>
   <clipPath id="id1" style="clip-rule:nonzero">
    <path d="M2716.42 278.68l-2448.26 0 0 727.86 2448.26 0 0 -727.86z"/>
   </clipPath>
  <linearGradient id="id2" gradientUnits="userSpaceOnUse" x1="1029.24" y1="618.58" x2="864.19" y2="947.31">
   <stop offset="0" style="stop-opacity:1; stop-color:#3F873F"/>
   <stop offset="0.329412" style="stop-opacity:1; stop-color:#3F8B3D"/>
   <stop offset="0.639216" style="stop-opacity:1; stop-color:#3E9638"/>
   <stop offset="0.929412" style="stop-opacity:1; stop-color:#3DA92E"/>
   <stop offset="1" style="stop-opacity:1; stop-color:#3DAE2B"/>
  </linearGradient>
  <linearGradient id="id3" gradientUnits="userSpaceOnUse" x1="744.98" y1="764.89" x2="1157.61" y2="764.89">
   <stop offset="0" style="stop-opacity:1; stop-color:#6ABF4B"/>
   <stop offset="0.0901961" style="stop-opacity:1; stop-color:#6ABF4B"/>
   <stop offset="0.290196" style="stop-opacity:1; stop-color:#64B749"/>
   <stop offset="0.6" style="stop-opacity:1; stop-color:#52A044"/>
   <stop offset="0.858824" style="stop-opacity:1; stop-color:#3F873F"/>
   <stop offset="1" style="stop-opacity:1; stop-color:#3F873F"/>
  </linearGradient>
  <linearGradient id="id4" gradientUnits="userSpaceOnUse" x1="928.37" y1="791.71" x2="1377.68" y2="453.06">
   <stop offset="0" style="stop-opacity:1; stop-color:#3F873F"/>
   <stop offset="0.141176" style="stop-opacity:1; stop-color:#3F873F"/>
   <stop offset="0.4" style="stop-opacity:1; stop-color:#52A044"/>
   <stop offset="0.709804" style="stop-opacity:1; stop-color:#64B749"/>
   <stop offset="0.909804" style="stop-opacity:1; stop-color:#6ABF4B"/>
   <stop offset="1" style="stop-opacity:1; stop-color:#6ABF4B"/>
  </linearGradient>
 </defs>
 <g id="Layer_x0020_1">
  <metadata id="CorelCorpID_0Corel-Layer"/>
  <rect class="fil0" width="2950.66" height="1311.4" rx="368.83" ry="163.93"/>
  <g style="clip-path:url(#id0)">
   <polygon id="nodejsLight.svg" class="fil1" points="268.17,278.68 2716.42,278.68 2716.42,1006.54 268.17,1006.54 "/>
  </g>
  <g style="clip-path:url(#id1)">
   <g id="_3095855512816">
    <path id="_1" class="fil2" d="M2422.84 1000.82c-6.34,0 -12.24,-1.7 -17.72,-4.68l-56.13 -33.54c-8.44,-4.67 -4.22,-6.37 -1.69,-7.22 11.39,-3.82 13.49,-4.68 25.32,-11.46 1.26,-0.85 2.95,-0.43 4.22,0.42l43.04 25.9c1.69,0.85 3.8,0.85 5.06,0l168.38 -98.09c1.68,-0.85 2.54,-2.55 2.54,-4.67l0 -195.75c0,-2.12 -0.86,-3.82 -2.54,-4.67l-168.38 -97.66c-1.69,-0.85 -3.79,-0.85 -5.06,0l-168.37 97.66c-1.69,0.85 -2.53,2.97 -2.53,4.67l0 195.75c0,1.7 0.84,3.82 2.53,4.67l45.99 26.75c24.9,12.74 40.51,-2.12 40.51,-16.99l0 -193.2c0,-2.55 2.1,-5.09 5.07,-5.09l21.52 0c2.53,0 5.07,2.12 5.07,5.09l0 193.2c0,33.55 -18.15,53.07 -49.8,53.07 -9.7,0 -17.29,0 -38.82,-10.61l-44.31 -25.48c-10.97,-6.37 -17.72,-18.26 -17.72,-31l0 -195.75c0,-12.74 6.76,-24.63 17.72,-31l168.38 -98.09c10.54,-5.94 24.89,-5.94 35.44,0l168.38 98.09c10.97,6.37 17.72,18.25 17.72,31l0 195.75c0,12.74 -6.75,24.62 -17.72,31l-168.38 98.08c-5.07,2.12 -11.39,3.82 -17.72,3.82z"/>
    <path class="fil2" d="M2475.17 866.21c-73.86,0 -89.05,-33.97 -89.05,-62.84 0,-2.55 2.11,-5.09 5.06,-5.09l21.95 0c2.54,0 4.65,1.7 4.65,4.25 3.38,22.5 13.08,33.55 57.82,33.55 35.45,0 50.64,-8.07 50.64,-27.18 0,-11.04 -4.24,-19.11 -59.51,-24.63 -45.99,-4.67 -74.69,-14.86 -74.69,-51.8 0,-34.39 28.7,-54.77 76.81,-54.77 54.02,0 80.61,18.68 83.98,59.45 0,1.28 -0.42,2.55 -1.25,3.82 -0.87,0.85 -2.12,1.7 -3.41,1.7l-22.36 0c-2.09,0 -4.21,-1.7 -4.63,-3.82 -5.07,-23.35 -18.16,-31 -52.75,-31 -38.82,0 -43.47,13.59 -43.47,23.78 0,12.31 5.48,16.14 57.82,22.93 51.9,6.8 76.38,16.56 76.38,53.08 0,37.37 -30.81,58.6 -83.97,58.6z"/>
    <path class="fil2" d="M2718.26 660.7c0,17.83 -14.78,32.69 -32.51,32.69 -17.72,0 -32.49,-14.44 -32.49,-32.69 0,-18.69 15.2,-32.7 32.49,-32.7 17.31,0 32.51,14.44 32.51,32.7zm-59.93 0c0,15.28 12.24,27.6 26.99,27.6 15.2,0 27.44,-12.74 27.44,-27.6 0,-15.29 -12.24,-27.18 -27.44,-27.18 -14.33,0 -26.99,11.89 -26.99,27.18zm15.19 -18.26l12.66 0c4.22,0 12.66,0 12.66,9.77 0,6.79 -4.24,8.07 -6.78,8.91 5.08,0.43 5.49,3.82 5.91,8.49 0.43,2.97 0.86,8.07 1.69,9.77l-7.61 0c0,-1.7 -1.26,-11.04 -1.26,-11.46 -0.41,-2.12 -1.26,-2.97 -3.79,-2.97l-6.33 0 0 14.86 -7.17 0 0 -37.37zm6.75 16.13l5.48 0c4.66,0 5.49,-3.39 5.49,-5.09 0,-5.09 -3.37,-5.09 -5.49,-5.09l-5.89 0 0 10.19 0.41 0z"/>
    <path class="fil3" d="M668.63 663.37c0,-7.64 -4.22,-14.86 -10.97,-18.68l-178.5 -104.03c-2.95,-1.7 -6.33,-2.55 -9.7,-2.97 -0.42,0 -1.69,0 -1.69,0 -3.38,0 -6.75,1.27 -9.7,2.97l-178.92 103.61c-6.75,3.82 -10.97,11.04 -10.97,19.11l0.42 278.55c0,3.82 2.11,7.64 5.49,9.34 3.37,2.13 7.59,2.13 10.55,0l106.35 -61.14c6.75,-3.82 10.97,-11.04 10.97,-18.68l0 -130.36c0,-7.64 4.22,-14.86 10.97,-18.68l45.15 -26.33c3.38,-2.12 7.18,-2.97 10.97,-2.97 3.8,0 7.59,0.85 10.55,2.97l45.15 26.33c6.75,3.82 10.98,11.04 10.98,18.68l0 130.36c0,7.64 4.22,14.86 10.97,18.68l105.5 61.14c3.37,2.13 7.59,2.13 10.97,0 3.38,-1.69 5.48,-5.51 5.48,-9.34l0 -278.55z"/>
    <path class="fil3" d="M1528.65 279.95c-3.39,-1.69 -7.6,-1.69 -10.55,0 -3.37,2.13 -5.48,5.52 -5.48,9.34l0 276c0,2.55 -1.26,5.09 -3.8,6.8 -2.53,1.27 -5.06,1.27 -7.6,0l-44.73 -25.9c-6.75,-3.82 -14.77,-3.82 -21.52,0l-178.93 104.03c-6.75,3.82 -10.96,11.04 -10.96,18.68l0 207.64c0,7.65 4.22,14.86 10.96,18.68l178.93 104.03c6.75,3.82 14.77,3.82 21.52,0l178.93 -104.03c6.75,-3.82 10.97,-11.04 10.97,-18.68l0 -517.6c0,-8.07 -4.22,-15.29 -10.97,-19.1l-106.76 -59.88zm-16.46 528.22c0,2.12 -0.84,3.82 -2.53,4.67l-61.2 35.67c-1.69,0.85 -3.8,0.85 -5.48,0l-61.19 -35.67c-1.69,-0.85 -2.53,-2.97 -2.53,-4.67l0 -71.34c0,-2.12 0.84,-3.82 2.53,-4.67l61.19 -35.67c1.69,-0.85 3.8,-0.85 5.48,0l61.2 35.67c1.69,0.85 2.53,2.97 2.53,4.67l0 71.34z"/>
    <path class="fil3" d="M2124.06 735.14c6.75,-3.83 10.55,-11.04 10.55,-18.69l0 -50.53c0,-7.64 -4.22,-14.86 -10.55,-18.68l-177.66 -103.6c-6.75,-3.82 -14.77,-3.82 -21.52,0l-178.92 104.03c-6.76,3.82 -10.97,11.04 -10.97,18.68l0 207.64c0,7.64 4.22,14.86 10.97,18.68l177.65 101.91c6.76,3.82 14.77,3.82 21.1,0l107.61 -60.3c3.37,-1.7 5.48,-5.52 5.48,-9.34 0,-3.82 -2.11,-7.64 -5.48,-9.34l-179.77 -104.03c-3.38,-2.12 -5.48,-5.52 -5.48,-9.34l0 -64.97c0,-3.82 2.1,-7.65 5.48,-9.34l56.13 -32.27c3.37,-2.12 7.59,-2.12 10.96,0l56.13 32.27c3.37,2.12 5.48,5.52 5.48,9.34l0 50.95c0,3.82 2.1,7.64 5.49,9.34 3.38,2.13 7.59,2.13 10.97,0l106.34 -62.42z"/>
    <path class="fil4" d="M1932.9 725.37c1.27,-0.85 2.96,-0.85 4.23,0l34.18 19.96c1.26,0.85 2.11,2.12 2.11,3.82l0 39.91c0,1.7 -0.85,2.97 -2.11,3.82l-34.18 19.96c-1.26,0.85 -2.96,0.85 -4.23,0l-34.18 -19.96c-1.26,-0.85 -2.11,-2.12 -2.11,-3.82l0 -39.91c0,-1.7 0.85,-2.97 2.11,-3.82l34.18 -19.96z"/>
    <path class="fil5" d="M967.81 544.49c-6.75,-3.82 -14.77,-3.82 -21.52,0l-177.65 103.18c-6.75,3.82 -10.55,11.04 -10.55,18.68l0 206.79c0,7.65 4.22,14.86 10.55,18.68l177.65 103.18c6.75,3.82 14.77,3.82 21.52,0l177.65 -103.18c6.75,-3.82 10.55,-11.04 10.55,-18.68l0 -206.79c0,-7.65 -4.22,-14.86 -10.55,-18.68l-177.65 -103.18z"/>
    <path class="fil6" d="M1145.89 647.67l-178.5 -103.18c-1.69,-0.85 -3.8,-1.7 -5.48,-2.12l-200.03 344.37c1.69,2.12 3.8,3.82 5.9,5.09l178.5 103.18c5.07,2.97 10.97,3.82 16.45,2.12l187.79 -345.64c-1.27,-1.69 -2.96,-2.97 -4.64,-3.82z"/>
    <path class="fil7" d="M1145.89 891.81c5.07,-2.97 8.86,-8.07 10.55,-13.59l-195.38 -336.29c-5.06,-0.85 -10.55,-0.43 -15.19,2.55l-177.24 102.76 191.16 350.73c2.53,-0.43 5.48,-1.28 8.02,-2.55l178.08 -103.61z"/>
   </g>
  </g>
  <polygon class="fil8" points="2716.42,278.68 268.17,278.68 268.17,1006.54 2716.42,1006.54 "/>
 </g>
</svg>
