<?xml version="1.0" encoding="UTF-8"?>
<!DOCTYPE svg PUBLIC "-//W3C//DTD SVG 1.1//EN" "http://www.w3.org/Graphics/SVG/1.1/DTD/svg11.dtd">
<!-- Creator: CorelDRAW 2021 (64-Bit) -->
<svg xmlns="http://www.w3.org/2000/svg" xml:space="preserve" width="40mm" height="40mm" version="1.1" style="shape-rendering:geometricPrecision; text-rendering:geometricPrecision; image-rendering:optimizeQuality; fill-rule:evenodd; clip-rule:evenodd"
viewBox="0 0 5372.81 5372.81"
 xmlns:xlink="http://www.w3.org/1999/xlink"
 xmlns:xodm="http://www.corel.com/coreldraw/odm/2003">
 <defs>
  <style type="text/css">
   <![CDATA[
    .fil0 {fill:#2B2A29}
    .fil1 {fill:#00D8FF;fill-rule:nonzero}
   ]]>
  </style>
 </defs>
 <g id="Layer_x0020_1">
  <metadata id="CorelCorpID_0Corel-Layer"/>
  <rect class="fil0" width="5372.81" height="5372.81" rx="671.6" ry="671.6"/>
  <circle class="fil1" cx="2682.25" cy="2683.14" r="449.29"/>
  <path class="fil1" d="M2682.25 1662.25c302.18,0 594.55,21.5 865.41,61.12 279.31,40.83 535.31,100.97 755.31,176.67 265.26,91.31 481.31,207.31 632.73,332.83 168.73,139.87 261.86,295.75 261.86,450.12 0,160.22 -99.1,323.99 -279.64,470.75 -161.08,130.94 -390.31,251.69 -672.47,345.12 -210.33,69.69 -453.99,122.92 -718.12,158.91 -267.07,36.4 -553.18,55 -845.08,55 -303.51,0 -600.38,-17.97 -876.36,-55.08 -264.57,-35.59 -508.43,-88.83 -718.85,-160.74 -272.21,-93.03 -493.05,-214.15 -648.52,-344.88 -175.61,-147.66 -271.73,-311.68 -271.73,-469.09 0,-153.29 89.85,-308.56 254.97,-448.17 146.85,-124.18 357.02,-239.1 617.97,-330.05 221.51,-77.17 481.15,-138.46 763.6,-179.96 275.56,-40.51 573.28,-62.55 878.94,-62.55zm834.36 273.5c-259.69,-37.97 -541.53,-58.59 -834.36,-58.59 -296.27,0 -583.41,21.16 -847.87,60.03 -270.4,39.75 -516.62,97.6 -724.15,169.9 -235.34,82.02 -422.22,183.4 -549.97,291.42 -115.64,97.79 -178.57,196.51 -178.57,284.48 0,92.8 68.8,199.69 194.5,305.39 135.38,113.84 332.5,220.94 579.69,305.42 197.89,67.63 428.12,117.81 678.56,151.5 263.36,35.42 550.7,52.57 847.82,52.57 285.24,0 561.7,-17.76 816.53,-52.48 249.42,-34 479.95,-84.42 679.5,-150.52 257.67,-85.33 463.47,-192.74 604.47,-307.35 129.05,-104.9 199.9,-211.04 199.9,-304.53 0,-87.7 -65.36,-186.57 -183.79,-284.75 -132.12,-109.51 -325.07,-212.25 -565.57,-295.05 -208.08,-71.59 -450.99,-128.58 -716.68,-167.44z"/>
  <path class="fil1" d="M1794.38 2175.78c151.27,-262.35 315.95,-504.92 485.24,-719.32 175.72,-222.53 355.68,-414.34 530.32,-566.28 211.14,-183.74 419.59,-312.82 604.43,-381.46 205.25,-76.21 386.65,-78.99 520.28,-1.93 139.09,80.19 231.58,247.83 268.48,477.36 32.85,204.34 22.87,463.01 -37.18,754.4 -44.86,217.63 -120.42,455.29 -221.01,701.62 -101.51,248.53 -228.41,505.66 -374.83,759.53 -152.7,264.8 -316.51,513.18 -485.18,731.96 -162.7,211.03 -330.71,395.71 -498.61,542.53 -216.91,189.66 -432.01,320.47 -622.4,389.66 -215.19,78.19 -405.19,79.32 -541.81,0.54 -132.95,-76.7 -222.65,-232.04 -261.09,-444.63 -34.28,-189.53 -28.97,-428.87 22.4,-699.79 43.77,-230.82 120.32,-486.37 225.36,-751.55 101.76,-256.9 231.59,-525.73 385.59,-792.64zm653.15 -586.68c-163,206.42 -321.68,440.21 -467.61,693.31 -146.92,254.62 -272,514.16 -371.33,764.93 -100.69,254.19 -173.53,496.33 -214.44,712.1 -46.57,245.51 -52.14,458.19 -22.42,622.55 26.98,149.18 80.98,253.03 157.01,296.87 80.08,46.19 207.22,39.8 362.14,-16.49 166.79,-60.59 358.16,-177.77 554.41,-349.35 156.94,-137.25 315.4,-311.7 470.05,-512.31 163.56,-212.15 321.98,-452.26 469.23,-707.63 141.98,-246.14 264.62,-494.46 362.23,-733.5 95.38,-233.54 166.92,-458.42 209.26,-663.84 54.78,-265.71 64.46,-497.97 35.51,-678.01 -26.43,-164.46 -82.86,-278.89 -163.53,-325.42 -76.03,-43.83 -194.5,-36.58 -338.96,17.06 -160.41,59.56 -345.77,175.46 -538.1,342.84 -166.95,145.25 -337.8,327.12 -503.46,536.89z"/>
  <path class="fil1" d="M1795.12 3201.16c-151.27,-261.37 -279.14,-525.29 -380.69,-779.88 -104.85,-262.92 -181.12,-514.55 -225.66,-742.08 -53.82,-275.11 -61.65,-520.13 -28.88,-714.05 36.49,-216.04 124.76,-374.69 258.39,-451.99 138.95,-80.47 330.32,-76.91 547.49,5.7 193.07,73.43 412.19,211.37 635.07,409.27 166.76,148.05 335.01,332.19 497.78,541.86 164.57,211.98 323.91,450.34 470.75,704.03 152.59,263.6 285.94,529.65 391.74,786.24 101.88,247.08 178.04,484.84 221.13,702.74 55.93,282.45 61.83,534 26.68,733.41 -39.77,225.68 -133.78,390.99 -270.43,470.04 -132.95,76.95 -312.28,77.17 -515.48,4.37 -180.88,-64.8 -385.58,-189.06 -595.16,-369.37l-0.42 0c-176.7,-152.1 -359.68,-346.13 -537.88,-570.75 -172.7,-217.67 -340.9,-464.34 -494.43,-729.55zm-181.72 -858.79c97.1,243.47 220.43,497.64 367.26,751.33 148.03,255.72 310.24,493.59 476.8,703.52 169.06,213.09 342.6,397.12 510.19,541.38l-0.17 0.2c188.81,162.42 370.16,273.26 527.74,329.72 142.93,51.2 259.95,56.33 335.83,12.42 79.89,-46.22 137.76,-159.37 166.33,-321.45 30.81,-174.82 24.85,-399.33 -25.83,-655.33 -40.58,-205.12 -112.4,-429.26 -208.55,-662.44 -101.68,-246.58 -230.76,-503.89 -379.16,-760.23 -142.38,-245.99 -296.34,-476.39 -454.79,-680.52 -154.98,-199.63 -313.89,-373.83 -470.07,-512.47 -202.43,-179.75 -398.8,-304.02 -569.6,-368.98 -155.69,-59.22 -283.03,-67.5 -363.63,-20.81 -75.85,43.87 -128.67,149.98 -154.29,301.71 -28.6,169.23 -20.83,387.82 28.05,637.66 42.43,216.79 114.74,455.63 213.9,704.29z"/>
 </g>
</svg>
