<?xml version="1.0" encoding="UTF-8"?>
<!DOCTYPE svg PUBLIC "-//W3C//DTD SVG 1.1//EN" "http://www.w3.org/Graphics/SVG/1.1/DTD/svg11.dtd">
<!-- Creator: CorelDRAW 2021 (64-Bit) -->
<svg xmlns="http://www.w3.org/2000/svg" xml:space="preserve" width="25mm" height="25mm" version="1.1" style="shape-rendering:geometricPrecision; text-rendering:geometricPrecision; image-rendering:optimizeQuality; fill-rule:evenodd; clip-rule:evenodd"
viewBox="0 0 1547.81 1547.81"
 xmlns:xlink="http://www.w3.org/1999/xlink"
 xmlns:xodm="http://www.corel.com/coreldraw/odm/2003">
 <defs>
  <style type="text/css">
   <![CDATA[
    .fil0 {fill:#2B2A29}
    .fil1 {fill:#00D8FF;fill-rule:nonzero}
   ]]>
  </style>
 </defs>
 <g id="Layer_x0020_1">
  <metadata id="CorelCorpID_0Corel-Layer"/>
  <g id="_2818732538032">
   <rect class="fil0" x="0" y="-0" width="1547.81" height="1547.81" rx="309.56" ry="309.56"/>
   <circle class="fil1" cx="772.71" cy="772.96" r="129.43"/>
   <path class="fil1" d="M772.71 478.86c87.06,0 171.29,6.2 249.32,17.61 80.46,11.77 154.21,29.09 217.59,50.9 76.42,26.31 138.65,59.72 182.28,95.88 48.61,40.29 75.44,85.2 75.44,129.67 0,46.16 -28.55,93.34 -80.57,135.62 -46.4,37.72 -112.44,72.51 -193.72,99.43 -60.59,20.07 -130.78,35.41 -206.88,45.78 -76.93,10.49 -159.36,15.84 -243.45,15.84 -87.43,0 -172.96,-5.18 -252.46,-15.87 -76.22,-10.25 -146.47,-25.59 -207.09,-46.3 -78.42,-26.8 -142.04,-61.7 -186.83,-99.36 -50.59,-42.54 -78.28,-89.79 -78.28,-135.14 0,-44.16 25.89,-88.89 73.45,-129.11 42.3,-35.77 102.85,-68.88 178.02,-95.08 63.81,-22.23 138.61,-39.89 219.98,-51.85 79.38,-11.67 165.15,-18.02 253.2,-18.02zm240.37 78.8c-74.82,-10.94 -156.01,-16.88 -240.37,-16.88 -85.35,0 -168.07,6.1 -244.26,17.3 -77.9,11.45 -148.83,28.11 -208.61,48.94 -67.79,23.63 -121.63,52.84 -158.43,83.96 -33.32,28.16 -51.44,56.61 -51.44,81.95 0,26.73 19.82,57.53 56.03,87.98 39,32.8 95.78,63.65 167,87.99 57.01,19.48 123.34,33.93 195.48,43.64 75.87,10.2 158.64,15.14 244.24,15.14 82.18,0 161.82,-5.11 235.23,-15.12 71.86,-9.79 138.27,-24.32 195.75,-43.36 74.23,-24.58 133.51,-55.52 174.13,-88.54 37.18,-30.22 57.59,-60.8 57.59,-87.73 0,-25.26 -18.83,-53.75 -52.95,-82.03 -38.06,-31.55 -93.65,-61.15 -162.93,-85 -59.95,-20.62 -129.93,-37.04 -206.47,-48.24z"/>
   <path class="fil1" d="M516.93 626.81c43.58,-75.58 91.02,-145.46 139.79,-207.23 50.62,-64.1 102.47,-119.36 152.78,-163.14 60.83,-52.93 120.88,-90.11 174.13,-109.89 59.13,-21.95 111.39,-22.75 149.88,-0.56 40.06,23.1 66.71,71.4 77.34,137.52 9.47,58.87 6.59,133.38 -10.71,217.33 -12.92,62.69 -34.69,131.16 -63.67,202.12 -29.24,71.6 -65.8,145.67 -107.98,218.81 -43.99,76.28 -91.18,147.84 -139.77,210.86 -46.87,60.8 -95.27,114 -143.64,156.3 -62.49,54.64 -124.46,92.32 -179.3,112.25 -61.99,22.52 -116.73,22.85 -156.09,0.15 -38.3,-22.09 -64.14,-66.85 -75.22,-128.09 -9.88,-54.59 -8.34,-123.55 6.46,-201.59 12.61,-66.49 34.66,-140.12 64.92,-216.51 29.32,-74.01 66.72,-151.46 111.08,-228.35zm188.16 -169.01c-46.96,59.47 -92.67,126.82 -134.72,199.73 -42.32,73.35 -78.36,148.12 -106.97,220.36 -29.01,73.23 -49.99,142.99 -61.78,205.15 -13.41,70.73 -15.02,132 -6.46,179.34 7.78,42.98 23.33,72.9 45.23,85.53 23.07,13.3 59.7,11.47 104.33,-4.75 48.05,-17.46 103.18,-51.22 159.72,-100.64 45.21,-39.54 90.86,-89.8 135.41,-147.59 47.12,-61.12 92.76,-130.29 135.18,-203.85 40.9,-70.91 76.23,-142.45 104.35,-211.31 27.48,-67.27 48.09,-132.06 60.28,-191.24 15.78,-76.54 18.57,-143.45 10.23,-195.32 -7.62,-47.38 -23.87,-80.35 -47.11,-93.75 -21.9,-12.63 -56.03,-10.54 -97.65,4.91 -46.21,17.16 -99.61,50.55 -155.02,98.77 -48.09,41.84 -97.31,94.24 -145.04,154.67z"/>
   <path class="fil1" d="M517.15 922.2c-43.58,-75.3 -80.42,-151.33 -109.67,-224.67 -30.21,-75.74 -52.18,-148.24 -65.01,-213.78 -15.5,-79.26 -17.76,-149.85 -8.32,-205.71 10.51,-62.23 35.94,-107.94 74.44,-130.21 40.03,-23.18 95.16,-22.16 157.72,1.64 55.62,21.16 118.75,60.89 182.96,117.91 48.04,42.65 96.51,95.7 143.4,156.1 47.41,61.06 93.31,129.73 135.61,202.82 43.96,75.94 82.37,152.58 112.85,226.5 29.35,71.18 51.29,139.67 63.71,202.45 16.11,81.37 17.81,153.84 7.68,211.29 -11.46,65.01 -38.54,112.64 -77.91,135.41 -38.3,22.16 -89.96,22.23 -148.5,1.26 -52.11,-18.67 -111.08,-54.46 -171.45,-106.41l-0.12 0c-50.9,-43.82 -103.62,-99.72 -154.95,-164.43 -49.75,-62.7 -98.21,-133.77 -142.44,-210.17zm-52.35 -247.4c27.97,70.14 63.5,143.36 105.8,216.45 42.65,73.67 89.38,142.19 137.35,202.67 48.71,61.39 98.7,114.4 146.98,155.96l-0.05 0.06c54.39,46.79 106.64,78.72 152.03,94.99 41.18,14.75 74.89,16.23 96.74,3.58 23.02,-13.32 39.69,-45.91 47.92,-92.6 8.87,-50.37 7.16,-115.05 -7.44,-188.8 -11.69,-59.09 -32.38,-123.66 -60.08,-190.84 -29.29,-71.04 -66.48,-145.16 -109.23,-219 -41.02,-70.87 -85.37,-137.25 -131.02,-196.05 -44.65,-57.51 -90.43,-107.7 -135.42,-147.64 -58.32,-51.78 -114.88,-87.58 -164.09,-106.3 -44.86,-17.06 -81.54,-19.44 -104.76,-5.99 -21.85,12.64 -37.06,43.21 -44.45,86.92 -8.24,48.75 -6,111.73 8.08,183.69 12.22,62.46 33.05,131.26 61.62,202.9z"/>
  </g>
 </g>
</svg>
