<?xml version="1.0" encoding="UTF-8"?>
<!DOCTYPE svg PUBLIC "-//W3C//DTD SVG 1.1//EN" "http://www.w3.org/Graphics/SVG/1.1/DTD/svg11.dtd">
<!-- Creator: CorelDRAW 2021 (64-Bit) -->
<svg xmlns="http://www.w3.org/2000/svg" xml:space="preserve" width="14.0564mm" height="14.0564mm" version="1.1" style="shape-rendering:geometricPrecision; text-rendering:geometricPrecision; image-rendering:optimizeQuality; fill-rule:evenodd; clip-rule:evenodd"
viewBox="0 0 133.17 133.17"
 xmlns:xlink="http://www.w3.org/1999/xlink"
 xmlns:xodm="http://www.corel.com/coreldraw/odm/2003">
 <defs>
  <style type="text/css">
   <![CDATA[
    .fil0 {fill:#2B2A29}
    .fil1 {fill:#00D8FF;fill-rule:nonzero}
   ]]>
  </style>
 </defs>
 <g id="Layer_x0020_1">
  <metadata id="CorelCorpID_0Corel-Layer"/>
  <rect class="fil0" x="0" y="0" width="133.17" height="133.17" rx="18.95" ry="18.95"/>
  <circle class="fil1" cx="66.48" cy="66.5" r="11.14"/>
  <path class="fil1" d="M66.48 41.2c7.49,0 14.74,0.53 21.45,1.51 6.92,1.01 13.27,2.5 18.72,4.38 6.57,2.26 11.93,5.14 15.68,8.25 4.18,3.47 6.49,7.33 6.49,11.16 0,3.97 -2.46,8.03 -6.93,11.67 -3.99,3.24 -9.67,6.24 -16.67,8.55 -5.21,1.73 -11.25,3.05 -17.8,3.94 -6.62,0.9 -13.71,1.36 -20.95,1.36 -7.52,0 -14.88,-0.45 -21.72,-1.37 -6.56,-0.88 -12.6,-2.2 -17.82,-3.98 -6.75,-2.31 -12.22,-5.31 -16.07,-8.55 -4.35,-3.66 -6.73,-7.72 -6.73,-11.63 0,-3.8 2.23,-7.65 6.32,-11.11 3.64,-3.08 8.85,-5.93 15.32,-8.18 5.49,-1.91 11.93,-3.43 18.93,-4.46 6.83,-1 14.21,-1.55 21.78,-1.55zm20.68 6.78c-6.44,-0.94 -13.42,-1.45 -20.68,-1.45 -7.34,0 -14.46,0.52 -21.01,1.49 -6.7,0.99 -12.8,2.42 -17.95,4.21 -5.83,2.03 -10.46,4.55 -13.63,7.22 -2.87,2.42 -4.43,4.87 -4.43,7.05 0,2.3 1.71,4.95 4.82,7.57 3.35,2.82 8.24,5.48 14.37,7.57 4.91,1.68 10.61,2.92 16.82,3.75 6.53,0.88 13.65,1.3 21.01,1.3 7.07,0 13.92,-0.44 20.24,-1.3 6.18,-0.84 11.9,-2.09 16.84,-3.73 6.39,-2.11 11.49,-4.78 14.98,-7.62 3.2,-2.6 4.95,-5.23 4.95,-7.55 0,-2.17 -1.62,-4.62 -4.56,-7.06 -3.27,-2.72 -8.06,-5.26 -14.02,-7.31 -5.16,-1.78 -11.18,-3.19 -17.76,-4.15z"/>
  <path class="fil1" d="M44.47 53.93c3.75,-6.5 7.83,-12.51 12.03,-17.83 4.36,-5.51 8.82,-10.27 13.14,-14.04 5.23,-4.55 10.4,-7.75 14.98,-9.45 5.09,-1.89 9.58,-1.96 12.9,-0.05 3.45,1.99 5.74,6.14 6.65,11.83 0.81,5.06 0.57,11.48 -0.92,18.7 -1.11,5.39 -2.98,11.29 -5.48,17.39 -2.52,6.16 -5.66,12.53 -9.29,18.83 -3.78,6.56 -7.85,12.72 -12.03,18.14 -4.03,5.23 -8.2,9.81 -12.36,13.45 -5.38,4.7 -10.71,7.94 -15.43,9.66 -5.33,1.94 -10.04,1.97 -13.43,0.01 -3.29,-1.9 -5.52,-5.75 -6.47,-11.02 -0.85,-4.7 -0.72,-10.63 0.56,-17.34 1.08,-5.72 2.98,-12.06 5.59,-18.63 2.52,-6.37 5.74,-13.03 9.56,-19.65zm16.19 -14.54c-4.04,5.12 -7.97,10.91 -11.59,17.18 -3.64,6.31 -6.74,12.74 -9.2,18.96 -2.5,6.3 -4.3,12.3 -5.31,17.65 -1.15,6.09 -1.29,11.36 -0.56,15.43 0.67,3.7 2.01,6.27 3.89,7.36 1.98,1.14 5.14,0.99 8.98,-0.41 4.13,-1.5 8.88,-4.41 13.74,-8.66 3.89,-3.4 7.82,-7.72 11.65,-12.7 4.05,-5.26 7.98,-11.21 11.63,-17.54 3.52,-6.1 6.56,-12.26 8.98,-18.18 2.36,-5.79 4.14,-11.36 5.19,-16.45 1.36,-6.59 1.6,-12.34 0.88,-16.8 -0.65,-4.08 -2.05,-6.91 -4.05,-8.07 -1.88,-1.09 -4.82,-0.91 -8.4,0.42 -3.98,1.48 -8.57,4.35 -13.34,8.5 -4.14,3.6 -8.37,8.11 -12.48,13.31z"/>
  <path class="fil1" d="M44.49 79.34c-3.75,-6.48 -6.92,-13.02 -9.43,-19.33 -2.6,-6.52 -4.49,-12.75 -5.59,-18.39 -1.33,-6.82 -1.53,-12.89 -0.72,-17.7 0.9,-5.35 3.09,-9.29 6.4,-11.2 3.44,-1.99 8.19,-1.91 13.57,0.14 4.79,1.82 10.22,5.24 15.74,10.14 4.13,3.67 8.3,8.23 12.34,13.43 4.08,5.25 8.03,11.16 11.67,17.45 3.78,6.53 7.09,13.13 9.71,19.49 2.53,6.12 4.41,12.02 5.48,17.42 1.39,7 1.53,13.24 0.66,18.18 -0.99,5.59 -3.32,9.69 -6.7,11.65 -3.29,1.91 -7.74,1.91 -12.78,0.11 -4.48,-1.61 -9.56,-4.69 -14.75,-9.15l-0.01 0c-4.38,-3.77 -8.91,-8.58 -13.33,-14.15 -4.28,-5.4 -8.45,-11.51 -12.26,-18.08zm-4.5 -21.29c2.41,6.03 5.46,12.33 9.1,18.62 3.67,6.34 7.69,12.23 11.82,17.44 4.19,5.28 8.49,9.84 12.65,13.42l-0 0c4.68,4.03 9.18,6.77 13.08,8.17 3.54,1.27 6.44,1.4 8.32,0.31 1.98,-1.15 3.41,-3.95 4.12,-7.97 0.76,-4.33 0.62,-9.9 -0.64,-16.24 -1.01,-5.08 -2.79,-10.64 -5.17,-16.42 -2.52,-6.11 -5.72,-12.49 -9.4,-18.84 -3.53,-6.1 -7.34,-11.81 -11.27,-16.87 -3.84,-4.95 -7.78,-9.27 -11.65,-12.7 -5.02,-4.45 -9.88,-7.53 -14.12,-9.15 -3.86,-1.47 -7.01,-1.67 -9.01,-0.52 -1.88,1.09 -3.19,3.72 -3.82,7.48 -0.71,4.19 -0.52,9.61 0.7,15.81 1.05,5.37 2.84,11.29 5.3,17.46z"/>
 </g>
</svg>
