<?xml version="1.0" encoding="UTF-8"?>
<!DOCTYPE svg PUBLIC "-//W3C//DTD SVG 1.1//EN" "http://www.w3.org/Graphics/SVG/1.1/DTD/svg11.dtd">
<!-- Creator: CorelDRAW 2021 (64-Bit) -->
<svg xmlns="http://www.w3.org/2000/svg" xml:space="preserve" width="5mm" height="5mm" version="1.1" style="shape-rendering:geometricPrecision; text-rendering:geometricPrecision; image-rendering:optimizeQuality; fill-rule:evenodd; clip-rule:evenodd"
viewBox="0 0 5.57 5.57"
 xmlns:xlink="http://www.w3.org/1999/xlink"
 xmlns:xodm="http://www.corel.com/coreldraw/odm/2003">
 <defs>
  <style type="text/css">
   <![CDATA[
    .fil0 {fill:#56698F}
   ]]>
  </style>
 </defs>
 <g id="Слой_x0020_1">
  <metadata id="CorelCorpID_0Corel-Layer"/>
  <path class="fil0" d="M2.78 0c1.54,0 2.78,1.25 2.78,2.78 0,1.54 -1.25,2.78 -2.78,2.78 -1.54,0 -2.78,-1.25 -2.78,-2.78 0,-1.54 1.25,-2.78 2.78,-2.78zm-0.67 1.89c-0.01,0.02 -0.04,0.03 -0.03,0.06 0.01,0.01 0.04,0.01 0.06,0.01 0.16,0.05 0.16,0.17 0.17,0.33 0.01,0.13 0.01,0.43 -0.06,0.51 -0.09,0.11 -0.27,-0.16 -0.3,-0.22 -0.04,-0.06 -0.07,-0.12 -0.11,-0.18 -0.01,-0.02 -0.1,-0.18 -0.1,-0.18 -0.01,-0.03 -0.03,-0.06 -0.04,-0.1 -0.01,-0.03 -0.03,-0.06 -0.04,-0.1 -0.03,-0.08 -0.05,-0.12 -0.13,-0.14 -0.04,-0.01 -0.22,-0 -0.27,-0 -0.09,0 -0.19,0.01 -0.28,0 -0.04,0.01 -0.08,0.01 -0.1,0.04 -0.02,0.03 -0.01,0.08 0.01,0.11 0.01,0.03 0.08,0.18 0.09,0.19 0,0.04 0.25,0.49 0.28,0.53 0.13,0.22 0.28,0.45 0.44,0.64 0.08,0.09 0.19,0.19 0.28,0.26 0.18,0.12 0.36,0.2 0.59,0.22 0.08,0.01 0.18,0 0.27,0 0.25,0 0.15,-0.13 0.21,-0.33 0.01,-0.03 0.02,-0.07 0.04,-0.09 0.03,-0.04 0.03,-0.03 0.08,-0.06 0.08,-0.01 0.16,0.07 0.2,0.13 0.02,0.03 0.05,0.06 0.08,0.09 0.02,0.03 0.05,0.06 0.08,0.09 0.05,0.06 0.1,0.1 0.18,0.15 0.1,0.05 0.16,0.04 0.28,0.04 0.11,-0 0.22,-0 0.32,-0 0.08,-0 0.21,-0 0.24,-0.09 0.02,-0.07 -0.06,-0.19 -0.09,-0.23 -0.02,-0.03 -0.05,-0.06 -0.07,-0.09l-0.08 -0.09 -0 0c-0.01,-0.02 -0.18,-0.18 -0.2,-0.2 -0.15,-0.13 -0.2,-0.2 -0.08,-0.36 0.09,-0.12 0.19,-0.24 0.28,-0.37 0.08,-0.11 0.2,-0.27 0.24,-0.4 0.05,-0.12 0.02,-0.16 -0.11,-0.18 -0.07,-0 -0.16,0 -0.23,0 -0.08,0 -0.15,0 -0.23,0 -0.26,0 -0.24,-0.02 -0.32,0.15 -0.09,0.21 -0.28,0.58 -0.44,0.72 -0.04,0.03 -0.09,0.09 -0.15,0.03 -0.07,-0.08 -0.05,-0.29 -0.05,-0.41 0,-0.11 0.02,-0.36 -0,-0.45 -0.02,-0.07 -0.05,-0.1 -0.11,-0.12 -0.07,-0.02 -0.13,-0.02 -0.2,-0.03 -0.12,-0 -0.35,-0.01 -0.47,0.03 -0.08,0.02 -0.08,0.04 -0.11,0.06z"/>
 </g>
</svg>
