<?xml version="1.0" encoding="UTF-8"?>
<!DOCTYPE svg PUBLIC "-//W3C//DTD SVG 1.1//EN" "http://www.w3.org/Graphics/SVG/1.1/DTD/svg11.dtd">
<!-- Creator: CorelDRAW 2021 (64-Bit) -->
<svg xmlns="http://www.w3.org/2000/svg" xml:space="preserve" width="10mm" height="10mm" version="1.1" style="shape-rendering:geometricPrecision; text-rendering:geometricPrecision; image-rendering:optimizeQuality; fill-rule:evenodd; clip-rule:evenodd"
viewBox="0 0 22.28 22.28"
 xmlns:xlink="http://www.w3.org/1999/xlink"
 xmlns:xodm="http://www.corel.com/coreldraw/odm/2003">
 <defs>
  <style type="text/css">
   <![CDATA[
    .fil0 {fill:#56698F}
   ]]>
  </style>
 </defs>
 <g id="Слой_x0020_1">
  <metadata id="CorelCorpID_0Corel-Layer"/>
  <path class="fil0" d="M11.14 0c6.15,0 11.14,4.99 11.14,11.14 0,6.15 -4.99,11.14 -11.14,11.14 -6.15,0 -11.14,-4.99 -11.14,-11.14 0,-6.15 4.99,-11.14 11.14,-11.14zm-2.67 7.57c-0.04,0.06 -0.14,0.12 -0.12,0.24 0.05,0.03 0.17,0.04 0.23,0.06 0.63,0.18 0.64,0.7 0.67,1.33 0.03,0.52 0.05,1.71 -0.23,2.05 -0.38,0.46 -1.06,-0.64 -1.21,-0.87 -0.15,-0.23 -0.29,-0.47 -0.43,-0.71 -0.04,-0.06 -0.39,-0.73 -0.4,-0.73 -0.04,-0.12 -0.12,-0.26 -0.17,-0.38 -0.05,-0.12 -0.12,-0.26 -0.17,-0.39 -0.13,-0.31 -0.19,-0.47 -0.54,-0.56 -0.16,-0.04 -0.88,-0.01 -1.09,-0.01 -0.35,0 -0.76,0.02 -1.11,0.01 -0.15,0.04 -0.33,0.05 -0.41,0.15 -0.09,0.11 -0.04,0.32 0.02,0.44 0.06,0.12 0.3,0.71 0.36,0.77 0.01,0.14 1.02,1.98 1.11,2.14 0.51,0.89 1.12,1.81 1.77,2.57 0.3,0.35 0.75,0.78 1.14,1.03 0.72,0.47 1.44,0.8 2.37,0.89 0.33,0.03 0.72,0.02 1.07,0.02 1.02,0 0.62,-0.52 0.84,-1.33 0.04,-0.14 0.09,-0.28 0.16,-0.38 0.11,-0.15 0.12,-0.14 0.3,-0.23 0.33,-0.02 0.63,0.29 0.82,0.51 0.1,0.12 0.21,0.22 0.31,0.34 0.09,0.12 0.21,0.24 0.32,0.35 0.22,0.23 0.39,0.41 0.72,0.59 0.4,0.22 0.65,0.17 1.14,0.17 0.43,-0 0.87,-0.01 1.3,-0.02 0.31,-0 0.84,-0.01 0.96,-0.37 0.09,-0.29 -0.25,-0.74 -0.36,-0.9 -0.09,-0.13 -0.2,-0.26 -0.3,-0.37l-0.32 -0.35 -0.02 0c-0.03,-0.09 -0.71,-0.71 -0.82,-0.81 -0.59,-0.54 -0.78,-0.79 -0.34,-1.43 0.34,-0.49 0.75,-0.97 1.11,-1.47 0.33,-0.44 0.78,-1.09 0.98,-1.62 0.18,-0.49 0.06,-0.66 -0.42,-0.71 -0.3,-0.01 -0.62,0.01 -0.93,0.01 -0.31,0 -0.62,0 -0.93,0.01 -1.05,0.01 -0.98,-0.1 -1.27,0.59 -0.36,0.85 -1.12,2.32 -1.74,2.9 -0.14,0.13 -0.37,0.36 -0.59,0.14 -0.29,-0.31 -0.2,-1.14 -0.2,-1.64 0,-0.45 0.08,-1.44 -0,-1.8 -0.06,-0.27 -0.2,-0.4 -0.46,-0.47 -0.27,-0.08 -0.53,-0.09 -0.82,-0.1 -0.49,-0.01 -1.42,-0.03 -1.89,0.11 -0.32,0.1 -0.33,0.17 -0.44,0.24z"/>
 </g>
</svg>
