<?xml version="1.0" encoding="UTF-8"?>
<!DOCTYPE svg PUBLIC "-//W3C//DTD SVG 1.1//EN" "http://www.w3.org/Graphics/SVG/1.1/DTD/svg11.dtd">
<!-- Creator: CorelDRAW 2021 (64-Bit) -->
<svg xmlns="http://www.w3.org/2000/svg" xml:space="preserve" width="25mm" height="25mm" version="1.1" style="shape-rendering:geometricPrecision; text-rendering:geometricPrecision; image-rendering:optimizeQuality; fill-rule:evenodd; clip-rule:evenodd"
viewBox="0 0 1561.75 1561.75"
 xmlns:xlink="http://www.w3.org/1999/xlink"
 xmlns:xodm="http://www.corel.com/coreldraw/odm/2003">
 <defs>
  <style type="text/css">
   <![CDATA[
    .fil0 {fill:#2B2A29}
    .fil3 {fill:#1C78C0;fill-rule:nonzero}
    .fil2 {fill:#8ED6FB;fill-rule:nonzero}
    .fil1 {fill:white;fill-rule:nonzero}
   ]]>
  </style>
 </defs>
 <g id="Layer_x0020_1">
  <metadata id="CorelCorpID_0Corel-Layer"/>
  <g id="_2818732486528">
   <rect class="fil0" x="-0" y="-0" width="1561.75" height="1561.75" rx="312.35" ry="312.35"/>
   <g id="e0b5805d423a4ec9473ee315250968b2">
    <polygon id="Shape" class="fil1" points="780.88,241.61 1257.52,511.21 1257.52,1050.54 780.88,1320.14 304.24,1050.54 304.24,511.21 "/>
    <path id="Shape_0" class="fil2" d="M1172.41 1031.94l-375.76 212.58 0 -165.53 234.13 -128.83 141.63 81.78zm25.74 -23.28l0 -444.49 -137.45 79.44 0 285.74 137.45 79.32zm-810.29 23.28l375.77 212.58 0 -165.53 -234.26 -128.83 -141.51 81.78zm-25.74 -23.28l0 -444.49 137.45 79.44 0 285.74 -137.45 79.32zm16.14 -473.32l385.38 -218 0 159.99 -246.94 135.85 -1.97 1.11 -136.47 -78.95zm803.76 0l-385.37 -218 0 159.99 246.94 135.73 1.97 1.11 136.47 -78.82z"/>
    <path id="Shape_1" class="fil3" d="M763.63 1041.3l-231.05 -127.1 0 -251.62 231.05 133.39 0 245.34zm33.01 0l231.05 -126.98 0 -251.75 -231.05 133.39 0 245.34zm-248.42 -407.79l231.92 -127.47 231.91 127.47 -231.91 133.88 -231.92 -133.88z"/>
   </g>
  </g>
 </g>
</svg>
