<?xml version="1.0" encoding="UTF-8"?>
<!DOCTYPE svg PUBLIC "-//W3C//DTD SVG 1.1//EN" "http://www.w3.org/Graphics/SVG/1.1/DTD/svg11.dtd">
<!-- Creator: CorelDRAW 2021 (64-Bit) -->
<svg xmlns="http://www.w3.org/2000/svg" xml:space="preserve" width="14.0564mm" height="14.0564mm" version="1.1" style="shape-rendering:geometricPrecision; text-rendering:geometricPrecision; image-rendering:optimizeQuality; fill-rule:evenodd; clip-rule:evenodd"
viewBox="0 0 133.35 133.35"
 xmlns:xlink="http://www.w3.org/1999/xlink"
 xmlns:xodm="http://www.corel.com/coreldraw/odm/2003">
 <defs>
  <style type="text/css">
   <![CDATA[
    .fil0 {fill:#2B2A29}
    .fil3 {fill:#1C78C0;fill-rule:nonzero}
    .fil2 {fill:#8ED6FB;fill-rule:nonzero}
    .fil1 {fill:white;fill-rule:nonzero}
   ]]>
  </style>
 </defs>
 <g id="Layer_x0020_1">
  <metadata id="CorelCorpID_0Corel-Layer"/>
  <rect class="fil0" x="0" y="-0" width="133.35" height="133.35" rx="18.97" ry="18.97"/>
  <g id="e0b5805d423a4ec9473ee315250968b2">
   <polygon id="Shape" class="fil1" points="66.67,20.63 107.37,43.65 107.37,89.7 66.67,112.72 25.98,89.7 25.98,43.65 "/>
   <path id="Shape_0" class="fil2" d="M100.1 88.11l-32.08 18.15 0 -14.13 19.99 -11 12.09 6.98zm2.2 -1.99l0 -37.95 -11.74 6.78 0 24.4 11.74 6.77zm-69.19 1.99l32.09 18.15 0 -14.13 -20 -11 -12.08 6.98zm-2.2 -1.99l0 -37.95 11.74 6.78 0 24.4 -11.74 6.77zm1.38 -40.41l32.9 -18.61 0 13.66 -21.09 11.6 -0.17 0.09 -11.65 -6.74zm68.63 0l-32.9 -18.61 0 13.66 21.08 11.59 0.17 0.09 11.65 -6.73z"/>
   <path id="Shape_1" class="fil3" d="M65.2 88.91l-19.73 -10.85 0 -21.48 19.73 11.39 0 20.95zm2.82 0l19.73 -10.84 0 -21.5 -19.73 11.39 0 20.95zm-21.21 -34.82l19.8 -10.88 19.8 10.88 -19.8 11.43 -19.8 -11.43z"/>
  </g>
 </g>
</svg>
