<?xml version="1.0" encoding="UTF-8"?>
<!DOCTYPE svg PUBLIC "-//W3C//DTD SVG 1.1//EN" "http://www.w3.org/Graphics/SVG/1.1/DTD/svg11.dtd">
<!-- Creator: CorelDRAW 2021 (64-Bit) -->
<svg xmlns="http://www.w3.org/2000/svg" xml:space="preserve" width="14.0564mm" height="14.0564mm" version="1.1" style="shape-rendering:geometricPrecision; text-rendering:geometricPrecision; image-rendering:optimizeQuality; fill-rule:evenodd; clip-rule:evenodd"
viewBox="0 0 251.69 251.69"
 xmlns:xlink="http://www.w3.org/1999/xlink"
 xmlns:xodm="http://www.corel.com/coreldraw/odm/2003">
 <defs>
  <style type="text/css">
   <![CDATA[
    .fil10 {fill:#FEFEFE}
    .fil8 {fill:#EBECEC}
    .fil5 {fill:#D9DADA}
    .fil7 {fill:#C5C6C6}
    .fil6 {fill:#B2B3B3}
    .fil0 {fill:#2B2A29}
    .fil9 {fill:#309ED8}
    .fil20 {fill:#319FD8}
    .fil15 {fill:#329FD9}
    .fil18 {fill:#33A0D9}
    .fil23 {fill:#34A1DA}
    .fil25 {fill:#36A2DB}
    .fil24 {fill:#39A4DB}
    .fil16 {fill:#47ADE3}
    .fil19 {fill:#56B9EB}
    .fil14 {fill:#58BAEB}
    .fil21 {fill:#59B9EA}
    .fil11 {fill:#59BAEC}
    .fil13 {fill:#5BBBEC}
    .fil12 {fill:#5CBCED}
    .fil17 {fill:#5EBDEE}
    .fil22 {fill:#61BEEE}
    .fil4 {fill:#FBFDFE}
    .fil3 {fill:#D9DADA;fill-rule:nonzero}
    .fil2 {fill:#B2B3B3;fill-rule:nonzero}
    .fil1 {fill:#898989;fill-rule:nonzero}
   ]]>
  </style>
 </defs>
 <g id="Layer_x0020_1">
  <metadata id="CorelCorpID_0Corel-Layer"/>
  <rect class="fil0" x="0" y="0" width="251.69" height="251.69" rx="35.81" ry="35.81"/>
 </g>
 <g id="Layer_x0020_1_0">
  <metadata id="CorelCorpID_1Corel-Layer"/>
  <g id="_2324840725696">
   <path class="fil1" d="M36.63 223.08l0 -60.54 38.98 0 0 11.18 -25.33 0 0 13.21 11.69 0c6.48,0 11.48,1.5 15.02,4.5 3.53,3 5.29,7.15 5.29,12.44 0,6.08 -1.87,10.79 -5.63,14.17 -3.75,3.36 -9.08,5.04 -15.98,5.04l-24.02 0zm13.65 -26.21l0 16.26 7.97 0c6.4,0 9.6,-2.8 9.6,-8.37 0,-5.26 -3.05,-7.88 -9.16,-7.88l-8.4 0z"/>
   <path class="fil2" d="M88.95 220.93l0 -11.88c4.41,2.59 9.4,3.89 14.94,3.89 10.16,0 15.9,-4.84 17.22,-14.53l-23.35 0 0 -10.81 23.43 0c-1.74,-9.96 -7.48,-14.94 -17.22,-14.94 -5.55,0 -10.56,1.18 -15.03,3.54l0 -12.28c4.7,-1.61 10.17,-2.42 16.41,-2.42 9.61,0 17.11,2.77 22.51,8.3 5.4,5.53 8.11,13.26 8.11,23.16 0,9.38 -2.69,16.9 -8.07,22.61 -5.38,5.69 -12.73,8.55 -22.03,8.55 -6.85,0 -12.49,-1.07 -16.93,-3.2z"/>
   <path class="fil3" d="M215.06 223.08l-13.47 0 0 -36.23c0,-3.91 0.17,-8.23 0.5,-12.95l-0.33 0c-0.71,3.72 -1.34,6.38 -1.9,8.03l-14.18 41.16 -11.16 0 -14.44 -40.74c-0.39,-1.1 -1.02,-3.92 -1.9,-8.44l-0.38 0c0.36,5.97 0.55,11.2 0.55,15.71l0 33.48 -12.29 0 0 -60.54 19.97 0 12.38 35.88c0.98,2.87 1.7,5.75 2.15,8.66l0.26 0c0.75,-3.36 1.56,-6.27 2.41,-8.75l12.37 -35.8 19.47 0 0 60.54z"/>
  </g>
  <path class="fil4" d="M130.49 128.74c-0.16,-0.12 -0.2,-0.01 -0.22,-0.71l0.05 -11.76c0.11,-0.41 -0.13,0.03 0.13,-0.25 0.14,-0.23 10.2,-6.42 10.86,-6.6l0.01 10.6 -0.01 0.83c0.01,1.88 0.48,1.2 -2.67,3.05 -0.99,0.58 -1.77,1.05 -2.74,1.63l-5.41 3.21zm-11.69 -8.72l0.02 -10.33c0.7,0.22 10.6,6.09 10.75,6.31 0.34,0.39 0.16,5.82 0.16,6.3 -0,2.08 0.06,4.26 -0.01,6.32 -0.21,0.13 -0.07,0.05 -0.16,-0.07 -0.57,-0.09 -2.05,-1.11 -2.72,-1.5 -0.88,-0.52 -1.7,-1 -2.6,-1.53 -1.75,-1.02 -3.51,-2.1 -5.27,-3.08 -0.26,-0.28 -0.09,0.27 -0.2,-0.5 -0.01,-0.06 0,-0.52 0,-0.61 0.01,-0.45 0.04,-0.86 0.04,-1.32zm-11.38 -17.01l9.35 5.41c0.42,0.25 0.92,0.47 1.21,0.8l0.21 12.68c-0.62,-0.15 -2.1,-1.22 -2.73,-1.57 -0.94,-0.52 -1.83,-1.01 -2.78,-1.59 -1.79,-1.09 -3.67,-2.1 -5.39,-3.18 -0.02,-0.03 -0.04,-0.07 -0.05,-0.1l-0.11 -12.34c0.16,-0.34 -0.11,-0.04 0.15,-0.18 0.5,-0.25 -0.03,-0.03 0.15,0.07zm32.77 6.33c-1.1,0.7 -9.15,5.64 -9.69,5.75 -0.12,0.15 0,0.2 -0.39,0.28 -0.3,0.06 -0.16,0.06 -0.38,-0.08l-10.21 -5.92 -0.45 -0.35 1 -0.59 4.49 -2.53 0 2.56 0.2 0.85c0.22,0.17 0.23,0.26 0.43,0.44 1.09,1.02 2.87,1.47 4.34,1.51l0.96 0.01c2,-0.14 3.77,-0.65 4.43,-2.1l0.03 -3.81c0.51,0.14 0.24,0.05 0.36,0.25 0.61,0.09 1.97,1.02 2.59,1.39 0.42,0.25 2.23,1.2 2.43,1.46l0.6 0.26c-0.11,0.32 0.05,0.11 -0.32,0.37 -0.21,0.15 -0.25,0.15 -0.43,0.24zm-11.73 -0.9c0.96,0.14 1.58,0.14 2.54,0.01 0.72,-0.1 1.36,-0.3 1.94,-0.58 0.66,-0.33 1.03,-0.81 1.45,-1l-0 1.59c-0.01,0.32 0.02,0.27 -0.06,0.55 -0.14,0.48 -0.06,0.16 -0.21,0.33 -0.53,0.9 -2.26,1.26 -3.72,1.35l-0.67 0c-1.67,-0.1 -3.2,-0.47 -4.11,-1.33 -0.16,-0.14 -0.15,-0.06 -0.3,-0.37 -0.11,-0.21 -0.07,-0.17 -0.13,-0.41l-0.06 -1.62c0.52,0.22 0.86,0.63 1.52,0.95 0.52,0.25 1.17,0.47 1.81,0.53zm2.48 -0.64c-0.32,0.25 -0.75,0.16 -1.25,0.18 -5.58,-0.19 -6.45,-4.61 0.06,-5 0.52,0.02 0.87,-0.08 1.19,0.19 1.42,-0.18 3.53,1.1 3.36,2.31 -0.16,1.17 -1.93,2.43 -3.36,2.33zm-12.8 -3.77l0.65 0c1.44,-0.04 2.88,-0.39 3.82,-1.13 1.15,-0.91 0.73,-2.38 0.83,-4.2l6.17 3.66c-1.46,0.28 -3.27,0.23 -4.54,1.78 -0.5,0.61 -0.21,0.83 -0.84,1.22 -0.77,0.48 -4.73,2.82 -5.27,2.95 -0.12,0.13 -0.01,0.09 -0.3,0.24 -0.08,0.04 -0.2,0.08 -0.3,0.07 -0.33,-0.03 -0.35,-0.15 -0.51,-0.34 -0.41,-0.07 -9.67,-5.46 -10.35,-6.02 0.5,-0.5 5.19,-3.12 5.45,-3.23 0.19,2.02 -0.36,2.86 1.17,3.91 1.01,0.69 2.58,1.06 4.02,1.08zm-0.17 -2.71l0.9 -0.03c2.65,-0.17 3.52,-1.47 3.94,-1.67 0.05,1.33 0.23,2.24 -0.61,2.86 -0.58,0.43 -1.7,0.91 -2.56,0.82 -0.15,0.12 0.04,0.04 -0.24,0.12 -0.26,0.07 -1.8,0.14 -2.13,-0.11 -0.93,0.09 -2.13,-0.41 -2.8,-0.83 -1,-0.62 -0.91,-1.27 -0.91,-2.7 0.46,0.18 0.63,0.41 1.03,0.65 1.11,0.65 2.03,0.83 3.38,0.9zm-4.25 -3.61c0.11,-0.26 0.13,-0.34 0.28,-0.52 0.23,-0.28 0.11,-0.15 0.37,-0.3 0.41,-0.56 1.98,-1.13 2.91,-1.03 0.31,-0.22 1.64,-0.24 1.96,0.01 0.61,-0.03 1.07,0.1 1.62,0.33 0.2,0.09 0.45,0.19 0.67,0.31 0.28,0.15 0.38,0.16 0.45,0.4 0.56,0.3 0.52,0.29 0.7,0.85 0.47,1.32 -1.75,2.82 -3.03,2.74 -0.25,0.21 -0.26,0.2 -0.69,0.23 -0.23,0.02 -0.59,-0.01 -0.84,-0 -1.15,-0 -2.27,-0.25 -3.12,-0.73 -0.52,-0.3 -1.91,-1.39 -1.29,-2.29zm-17.9 -15.07c0.62,0.09 1.74,0.92 2.35,1.26 0.36,0.21 2.05,1.14 2.21,1.33 0.29,0.12 0.47,0.22 0.71,0.37 0.09,0.05 0.21,0.13 0.3,0.21 0.17,0.14 0.09,0.07 0.21,0.21 0.34,0.03 4.53,2.46 4.79,2.74l0.2 6.44c0,2.16 0.02,4.33 -0,6.49 -0.55,-0.13 -0.24,-0.06 -0.36,-0.25 -0.59,-0.09 -2.64,-1.43 -3.34,-1.85 -0.99,-0.6 -2.4,-1.29 -3.25,-1.9 -0.42,-0.21 -0.83,-0.39 -1.07,-0.74 -0.5,-0.05 -0.97,-0.45 -1.43,-0.72 -0.27,-0.15 -1.12,-0.6 -1.27,-0.81 -0.3,-0.2 -0.18,0.24 -0.3,-0.35l0 -12.39c0.17,-0.31 -0.12,-0.05 0.15,-0.15 0.28,-0.1 -0.02,-0.04 0.11,0.09zm42.19 14.33c-0.23,0.32 -0.63,0.54 -1.03,0.68 -0.31,0.34 -2.58,1.6 -3.18,1.96 -0.73,0.44 -2.6,1.72 -3.24,1.84 -0.14,0.15 0.01,0.38 -0.21,-0.05l0 -9.84c0,-0.68 -0.23,-2.6 0.2,-3.05 0.38,-0.33 1.46,-0.9 1.98,-1.21 0.62,-0.37 1.48,-1.07 2.09,-1.15 0.32,-0.41 0.97,-0.73 1.45,-0.9l5.24 -3.12 0 3.12 0.01 0.96 -0.04 8.88c-0.46,0.36 -2.85,1.82 -3.27,1.88zm-8.22 -0.04l-0 0.71 -0 4.03c-0.59,-0.19 -6.09,-3.45 -6.22,-3.69 -0.32,-0.26 -0.4,-0.63 -0.5,-1 -0.84,-0.43 -0.3,-1 -3.65,-1.75l10.38 -6.22 0 7.91zm-16.42 -0.02c-0.09,0.26 -0.08,0.28 -0.2,0.55 -0.19,0.42 -0.04,0.18 -0.24,0.4l0.01 0.45c-0.94,0.57 -1.86,1.08 -2.76,1.61 -0.64,0.38 -2.2,1.45 -2.8,1.54 -0.21,0.19 0.12,0.1 -0.17,0.08 -0.25,-0.01 -0.09,-11.23 -0.09,-12.34 0.53,0.13 0.25,0.05 0.37,0.25 0.62,0.09 6.36,3.62 7.41,4.22 0.76,0.43 1.77,1.12 2.5,1.41 -0.03,0.02 -0.07,0.03 -0.09,0.04 -0.02,0.01 -0.06,0.03 -0.09,0.04l-1.11 0.25c-2.02,0.49 -2.38,1.43 -2.74,1.5zm5.54 -2.26c-0.34,0.45 -0.57,0.44 -0.97,0.08l-5.29 -3.06c-1.7,-0.97 -3.51,-2.15 -5.22,-3.04 0.3,-0.26 3.87,-2.55 4.35,-2.59 0.14,-0.2 -0.01,-0.07 0.27,-0.28 0,-0 0.24,-0.14 0.3,-0.18 0.36,-0.23 0.24,-0.22 0.64,-0.33l0.06 2.44c0.33,1.66 3.1,2.51 5.1,2.51l0.65 0.01c1.33,-0.04 2.61,-0.33 3.54,-0.94 1.24,-0.81 1.01,-1.4 1.07,-3.15l-0.01 -0.8 0.02 -0.46 0.71 0.39c0.41,0.21 0.94,0.44 1.21,0.82 0.61,0.07 1.5,0.76 2.13,1.12 0.46,0.27 1.72,0.93 2,1.23l-5.27 3.19c-0.84,0.5 -4.7,2.96 -5.3,3.06zm-34.75 -18.81c0.64,0.09 2.02,1.07 2.74,1.49 0.92,0.53 1.75,1.02 2.68,1.57 0.69,0.41 4.96,2.8 5.19,3.09 0.35,0.26 0.25,-0.01 0.28,0.7l-0.02 12.04c-0.11,0.45 -0.21,0.07 -0.23,0.05 -0.38,-0.06 -9.28,-5.17 -10.46,-6.03l-0.17 -0.15c-0.01,-0.03 -0.03,-0.03 -0.05,-0.05 -0.02,-0.03 -0.04,-0.07 -0.05,-0.09l-0.1 -0.3c-0.01,-0.05 -0.02,-0.29 -0.02,-0.35 -0.01,-0.27 0.01,-0.58 0.01,-0.86l0 -11.06c0.17,-0.4 0.04,-0.22 0.19,-0.05zm57.94 18.68c-0.19,0.22 -0.04,0.27 -0.21,-0.04 -0.01,-2.19 -0,-4.37 -0,-6.56 0,-1.1 0.01,-2.18 0,-3.28 -0.01,-0.9 -0.19,-2.84 0.28,-3.02l10.57 -6.3c0.08,-0.06 -0.14,-0.28 0.19,-0.03l0.01 11.42c0.01,1.14 0.14,1.11 -0.18,1.46l-0.54 0.42c-1.87,1.1 -9.49,5.83 -10.09,5.94zm-24.76 -7.09l1.61 0.02c0.79,-0.09 1.5,-0.23 2.16,-0.53 0.76,-0.35 1.21,-0.85 1.69,-1.06 0.09,1.32 0.2,2.27 -0.65,2.83 -0.59,0.39 -1.73,0.89 -2.55,0.79 -0.38,0.21 -0.79,0.14 -1.26,0.15 -0.17,0 -0.45,0.02 -0.61,-0l-0.49 -0.17c-0.89,0.13 -2.13,-0.42 -2.75,-0.84 -1.01,-0.68 -0.96,-1.07 -0.9,-2.68 0.82,0.33 1.55,1.35 3.75,1.49zm0.82 -5.54l0.64 0.03c4.43,0.39 4.38,2.83 3.45,3.42 -0.18,0.35 -0.07,0.23 -0.42,0.48 -0.28,0.21 -0.2,0.16 -0.52,0.29 -0.5,0.42 -1.47,0.73 -2.28,0.67 -0.31,0.19 -1.51,0.24 -1.84,-0.01 -0.64,0.03 -1.88,-0.25 -2.16,-0.64 -0.5,-0.22 -0.76,-0.39 -0.95,-0.81 -0.2,-0.11 -0.1,0.02 -0.28,-0.27 -0.1,-0.16 -0.08,-0.12 -0.14,-0.35 -0.51,-2.11 3.03,-2.72 4.49,-2.8zm11.49 1.7l1.32 -0.04c1.33,-0.1 2.76,-0.6 3.47,-1.3 0.82,-0.82 0.55,-2.74 0.55,-4.22 0.64,0.15 5.28,2.97 6.04,3.48 -0.47,0.39 -6.15,3.76 -6.5,3.83 -0.09,0.09 -0.08,0.09 -0.21,0.19 -0.38,0.3 0.38,-0.26 -0.15,0.11l-1.02 0.6c-0.47,0.3 -0.83,0.52 -1.33,0.81 -0.22,0.13 -0.46,0.28 -0.68,0.41 -0.38,0.23 -0.3,0.23 -0.64,0.27 -0.13,0.18 -0.15,0.34 -0.53,0.23 -0.29,-0.08 -0.33,-0.22 -0.43,-0.35 -0.56,-0.09 -1.8,-1.03 -2.48,-1.33 -0.32,-0.19 -0.45,-0.31 -0.76,-0.49 -0.39,-0.23 -0.41,-0.18 -0.66,-0.49 -0.4,-0.07 -1.27,-0.64 -1.72,-0.9 -0.54,-0.32 -0.37,-0.13 -0.62,-0.71 -0.83,-1.88 -2.38,-1.81 -3.92,-2.35 0.23,-0.29 4.62,-2.79 5.19,-3.01 0.15,2.14 -0.96,4.8 5.1,5.25zm-18.21 1.74c-0.29,0.35 -0.77,0.58 -1.23,0.76 -0.2,0.33 -0.99,0.68 -1.38,0.92 -0.51,0.31 -1.03,0.76 -1.56,0.83 -0.21,0.28 -0.48,0.57 -0.77,0.11 -0.5,-0.08 -2.85,-1.46 -3.29,-1.84 -0.3,-0.14 -0.39,-0.2 -0.68,-0.37 -0.37,-0.21 -0.34,-0.14 -0.58,-0.43 -0.19,-0.03 -5.66,-3.06 -5.96,-3.5l5.41 -3.18c0.02,1.93 -0.31,2.72 1,3.72 0.84,0.65 2.13,1.09 3.44,1.17l2.02 0.01c1.29,-0.07 2.51,-0.52 3.33,-1.22 0.98,-0.84 0.64,-2.66 0.64,-3.99 0.49,0.04 2.21,1.15 2.75,1.45 0.67,0.37 2.14,1.11 2.66,1.54 -1.61,0.39 -2.46,0.48 -3.5,1.49 -0.23,0.22 -0.38,0.37 -0.53,0.69 -0.16,0.35 -0.19,0.74 -0.29,0.93 -0.15,0.27 -1.19,0.85 -1.47,0.91zm-4.93 -4.47l0.72 -0.01c0.81,-0.1 1.5,-0.23 2.21,-0.52 0.94,-0.38 1.03,-0.7 1.8,-1.13 0,1.44 0.27,2.14 -0.68,2.86 -0.58,0.44 -1.61,0.85 -2.51,0.8 -0.19,0.23 -0.79,0.15 -1.12,0.15 -0.19,0 -0.43,0.02 -0.61,-0 -0.45,-0.04 -0.23,0.02 -0.45,-0.14 -1.01,0.1 -2.32,-0.43 -2.99,-0.88 -0.93,-0.62 -1.02,-1.33 -0.85,-2.77 0.37,0.18 0.61,0.66 1.85,1.17 0.86,0.35 1.64,0.44 2.64,0.47zm23.15 0.01l0.71 -0.03c2.44,-0.17 2.79,-0.9 4.01,-1.67 0.09,1.27 0.19,2.33 -0.62,2.89 -0.63,0.43 -1.7,0.86 -2.62,0.8 -0.16,0.2 -1.27,0.18 -1.62,0.15l-0.47 -0.13c-0.95,0.11 -2.27,-0.43 -2.92,-0.82 -1.19,-0.72 -0.99,-1.23 -0.99,-2.81 1.59,0.96 1.88,1.51 4.51,1.62zm0.78 -0.61l-0.71 0.03c-1.08,-0.06 -1.82,-0.14 -2.74,-0.54 -0.65,-0.28 -1.51,-0.94 -1.71,-1.55 -0.52,-1.58 1.96,-2.89 3.41,-2.76 0.24,-0.17 0.01,-0.09 0.46,-0.16 0.2,-0.03 0.41,-0.01 0.61,-0.01 0.44,0.01 0.81,-0.03 1.07,0.17 1.53,-0.16 3.78,1.14 3.45,2.51 -0.34,1.41 -2.11,2.14 -3.85,2.31zm-23.15 -0.01l-0.72 0.04c-1.03,-0.07 -1.93,-0.18 -2.76,-0.57 -0.71,-0.32 -1.43,-0.88 -1.66,-1.49 -0.62,-1.7 2.16,-2.96 3.44,-2.81 0.3,-0.2 0.72,-0.17 1.1,-0.16 0.44,0.01 0.68,-0.03 0.94,0.16 0.83,-0.1 1.83,0.34 2.44,0.69 0.63,0.36 1.27,0.88 1.05,1.84 -0.33,1.36 -2.21,2.15 -3.84,2.28zm23.83 -5.78c0.27,-0.35 0.8,-0.6 1.2,-0.82l3.61 -2.04c0.11,-0.04 0.01,-0.08 0.18,-0.01 0.14,0.05 0.01,-0.03 0.07,0.15 0,1.05 -0.08,1.73 0.19,2.69 0.68,0.64 0.93,1.01 2.05,1.42 0.87,0.32 1.78,0.48 2.78,0.53l0.97 -0.01c0.93,-0.06 1.77,-0.21 2.54,-0.52 0.95,-0.38 1.17,-0.61 1.73,-1.33 0.25,-0.9 0.12,-2.14 0.12,-3.16 0.18,-0.43 0.06,-0.2 0.19,-0.05 0.54,0.08 1.6,0.82 2.12,1.13 0.71,0.42 1.3,0.76 2.03,1.21 0.4,0.18 0.95,0.46 1.21,0.81 0.41,0.03 -0.05,-0.15 0.39,0.08 -0.14,0.26 -9.92,6.15 -10.41,6.29 -0.11,0.1 -0.03,0.09 -0.25,0.18 -0.17,0.07 -0.07,0.07 -0.26,0.04 -0.42,-0.07 -0.3,-0.18 -0.37,-0.27 -0.48,-0.07 -0.93,-0.45 -1.41,-0.73 -0.43,-0.25 -0.82,-0.47 -1.31,-0.75 -1,-0.58 -3.21,-1.62 -3.78,-2.52 -0.9,-1.42 -2.49,-1.84 -4.16,-2.06 0.2,-0.09 0.32,-0.2 0.57,-0.25zm-12.31 0.07l-0 -0.85 0.01 -5.09c0.43,0.12 8.62,4.89 8.78,5.08l1.23 0.74 0.53 0.29c-1.31,0.08 -2.28,0.31 -3.27,0.89 -1.84,1.08 -1.02,1.65 -1.92,2.21 -0.79,0.48 -4.71,2.82 -5.36,2.98l-0 -6.25zm-10.26 -0.05c0.23,-0.32 0.82,-0.66 1.19,-0.82 1.36,-0.89 2.75,-1.67 4.14,-2.5 0.74,-0.45 3.61,-2.3 4.16,-2.38 0.14,-0.17 -0.01,-0.37 0.2,0.04l-0 12.03c-0.05,0.24 -0.09,0.23 -0.3,0.13l-5.19 -2.92c-0.58,-0.33 -0.78,-0.3 -1.08,-0.99 -0.54,-1.24 -1.72,-1.81 -2.98,-2.12 -0.53,-0.13 -0.5,-0.08 -0.71,-0.3 0.34,-0.13 0.23,-0.12 0.56,-0.17zm-12.82 6.68c-0.11,0.14 -0.09,0.29 -0.46,0.28 -0.3,-0.01 -0.38,-0.18 -0.43,-0.22 -0.65,-0.23 -1.98,-1.12 -2.68,-1.52 -0.75,-0.44 -7.49,-4.23 -7.87,-4.69 0.4,-0.19 0.74,-0.47 1.16,-0.52 0.28,-0.37 0.81,-0.62 1.22,-0.81l3.14 -1.78 0.03 1.9 0.19 0.69c0.25,0.16 0.55,0.53 0.87,0.77 0.35,0.25 0.68,0.43 1.11,0.59 0.87,0.33 1.76,0.51 2.76,0.55l1.09 0c0.95,-0.06 1.74,-0.2 2.53,-0.53 0.4,-0.17 0.66,-0.31 1.02,-0.57 0.4,-0.3 0.45,-0.53 0.72,-0.75 0.18,-0.82 0.08,-1.88 0.08,-2.79 0.15,-0.29 0.04,-0.26 0.21,-0.05 0.65,0.1 2.93,1.56 3.68,1.96 0.43,0.2 0.95,0.45 1.23,0.8 0.27,0.04 0.37,0.16 0.57,0.25 -1.54,0.2 -3.54,0.72 -4.24,2.09 -0.76,1.48 0.95,0.36 -3.31,2.9 -0.48,0.29 -2.18,1.4 -2.63,1.46zm45.56 -7.48l0.66 -0.02c1.9,-0.14 2.75,-0.69 3.84,-1.54 0.19,-0.18 -0.23,-0.2 0.22,-0.14 0,0.48 0.01,0.98 -0,1.46 -0.03,1.08 -0.22,0.94 -0.41,1.06 -0.34,0.67 -1.94,1.27 -2.99,1.19 -0.3,0.2 -1.75,0.27 -2.06,-0.01 -1.25,0.1 -2.51,-0.54 -3.24,-1.11 -0.2,-0.15 -0.14,-0.03 -0.33,-0.33 -0.21,-0.33 -0.09,-0.09 -0.19,-0.5l-0.03 -1.7c0.68,0.34 1.28,1.54 4.52,1.63zm-46.31 0l0.66 -0.02c1.21,-0.1 2.31,-0.42 3.27,-1.07 0.4,-0.27 0.43,-0.41 0.76,-0.61l0.01 1.78c-0.08,0.51 -0.04,0.48 -0.4,0.77 -0.04,0.32 -0.12,0.28 -0.48,0.49 -0.24,0.14 -0.48,0.25 -0.74,0.35 -0.57,0.22 -1.09,0.37 -1.73,0.32 -0.3,0.2 -1.75,0.27 -2.06,-0.01 -0.96,0.08 -2.97,-0.58 -3.25,-1.16 -0.37,-0.25 -0.37,-0.24 -0.54,-0.72l-0.02 -1.76c0.37,0.18 0.58,0.63 1.89,1.17 0.8,0.33 1.69,0.43 2.65,0.47zm47.04 -0.61l-0.72 0.03c-1.05,-0.05 -1.78,-0.15 -2.66,-0.52 -0.68,-0.29 -1.49,-0.88 -1.73,-1.43 -0.71,-1.65 1.84,-3.01 3.26,-2.88 0.27,-0.26 1.31,-0.22 1.75,-0.17l0.5 0.14c0.83,-0.11 1.77,0.35 2.4,0.7 0.62,0.36 1.28,0.87 1.03,1.84 -0.37,1.47 -2.3,2.12 -3.84,2.28zm-46.32 0l-0.71 0.03c-1.89,-0.13 -3.79,-0.64 -4.37,-1.94 -0.74,-1.65 1.78,-3.01 3.25,-2.89 0.29,-0.25 1.2,-0.21 1.65,-0.16l0.52 0.13c0.82,-0.12 1.76,0.33 2.41,0.69 0.62,0.34 1.34,0.9 1.1,1.86 -0.36,1.4 -2.12,2.11 -3.85,2.3zm10.02 -3.39l2.29 -0c5,-0.69 3.6,-3.17 3.86,-5.16 1.66,0.72 4.54,2.8 6.04,3.42 -0.38,0.53 -9.52,5.78 -9.65,5.81 -0.23,0.31 -0.28,0.28 -0.64,0.5 -0.25,0.15 -0.38,0.28 -0.67,0.26 -0.41,-0.02 -1.08,-0.47 -1.3,-0.78 -0.52,-0.06 -5.21,-2.8 -5.31,-2.95 -0.48,-0.69 0.55,-1.71 -3.34,-3.09 0.43,-0.39 1.65,-1.04 2.21,-1.38 0.48,-0.29 1.77,-1.19 2.2,-1.21 0.01,1.92 -0.23,2.5 1.05,3.46 0.85,0.63 2.04,0.93 3.26,1.12zm25.11 4.05c-0.17,0.23 -0.51,0.51 -0.81,0.52 -0.19,0 -0.33,-0.06 -0.51,-0.17 -0.28,-0.18 -0.16,-0.09 -0.35,-0.32 -0.21,-0.03 -9.56,-5.33 -9.96,-5.79l5.36 -3.14c0.09,1.81 -0.31,2.76 0.94,3.65 0.89,0.63 2.06,1.03 3.37,1.19l2.35 0.01c1.29,-0.21 2.52,-0.56 3.24,-1.29 0.8,-0.82 0.54,-2.52 0.54,-3.96 0.57,0.13 4.73,2.63 5.45,3.08 -1.24,0.43 -1.75,0.25 -2.94,1 -1.59,1.01 -1.01,1.88 -1.61,2.39 -0.21,0.18 -4.59,2.77 -5.06,2.82zm-1.45 -6.74l1.02 -0c0.81,-0.05 1.56,-0.23 2.25,-0.52 0.88,-0.37 1.13,-0.79 1.76,-1.11 0,1.26 0.19,2.24 -0.71,2.89 -0.59,0.42 -1.87,0.92 -2.68,0.78 -0.38,0.2 -1.64,0.21 -1.99,-0.01 -0.87,0.14 -2.29,-0.41 -2.9,-0.81 -1.11,-0.73 -0.98,-1.27 -0.98,-2.81 0.89,0.43 1.57,1.54 4.23,1.59zm-23.18 -0l1.04 0.01c0.83,-0.07 1.61,-0.23 2.31,-0.55 0.58,-0.27 1.54,-1.06 1.7,-1.11 0,1.33 0.24,2.17 -0.6,2.83 -0.56,0.44 -1.77,0.93 -2.66,0.85 -0.32,0.24 -1.94,0.23 -2.25,0 -0.95,0.1 -2.19,-0.43 -2.88,-0.88 -0.92,-0.61 -1.03,-1.26 -0.85,-2.77 0.55,0.28 1.38,1.55 4.18,1.63zm1.07 -0.59l-0.69 0.04c-1.41,-0.11 -2.38,-0.22 -3.41,-0.92 -0.38,-0.26 -0.84,-0.57 -1.03,-1.14 -0.24,-0.71 -0,-1.27 0.37,-1.53 0.23,-0.36 0.1,-0.2 0.45,-0.44 0.24,-0.16 0.29,-0.19 0.56,-0.32 0.68,-0.28 1.31,-0.58 2.11,-0.52 0.26,-0.19 0.52,-0.16 0.93,-0.16 0.11,0 0.5,0.02 0.6,0.04 0.38,0.06 0.12,-0.04 0.37,0.11 0.79,-0.11 1.51,0.24 2.19,0.54 0.49,0.2 0.84,0.4 1.09,0.88 0.41,0.25 0.48,0.81 0.22,1.42 -0.16,0.38 -0.61,0.85 -0.9,1.05 -0.76,0.53 -1.75,0.86 -2.86,0.95zm23.15 0l-0.67 0.03c-4.6,-0.21 -5.17,-2.94 -4.09,-3.51 0.22,-0.38 0.52,-0.57 0.95,-0.81 0.68,-0.26 1.28,-0.61 2.14,-0.53 0.32,-0.28 1.65,-0.23 1.96,-0.01 0.8,-0.1 1.61,0.29 2.26,0.52 0.46,0.35 0.66,0.34 0.93,0.81 0.22,0.12 0.11,-0.01 0.29,0.27 0.76,1.17 -0.95,2.94 -3.78,3.23zm20.23 -4.21c-0.28,0.39 -0.76,0.57 -1.19,0.83 -1.15,0.66 -6.69,4.16 -7.35,4.26 -0.17,0.2 0.01,0.33 -0.21,-0.04l0.16 -12.79c0.75,-0.56 1.98,-1.17 2.8,-1.66 0.61,-0.36 2.24,-1.47 2.81,-1.52 0.26,-0.36 0.78,-0.62 1.19,-0.83l3.89 -2.27c0.23,0.23 0.09,-0.01 0.18,0.37l0.01 9.35c0,0.55 0.26,2.93 -0.19,3.11 -0.22,0.25 -0.68,0.46 -0.97,0.65 -0.18,0.11 -0.37,0.24 -0.53,0.33 -0.4,0.23 -0.22,0.18 -0.59,0.22zm-9.31 -0.06l0 0.85 -0.01 4.25c-0.64,-0.18 -2.82,-1.53 -3.53,-1.95 -1.61,-0.94 -2.83,-1.26 -2.97,-2.32 -0.17,-0.15 -0.14,-0.12 -0.32,-0.33 -0.21,-0.25 -0.11,-0.1 -0.27,-0.4 -2.45,-1.44 -0.99,-0.58 -3.2,-1.35 0.67,-0.52 1.75,-1.05 2.54,-1.52 0.85,-0.51 1.63,-0.96 2.53,-1.48 0.83,-0.48 4.61,-2.82 5.23,-2.96l-0 7.2zm-16.01 0.11c-0.13,0.19 -0.16,0.22 -0.29,0.38l-0.24 0.28c-0.01,-0.02 -0.04,0.05 -0.06,0.07 -0.11,1.1 -0.09,1.07 -0.94,1.56 -0.55,0.32 -1.07,0.64 -1.6,0.96 -0.91,0.55 -2.3,1.51 -3.19,1.88 -0.08,0.06 -0.08,0.11 -0.25,0.17 -0.22,0.09 -0.06,0.08 -0.27,0.05 -0.36,-0.04 -0.29,-0.12 -0.41,-0.27 -0.47,-0.09 -2.83,-1.57 -3.46,-1.94 -0.61,-0.35 -1.1,-0.65 -1.69,-0.98 -0.85,-0.48 -0.99,-0.34 -1.28,-1.35 -0.02,-0.03 -0.04,-0.06 -0.06,-0.08l-0.52 -0.79c-0.37,-0.1 -0.79,-0.5 -1.29,-0.72 -0.53,-0.23 -0.98,-0.35 -1.58,-0.49 0.41,-0.17 1.82,-1.11 2.34,-1.43 0.55,-0.33 1.97,-1.28 2.45,-1.4 0.02,1.16 -0.18,2.01 0.51,2.77 0.43,0.47 1.32,1.02 2.09,1.19 1.85,0.73 3.87,0.5 5.71,0.02 2.45,-1.07 2.05,-1.56 2.15,-4.53l5.56 3.25c-0.66,0.21 -1.36,0.21 -2.09,0.51 -0.99,0.4 -1.26,0.76 -1.6,0.89zm-7.36 -2.42l0.84 -0.02c0.88,-0.06 1.63,-0.21 2.37,-0.57 0.38,-0.18 0.63,-0.29 0.93,-0.52 0.27,-0.21 0.39,-0.42 0.72,-0.57 0.05,1.28 0.23,2.22 -0.62,2.86 -0.63,0.48 -1.7,0.92 -2.67,0.83l-0.45 0.14c-0.42,0.04 -1.41,0.06 -1.67,-0.14 -0.9,0.09 -2.27,-0.38 -2.91,-0.84 -1.08,-0.76 -0.95,-1.24 -0.91,-2.78 0.91,0.39 1.37,1.5 4.37,1.6zm0.9 -0.59l-0.71 0.01c-1.83,-0.02 -3.86,-0.72 -4.39,-1.98 -0.69,-1.66 1.85,-2.97 3.33,-2.85 0.3,-0.28 1.7,-0.21 2.02,-0.03 1.3,-0.24 3.88,1.04 3.62,2.48 -0.26,1.45 -2.2,2.17 -3.87,2.36zm10.92 -3.33l0.61 -0.01c1.45,-0.04 2.75,-0.39 3.75,-1.07 1.22,-0.84 0.8,-2.08 0.9,-3.86 0.5,0.11 5.51,3.03 5.89,3.4 -0.44,0.39 -10.02,5.96 -10.38,6.05 -0.13,0.14 -0.16,0.28 -0.51,0.27 -0.39,-0.02 -0.37,-0.17 -0.47,-0.31 -0.74,-0.09 -5.02,-3.05 -6.13,-3.41 -0.03,-2.09 -1.52,-2.35 -3.21,-3.09 0.23,-0.3 3.8,-2.43 4.35,-2.59 0,2.06 -0.17,2.72 1.36,3.64 1.07,0.65 2.4,0.92 3.84,0.98zm-0.64 -2.76l1.36 -0.01c2.42,-0.13 3.01,-1.15 3.92,-1.62 0,1.35 0.22,2.11 -0.64,2.83 -0.53,0.45 -1.7,0.92 -2.55,0.82l-0.59 0.17c-0.19,0.01 -0.42,-0 -0.62,-0 -0.48,0 -0.86,0.08 -1.18,-0.17 -0.86,0.09 -2.21,-0.45 -2.79,-0.84 -1.02,-0.68 -0.92,-1.31 -0.88,-2.76 0.5,0.2 1.51,1.52 3.98,1.58zm5.05 -2.61c-0.22,0.54 -0.28,0.62 -0.77,0.91 -0.31,0.61 -2.05,1.03 -3.01,1.13l-0.66 0.03c-1.15,-0.05 -2.19,-0.2 -3.18,-0.76l-0.62 -0.51c-0.23,-0.14 -0.15,-0.02 -0.38,-0.31 -0.15,-0.18 -0.14,-0.22 -0.23,-0.44 -0.8,-1.65 2.14,-3.05 3.61,-2.87 0.31,-0.2 1.53,-0.23 1.85,0.01 1.61,-0.12 4.15,1.27 3.39,2.8zm6.22 -1.88l2.37 -0.01c4.3,-0.38 3.79,-2.72 3.8,-4.59 0.42,0.09 5.41,3.08 5.9,3.5 -0.51,0.52 -4.75,2.92 -5.13,2.97 -0.29,0.39 -0.83,0.63 -1.29,0.8l-4.09 2.44c-0.39,0.28 -0.46,0.29 -0.75,-0.08 -0.61,-0.08 -1.48,-0.77 -2.11,-1.13 -0.54,-0.31 -1.61,-0.87 -2,-1.21 -0.3,-0.14 -0.39,-0.2 -0.68,-0.37 -0.36,-0.21 -0.34,-0.14 -0.58,-0.43 -0.88,-0.17 -0.74,-0.37 -0.96,-1.07 -0.54,-1.69 -2.22,-1.77 -3.38,-2.39 0.83,-0.42 4.15,-2.56 4.65,-2.64 0.08,1.82 -0.1,2.25 1.12,3.13 0.72,0.52 2.06,0.93 3.14,1.05zm0.51 -2.68l1.11 0.01c0.81,-0.1 1.48,-0.21 2.18,-0.52 0.91,-0.4 1.01,-0.7 1.78,-1.14 0.02,1.43 0.25,2.14 -0.67,2.86 -0.52,0.41 -1.74,0.9 -2.57,0.8l-0.57 0.15c-0.46,0.03 -1.38,0.08 -1.68,-0.15 -1,0.1 -2.16,-0.4 -2.88,-0.87 -0.92,-0.59 -1.04,-1.24 -0.84,-2.77 0.32,0.16 0.57,0.63 1.75,1.14 0.71,0.31 1.54,0.46 2.4,0.48zm1.09 -0.58l-0.69 0.03c-1.02,-0.05 -1.96,-0.17 -2.78,-0.56 -0.69,-0.32 -1.43,-0.85 -1.66,-1.51 -0.58,-1.72 2.09,-2.92 3.5,-2.8 0.33,-0.23 1.55,-0.23 1.87,-0 1.6,-0.19 3.93,1.13 3.61,2.53 -0.32,1.43 -2.21,2.12 -3.86,2.31zm-11.43 1.48c-0.27,0.28 0.01,0.13 -0.54,0.16 -0.27,0.02 -0.66,0.01 -0.95,0.02 -1.24,0.04 -2.35,0.45 -3.2,0.99 -0.46,0.29 -0.72,0.45 -1.03,1.03 -0.28,0.53 -0.21,1.46 -0.56,1.47 -0.25,0.31 -0.2,0.22 -0.57,0.45 -0.28,0.17 -0.36,0.23 -0.64,0.38 -0.61,0.39 -1.22,0.74 -1.86,1.13 -0.6,0.36 -1.31,0.96 -1.95,1.06 -0.14,0.3 -0.51,0.14 -0.93,0.13 -0.41,-0.01 -0.83,0.03 -1.24,0.06 -1.1,0.11 -2.11,0.46 -2.87,1 -0.96,0.68 -1.21,1.1 -1.26,2.63 -0.82,0.53 -5.12,3.19 -5.73,3.34 -0.23,0.2 0.24,0.07 -0.44,0.14 -0.21,0.02 -0.64,0.01 -0.86,0.02 -0.77,0.04 -1.47,0.2 -2.14,0.44 -0.64,0.23 -1.24,0.75 -1.65,0.86 -0.14,0.3 -0.07,0.16 -0.24,0.41 -0.01,0.01 -0.14,0.18 -0.16,0.21 -0.18,0.23 -0.05,0.07 -0.19,0.21l-0.23 1.3c-0.86,0.61 -1.91,1.16 -2.8,1.7 -0.55,0.33 -2.27,1.5 -2.88,1.52l-0.68 -0.03c-1.36,0.06 -2.5,0.27 -3.57,0.87 -1.21,0.68 -1.46,1.15 -1.62,2.75 -0.42,0.36 -4.23,2.57 -4.61,2.63 -0.25,0.3 -0.41,0.34 -0.81,0.57 -0.18,0.11 -0.26,0.13 -0.49,0.25 -0.5,0.25 -0.22,-0.09 -0.47,0.32l0.04 14.09 -0 -0.05c0.38,0.16 0.5,0.19 0.71,0.48 0.64,0.09 2.13,1.14 2.81,1.53 0.95,0.55 1.77,1.03 2.68,1.57 0.72,0.43 5.05,2.83 5.24,3.13 0.28,0.11 0.22,0.06 0.52,0.23 0.03,0.01 0.06,0.03 0.08,0.05l0.29 0.24 1.23 0.69c0.23,0.1 0.35,0.15 0.56,0.27 0.34,0.2 0.29,0.15 0.48,0.42 0.42,0.03 7.68,4.25 8.33,4.78 0.39,0.23 0.22,0.69 0.22,1.6 -0.01,3.46 -0.13,8.78 0.02,11.85l0.82 0.56 6.2 3.58c0.26,0.16 0.35,0.21 0.62,0.38 0.01,0.01 0.29,0.18 0.3,0.19 0.3,0.23 0.1,0.03 0.27,0.26 0.43,0.05 1.25,0.62 1.72,0.9 0.46,0.26 1.33,0.62 1.56,0.99l0.67 0.34 10.95 6.45c0.43,0.16 0.35,0.25 0.73,0.04 0.15,-0.24 10.37,-6.33 10.86,-6.41 0.26,-0.32 0.26,-0.3 0.62,-0.42l-0.01 -14.11c-0.3,-0.05 -0.1,0.03 -0.37,-0.11 -0.36,-0.19 -0.2,-0.11 -0.35,-0.3 -0.5,-0.06 -6.26,-3.48 -6.51,-3.77 -1.16,-1.29 -2.13,-1.78 -4.23,-1.97 0.02,-0.03 0.05,-0.06 0.07,-0.08 0.02,-0.02 0.05,-0.05 0.07,-0.07l1.82 -1.13c0.85,-0.51 5.33,-3.35 5.89,-3.43 0.26,-0.36 0.82,-0.64 1.23,-0.81l1.6 -0.99c0.27,-0.18 0.51,-0.33 0.86,-0.45 0.03,-0.03 10.29,-6.41 10.9,-6.5 0.25,-0.33 0.27,-0.3 0.63,-0.37 -0.19,-1.39 -0.08,-13.3 0.01,-13.62l0.08 -0.18 0.09 -0.21 -1.25 -0.76c-0.52,-0.1 -4.2,-2.37 -5.02,-2.83 -0.61,-0.34 -0.69,-0.23 -0.98,-0.96 -0.42,-1.07 -1.02,-1.41 -2.01,-1.88 -0.42,-0.2 -1.04,-0.3 -1.46,-0.55l8 -4.69c0.15,-0.14 -0.06,0.03 0.22,-0.18 0.11,-0.08 0.2,-0.13 0.3,-0.2 0.22,-0.13 0.41,-0.25 0.64,-0.38 0.3,-0.19 0.3,-0.21 0.63,-0.27 0.21,-0.29 0.32,-0.34 0.7,-0.43l0.05 -14.06c-0.36,-0.09 -0.52,-0.13 -0.77,-0.47 -0.54,-0.08 -1.12,-0.57 -1.63,-0.88 -0.53,-0.32 -1,-0.6 -1.52,-0.91 -1.05,-0.62 -2.06,-1.19 -3.02,-1.83 -0.06,-2.23 -2.11,-3.22 -4.42,-3.39l-1.46 -0.01c-5.1,0.25 -4.57,3.77 -4.59,3.8 -0.05,0.1 -5.02,3.13 -5.54,3.21z"/>
  <path class="fil5" d="M118.9 27.78c-0.29,0.76 -0.13,9.59 -0.11,11.23 0.54,0.16 9.91,0.12 10.96,0.02 0.06,-1.5 0.18,-10.62 -0.1,-11.26 -1.26,-0.02 -2.51,-0.14 -3.78,-0.21l-3.35 0c-1.21,0.06 -2.4,0.17 -3.62,0.22z"/>
  <polygon class="fil6" points="153.51,119.63 153.52,120.16 164.49,120.16 164.5,109.2 164.03,109.14 153.51,109.15 "/>
  <polygon class="fil5" points="72.47,73.34 72.48,73.84 83.44,73.83 83.44,62.92 82.99,62.85 72.42,62.86 "/>
  <path class="fil5" d="M141.92 108.56l10.99 -0.01c0.03,-1.18 0.12,-10.7 -0.08,-10.89 -0.16,-0.16 -9.84,-0.15 -10.83,-0.05l-0.08 10.94z"/>
  <polygon class="fil5" points="84.04,62.25 95.02,62.26 95.03,51.28 84.08,51.26 "/>
  <polygon class="fil7" points="165.1,108.54 165.61,108.56 175.57,108.55 176.07,108.54 176.08,97.6 165.1,97.58 "/>
  <polygon class="fil7" points="95.63,50.62 106.6,50.66 106.61,50.13 106.61,39.69 95.63,39.69 "/>
  <polygon class="fil5" points="84.07,120.13 84.57,120.17 94.53,120.16 95,120.13 95,109.2 84.07,109.15 "/>
  <polygon class="fil7" points="165.1,73.79 165.61,73.82 175.57,73.81 176.07,73.8 176.08,62.9 165.1,62.89 "/>
  <polygon class="fil7" points="165.1,85.34 165.61,85.37 175.57,85.36 176.07,85.35 176.08,74.45 165.1,74.44 "/>
  <polygon class="fil8" points="84.07,108.53 84.57,108.56 94.53,108.55 95,108.53 95,97.63 84.07,97.58 "/>
  <polygon class="fil5" points="153.52,108.5 164.49,108.55 164.49,97.61 153.56,97.59 "/>
  <path class="fil7" d="M141.93 122.67l0.02 9.03 10.94 0.03 0.03 -10.92 -10.83 -0.05c-0.11,0.67 0.01,1.21 -0.07,1.65 -0.01,0.03 -0.02,0.07 -0.02,0.09 -0.01,0.03 -0.02,0.07 -0.03,0.09 -0.01,0.02 -0.02,0.06 -0.03,0.08z"/>
  <polygon class="fil8" points="142.04,120.16 152.91,120.16 152.92,109.15 142.05,109.15 "/>
  <path class="fil6" d="M153.51 88.59l0.01 8.36 10.94 0.04c0.12,-0.83 0.11,-10.43 -0.03,-10.91l-10.73 -0.02c-0.17,0.74 0.09,1.99 -0.18,2.53z"/>
  <polygon class="fil5" points="107.21,50.64 118.12,50.66 118.18,39.74 107.21,39.69 "/>
  <polygon class="fil5" points="153.53,73.76 164.49,73.81 164.5,62.92 153.52,62.89 "/>
  <polygon class="fil7" points="95.66,131.7 106.57,131.73 106.59,120.82 95.68,120.76 "/>
  <polygon class="fil5" points="72.48,108.5 83.41,108.55 83.41,97.62 72.52,97.59 "/>
  <path class="fil7" d="M153.47 61.44l0.06 0.77 10.95 0.05 0.01 -10.95 -10.8 -0.03c-0.15,0.7 -0.08,7.24 -0.06,8.93 0,0.17 0.02,0.47 0.01,0.62 -0.01,0.19 0,0.15 -0.05,0.33 -0.08,0.3 -0.08,0.2 -0.13,0.27z"/>
  <path class="fil8" d="M106.61 115.81c-0.38,-0.36 -0.17,-2.69 -0.17,-3.22 0,-1.14 0,-2.29 0,-3.43l-10.77 0 0 10.98 10.88 0.02 0.06 -4.34z"/>
  <path class="fil7" d="M83.45 88.96l0 0.05c-0.38,-0.51 -0.22,-2.06 -0.22,-2.97l-10.71 -0.01 -0.03 10.9 10.9 0.04 0.06 -8.01z"/>
  <path class="fil8" d="M153.61 74.78l0.03 10.59 10.85 -0 0.01 -10.89 -10.56 -0.04c-0.44,0.05 -0.14,-0.01 -0.25,0.13l-0.09 0.21z"/>
  <path class="fil8" d="M72.48 85.31c1.05,0.27 9.11,0.1 10.75,0.06 0,-1.31 -0.18,-10.4 0.18,-10.87 -0.57,-0.13 -10.33,-0.14 -10.93,-0l0 10.82z"/>
  <path class="fil5" d="M118.98 143.08l10.6 0c0.35,-0.53 0.19,-1.84 0.19,-2.67l0 -8.08 -10.97 0.02c0,1.84 0,3.67 0,5.5 0,0.69 -0.18,4.72 0.18,5.22z"/>
  <polygon class="fil5" points="165.14,86.12 165.18,96.95 176,96.92 176,86.1 "/>
  <path class="fil5" d="M118.1 122.67c-0.23,-0.38 -1.1,-0.73 -1.56,-0.99 -0.48,-0.27 -1.3,-0.85 -1.72,-0.9l-7.57 -0.02 -0.02 10.93 10.9 0.04 -0.03 -9.06z"/>
  <path class="fil8" d="M102.16 62.21c0.41,-0.1 1.01,-0.62 1.65,-0.86 0.67,-0.24 1.37,-0.4 2.14,-0.44l0.63 -0.21 0.01 -9.38 -10.94 -0.06 -0.03 10.97 6.54 -0.02z"/>
  <path class="fil7" d="M141.24 30.09c-3.47,-0.86 -7.02,-2.04 -10.89,-2.21l0.01 11.16 10.97 0.03c0.05,-1.33 0.16,-8.16 -0.09,-8.98z"/>
  <path class="fil8" d="M107.29 30.11c-0.27,1.11 -0.11,7.37 -0.07,8.92l10.95 0.05 0.01 -11.23c-3.73,0.52 -7.56,1.09 -10.89,2.25z"/>
  <path class="fil8" d="M153.52 47.38c0.02,0.03 0.03,0.05 0.04,0.11 0.13,1.62 0.04,1.58 0.09,3.15l10.84 -0c0.03,-1.23 0.15,-5.99 -0.1,-6.83 -0.04,-0.3 -1.92,-1.85 -2.18,-2.06 -0.45,-0.37 -2.04,-1.85 -2.45,-1.94 -0.6,-0.21 -5.54,-0.22 -6.24,-0.06l-0 7.63z"/>
  <path class="fil8" d="M84.1 43.8l-0.06 6.85 10.98 0.02 0.01 -10.95 -6.2 0.05c-0.71,0.27 -4.14,3.4 -4.73,4.04z"/>
  <path class="fil9" d="M130.56 88.51l0.01 8.48 7.44 -0.02c0.42,-0.06 2.81,-1.52 3.27,-1.88l0.04 -8.88c-0.77,-0.34 -5.79,-0.3 -6.7,-0.06 -0.61,0.09 -1.47,0.79 -2.09,1.15 -0.52,0.31 -1.6,0.88 -1.98,1.21z"/>
  <path class="fil9" d="M95.87 95.44c0.15,0.21 1,0.65 1.27,0.81 0.47,0.27 0.94,0.67 1.43,0.72l7.81 0.03c0.16,-0.73 0.14,-7.33 0.02,-8.23 -0.26,-0.28 -4.45,-2.71 -4.79,-2.74l-5.8 0.02c-0.22,0.7 -0.19,8.83 0.06,9.4z"/>
  <path class="fil9" d="M142.04 54.47l-0.01 7.8c2.53,0 6.25,0.22 8.6,-0.05 0.37,-0.04 0.2,0 0.59,-0.22 0.16,-0.09 0.34,-0.21 0.53,-0.33 0.3,-0.18 0.76,-0.4 0.97,-0.65l0 -9.76 -5.07 0.03c-0.57,0.06 -2.2,1.16 -2.81,1.52 -0.83,0.49 -2.05,1.1 -2.8,1.66z"/>
  <path class="fil8" d="M158.9 131.7c0.57,-0.19 5.41,-4.25 5.5,-4.66 0.21,-0.69 0.18,-5.36 0.08,-6.25l-10.92 -0.03 -0.02 10.93 5.37 0.01z"/>
  <path class="fil7" d="M84.12 127.06c0.58,0.64 4.83,4.48 5.54,4.66l5.3 0.01 0.04 -10.94 -10.9 -0.03 0.02 6.3z"/>
  <path class="fil8" d="M131.11 142.8c1.43,0.24 8.7,-1.51 10.07,-2.04 0.39,-0.8 0.16,-7.04 0.16,-8.42l-10.98 0.04 0.01 10.56 0.74 -0.13z"/>
  <path class="fil7" d="M107.32 140.77c1.56,0.33 3.22,0.9 4.91,1.26 1.3,0.28 3.98,0.85 5.31,0.83l0.62 0.06 0 -10.59 -0.17 0 -10.76 0c0,1.48 -0.18,7.47 0.1,8.44z"/>
  <path class="fil7" d="M124.3 50.57c0.34,-0.01 0.27,-0.94 0.56,-1.47 0.31,-0.57 0.57,-0.74 1.03,-1.03 0.85,-0.54 1.95,-0.95 3.2,-0.99 0.11,-0.06 0.03,-0.05 0.32,-0.15 0.19,-0.07 0.17,-0.05 0.36,-0.08l0.01 -7.14 -10.98 -0.03 0 10.97c1.38,0.02 4.31,0.15 5.51,-0.09z"/>
  <path class="fil9" d="M107.29 115.55c1.73,1.08 3.6,2.09 5.39,3.18 0.95,0.58 1.83,1.07 2.78,1.59 0.63,0.35 2.11,1.42 2.73,1.57l-0.21 -12.68 -10.71 -0.06 0 0.15 0.01 6.24z"/>
  <path class="fil6" d="M77.51 51.39c-0.7,0.66 -4.84,7.22 -5.03,8.37l-0.01 2.45 10.97 0.05 0.01 -10.97c-1.01,-0.13 -5.28,-0.15 -5.93,0.09z"/>
  <path class="fil8" d="M175.99 59.62c-0.09,-0.6 -2.26,-4.37 -2.91,-5.29 -0.27,-0.38 -0.43,-0.66 -0.67,-1.03 -0.44,-0.68 -1.02,-1.36 -1.36,-2l-5.95 -0.01 0 10.96 10.97 0.02c0.03,-0.83 0.1,-1.87 -0.08,-2.64z"/>
  <path class="fil7" d="M106.37 102.36c-0.65,-0.53 -7.9,-4.75 -8.33,-4.78l-2.33 0.01 -0.05 10.92 10.76 0.04 -0.04 -6.2z"/>
  <path class="fil8" d="M170.61 120c0.22,-0.1 0.48,-0.54 0.71,-0.86 0.24,-0.35 0.45,-0.63 0.74,-1.08 0.55,-0.83 0.98,-1.46 1.43,-2.21 0.54,-0.9 2.36,-3.79 2.49,-4.63l0.11 -2.06 -11 -0.02 0 10.98c1.07,0.07 4.71,0.21 5.51,-0.13z"/>
  <path class="fil6" d="M72.53 111.3c0.34,1.04 1.96,3.62 2.55,4.58 0.87,1.41 1.89,3.02 2.88,4.22l5.44 0.06 0.01 -11.01 -11 0 0.12 2.14z"/>
  <path class="fil6" d="M85.18 73.78c0.39,-0.06 4.19,-2.27 4.61,-2.63 0.16,-1.6 0.41,-2.07 1.62,-2.75 1.06,-0.6 2.2,-0.81 3.57,-0.87l0.05 -4.65 -10.99 -0.03 0 10.96 1.13 -0.04z"/>
  <path class="fil9" d="M130.46 116.01l0.04 4.14 0.12 0.01c1.65,0 9.81,0.22 10.71,-0.15l-0.01 -10.6c-0.67,0.18 -10.72,6.37 -10.86,6.6z"/>
  <path class="fil9" d="M118.8 120.02c0.96,0.38 9.03,0.15 10.72,0.15l0.05 -4.16c-0.16,-0.23 -10.06,-6.09 -10.75,-6.31l-0.02 10.33z"/>
  <path class="fil9" d="M142.16 81.62c-0.27,0.74 -0.14,2.86 -0.11,3.75l10.66 0 0.01 -10.05 -10.57 6.3z"/>
  <path class="fil7" d="M95.62 35.14l0 3.91 10.97 0.04 0.01 -8.52c-0.17,-0.12 0.05,-0.07 -0.28,-0.07 -1.5,-0.05 -9.35,3.8 -10.71,4.64z"/>
  <path class="fil5" d="M152.92 35.16c-1.15,-0.83 -3.74,-2 -5.19,-2.64 -1.71,-0.76 -3.96,-1.72 -5.82,-2.2l0.03 8.71 10.96 0.04 0.01 -3.9z"/>
  <path class="fil9" d="M94.77 81.98c-0.23,-0.29 -4.5,-2.68 -5.19,-3.09 -0.93,-0.55 -1.77,-1.04 -2.68,-1.57 -0.72,-0.41 -2.09,-1.39 -2.74,-1.49l0.01 9.52 10.69 0.03c0.02,-0.86 0.14,-2.65 -0.08,-3.41z"/>
  <path class="fil6" d="M141.93 140.53c1.88,-0.54 3.94,-1.37 5.71,-2.16 1.27,-0.57 4.4,-1.97 5.26,-2.68 0.03,-0.58 0.29,-3.07 -0.13,-3.31 -0.28,-0.16 -10.29,-0.06 -10.77,-0.01l-0.07 8.17z"/>
  <path class="fil8" d="M95.65 135.71c1.13,0.81 9.24,4.66 10.7,4.64 0.35,-0.02 0.13,0.1 0.25,-0.19 0,-1.27 0.17,-7.08 -0.09,-7.83l-10.8 0 -0.06 3.37z"/>
  <path class="fil8" d="M141.2 108.15c0.39,-0.42 0.14,-4.3 0.14,-5.16 0,-1.8 0,-3.6 0,-5.4 -0.86,-0.02 -2.28,-0.15 -3.04,0.12 -0.56,0.08 -5.05,2.92 -5.89,3.43l-1.82 1.13c-0.02,0.02 -0.05,0.06 -0.07,0.07 -0.02,0.02 -0.05,0.05 -0.07,0.08 2.1,0.19 3.07,0.67 4.23,1.97 0.26,0.29 6.01,3.7 6.51,3.77z"/>
  <path class="fil9" d="M84.13 88.55c0.01,0.02 0.04,0.02 0.05,0.05l0.17 0.15c1.17,0.86 10.07,5.97 10.46,6.03 0.15,-0.35 0.14,-8.2 -0.01,-8.75l-10.61 0.01 -0.05 2.51z"/>
  <path class="fil7" d="M107.25 60.75c0.61,-0.15 4.91,-2.81 5.73,-3.34 0.05,-1.54 0.3,-1.96 1.26,-2.63 0.76,-0.54 1.77,-0.89 2.87,-1 0.39,-0.3 0.5,-0.24 1.05,-0.24l0.01 -2.23 -10.94 -0.04 0.02 9.49z"/>
  <path class="fil5" d="M152.45 73.81l0.46 -0.03 0.01 -10.83 -1.94 -0.06 -8 4.69c0.42,0.25 1.04,0.35 1.46,0.55 0.98,0.47 1.58,0.81 2.01,1.88 0.29,0.74 0.38,0.62 0.98,0.96 0.82,0.46 4.49,2.73 5.02,2.83z"/>
  <path class="fil7" d="M130.46 129.5c-0.1,0.62 -0.16,1.55 -0.05,2.21l10.91 0.01 -0.01 -8.64c-0.48,0.08 -10.71,6.17 -10.86,6.41z"/>
  <polygon class="fil6" points="129.73,129.45 118.77,123.01 118.8,131.68 129.72,131.73 "/>
  <path class="fil9" d="M142.1 94.52c0.6,-0.11 8.22,-4.84 10.09,-5.94l0.54 -0.42 -0 -2.12 -10.69 0 0.06 8.48z"/>
  <path class="fil5" d="M67.38 74.7c-0.2,1.78 -0.62,3.58 -0.75,5.57l-0.17 0.89 0 4.23 5.39 0 0 -10.94 -3.46 -0.01c-0.62,-0.01 -0.64,-0.04 -1.02,0.27z"/>
  <path class="fil6" d="M181.06 96.6c0.3,-1.19 1.09,-6.44 0.91,-7.58 -0.25,-1 0.16,-2.01 0.03,-3l-5.26 0.04c-0.14,0.52 -0.15,10.09 -0.03,10.9l4.08 0.03c0.21,-0.76 -0,-0.11 0.26,-0.38z"/>
  <path class="fil8" d="M181.96 81.74c0.21,-1.47 -0.48,-4.56 -0.64,-6.18 -0.32,-0.33 -0.3,-0.64 -0.4,-1.12l-4.23 0.01 0 10.88 5.38 0.05c0.01,-1.13 -0.36,-2.54 -0.1,-3.63z"/>
  <path class="fil8" d="M66.46 89.5c0.23,0.47 0.35,2.91 0.46,3.7 0.17,1.24 0.43,2.4 0.58,3.58 0.53,0.34 1.37,0.21 2.11,0.21 0.64,0 1.63,0.08 2.2,-0.05l0.02 -10.85 -5.38 -0.05 0 3.46z"/>
  <path class="fil8" d="M141.99 95.46l-0.04 1.49 10.94 0.03 -0 -8.02c-0.61,0.09 -10.87,6.47 -10.9,6.5z"/>
  <path class="fil9" d="M130.49 128.74l5.41 -3.21c0.97,-0.58 1.75,-1.05 2.74,-1.63 3.15,-1.85 2.68,-1.16 2.67,-3.05 -0.71,-0.19 -9.73,-0.18 -10.83,-0.07l0 7.96z"/>
  <path class="fil9" d="M118.96 122.44c1.76,0.98 3.53,2.06 5.27,3.08 0.9,0.52 1.72,1.01 2.6,1.53 0.67,0.39 2.15,1.41 2.72,1.5l-0.04 -7.8 -10.6 0 0.04 1.69z"/>
  <path class="fil5" d="M94.89 95.69c-0.19,-0.3 -4.52,-2.71 -5.24,-3.13 -0.91,-0.54 -1.73,-1.02 -2.68,-1.57 -0.69,-0.39 -2.17,-1.44 -2.81,-1.53 -0.23,0.34 -0.18,6.76 -0.04,7.52l10.85 0.01c0.08,-0.52 0.08,-0.81 -0.07,-1.29z"/>
  <path class="fil9" d="M123.07 96.98l6.73 -0.05 0 -7.91 -10.38 6.22c3.36,0.74 2.81,1.32 3.65,1.75z"/>
  <path class="fil9" d="M113.37 96.91c0.37,-0.08 0.72,-1.01 2.74,-1.5l1.11 -0.25c0.03,-0.01 0.07,-0.03 0.09,-0.04 0.02,-0.01 0.06,-0.02 0.09,-0.04 -0.73,-0.29 -1.74,-0.98 -2.5,-1.41 -1.05,-0.6 -6.8,-4.13 -7.41,-4.22 -0.41,-0.23 -0.07,-0.08 -0.21,0.05l0.01 7.48 6.08 -0.06z"/>
  <path class="fil9" d="M134.22 62.27c1.33,-0 6.18,0.18 7.1,-0.11l0 -7.2c-0.61,0.14 -4.39,2.47 -5.23,2.96 -0.9,0.52 -1.68,0.97 -2.53,1.48 -0.79,0.47 -1.87,1 -2.54,1.52 2.21,0.77 0.75,-0.09 3.2,1.35z"/>
  <path class="fil9" d="M108 69.71l-0.23 0.1c-0.03,0.01 -0.08,0.03 -0.11,0.04l-0.44 0.09 0 3.84 1.04 -0.01c0.13,-0.02 9.27,-5.28 9.65,-5.81 -1.51,-0.62 -4.39,-2.7 -6.04,-3.42 -0.25,1.98 1.15,4.46 -3.86,5.16z"/>
  <path class="fil9" d="M130.37 55.92c0,0.78 0,1.57 0,2.36 0,0.37 0,0.73 -0,1.1 -0.01,0.49 -0.09,0.77 0.16,1.07 0.36,-0.09 9.94,-5.66 10.38,-6.05 -0.38,-0.37 -5.39,-3.29 -5.89,-3.4 -0.1,1.78 0.33,3.03 -0.9,3.86 -1,0.68 -2.3,1.03 -3.75,1.07z"/>
  <path class="fil9" d="M118.8 90.19c0,0.74 -0.16,4.08 0.1,4.46 0.59,-0.1 4.46,-2.56 5.3,-3.06l5.27 -3.19c-0.28,-0.31 -1.54,-0.97 -2,-1.23 -0.62,-0.36 -1.52,-1.05 -2.13,-1.12l-1.93 0.05c-0.06,1.75 0.17,2.35 -1.07,3.15 -0.93,0.61 -2.21,0.9 -3.54,0.94z"/>
  <path class="fil7" d="M142.16 39.9c2.31,0.18 4.36,1.16 4.42,3.39 0.96,0.63 1.97,1.2 3.02,1.83 0.52,0.31 0.99,0.59 1.52,0.91 0.52,0.31 1.09,0.8 1.63,0.88 0.28,-0.04 0.11,0.11 0.17,-0.18l0 -6.99 -10.76 0.15z"/>
  <path class="fil9" d="M117.93 94.74c0.21,-0.11 0.24,0.14 0.22,-0.98l-0.01 -3.57c-2,0 -4.76,-0.85 -5.1,-2.51 -0.28,-0.28 -0.18,-0.36 -0.18,-0.85 0,-0.39 0.02,-0.44 -0.08,-0.83l-1.01 0.03c-0.49,0.04 -4.05,2.33 -4.35,2.59 1.71,0.9 3.52,2.07 5.22,3.04l5.29 3.06z"/>
  <path class="fil9" d="M117.86 108.28c0.53,0.22 0.1,0.08 0.28,-0.07l0 -4.19c-1.43,-0.03 -3.01,-0.39 -4.02,-1.08 -1.54,-1.05 -0.98,-1.89 -1.17,-3.91 -0.27,0.11 -4.95,2.73 -5.45,3.23 0.68,0.56 9.94,5.96 10.35,6.02z"/>
  <path class="fil5" d="M130.57 46.9c0.52,-0.08 5.49,-3.11 5.54,-3.21 0.02,-0.03 -0.5,-3.55 4.59,-3.8l-10.34 -0.21 -0.01 6.57c0,0.53 -0.11,0.55 0.21,0.64z"/>
  <path class="fil9" d="M129.15 73.78l0.61 0 0 -3.85 -0.7 -0.14c-0.03,-0.01 -0.09,0 -0.11,-0.05 -0.02,-0.05 -0.07,-0.03 -0.11,-0.05 -1.3,-0.16 -2.48,-0.56 -3.37,-1.19 -1.25,-0.89 -0.85,-1.85 -0.94,-3.65l-5.36 3.14c0.4,0.45 9.75,5.75 9.96,5.79z"/>
  <path class="fil9" d="M118.8 104.03l-0.01 3.82c0.07,0.53 -0.07,0.2 0.17,0.46 0.54,-0.14 4.49,-2.47 5.27,-2.95 0.63,-0.39 0.33,-0.62 0.84,-1.22 1.27,-1.55 3.08,-1.5 4.54,-1.78l-6.17 -3.66c-0.09,1.83 0.33,3.3 -0.83,4.2 -0.95,0.74 -2.38,1.09 -3.82,1.13z"/>
  <path class="fil9" d="M117.94 81c0.02,-0.03 0.03,-0.07 0.04,-0.09 0.01,-0.02 0.03,-0.06 0.04,-0.09 0.01,-0.03 0.02,-0.06 0.03,-0.1 0.01,-0.03 0.02,-0.07 0.02,-0.1l0.01 -6.2c-1.52,0 -8.62,-0.1 -9.53,0.07 -0.33,0.04 -0.22,0.04 -0.56,0.17 0.21,0.22 0.18,0.17 0.71,0.3 1.26,0.32 2.44,0.88 2.98,2.12 0.3,0.69 0.5,0.66 1.08,0.99l5.19 2.92z"/>
  <path class="fil9" d="M94.84 81.24c0.38,-0.45 0.17,-1.84 0.17,-2.43 0,-0.4 0.07,-1.79 -0.06,-2.13l-0.11 -0.18c-0.01,-0.02 -0.04,-0.06 -0.06,-0.09 -1,-0.03 -1.9,-0.22 -2.76,-0.55 -0.43,-0.16 -0.76,-0.34 -1.11,-0.59 -0.32,-0.23 -0.62,-0.6 -0.87,-0.77 -0.73,-0.13 -3.85,-0.12 -4.57,0 -0.42,0.05 -0.76,0.34 -1.16,0.52 0.37,0.46 7.11,4.25 7.87,4.69 0.7,0.41 2.03,1.29 2.68,1.52z"/>
  <path class="fil9" d="M131.21 69.71l-0.84 0.23 0 3.85 0.45 -0.03c0.47,-0.05 4.85,-2.64 5.06,-2.82 0.59,-0.51 0.02,-1.38 1.61,-2.39 1.19,-0.76 1.7,-0.57 2.94,-1 -0.71,-0.45 -4.87,-2.95 -5.45,-3.08 0,1.43 0.26,3.14 -0.54,3.96 -0.71,0.73 -1.95,1.08 -3.24,1.29z"/>
  <path class="fil9" d="M128.83 74.44c-1.53,-0.02 -9.12,-0.19 -10.02,0.11l0 6.25c0.65,-0.16 4.57,-2.5 5.36,-2.98 0.9,-0.55 0.08,-1.13 1.92,-2.21 0.98,-0.58 1.96,-0.81 3.27,-0.89l-0.53 -0.29z"/>
  <path class="fil9" d="M130.96 83.56c-0.1,0.06 0,0.04 -0.33,0.16 -0.03,0.01 -0.23,0.06 -0.27,0.07l0 1.55 4.16 0c0.35,-0.07 6.04,-3.44 6.5,-3.83 -0.76,-0.5 -5.4,-3.33 -6.04,-3.48 0,1.48 0.27,3.4 -0.55,4.22 -0.71,0.7 -2.14,1.2 -3.47,1.3z"/>
  <path class="fil9" d="M142.78 48.67c-0.3,0.24 -0.36,0.22 -0.83,0.25l0 1.67c0.76,0.12 4.69,0.11 5.4,-0.03 0.38,-0.05 4.63,-2.45 5.13,-2.97 -0.5,-0.42 -5.48,-3.41 -5.9,-3.5 -0,1.87 0.51,4.21 -3.8,4.59z"/>
  <path class="fil9" d="M129.54 60.4c0.31,-0 0.13,0.12 0.22,-0.18l0 -4.29c-1.44,-0.06 -2.77,-0.33 -3.84,-0.98 -1.53,-0.93 -1.36,-1.58 -1.36,-3.64 -0.55,0.16 -4.13,2.3 -4.35,2.59 1.69,0.74 3.18,1 3.21,3.09 1.1,0.35 5.39,3.32 6.13,3.41z"/>
  <path class="fil9" d="M105.63 73.76l0.96 0.1 0.01 -3.93c-0.21,-0.01 -0.21,0.02 -0.42,-0.03 -0.66,-0.16 0.53,0.19 -0.25,-0.07l-0.23 -0.11c-1.23,-0.19 -2.42,-0.49 -3.26,-1.12 -1.27,-0.96 -1.04,-1.53 -1.05,-3.46 -0.43,0.02 -1.72,0.92 -2.2,1.21 -0.56,0.34 -1.78,0.99 -2.21,1.38 3.89,1.37 2.86,2.39 3.34,3.09 0.1,0.15 4.79,2.89 5.31,2.95z"/>
  <path class="fil5" d="M180.85 73.62c0.04,-1.43 -2.57,-9.61 -3.21,-10.48 -0.03,-0.03 -0.08,-0.1 -0.1,-0.07l-0.31 -0.15c-0.25,-0.06 -0.32,-0.02 -0.56,0.01l0 10.85 3.27 0.04c0.48,0.01 0.75,0.13 0.9,-0.2z"/>
  <path class="fil7" d="M67.73 73.46l0.05 0.38 0.14 -0 3.89 0 0.06 -10.98c-0.55,0 -0.42,-0.06 -0.91,0.15 -0.58,0.73 -3.3,9.12 -3.22,10.45z"/>
  <path class="fil9" d="M101.94 85.32l4.66 0.07 0.01 -1.6c-0.39,-0.11 -0.45,-0.03 -0.78,-0.25 -1.31,-0.08 -2.6,-0.52 -3.44,-1.17 -1.31,-1 -0.98,-1.8 -1,-3.72l-5.41 3.18c0.3,0.44 5.77,3.46 5.96,3.5z"/>
  <path class="fil9" d="M142.16 76.41l-0.11 0.18c-0.01,0.03 -0.03,0.07 -0.04,0.09 -0.08,0.25 -0.19,3.8 0.08,4.18 0.49,-0.14 10.27,-6.03 10.41,-6.29 -0.44,-0.23 0.03,-0.04 -0.39,-0.08 -0.86,-0.14 -4.97,-0.21 -5.67,0.06 -0.56,0.72 -0.78,0.95 -1.73,1.33 -0.77,0.31 -1.61,0.47 -2.54,0.52z"/>
  <path class="fil7" d="M67.84 97.91c-0.05,1.48 2.68,9.4 3.35,10.51 0.23,0.11 0.29,0.13 0.66,0.14l0.01 -10.97 -3.22 -0.01c-0.76,-0.01 -0.65,-0.13 -0.8,0.34z"/>
  <path class="fil5" d="M177.31 108.55c0.81,-1.7 3.51,-9.09 3.43,-10.8 -0.15,-0.36 -1.48,-0.16 -1.89,-0.16 -0.68,0 -1.44,-0.03 -2.11,0.02l-0.06 10.91 0.63 0.03z"/>
  <path class="fil9" d="M95.87 76.41c-0.44,0.62 -0.18,4.69 -0.14,4.77 0.45,-0.06 2.15,-1.17 2.63,-1.46 4.26,-2.54 2.54,-1.42 3.31,-2.9 0.71,-1.37 2.71,-1.89 4.24,-2.09 -0.2,-0.09 -0.3,-0.21 -0.57,-0.25 -0.87,-0.1 -4.52,-0.18 -5.21,0.08 -0.27,0.23 -0.32,0.45 -0.72,0.75 -0.35,0.26 -0.61,0.4 -1.02,0.57 -0.79,0.33 -1.58,0.48 -2.53,0.53z"/>
  <path class="fil9" d="M141.2 80.81c0.34,-0.37 0.14,-1.57 0.14,-2.12 0,-0.71 0.16,-1.66 -0.16,-2.28 -1,-0.05 -1.91,-0.21 -2.78,-0.53 -1.12,-0.41 -1.37,-0.78 -2.05,-1.42l-5.24 0.03c-0.26,0.05 -0.37,0.16 -0.57,0.25 1.67,0.23 3.26,0.64 4.16,2.06 0.57,0.9 2.78,1.94 3.78,2.52 0.49,0.28 0.88,0.5 1.31,0.75 0.48,0.28 0.93,0.67 1.41,0.73z"/>
  <path class="fil9" d="M116.77 108.41l-9.35 -5.41c-0.24,0.3 -0.16,0.22 -0.15,1.2l0.02 4.35 9.21 -0.03c0.27,-0.06 0.15,-0.03 0.27,-0.11z"/>
  <path class="fil9" d="M125.62 85.33l4.13 0.04c0.02,-0.59 0.1,-1.26 -0.11,-1.77 -6.07,-0.45 -4.95,-3.11 -5.1,-5.25 -0.57,0.22 -4.95,2.72 -5.19,3.01 1.55,0.54 3.1,0.47 3.92,2.35 0.25,0.58 0.08,0.38 0.62,0.71 0.45,0.27 1.32,0.84 1.72,0.9z"/>
  <path class="fil9" d="M107.84 83.55l-0.62 0.23 0 1.53 4.21 0.02c0.28,-0.06 1.33,-0.64 1.47,-0.91 0.1,-0.19 0.13,-0.58 0.29,-0.93 0.15,-0.31 0.3,-0.47 0.53,-0.69 1.04,-1.01 1.89,-1.1 3.5,-1.49 -0.52,-0.43 -1.99,-1.17 -2.66,-1.54 -0.54,-0.3 -2.26,-1.4 -2.75,-1.45 0,1.33 0.34,3.15 -0.64,3.99 -0.82,0.7 -2.04,1.15 -3.33,1.22z"/>
  <path class="fil9" d="M135.83 50.58l5.51 0.06 0.01 -1.72c-0.51,-0.03 -0.56,0.01 -0.95,-0.24 -1.09,-0.12 -2.42,-0.53 -3.14,-1.05 -1.22,-0.88 -1.04,-1.31 -1.12,-3.13 -0.5,0.08 -3.82,2.21 -4.65,2.64 1.16,0.62 2.84,0.7 3.38,2.39 0.22,0.7 0.08,0.9 0.96,1.07z"/>
  <path class="fil9" d="M129.73 115.29c0.09,-1.08 0.14,-3.38 -0.08,-3.85l-0.12 -0.18c-1.48,-0.04 -3.25,-0.49 -4.34,-1.51 -0.2,-0.18 -0.21,-0.27 -0.43,-0.44 -0.71,-0.35 -1.84,-0.15 -2.65,-0.15 -0.45,0 -0.89,0 -1.34,-0 -1.45,-0.02 -1.12,-0.01 -1.25,0.22l10.21 5.92z"/>
  <path class="fil9" d="M118.8 73.71c0.71,0.26 8.64,0.22 8.79,-0.01 -0.16,-0.19 -8.34,-4.96 -8.78,-5.08l-0.01 5.09z"/>
  <path class="fil9" d="M130.49 111.27c-0.2,0.51 -0.28,3.46 0.01,3.82 0.55,-0.11 8.59,-5.05 9.69,-5.75 -0.26,-0.27 0.14,-0.02 -0.25,-0.15l-5.02 -0.02c-0.65,1.45 -2.42,1.96 -4.43,2.1z"/>
  <path class="fil9" d="M109.74 73.68c0.39,0.37 7.82,0.16 8.34,0.16l-0.03 -5.04c-0.55,0.08 -3.42,1.93 -4.16,2.38 -1.39,0.83 -2.78,1.61 -4.14,2.5z"/>
  <path class="fil5" d="M95.66 67.56c0.61,-0.02 2.33,-1.19 2.88,-1.52 0.89,-0.53 1.95,-1.08 2.8,-1.7l0.23 -1.3c-0.31,-0.31 -0.1,-0.2 -1.33,-0.19 -1.21,0.01 -3.7,-0.07 -4.61,0.04l0.03 4.66z"/>
  <path class="fil5" d="M78.21 50.54c0.08,0.35 4.56,0.15 5.18,0.1 0.15,-0.54 0.16,-5.74 -0.03,-6.03 -0.49,0.23 -0.95,0.91 -1.39,1.34 -0.49,0.48 -0.87,0.92 -1.33,1.46 -0.48,0.56 -2.25,2.56 -2.42,3.13z"/>
  <path class="fil9" d="M118.07 67.35c0.29,-0.46 0.11,-3.63 0.11,-4.42 -0.68,-0.15 -3.92,-0.06 -5.06,-0.07 -1.22,-0.01 -1.26,-0.16 -1.48,0.22 0.29,1.01 0.43,0.87 1.28,1.35 0.59,0.33 1.08,0.63 1.69,0.98 0.63,0.36 3,1.85 3.46,1.94z"/>
  <path class="fil5" d="M170.35 50.45c-0.72,-1.12 -4.35,-5.41 -5.14,-5.82 -0.24,0.27 -0.12,5.19 -0.1,5.98l4.03 0.02c0.16,0 0.48,0.02 0.61,0.01 0.62,-0.04 0.48,-0.09 0.6,-0.2z"/>
  <path class="fil10" d="M141.31 45.45l0.03 -4.83 -0.97 -0.04c-1.42,-0.12 -4.09,1.08 -3.5,2.8 0.22,0.66 0.97,1.19 1.66,1.51 0.82,0.38 1.76,0.5 2.78,0.56z"/>
  <path class="fil10" d="M129.7 107.97l0.06 -5c-6.51,0.39 -5.65,4.81 -0.06,5z"/>
  <path class="fil10" d="M129.72 80.3l0.04 -4.92 -1.07 0.07c-1.45,-0.13 -3.94,1.17 -3.41,2.76 0.2,0.62 1.06,1.27 1.71,1.55 0.91,0.4 1.66,0.48 2.74,0.54z"/>
  <path class="fil9" d="M142.09 67.31c0.66,-0.1 6.21,-3.6 7.35,-4.26 -0.21,-0.19 -0.58,-0.18 -0.84,-0.18l-6.57 0.01 0.06 4.43z"/>
  <path class="fil10" d="M106.56 80.31l0.05 -4.94 -1.02 0.08c-1.28,-0.16 -4.07,1.1 -3.44,2.81 0.22,0.61 0.95,1.17 1.66,1.49 0.84,0.38 1.73,0.5 2.76,0.57z"/>
  <path class="fil10" d="M94.98 73.13l0.05 -4.95 -1.17 0.11c-1.46,-0.12 -3.98,1.24 -3.25,2.89 0.59,1.31 2.48,1.82 4.37,1.94z"/>
  <path class="fil10" d="M141.29 73.12l0.05 -4.95 -1.17 0.13c-1.42,-0.14 -3.96,1.23 -3.26,2.88 0.23,0.55 1.05,1.15 1.73,1.43 0.87,0.37 1.6,0.46 2.66,0.52z"/>
  <path class="fil10" d="M118.13 59.28l0.04 -4.86 -1.09 0.03c-1.48,-0.12 -4.02,1.19 -3.33,2.85 0.52,1.26 2.55,1.97 4.39,1.98z"/>
  <path class="fil9" d="M118.99 67.39c0.88,-0.37 2.28,-1.33 3.19,-1.88 0.53,-0.32 1.04,-0.64 1.6,-0.96 0.85,-0.5 0.83,-0.46 0.94,-1.56 -0.42,-0.31 -5.05,-0.15 -5.93,-0.13l-0.01 3.55c-0.02,1.12 0.01,0.86 0.22,0.97z"/>
  <path class="fil9" d="M141.32 63.01c-0.56,-0.21 -6.18,-0.25 -6.51,-0.02 0.14,1.06 1.36,1.38 2.97,2.32 0.71,0.41 2.88,1.77 3.53,1.95l0.01 -4.25z"/>
  <path class="fil9" d="M121.29 62.15c0.45,0.28 3.23,0.1 4.02,0.12 0.34,-0.13 0.61,-0.49 1.6,-0.89 0.74,-0.3 1.44,-0.3 2.09,-0.51l-5.56 -3.25c-0.1,2.97 0.3,3.47 -2.15,4.53z"/>
  <path class="fil5" d="M165.24 126.19c0.45,-0.04 0.93,-0.81 1.25,-1.19 0.4,-0.47 0.84,-0.84 1.22,-1.34 0.4,-0.53 2.14,-2.34 2.24,-2.8 -0.41,-0.27 -4.04,-0.14 -4.8,-0.09 -0.11,0.77 -0.04,1.93 -0.04,2.74 0,0.5 -0.21,2.52 0.14,2.67z"/>
  <path class="fil10" d="M118.84 59.26c1.67,-0.19 3.61,-0.91 3.87,-2.36 0.26,-1.44 -2.31,-2.72 -3.62,-2.48 -0.5,0.18 -0.33,0.36 -0.32,1.05 0.01,0.41 0,0.81 0,1.22 0,0.85 -0.08,1.74 0.06,2.57z"/>
  <path class="fil10" d="M130.95 107.79c1.43,0.1 3.21,-1.15 3.36,-2.33 0.16,-1.21 -1.94,-2.49 -3.36,-2.31l-0.59 -0.04 0 4.71 0.58 -0.03z"/>
  <path class="fil10" d="M95.69 73.1c1.73,-0.19 3.49,-0.9 3.85,-2.3 0.24,-0.96 -0.48,-1.52 -1.1,-1.86 -0.65,-0.35 -1.59,-0.81 -2.41,-0.69l-0.4 0.1 0.07 4.74z"/>
  <path class="fil10" d="M142.01 73.09c1.55,-0.16 3.47,-0.81 3.84,-2.28 0.25,-0.97 -0.42,-1.48 -1.03,-1.84 -0.62,-0.36 -1.56,-0.81 -2.4,-0.7l-0.47 0.06 0.06 4.76z"/>
  <path class="fil10" d="M130.43 80.27c1.74,-0.17 3.51,-0.9 3.85,-2.31 0.33,-1.37 -1.92,-2.67 -3.45,-2.51l-0.47 0.07 0.06 4.75z"/>
  <path class="fil10" d="M142 45.42c1.66,-0.19 3.54,-0.88 3.86,-2.31 0.32,-1.4 -2.01,-2.72 -3.61,-2.53l-0.3 0.08 0.05 4.76z"/>
  <path class="fil9" d="M106.23 101.46c0.32,-0 0.11,0.2 0.21,-0.17 0,-0.85 0.15,-3.04 -0.1,-3.71l-5.99 -0.01c-0.47,0.01 -0.42,-0.06 -0.71,0.14 0.85,0.61 2.25,1.31 3.25,1.9 0.7,0.42 2.75,1.77 3.34,1.85z"/>
  <path class="fil10" d="M107.28 80.26c1.62,-0.14 3.51,-0.92 3.84,-2.28 0.23,-0.96 -0.41,-1.48 -1.05,-1.84 -0.61,-0.35 -1.62,-0.8 -2.44,-0.69l-0.4 0.07 0.05 4.74z"/>
  <path class="fil8" d="M78.69 120.94c0.15,0.48 1.73,2.28 2.18,2.75 0.57,0.59 1.91,2.27 2.5,2.55l0.04 -5.43 -4.68 -0.06c-0.15,0.15 -0.06,-0.08 -0.04,0.19z"/>
  <path class="fil9" d="M123.57 97.98c0.13,0.24 5.63,3.5 6.22,3.69l0 -4.03 -6.29 -0.06 0.07 0.4z"/>
  <path class="fil9" d="M130.57 101.45c0.64,-0.11 2.52,-1.4 3.24,-1.84 0.6,-0.36 2.87,-1.63 3.18,-1.96 -0.44,-0.22 -5.45,-0.08 -6.37,-0.08 -0.16,0.45 -0.18,3.42 -0.05,3.88z"/>
  <path class="fil10" d="M106.57 66.48l0.04 -3.62 -4.11 0.02c-0.37,0.27 -0.61,0.82 -0.37,1.53 0.19,0.57 0.65,0.88 1.03,1.14 1.03,0.71 1.99,0.81 3.41,0.92z"/>
  <path class="fil9" d="M107.38 101.46c0.6,-0.08 2.16,-1.16 2.8,-1.54 0.91,-0.54 1.82,-1.05 2.76,-1.61l-0.01 -0.45c-0.15,-0.42 0.07,-0.26 -0.53,-0.29l-5.12 0.02c0,0.69 -0.15,3.48 0.1,3.88z"/>
  <path class="fil10" d="M129.73 66.47l0.03 -3.59 -4.12 0.07c-1.09,0.58 -0.51,3.3 4.09,3.51z"/>
  <path class="fil7" d="M113.62 119.95l-6.2 -3.58c-0.33,0.15 -0.22,0.33 -0.22,0.83l0.02 2.97 5.65 0.02c0.69,-0.02 0.61,-0.07 0.74,-0.23z"/>
  <path class="fil10" d="M114.09 85.32l4.06 0.07 0.01 -3.49c-1.46,0.08 -4.99,0.69 -4.49,2.8 0.06,0.23 0.04,0.19 0.14,0.35 0.18,0.29 0.09,0.17 0.28,0.27z"/>
  <path class="fil9" d="M111.06 62.21c0.42,0.05 4.07,0.19 4.52,-0.08 -0.77,-0.18 -1.67,-0.72 -2.09,-1.19 -0.69,-0.76 -0.49,-1.61 -0.51,-2.77 -0.49,0.13 -1.91,1.07 -2.45,1.4 -0.52,0.32 -1.92,1.26 -2.34,1.43 0.6,0.14 1.06,0.26 1.58,0.49 0.5,0.22 0.92,0.62 1.29,0.72z"/>
  <path class="fil11" d="M142.16 81.62c-0.46,0.18 -0.28,2.13 -0.28,3.02 0.01,1.1 0,2.18 0,3.28 0,2.19 -0.01,4.37 0,6.56 0.17,0.32 0.02,0.27 0.21,0.04l-0.06 -8.48 10.69 0 0 2.12c0.32,-0.35 0.2,-0.32 0.18,-1.46l-0.01 -11.42c-0.33,-0.26 -0.1,-0.03 -0.19,0.03l-0.01 10.05 -10.66 0c-0.03,-0.88 -0.17,-3.01 0.11,-3.75z"/>
  <path class="fil10" d="M113.73 97.71c-0.63,0.9 0.76,1.99 1.29,2.29 0.85,0.48 1.96,0.73 3.12,0.73l-0.01 -3.11c-0.74,-0.12 -3.9,-0.06 -4.39,0.09z"/>
  <path class="fil12" d="M84.13 88.55l0.05 -2.51 10.61 -0.01c0.15,0.55 0.16,8.4 0.01,8.75 0.02,0.02 0.12,0.4 0.23,-0.05l0.02 -12.04c-0.03,-0.71 0.07,-0.44 -0.28,-0.7 0.22,0.75 0.11,2.54 0.08,3.41l-10.69 -0.03 -0.01 -9.52c-0.15,-0.17 -0.02,-0.35 -0.19,0.05l-0 11.06c0,0.28 -0.02,0.59 -0.01,0.86 0,0.06 0.01,0.31 0.02,0.35l0.1 0.3c0.01,0.02 0.03,0.06 0.05,0.09z"/>
  <path class="fil10" d="M107.26 66.43c1.12,-0.09 2.1,-0.42 2.86,-0.95 0.3,-0.21 0.74,-0.67 0.9,-1.05 0.26,-0.61 0.19,-1.17 -0.22,-1.42 -0.62,-0.27 -2.88,-0.24 -3.59,-0.09l0.05 3.51z"/>
  <path class="fil10" d="M122.25 85.34c0.93,-0.58 0.98,-3.03 -3.45,-3.42l0 3.44 3.45 -0.02z"/>
  <path class="fil10" d="M130.41 66.44c2.83,-0.29 4.54,-2.06 3.78,-3.23 -0.18,-0.28 -0.07,-0.15 -0.29,-0.27l-3.54 -0.03 0.05 3.53z"/>
  <path class="fil10" d="M125.33 50.62l4.42 0.01 0.01 -2.8 -0.82 -0.08c-1.47,-0.18 -4.41,1.22 -3.61,2.87z"/>
  <path class="fil5" d="M89.84 38.93c0.21,0.22 -0.15,0.1 0.43,0.16 0.15,0.02 0.56,-0 0.73,-0.01l4.02 -0.02 -0.02 -3.54c-0.92,0.42 -4.65,2.86 -5.16,3.4z"/>
  <path class="fil8" d="M158.68 38.97c-0.23,-0.37 -3.01,-2.18 -3.72,-2.61 -0.21,-0.13 -0.41,-0.26 -0.67,-0.42 -0.34,-0.21 -0.37,-0.28 -0.73,-0.32l-0.03 3.39c0.54,0.12 5.02,0.15 5.16,-0.04z"/>
  <path class="fil10" d="M119.66 100.5c1.28,0.08 3.5,-1.42 3.03,-2.74 -0.72,-0.42 -2.97,-0.21 -3.9,-0.16l0.01 3.08 0.85 -0.17z"/>
  <path class="fil13" d="M135.83 50.58c0.25,0.29 0.22,0.22 0.58,0.43 0.29,0.17 0.38,0.23 0.68,0.37 0.33,-0.2 3.67,-0.17 4.23,-0.05 0.04,0.46 0.22,2.22 -0.12,2.39 0.29,0.37 0.36,0.37 0.75,0.08l-0.01 -2.49c0.57,-0.05 3.88,-0.12 4.1,0.05 0.46,-0.17 1,-0.41 1.29,-0.8 -0.71,0.15 -4.63,0.16 -5.4,0.03l-0 -1.67c0.47,-0.03 0.53,-0.01 0.83,-0.25l-2.37 0.01c0.39,0.25 0.43,0.21 0.95,0.24l-0.01 1.72 -5.51 -0.06z"/>
  <path class="fil11" d="M111.06 62.21l0.52 0.79c0.01,0.02 0.04,0.06 0.06,0.08 0.22,-0.38 0.26,-0.23 1.48,-0.22 1.14,0.01 4.38,-0.09 5.06,0.07 0,0.79 0.18,3.95 -0.11,4.42 0.12,0.14 0.05,0.22 0.41,0.27 0.21,0.03 0.06,0.04 0.27,-0.05 0.16,-0.06 0.17,-0.11 0.25,-0.17 -0.21,-0.11 -0.24,0.15 -0.22,-0.97l0.01 -3.55c0.88,-0.02 5.51,-0.19 5.93,0.13 0.02,-0.02 0.05,-0.09 0.06,-0.07l0.24 -0.28c0.13,-0.16 0.16,-0.19 0.29,-0.38 -0.79,-0.02 -3.57,0.16 -4.02,-0.12 -1.84,0.49 -3.86,0.71 -5.71,-0.02 -0.45,0.27 -4.1,0.13 -4.52,0.08z"/>
  <path class="fil9" d="M105.86 82.89l0.74 -0.05c0.02,-0.66 0.09,-1.36 -0.09,-1.96 -1,-0.03 -1.77,-0.12 -2.64,-0.47 -1.24,-0.51 -1.49,-0.98 -1.85,-1.17 -0.17,1.44 -0.08,2.15 0.85,2.77 0.67,0.45 1.98,0.98 2.99,0.88z"/>
  <path class="fil9" d="M129.05 82.89l0.7 -0.08c0.02,-0.62 0.09,-1.34 -0.1,-1.93 -2.63,-0.11 -2.92,-0.65 -4.51,-1.62 0,1.58 -0.2,2.09 0.99,2.81 0.65,0.39 1.97,0.93 2.92,0.82z"/>
  <path class="fil9" d="M117.4 61.87l0.76 -0.06c0.02,-0.32 0.02,-0.66 0.02,-0.98 0.01,-0.57 0.1,-0.62 -0.23,-0.97 -3,-0.1 -3.46,-1.21 -4.37,-1.6 -0.03,1.53 -0.17,2.02 0.91,2.78 0.65,0.45 2.01,0.93 2.91,0.84z"/>
  <path class="fil9" d="M140.49 48.02l0.84 0.03 0.01 -1.8 -0.43 -0.24c-0.86,-0.02 -1.68,-0.17 -2.4,-0.48 -1.18,-0.51 -1.43,-0.98 -1.75,-1.14 -0.19,1.53 -0.08,2.18 0.84,2.77 0.73,0.47 1.89,0.97 2.88,0.87z"/>
  <path class="fil9" d="M129.02 69.05l0.73 -0.01 0.01 -1.77 -0.4 -0.24c-2.65,-0.05 -3.33,-1.16 -4.23,-1.59 0,1.54 -0.14,2.08 0.98,2.81 0.61,0.4 2.04,0.95 2.9,0.81z"/>
  <path class="fil9" d="M128.82 55.19l0.92 0.06 0.01 -1.83 -0.64 -0.25c-2.47,-0.06 -3.47,-1.38 -3.98,-1.58 -0.03,1.45 -0.13,2.08 0.88,2.76 0.58,0.39 1.93,0.93 2.79,0.84z"/>
  <path class="fil9" d="M117.28 103.3l0.86 0.06c0.01,-0.65 0.15,-1.49 -0.16,-2.05 -1.36,-0.07 -2.27,-0.26 -3.38,-0.9 -0.4,-0.23 -0.57,-0.47 -1.03,-0.65 0,1.43 -0.08,2.08 0.91,2.7 0.67,0.42 1.87,0.93 2.8,0.83z"/>
  <path class="fil9" d="M117.24 89.46l0.91 0.1 0 -1.88 -0.81 -0.24c-2.2,-0.14 -2.93,-1.16 -3.75,-1.49 -0.06,1.6 -0.11,2 0.9,2.68 0.63,0.42 1.86,0.97 2.75,0.84z"/>
  <path class="fil9" d="M105.74 69.04l0.85 0.01 -0.16 -1.89c-0.12,-0.07 -0.17,-0.1 -0.24,-0.14 -2.79,-0.07 -3.63,-1.35 -4.18,-1.63 -0.18,1.51 -0.07,2.16 0.85,2.77 0.68,0.45 1.93,0.97 2.88,0.88z"/>
  <path class="fil10" d="M134.18 50.56c0.76,-1.53 -1.78,-2.92 -3.39,-2.8l-0.42 0.07 0 2.77 3.81 -0.04z"/>
  <path class="fil9" d="M118.78 59.84l0 1.96 0.74 0.07c0.97,0.08 2.04,-0.36 2.67,-0.83 0.85,-0.64 0.67,-1.58 0.62,-2.86 -0.33,0.15 -0.45,0.36 -0.72,0.57 -0.3,0.23 -0.55,0.34 -0.93,0.52 -0.75,0.36 -1.49,0.51 -2.37,0.57z"/>
  <path class="fil9" d="M118.95 87.45c-0.28,0.6 -0.15,1.43 -0.15,2.11l0.8 -0.08c0.83,0.1 1.97,-0.4 2.55,-0.79 0.85,-0.56 0.74,-1.51 0.65,-2.83 -0.49,0.2 -0.93,0.71 -1.69,1.06 -0.66,0.3 -1.37,0.44 -2.16,0.53z"/>
  <path class="fil9" d="M130.37 80.85l0 1.96 0.77 0.06c0.93,0.05 1.99,-0.37 2.62,-0.8 0.81,-0.55 0.71,-1.62 0.62,-2.89 -1.22,0.76 -1.57,1.5 -4.01,1.67z"/>
  <path class="fil9" d="M130.48 53.16c-0.21,0.47 -0.12,1.41 -0.11,2.08l0.84 -0.06c0.85,0.1 2.02,-0.37 2.55,-0.82 0.86,-0.71 0.64,-1.47 0.64,-2.83 -0.91,0.47 -1.5,1.49 -3.92,1.62z"/>
  <path class="fil9" d="M130.38 67.02l-0.01 1.96 0.64 0.08c0.81,0.14 2.09,-0.35 2.68,-0.78 0.9,-0.64 0.71,-1.63 0.71,-2.89 -0.64,0.32 -0.88,0.74 -1.76,1.11 -0.69,0.29 -1.44,0.47 -2.25,0.52z"/>
  <path class="fil9" d="M107.23 67.02l-0.02 1.96 0.78 0.05c0.89,0.09 2.1,-0.41 2.66,-0.85 0.84,-0.65 0.6,-1.49 0.6,-2.83 -0.17,0.05 -1.12,0.85 -1.7,1.11 -0.69,0.32 -1.47,0.48 -2.31,0.55z"/>
  <path class="fil9" d="M107.22 80.87l0 1.95 0.82 0.06c0.9,0.04 1.92,-0.37 2.51,-0.8 0.95,-0.71 0.68,-1.41 0.68,-2.86 -0.77,0.43 -0.86,0.75 -1.8,1.13 -0.71,0.29 -1.4,0.42 -2.21,0.52z"/>
  <path class="fil9" d="M118.87 101.29l-0.08 2.06 0.86 -0.05c0.86,0.08 1.98,-0.39 2.56,-0.82 0.84,-0.62 0.66,-1.53 0.61,-2.86 -0.42,0.2 -1.29,1.5 -3.94,1.67z"/>
  <path class="fil9" d="M142.02 46.01l-0.07 1.96 0.79 0.04c0.84,0.09 2.05,-0.4 2.57,-0.8 0.92,-0.72 0.69,-1.43 0.67,-2.86 -0.76,0.45 -0.87,0.75 -1.78,1.14 -0.71,0.31 -1.37,0.42 -2.18,0.52z"/>
  <path class="fil9" d="M140.33 108.46c-0.2,-0.26 -2.01,-1.22 -2.43,-1.46 -0.62,-0.37 -1.99,-1.3 -2.59,-1.39 -0.42,-0.21 -0.06,-0.07 -0.21,0.05l0 2.9c0.67,0 5.06,0.14 5.24,-0.09z"/>
  <path class="fil13" d="M118.8 120.02c0.01,0.46 -0.02,0.87 -0.04,1.32 -0,0.08 -0.01,0.55 -0,0.61 0.11,0.77 -0.06,0.22 0.2,0.5l-0.04 -1.69 10.6 0 0.04 7.8c0.09,0.12 -0.05,0.2 0.16,0.07 0.08,-2.06 0.01,-4.24 0.01,-6.32 0,-0.48 0.19,-5.91 -0.16,-6.3l-0.05 4.16c-1.69,0 -9.76,0.23 -10.72,-0.15z"/>
  <path class="fil9" d="M136.08 85.25c0,0.23 4.73,0.17 5.24,0l-0 -3.12 -5.24 3.12z"/>
  <path class="fil10" d="M125.33 50.62c0.09,0.21 0.08,0.25 0.23,0.44 0.23,0.29 0.15,0.17 0.38,0.31 0.4,-0.17 3.15,-0.1 3.77,-0.06l0.03 1.33 0.66 -0.03 -0.05 -1.28 2.81 -0.04c0.42,0.03 0.14,-0.04 0.24,0.2 0.49,-0.29 0.54,-0.37 0.77,-0.91l-3.81 0.04 -0 -2.77 0.42 -0.07c-0.32,-0.24 -1.54,-0.21 -1.85,-0.01l0.82 0.08 -0.01 2.8 -4.42 -0.01z"/>
  <path class="fil13" d="M101.94 85.32c0.24,0.3 0.21,0.22 0.58,0.43 0.29,0.17 0.38,0.23 0.68,0.37 0.4,-0.24 2.8,-0.17 3.38,-0.05 0.04,0.33 0.2,1.76 -0.09,1.89 0.29,0.46 0.56,0.17 0.77,-0.11l-0.01 -1.8c0.48,-0.07 2.69,-0.16 2.95,0.04 0.46,-0.18 0.94,-0.41 1.23,-0.76l-4.21 -0.02 -0 -1.53 0.62 -0.23 -2.02 -0.01c0.33,0.22 0.39,0.14 0.78,0.25l-0.01 1.6 -4.66 -0.07z"/>
  <path class="fil10" d="M126.6 62.14c-0.44,0.23 -0.73,0.43 -0.95,0.81l4.12 -0.07 -0.03 3.59 0.67 -0.03 -0.05 -3.53 3.54 0.03c-0.28,-0.47 -0.47,-0.46 -0.93,-0.81 -0.03,0.02 -0.08,0.01 -0.09,0.05 -0.08,0.18 -2.32,0.09 -2.5,0.07l-0.01 -0.57 0.35 -0.08c-0.31,-0.22 -1.65,-0.27 -1.96,0.01l1.02 0 -0.01 0.63 -3.16 -0.1z"/>
  <path class="fil13" d="M130.49 128.74l0 -7.96c1.09,-0.11 10.11,-0.12 10.83,0.07l0.01 -0.83c-0.9,0.37 -9.06,0.15 -10.71,0.15l-0.12 -0.01 -0.04 -4.14c-0.27,0.27 -0.03,-0.16 -0.13,0.25l-0.05 11.76c0.02,0.7 0.06,0.59 0.22,0.71z"/>
  <path class="fil11" d="M125.62 85.33c0.25,0.31 0.27,0.26 0.66,0.49 0.31,0.18 0.44,0.29 0.76,0.49 0.27,-0.35 -0.11,-0.04 0.3,-0.2 0.32,-0.13 2.09,-0.05 2.42,-0.01 0,1.68 0.09,1.52 -0.23,1.54 0.1,0.12 0.15,0.27 0.43,0.35 0.38,0.11 0.39,-0.06 0.53,-0.23 -0.27,-0.34 -0.13,-1.18 -0.13,-1.66l2.2 -0.05c0.74,0.05 0.52,0.07 0.58,0.21l1.02 -0.6c0.53,-0.36 -0.24,0.2 0.15,-0.11 0.13,-0.1 0.12,-0.1 0.21,-0.19l-4.16 -0 -0 -1.55c0.04,-0.01 0.24,-0.06 0.27,-0.07 0.33,-0.12 0.23,-0.11 0.33,-0.16l-1.32 0.04c0.21,0.5 0.13,1.17 0.11,1.77l-4.13 -0.04z"/>
  <path class="fil10" d="M114.09 85.32c0.2,0.42 0.46,0.59 0.95,0.81 0.27,-0.21 2.61,-0.15 3.1,-0.05l-0 0.64 -0.94 0.05c0.32,0.25 1.53,0.2 1.84,0.01l-0.24 -0.07 0.02 -0.62c0.47,-0.11 2.12,-0.17 2.5,0.03 0.32,-0.13 0.24,-0.08 0.52,-0.29 0.34,-0.25 0.23,-0.13 0.42,-0.48l-3.45 0.02 -0 -3.44 -0.64 -0.03 -0.01 3.49 -4.06 -0.07z"/>
  <path class="fil10" d="M103.51 62.12c-0.27,0.13 -0.32,0.16 -0.56,0.32 -0.35,0.24 -0.23,0.08 -0.45,0.44l4.11 -0.02 -0.04 3.62 0.69 -0.04 -0.05 -3.51c0.71,-0.15 2.97,-0.18 3.59,0.09 -0.25,-0.48 -0.6,-0.68 -1.09,-0.88l-2.5 0.09 -0.01 -0.54 0.32 -0.08c-0.25,-0.15 0.02,-0.05 -0.37,-0.11 -0.1,-0.02 -0.49,-0.03 -0.6,-0.04 -0.42,-0 -0.68,-0.03 -0.93,0.16l0.98 0.01 -0.01 0.65 -3.08 -0.14z"/>
  <path class="fil10" d="M114.38 96.9c-0.25,0.15 -0.13,0.02 -0.37,0.3 -0.15,0.17 -0.17,0.25 -0.28,0.52 0.5,-0.16 3.65,-0.21 4.39,-0.09l0.01 3.11c0.25,-0 0.61,0.02 0.84,0 0.44,-0.03 0.44,-0.02 0.69,-0.23l-0.85 0.17 -0.01 -3.08c0.93,-0.05 3.18,-0.26 3.9,0.16 -0.19,-0.56 -0.14,-0.55 -0.7,-0.85 -0.28,0.21 -2.71,0.12 -3.19,0.03l-0.02 -1 0.46 -0.06c-0.32,-0.25 -1.65,-0.23 -1.96,-0.01l0.87 0.05 -0.01 1.03c-0.66,0.12 -3.32,0.21 -3.77,-0.05z"/>
  <path class="fil11" d="M107.29 115.55l-0.01 -6.24 -0 -0.15 10.71 0.06c-0.29,-0.34 -0.8,-0.55 -1.21,-0.8 -0.12,0.09 0,0.05 -0.27,0.11l-9.21 0.03 -0.02 -4.35c-0.01,-0.97 -0.09,-0.9 0.15,-1.2 -0.17,-0.11 0.35,-0.32 -0.15,-0.07 -0.27,0.13 0.01,-0.16 -0.15,0.18l0.11 12.34c0.01,0.03 0.03,0.07 0.05,0.1z"/>
  <path class="fil9" d="M100.38 85.24c-0.16,-0.19 -1.85,-1.13 -2.21,-1.33 -0.61,-0.35 -1.73,-1.17 -2.35,-1.26 -0.27,0.35 -0.11,2.17 -0.1,2.73 0.82,0 1.63,0 2.45,0 0.47,0 2.01,0.2 2.21,-0.14z"/>
  <path class="fil8" d="M94.79 135.12c0.39,0.14 0.09,0.06 0.22,-0.06l-0.01 -2.71c-0.69,-0.04 -4.05,-0.11 -4.42,0.06 0.29,0.41 3.62,2.62 4.22,2.71z"/>
  <path class="fil13" d="M109.74 73.68c-0.37,0.16 -0.96,0.49 -1.19,0.82 0.91,-0.17 8.01,-0.07 9.53,-0.07l-0.01 6.2c-0.01,0.04 -0.01,0.07 -0.02,0.1 -0.01,0.03 -0.02,0.07 -0.03,0.1 -0.01,0.03 -0.03,0.07 -0.04,0.09 -0.01,0.02 -0.02,0.06 -0.04,0.09 0.21,0.1 0.25,0.11 0.3,-0.13l0 -12.03c-0.22,-0.41 -0.06,-0.21 -0.2,-0.04l0.03 5.04c-0.51,0 -7.94,0.2 -8.34,-0.16z"/>
  <path class="fil5" d="M153.54 135.24c0.43,-0.06 0.78,-0.36 1.18,-0.61 0.38,-0.24 0.73,-0.44 1.13,-0.7 0.42,-0.27 1.96,-1.27 2.13,-1.56l-4.42 -0.04 -0.02 2.9z"/>
  <path class="fil13" d="M90.46 73.82c0.17,0.48 0.17,0.47 0.54,0.72l0.25 -0.11 3.76 0.04 0 1.06 -0.01 0.12 -0.74 0.06c0.31,0.28 1.76,0.21 2.06,0.01l-0.66 -0.07 -0.01 -1.21 3.37 -0.01 0.24 0.03 0 0.09c0.37,-0.3 0.32,-0.26 0.4,-0.77l-4.04 -0.1 -0.66 0.02c-0.36,0.28 -3.77,0.16 -4.51,0.12z"/>
  <path class="fil12" d="M141.95 73.68l-0.66 0.02c-0.39,0.26 -3.81,0.18 -4.49,0.06 0.09,0.41 -0.02,0.17 0.19,0.5 0.19,0.29 0.13,0.18 0.33,0.33 0.24,-0.21 -0.1,-0.07 0.36,-0.15l3.68 -0 -0 1.21 -0.8 0.06c0.31,0.28 1.76,0.21 2.06,0.01l-0.66 -0.08 -0.01 -0.11 0 -1.06c0.61,-0.08 3.3,-0.21 3.66,0.06 0.18,-0.13 0.38,0.02 0.41,-1.06 0.01,-0.48 0,-0.98 0,-1.46 -0.46,-0.06 -0.04,-0.04 -0.22,0.14l0.02 1.68c-0.79,0.01 -3.4,0.21 -3.86,-0.14z"/>
  <path class="fil12" d="M130.57 101.45c-0.14,-0.45 -0.11,-3.43 0.05,-3.88 0.93,0 5.94,-0.14 6.37,0.08 0.39,-0.14 0.8,-0.36 1.03,-0.68l-7.44 0.02 -0.01 -8.48c-0.43,0.45 -0.2,2.37 -0.2,3.05l0 9.84c0.22,0.43 0.07,0.2 0.21,0.05z"/>
  <path class="fil13" d="M125.2 108.58c0.05,0.24 0.02,0.2 0.13,0.41 0.15,0.31 0.14,0.22 0.3,0.37 0.18,-0.21 -0.07,-0.23 0.98,-0.21l3.17 0.04 -0.04 1.5 0.67 0 -0.04 -1.5c0.65,-0.06 1.31,-0.03 1.96,-0.03 0.49,0 1.44,-0.17 1.81,0.18 0.15,-0.17 0.07,0.15 0.21,-0.33 0.08,-0.28 0.05,-0.23 0.06,-0.55 -0.61,0.17 -2.94,0.25 -3.39,-0 -0.97,0.12 -1.58,0.12 -2.54,-0.01 -0.03,0.02 -0.07,0.03 -0.09,0.04 -0.03,0.01 -0.07,0.03 -0.1,0.03l-1.43 0.05c-0.55,-0 -1.1,-0.01 -1.65,0.02z"/>
  <path class="fil9" d="M120.07 108.43l0.16 0.08c0.02,0.01 0.06,0.02 0.09,0.03l0.69 0.03c0.97,-0.01 2.86,0.09 3.55,-0.11l0 -2.56 -4.49 2.53z"/>
  <path class="fil14" d="M107.38 101.46c-0.25,-0.39 -0.1,-3.19 -0.1,-3.88l5.12 -0.02c0.6,0.03 0.38,-0.13 0.53,0.29 0.2,-0.22 0.05,0.02 0.24,-0.4 0.12,-0.27 0.11,-0.29 0.2,-0.55l-6.08 0.06 -0.01 -7.48c0.14,-0.13 -0.2,-0.28 0.21,-0.05 -0.12,-0.2 0.16,-0.12 -0.37,-0.25 0,1.12 -0.16,12.33 0.09,12.34 0.29,0.01 -0.04,0.11 0.17,-0.08z"/>
  <path class="fil5" d="M119.28 53.59c0.64,-0.09 1.35,-0.7 1.95,-1.06 0.64,-0.39 1.25,-0.73 1.86,-1.13l-0.37 -0.13c-0.13,-0.02 -0.45,-0.01 -0.6,-0.01l-3.29 0.01 -0.04 2.27 0.5 0.05z"/>
  <path class="fil15" d="M141.2 53.71c0.34,-0.16 0.16,-1.93 0.12,-2.39 -0.56,-0.12 -3.9,-0.15 -4.23,0.05 0.4,0.33 1.46,0.9 2,1.21 0.62,0.36 1.5,1.05 2.11,1.13z"/>
  <path class="fil9" d="M150.89 73.68c-0.73,-0.45 -1.33,-0.79 -2.03,-1.21 -0.52,-0.31 -1.58,-1.04 -2.12,-1.13l-0.03 2.48 3.23 0.01c0.4,0 0.72,0.04 0.95,-0.15z"/>
  <path class="fil12" d="M142.09 67.31l-0.06 -4.43 6.57 -0.01c0.26,-0 0.63,-0.01 0.84,0.18 0.43,-0.25 0.91,-0.43 1.19,-0.83 -2.35,0.27 -6.07,0.05 -8.6,0.05l0.01 -7.8 -0.16 12.79c0.22,0.37 0.04,0.24 0.21,0.04z"/>
  <path class="fil16" d="M165.14 86.12l10.86 -0.02 0 10.82 -10.82 0.03 -0.04 -10.83zm0 0c-0.01,0.02 -0.02,0.04 -0.03,0.08 -0,0.04 -0.02,0.06 -0.03,0.08 -0.02,0.13 -0.03,0.14 -0.04,0.3 -0.01,0.21 0,0.51 0,0.73 0,0.45 0,0.89 0,1.34 0,1.83 -0.11,7.2 0.04,8.29 0.57,0.27 10.49,0.26 10.99,-0.01l0.03 -10.84c-0.37,-0.15 -8.64,-0.19 -10.39,-0.1l-0.57 0.13z"/>
  <path class="fil12" d="M98.57 96.97c0.25,0.34 0.65,0.53 1.07,0.74 0.3,-0.2 0.25,-0.13 0.71,-0.14l5.99 0.01c0.25,0.67 0.1,2.86 0.1,3.71 -0.1,0.37 0.11,0.17 -0.21,0.17 0.12,0.19 -0.19,0.11 0.36,0.25 0.02,-2.16 0,-4.33 0,-6.49l-0.2 -6.44c0.12,0.9 0.14,7.5 -0.02,8.23l-7.81 -0.03z"/>
  <path class="fil17" d="M148.84 50.46c-0.41,0.21 -0.93,0.47 -1.19,0.83l5.07 -0.03 0 9.76c0.45,-0.18 0.19,-2.56 0.19,-3.11l-0.01 -9.35c-0.08,-0.37 0.05,-0.13 -0.18,-0.37l0 2.45 -3.05 0.01c-0.56,0 -0.63,0.01 -0.84,-0.19z"/>
  <path class="fil15" d="M141.95 53.79l4.09 -2.44c-0.22,-0.17 -3.52,-0.11 -4.1,-0.05l0.01 2.49z"/>
  <path class="fil12" d="M118.8 73.71l0 0.85c0.9,-0.3 8.49,-0.13 10.02,-0.11l-1.23 -0.74c-0.15,0.22 -8.08,0.27 -8.79,0.01z"/>
  <path class="fil11" d="M95.87 95.44c-0.25,-0.57 -0.28,-8.7 -0.06,-9.4l5.8 -0.02c-0.12,-0.14 -0.05,-0.07 -0.21,-0.21 -0.09,-0.07 -0.21,-0.15 -0.3,-0.21 -0.24,-0.15 -0.42,-0.25 -0.71,-0.37 -0.2,0.33 -1.74,0.14 -2.21,0.14 -0.81,0 -1.63,0 -2.45,0 -0.02,-0.57 -0.17,-2.38 0.1,-2.73 -0.13,-0.14 0.17,-0.2 -0.11,-0.09 -0.26,0.09 0.03,-0.17 -0.15,0.15l0 12.39c0.12,0.59 -0.01,0.15 0.3,0.35z"/>
  <path class="fil9" d="M148.84 50.46c0.21,0.2 0.29,0.19 0.84,0.19l3.05 -0.01 0 -2.45 -3.89 2.27z"/>
  <path class="fil9" d="M129.73 110.69l0.04 -1.5 -3.17 -0.04c-1.05,-0.02 -0.8,0 -0.98,0.21 0.9,0.86 2.44,1.23 4.11,1.33z"/>
  <path class="fil9" d="M104.11 73.68c-0.75,-0.41 -3.03,-1.87 -3.68,-1.96l-0.07 2.13 3.39 -0.01c0.33,-0.07 0.17,0.02 0.35,-0.16z"/>
  <path class="fil12" d="M123.57 97.98l-0.07 -0.4 6.29 0.06 0 -0.71 -6.73 0.05c0.1,0.37 0.18,0.75 0.5,1z"/>
  <path class="fil9" d="M130.4 110.69c1.46,-0.09 3.19,-0.45 3.72,-1.35 -0.36,-0.35 -1.32,-0.18 -1.81,-0.18 -0.65,0 -1.31,-0.03 -1.96,0.03l0.04 1.5z"/>
  <path class="fil9" d="M132.31 73.67c0.03,0.02 0.07,0.01 0.09,0.05 0.02,0.04 0.06,0.04 0.09,0.04l0.67 0.07c0.32,-0 0.65,-0.01 0.98,-0.01 0.61,0 1.22,0 1.82,0l-0.04 -2.2 -3.61 2.04z"/>
  <path class="fil13" d="M134.92 109.17l5.02 0.02c0.39,0.13 -0.01,-0.12 0.25,0.15 0.18,-0.09 0.21,-0.09 0.43,-0.24 0.36,-0.26 0.21,-0.05 0.32,-0.37l-0.6 -0.26c-0.17,0.23 -4.56,0.09 -5.24,0.09l-0 -2.9c0.15,-0.12 -0.21,-0.26 0.21,-0.05 -0.12,-0.2 0.15,-0.11 -0.36,-0.25l-0.03 3.81z"/>
  <path class="fil18" d="M106.49 87.97c0.29,-0.13 0.13,-1.56 0.09,-1.89 -0.58,-0.12 -2.98,-0.19 -3.38,0.05 0.44,0.38 2.8,1.76 3.29,1.84z"/>
  <path class="fil12" d="M134.81 62.99c0.33,-0.24 5.95,-0.19 6.51,0.02l-0 -0.85c-0.92,0.28 -5.77,0.1 -7.1,0.11 0.16,0.3 0.06,0.14 0.27,0.4 0.18,0.21 0.15,0.18 0.32,0.33z"/>
  <path class="fil9" d="M140.54 75.71l0.8 -0.06 0 -1.21 -3.68 0c-0.46,0.08 -0.12,-0.06 -0.36,0.15 0.73,0.58 1.99,1.21 3.24,1.11z"/>
  <path class="fil11" d="M134.63 86.14c0.9,-0.24 5.92,-0.28 6.7,0.06l-0.01 -0.96c-0.51,0.17 -5.24,0.23 -5.24,-0 -0.48,0.17 -1.13,0.49 -1.45,0.9z"/>
  <path class="fil13" d="M105.63 73.76c0.23,0.31 0.9,0.76 1.3,0.78 0.29,0.02 0.43,-0.11 0.67,-0.26 0.36,-0.23 0.41,-0.2 0.64,-0.5l-1.04 0.01 -0 -3.84 0.44 -0.09c0.04,-0.01 0.08,-0.03 0.11,-0.04l0.23 -0.1 -2.29 0 0.23 0.11c0.78,0.27 -0.41,-0.08 0.25,0.07 0.21,0.05 0.21,0.03 0.42,0.03l-0.01 3.93 -0.96 -0.1z"/>
  <path class="fil9" d="M94.25 75.71l0.74 -0.06 0.01 -0.12 0 -1.06 -3.76 -0.04 -0.25 0.11c0.28,0.59 2.28,1.24 3.25,1.16z"/>
  <path class="fil9" d="M142.61 75.72c1.05,0.09 2.65,-0.52 2.99,-1.19 -0.36,-0.27 -3.06,-0.14 -3.66,-0.06l0 1.06 0.01 0.11 0.66 0.08z"/>
  <path class="fil10" d="M129.74 52.63l-0.03 -1.33c-0.62,-0.04 -3.37,-0.11 -3.77,0.06l0.62 0.51c0.98,0.56 2.03,0.71 3.18,0.76z"/>
  <path class="fil9" d="M96.31 75.72c0.64,0.04 1.16,-0.11 1.73,-0.32 0.27,-0.1 0.5,-0.21 0.74,-0.35 0.36,-0.21 0.44,-0.17 0.48,-0.49l0 -0.09 -0.24 -0.03 -3.37 0.01 0.01 1.21 0.66 0.07z"/>
  <path class="fil12" d="M132.31 73.67c-0.41,0.22 -0.93,0.46 -1.2,0.82l5.24 -0.03c-0.27,-0.96 -0.19,-1.65 -0.19,-2.69 -0.06,-0.17 0.07,-0.09 -0.07,-0.15 -0.17,-0.07 -0.07,-0.03 -0.18,0.01l0.04 2.2c-0.61,0 -1.22,0 -1.82,0 -0.33,0 -0.65,0.01 -0.98,0.01l-0.67 -0.07c-0.02,-0.01 -0.07,-0.01 -0.09,-0.04 -0.02,-0.04 -0.06,-0.03 -0.09,-0.05z"/>
  <path class="fil10" d="M114.38 96.9c0.45,0.26 3.11,0.16 3.77,0.05l0.01 -1.03 -0.87 -0.05c-0.93,-0.09 -2.5,0.47 -2.91,1.03z"/>
  <path class="fil10" d="M106.56 80.31l0.72 -0.04 -0.05 -4.74 0.4 -0.07c-0.26,-0.2 -0.5,-0.15 -0.94,-0.16 -0.38,-0.01 -0.8,-0.04 -1.1,0.16l1.02 -0.08 -0.05 4.94z"/>
  <path class="fil10" d="M141.29 73.12l0.72 -0.03 -0.06 -4.76 0.47 -0.06 -0.5 -0.14c-0.45,-0.05 -1.49,-0.09 -1.75,0.17l1.17 -0.13 -0.05 4.95z"/>
  <path class="fil10" d="M129.72 80.3l0.71 -0.03 -0.06 -4.75 0.47 -0.07c-0.26,-0.19 -0.63,-0.16 -1.07,-0.17 -0.2,-0.01 -0.41,-0.02 -0.61,0.01 -0.45,0.06 -0.22,-0.02 -0.46,0.16l1.07 -0.07 -0.04 4.92z"/>
  <path class="fil12" d="M146.43 74.55c0.7,-0.28 4.81,-0.21 5.67,-0.06 -0.26,-0.35 -0.81,-0.63 -1.21,-0.81 -0.24,0.19 -0.56,0.15 -0.95,0.15l-3.23 -0.01 0.03 -2.48c-0.13,-0.15 -0.01,-0.38 -0.19,0.05 0,1.02 0.13,2.26 -0.12,3.16z"/>
  <path class="fil10" d="M94.98 73.13l0.71 -0.03 -0.07 -4.74 0.4 -0.1 -0.52 -0.13c-0.45,-0.05 -1.36,-0.09 -1.65,0.16l1.17 -0.11 -0.05 4.95z"/>
  <path class="fil10" d="M141.31 45.45l0.69 -0.03 -0.05 -4.76 0.3 -0.08c-0.33,-0.23 -1.55,-0.23 -1.87,0l0.97 0.04 -0.03 4.83z"/>
  <path class="fil10" d="M129.7 107.97c0.5,-0.02 0.93,0.07 1.25,-0.18l-0.58 0.03 0 -4.71 0.59 0.04c-0.32,-0.27 -0.68,-0.16 -1.19,-0.19l-0.06 5z"/>
  <path class="fil10" d="M118.13 59.28l0.71 -0.01c-0.14,-0.83 -0.06,-1.72 -0.06,-2.57 0,-0.41 0.01,-0.81 -0,-1.22 -0.01,-0.69 -0.18,-0.88 0.32,-1.05 -0.32,-0.19 -1.72,-0.25 -2.02,0.03l1.09 -0.03 -0.04 4.86z"/>
  <path class="fil9" d="M86.68 73.69c0.25,0.25 0.74,0.16 1.41,0.16 0.59,-0 1.16,0.01 1.75,-0.03l-0.03 -1.9 -3.14 1.78z"/>
  <path class="fil13" d="M94.84 81.24c0.04,0.04 0.13,0.21 0.43,0.22 0.37,0.01 0.35,-0.14 0.46,-0.28 -0.04,-0.09 -0.3,-4.16 0.14,-4.77l-1.09 0c0.02,0.03 0.05,0.06 0.06,0.09l0.11 0.18c0.14,0.34 0.06,1.73 0.06,2.13 0,0.59 0.22,1.98 -0.17,2.43z"/>
  <path class="fil11" d="M129.15 73.78c0.19,0.23 0.07,0.14 0.35,0.32 0.18,0.12 0.32,0.18 0.51,0.17 0.31,-0.01 0.65,-0.29 0.81,-0.52l-0.45 0.03 -0 -3.85 0.84 -0.23 -2.35 -0.01c0.03,0.02 0.08,0.01 0.11,0.05 0.02,0.05 0.08,0.04 0.11,0.05l0.7 0.14 -0 3.85 -0.61 -0z"/>
  <path class="fil18" d="M107.26 87.86c0.53,-0.07 1.05,-0.52 1.56,-0.83 0.39,-0.24 1.19,-0.59 1.38,-0.92 -0.27,-0.21 -2.47,-0.11 -2.95,-0.04l0.01 1.8z"/>
  <path class="fil13" d="M100.13 74.55c0.69,-0.26 4.34,-0.18 5.21,-0.08 -0.28,-0.35 -0.8,-0.6 -1.23,-0.8 -0.19,0.17 -0.02,0.09 -0.35,0.16l-3.39 0.01 0.07 -2.13c-0.18,-0.21 -0.06,-0.24 -0.21,0.05 0,0.91 0.1,1.97 -0.08,2.79z"/>
  <path class="fil13" d="M119.52 109.37c0.13,-0.23 -0.2,-0.24 1.25,-0.22 0.44,0.01 0.89,0 1.34,0 0.81,0 1.94,-0.19 2.65,0.15l-0.2 -0.85c-0.69,0.2 -2.57,0.1 -3.55,0.11l-0.69 -0.03c-0.03,-0.01 -0.07,-0.02 -0.09,-0.03l-0.16 -0.08 -1 0.59 0.45 0.35z"/>
  <path class="fil19" d="M117.86 108.28c0.15,0.2 0.18,0.31 0.51,0.34 0.1,0.01 0.23,-0.03 0.3,-0.07 0.28,-0.15 0.17,-0.12 0.3,-0.24 -0.25,-0.26 -0.11,0.07 -0.17,-0.46l0.01 -3.82 -0.65 0 -0 4.19c-0.18,0.15 0.25,0.29 -0.28,0.07z"/>
  <path class="fil19" d="M117.93 94.74c0.4,0.35 0.63,0.37 0.97,-0.08 -0.26,-0.38 -0.1,-3.73 -0.1,-4.46l-0.65 -0.01 0.01 3.57c0.02,1.12 -0.02,0.87 -0.22,0.98z"/>
  <path class="fil14" d="M129.54 60.4c0.1,0.14 0.09,0.29 0.47,0.31 0.35,0.01 0.38,-0.13 0.51,-0.27 -0.25,-0.3 -0.16,-0.58 -0.16,-1.07 0.01,-0.37 0,-0.73 0,-1.1 0,-0.79 0,-1.57 0,-2.36l-0.61 0.01 0 4.29c-0.09,0.3 0.09,0.18 -0.22,0.18z"/>
  <path class="fil20" d="M90.46 73.82c0.74,0.04 4.15,0.16 4.51,-0.12 -0.96,-0.04 -1.84,-0.14 -2.65,-0.47 -1.31,-0.54 -1.51,-0.99 -1.89,-1.17l0.02 1.76z"/>
  <path class="fil9" d="M130.49 87.74c0.34,-0.04 0.26,-0.04 0.64,-0.27 0.22,-0.14 0.46,-0.28 0.68,-0.41 0.5,-0.3 0.86,-0.51 1.33,-0.81 -0.06,-0.13 0.17,-0.15 -0.58,-0.21l-2.2 0.05c0,0.48 -0.15,1.32 0.13,1.66z"/>
  <path class="fil20" d="M136.79 73.76c0.68,0.11 4.1,0.19 4.49,-0.06 -3.25,-0.09 -3.84,-1.3 -4.52,-1.63l0.03 1.7z"/>
  <path class="fil10" d="M130.4 52.6c0.96,-0.1 2.69,-0.52 3.01,-1.13 -0.11,-0.23 0.18,-0.16 -0.24,-0.2l-2.81 0.04 0.05 1.28z"/>
  <path class="fil11" d="M141.2 80.81c0.07,0.09 -0.05,0.21 0.37,0.27 0.19,0.03 0.09,0.03 0.26,-0.04 0.22,-0.09 0.14,-0.08 0.25,-0.18 -0.27,-0.38 -0.16,-3.93 -0.08,-4.18 0.01,-0.03 0.03,-0.07 0.04,-0.09l0.11 -0.18 -0.97 0.01c0.32,0.61 0.16,1.56 0.16,2.28 0,0.56 0.2,1.75 -0.14,2.12z"/>
  <path class="fil10" d="M121.99 96.91c-0.07,-0.23 -0.17,-0.25 -0.45,-0.4 -0.22,-0.12 -0.47,-0.22 -0.67,-0.31 -0.55,-0.23 -1.01,-0.37 -1.62,-0.33l-0.46 0.06 0.02 1c0.48,0.1 2.91,0.18 3.19,-0.03z"/>
  <path class="fil9" d="M129.53 87.63c0.33,-0.02 0.23,0.14 0.23,-1.54 -0.33,-0.04 -2.1,-0.12 -2.42,0.01 -0.41,0.16 -0.03,-0.15 -0.3,0.2 0.69,0.3 1.92,1.24 2.48,1.33z"/>
  <path class="fil9" d="M141.95 73.68c0.46,0.35 3.07,0.15 3.86,0.14l-0.02 -1.68c-1.09,0.85 -1.94,1.4 -3.84,1.54z"/>
  <path class="fil9" d="M95.63 73.68l4.04 0.1 -0.01 -1.78c-0.33,0.2 -0.37,0.34 -0.76,0.61 -0.96,0.66 -2.06,0.98 -3.27,1.07z"/>
  <path class="fil14" d="M129.73 115.29c0.22,0.14 0.08,0.13 0.38,0.08 0.39,-0.08 0.27,-0.13 0.39,-0.28 -0.29,-0.35 -0.21,-3.31 -0.01,-3.82l-0.96 -0.01 0.12 0.18c0.22,0.47 0.17,2.77 0.08,3.85z"/>
  <path class="fil20" d="M131.01 108.45c0.45,0.25 2.78,0.17 3.39,0l0 -1.59c-0.42,0.19 -0.79,0.68 -1.45,1 -0.58,0.28 -1.22,0.48 -1.94,0.58z"/>
  <path class="fil13" d="M85.46 74.5c0.73,-0.12 3.85,-0.14 4.57,-0l-0.19 -0.69c-0.59,0.05 -1.16,0.03 -1.75,0.03 -0.67,0 -1.16,0.09 -1.41,-0.16 -0.42,0.2 -0.95,0.44 -1.22,0.81z"/>
  <path class="fil20" d="M125.2 108.58c0.55,-0.03 1.1,-0.03 1.65,-0.02l1.43 -0.05c0.03,-0.01 0.07,-0.03 0.1,-0.03 0.02,-0.01 0.06,-0.02 0.09,-0.04 -0.64,-0.05 -1.29,-0.28 -1.81,-0.53 -0.66,-0.32 -1,-0.73 -1.52,-0.95l0.06 1.62z"/>
  <path class="fil10" d="M117.2 86.77l0.94 -0.05 0 -0.64c-0.49,-0.1 -2.83,-0.16 -3.1,0.05 0.28,0.39 1.51,0.68 2.16,0.64z"/>
  <path class="fil11" d="M105.74 69.04c0.31,0.23 1.92,0.24 2.25,-0l-0.78 -0.05 0.02 -1.96 -1.04 -0.01c0.07,0.04 0.13,0.07 0.24,0.14l0.16 1.89 -0.85 -0.01z"/>
  <path class="fil21" d="M117.28 103.3c0.33,0.25 1.87,0.19 2.13,0.11 0.28,-0.08 0.09,0 0.24,-0.12l-0.86 0.05 0.08 -2.06 -0.9 0.03c0.31,0.55 0.18,1.4 0.16,2.05l-0.86 -0.06z"/>
  <path class="fil21" d="M117.24 89.46l0.49 0.17c0.16,0.02 0.44,0 0.61,0 0.47,-0 0.87,0.06 1.26,-0.15l-0.8 0.08c0,-0.68 -0.13,-1.51 0.15,-2.11l-1.61 -0.02 0.81 0.24 -0 1.88 -0.91 -0.1z"/>
  <path class="fil11" d="M140.49 48.02c0.3,0.23 1.22,0.18 1.68,0.15l0.57 -0.15 -0.79 -0.04 0.07 -1.96 -1.11 -0.01 0.43 0.24 -0.01 1.8 -0.84 -0.03z"/>
  <path class="fil14" d="M128.82 55.19c0.32,0.25 0.7,0.17 1.18,0.17 0.2,0 0.43,0.02 0.62,0l0.59 -0.17 -0.84 0.06c-0.01,-0.67 -0.1,-1.61 0.11,-2.08l-1.36 0.01 0.64 0.25 -0.01 1.83 -0.92 -0.06z"/>
  <path class="fil13" d="M105.86 82.89c0.22,0.15 0,0.09 0.45,0.14 0.18,0.02 0.42,0 0.61,0 0.34,-0 0.94,0.08 1.12,-0.15l-0.82 -0.06 -0 -1.95 -0.72 0.01c0.19,0.6 0.12,1.31 0.09,1.96l-0.74 0.05z"/>
  <path class="fil14" d="M129.02 69.05c0.35,0.22 1.61,0.21 1.99,0.01l-0.64 -0.08 0.01 -1.96 -1.02 0 0.4 0.24 -0.01 1.77 -0.73 0.01z"/>
  <path class="fil14" d="M117.4 61.87c0.27,0.19 1.25,0.18 1.67,0.14l0.45 -0.14 -0.74 -0.07 -0 -1.96 -0.84 0.02c0.33,0.34 0.24,0.4 0.23,0.97 -0,0.32 0,0.66 -0.02,0.98l-0.76 0.06z"/>
  <path class="fil11" d="M129.05 82.89l0.47 0.13c0.35,0.03 1.46,0.05 1.62,-0.15l-0.77 -0.06 -0 -1.96 -0.71 0.03c0.19,0.59 0.12,1.3 0.1,1.93l-0.7 0.08z"/>
  <path class="fil10" d="M119.03 86.78c0.82,0.07 1.78,-0.25 2.28,-0.67 -0.38,-0.2 -2.03,-0.14 -2.5,-0.03l-0.02 0.62 0.24 0.07z"/>
  <path class="fil10" d="M126.6 62.14l3.16 0.1 0.01 -0.63 -1.02 0c-0.86,-0.08 -1.46,0.27 -2.14,0.53z"/>
  <path class="fil10" d="M103.51 62.12l3.08 0.14 0.01 -0.65 -0.98 -0.01c-0.81,-0.07 -1.43,0.24 -2.11,0.52z"/>
  <path class="fil10" d="M132.96 62.13c-0.65,-0.23 -1.45,-0.62 -2.26,-0.52l-0.35 0.08 0.01 0.57c0.18,0.01 2.42,0.11 2.5,-0.07 0.02,-0.04 0.06,-0.03 0.09,-0.05z"/>
  <path class="fil5" d="M139.53 96.9c0.37,0.2 1.25,0.09 1.77,0.08 0.03,-0.17 0.09,-0.38 0.07,-0.56 -0.07,-0.65 0.05,-0.27 -0.25,-0.52l-1.6 0.99z"/>
  <path class="fil12" d="M123.4 85.3l0.01 0.8 1.93 -0.05c-0.27,-0.38 -0.8,-0.62 -1.21,-0.82 -0.17,0.21 0.26,0.12 -0.32,0.16 -0.22,0.02 -0.18,-0.02 -0.41,-0.09z"/>
  <path class="fil10" d="M109.71 62.13c-0.67,-0.29 -1.4,-0.64 -2.19,-0.54l-0.32 0.08 0.01 0.54 2.5 -0.09z"/>
  <path class="fil22" d="M111.78 86.04l1.01 -0.03c0.1,0.38 0.08,0.44 0.08,0.83 -0,0.48 -0.1,0.57 0.18,0.85l-0.06 -2.44c-0.41,0.11 -0.29,0.1 -0.64,0.33 -0.06,0.04 -0.3,0.18 -0.3,0.18 -0.28,0.21 -0.12,0.09 -0.27,0.28z"/>
  <path class="fil23" d="M97.01 96.89l-1.23 -0.69c-0.21,0.3 -0.15,0.3 -0.09,0.75 0.37,0.04 1.12,0.14 1.32,-0.07z"/>
  <path class="fil24" d="M71.36 62.15c0.19,0.16 -0.07,0.23 0.51,0.06 0.01,-0.32 0.1,-0.84 -0.08,-1.07l-0.43 1.01z"/>
  <path class="fil25" d="M177.3 62.23l-0.41 -0.8c-0.31,-0.26 -0.23,0.34 -0.23,-0.23l0.01 1.04 0.63 -0.01z"/>
  <path class="fil25" d="M152.14 62.13c0.16,0.26 0.43,0.16 0.78,0.09 0.01,-0.54 0.07,-0.27 -0.15,-0.35 -0.34,0.05 -0.33,0.07 -0.63,0.27z"/>
  <path class="fil23" d="M123.4 85.3c0.22,0.06 0.19,0.1 0.41,0.09 0.58,-0.04 0.16,0.05 0.32,-0.16l-0.71 -0.39 -0.02 0.46z"/>
 </g>
</svg>
